<?xml version="1.0" encoding="utf-8"?>
<!-- Generator: Adobe Illustrator 21.1.0, SVG Export Plug-In . SVG Version: 6.00 Build 0)  -->
<svg version="1.1" id="Layer_1" xmlns="http://www.w3.org/2000/svg" xmlns:xlink="http://www.w3.org/1999/xlink" x="0px" y="0px"
	 viewBox="0 0 3841 3707" style="enable-background:new 0 0 3841 3707;" xml:space="preserve">
<style type="text/css">
	.st0{stroke:#000000;stroke-miterlimit:10;}
	.st1{fill:#F15A24;stroke:#F15A24;stroke-miterlimit:10;}
</style>
<title>Artboard 9</title>
<rect x="-22" y="-0.5" class="st0" width="3889" height="3706"/>
<path class="st1" d="M1874.1,3641.9c3.6-3.1,6.9-6.7,10.3-10c2.9-3.3,6-6.4,9.3-9.3c59.2-52.9,122.3-82,177.3-82l0,0
	c54.4,0,100.4,26.9,136.7,80c19.7,28.7,35.4,63,44.9,97.2h-1.9c-9.7-34.2-24.6-66.7-44.4-96.3c-36.1-52.4-81.6-79.2-135.4-79.2l0,0
	c-54.6,0-117.1,29.1-176.2,81.5c-3.1,2.8-6,6-9.2,9.3s-6.8,6.9-10.3,10.3c-26.6,23.2-55.1,44.6-82.7,65.2c-4.1,3.1-8.1,6-12.3,9.2
	h-2.9c4.7-3.6,9.5-7.1,14.3-10.7C1819.3,3686.4,1847.7,3665.1,1874.1,3641.9z"/>
<path class="st1" d="M117,3470c38.4,35.7,78.2,72.8,103.6,125.8c12.8,26.9,25.5,69.5,31.3,122H250c-5.7-52.3-18.4-94.6-31.1-121.4
	c-25.2-52.4-64.8-89.4-103.2-125.1c-44.7-41.6-90.8-84.4-113.6-152.2c-0.8-2-1.5-4-2-6.1v-6c1.1,4,2.4,7.9,3.6,11.5
	C26.6,3385.8,72.6,3428.6,117,3470z"/>
<path class="st1" d="M2057.9,3622.9L2057.9,3622.9c18.8,0,37.1,6.5,53.9,19.3c15.8,11.9,23.5,24,31.6,36.6
	c3.3,5.3,6.9,10.8,11.1,16.4c3.2,7.3,5.9,14.9,8.1,22.6h-1.9c-2.2-7.3-4.8-14.5-7.7-21.5c-4-5.3-7.7-10.8-11.1-16.5
	c-8-12.5-15.7-24.3-31.1-36c-16.8-12.7-34.4-19.1-52.9-19.1l0,0c-49.5,0-97,44-138.8,82.7l-11.2,10.4h-2.7
	c4.1-3.9,8.3-7.6,12.5-11.6C1959.8,3667.1,2007.7,3622.9,2057.9,3622.9z"/>
<path class="st1" d="M32.6,3157.7c8.9,46.1,17.2,89.8,30,120.6c21.6,52.5,66.6,96.7,114,143.5c29.3,28.7,59.5,58.3,84.9,91
	c31.9,40.7,53.2,75.9,71.1,117.5c10.5,24.5,19.6,52.8,28.4,80.2c0.8,2.4,1.7,4.9,2.4,7.4h-1.9c-0.7-2.3-1.5-4.5-2.3-6.8
	c-8.7-27.3-17.7-55.6-28.3-80c-17.9-41.5-39.1-76.6-71-117.1c-25.5-32.4-55.6-62.1-84.7-90.7c-47.6-47.1-92.7-91.4-114.5-144.2
	c-12.8-30.9-21.2-74.7-30-121c-8.5-44.6-17.3-90.7-30.4-124.3c-0.1-0.2-0.2-0.5-0.3-0.8v-4.7c0.6,1.6,1.3,3.2,2,4.8
	C15.4,3066.9,24.2,3113.1,32.6,3157.7z"/>
<path class="st1" d="M178.3,2582.6c62-24.8,139.1-55.5,168.6-118.3c2-34.3-10-63.5-22.8-94.3c-18-43.2-38.4-92.2-27-168.7
	c8.8-58.1,43-95.5,82.6-138.7c16.4-17.9,33.1-36.3,49.1-57.2c41.7-55,70.3-117,92.4-170.5c22.3-53.2,39.7-95.2,98.2-109.2
	c34.9-8.4,83.8-14.3,117.2-17.7c17-1.9,34.1-2.9,51.2-3.1c25.7,0,47.9,2.8,66.5,8.3c39.6,11.8,64.8,44,96.6,84.8
	c9.5,12.1,19.2,24.5,30.3,37.8c7.5,9.1,17.3,18.9,27.9,29.6c21.9,22,44.4,44.8,50.7,63.1c2.3,7.1,1.6,13.5,1.1,20.8
	c-0.8,6.3-0.9,12.7-0.4,19.1l0.1,0.4l-0.3,0.3c-21.2,28-47,50.4-71.9,72.3c-42.3,37.1-82.4,72-97.5,129.5c-8,30.3-5.1,62.7,8.8,99.1
	c14.8,38.4,49.2,80.7,97.2,118.8c21.6,17.2,44.5,35.1,68.8,54.1c111.4,86.8,237.7,185.2,306.6,271l0.1,0.5
	c2.3,10.5,1.5,22.5-1.6,35.7c-8.9,36-37.1,78.8-77.4,117.5c-38.4,36.7-82,64.2-116.8,73.8c-2.8,0.8-8.3,2.3-14.1,3.5
	c-46.4,10.4-94.6,3.2-141-3.7c-40.2-6-78.3-11.7-115.2-6.9c-79.9,10.5-137.4,64-157.7,146.7c-26.7,108.6,47.1,176.7,118.4,242.7
	c52.5,48.8,107.1,99.1,121.4,165.5c13.6,62.6-4.1,130-15.9,174.7c-4.7,18-10.4,36-16.5,53.9h-1.9c6.3-18,11.9-36.1,16.7-54.4
	c11.6-44.4,29.3-111.6,15.9-173.8c-14.1-65.9-68.4-116-121-164.6c-71.6-66.3-145.8-134.8-118.8-244.5
	c20.4-83.4,78.7-137.4,159.2-147.9c37.1-4.8,75.2,0.8,115.6,6.8c46.3,6.9,94.2,14,140.3,3.7c5.7-1.2,11.3-2.7,14.1-3.5
	c69.1-18.9,173.7-112.3,192.7-189.8c3.3-13.1,3.9-24.8,1.9-34.9c-69-85.6-195-184.1-306.2-270.7c-24.4-18.9-47.3-36.8-69-54
	c-48.1-38.4-82.8-80.8-97.6-119.8c-14-36.7-16.9-69.4-8.9-100c15.3-58,55.5-93.4,98-130.6c24.8-21.6,50.3-44,71.5-71.6
	c-0.5-6.4-0.4-12.7,0.3-19.1c0.8-7.2,1.3-13.3-0.9-20c-6.1-17.9-28.4-40.7-50.3-62.6c-10.4-10.5-20.4-20.5-27.9-29.6
	c-11.1-13.1-20.9-25.6-30.4-37.9c-31.6-40.5-56.6-72.6-95.6-84.2c-29.8-8.8-68-10.5-117-5.2c-33.6,3.6-82.3,9.5-117.1,17.7
	c-57.5,13.6-75,55.3-97,108.2c-22.3,53.6-50.7,115.8-92.6,171c-16,20.9-32.8,39.3-49.1,57.2c-39.5,43-73.5,80.2-82.1,137.8
	c-11.5,76,8.8,124.7,26.7,167.8c12.8,31.1,25.1,60.4,23.1,95.2l-0.1,0.4c-29.7,63.3-107.2,94.4-169.5,119.1
	c-16.9,6.8-34.4,13.7-53.5,17.9c-41.2,9-83.1,14.4-125.2,16.3v-1.9c39.2-1.3,81-6.8,124.8-16.1
	C144,2596.2,161.4,2589.3,178.3,2582.6z"/>
<path class="st1" d="M1082.9,3665.9c4.8-18.4,10.4-36.8,15.9-54.8c11.8-39.6,22.8-77.1,27.2-110.6c3.3-23.9,3.3-48.5,0.1-65.8
	c-9.2-51.8-44-92-77.6-131.1c-38.5-44.7-78.4-91.1-81.5-155.5c4.1-57.4,68.8-65.8,137.2-74.4c12.5-1.7,25.6-3.3,38.2-5.3
	c50.1-8,107.9-24,167-46.1c20.7-7.9,40.6-17.6,59.9-27.1c36.8-18.3,71.6-35.6,112.3-40.1c5.3-0.5,10.6-0.8,15.9-0.8
	c27.6,0,51.6,7.7,72.2,15.1c20.8,7.3,38.7,15.2,56,23.1c37.2,16.4,72.3,31.9,126.4,36.7c9.7,1,19.5,1.5,29.2,1.5
	c58.8,0,108-15.5,155.8-30.4c41.1-13.1,80.2-25.2,120.6-25.2c7.9-0.1,15.8,0.4,23.6,1.5c61.4,7.7,108.6,39.5,144,97.2
	c31.3,50.9,49.3,115.4,64.4,177.4c4.4,18.1,12.1,52.1,14.8,76.8c2.7,23.2-0.9,40.1-11.2,51.9c-18.5,21.5-55.8,22.8-98.8,24.1
	c-19.6,0.7-39.7,1.3-59.9,4c-84.8,10.9-155.9,21.9-234.6,54.8c-64.8,26.9-129.6,60.7-172.7,84c-72.3,39.6-154.2,88.6-211.9,171.1
	h-2.1c58-83.4,140.3-133,213.3-172.7c43-23.5,107.8-57.1,172.7-84.2c78.8-32.8,150.2-43.9,235.1-54.9c20.1-2.5,40.4-3.2,60-4
	c42.7-1.3,79.6-2.5,97.8-23.5c9.7-11.3,13.3-27.9,10.7-50.6c-2.8-24.5-10.4-58.4-14.8-76.6c-29.9-123.4-72.8-256.5-207-273.3
	c-7.7-0.9-15.5-1.4-23.3-1.3c-40.1,0-79,12.1-120.2,25.1c-47.7,14.9-97.1,30.4-156.2,30.4c-9.7,0-19.6-0.4-29.3-1.3
	c-54.4-4.8-89.6-20.5-127-37.1c-17.3-7.6-35.2-15.6-55.9-22.9c-20.4-7.2-44.4-14.8-71.6-14.8c-5.2,0-10.4,0.3-15.6,0.8
	c-40.3,4.4-75,21.6-111.8,39.7c-19.3,9.6-39.2,19.5-60,27.2c-59.2,22.3-117.1,38.3-167.2,46.3c-12.7,2-25.7,3.7-38.3,5.2
	c-67.6,8.8-131.7,17.1-135.8,72.9c3.1,63.5,42.8,109.6,81.1,154.3c33.9,39.1,68.7,79.8,78.2,131.8c3.2,17.5,2.9,42.3-0.1,66.4
	c-4.5,33.8-15.7,71.1-27.5,110.7c-5.3,18-10.8,36.7-15.9,55c-3.2,11.9-6.5,24-10,35.7c-1.5,5.1-2.8,10.4-4.4,15.6h-1.9
	c1.6-5.5,3.2-10.8,4.5-16.1C1076.3,3689.9,1079.6,3677.9,1082.9,3665.9z"/>
<path class="st1" d="M124.5,3599.2c18.1,28.1,34.4,62,34.7,118.6h-1.7c-0.4-56-16.4-89.8-34.4-117.6c-22.9-35.4-56-56.5-91.2-79.1
	c-10.5-6.8-21.2-13.6-31.6-20.9v-2.1c10.7,7.4,21.7,14.5,32.5,21.4C68,3542.1,101.3,3563.5,124.5,3599.2z"/>
<path class="st1" d="M1199.8,3557.9c10.8-24.3,22.1-49.1,25.9-75.1c10.5-71.2-26.3-117.5-61.8-162.4c-24.4-30.5-47.2-59.4-54.3-94.8
	c-1.9-8.9-1.3-14.4-0.9-21.5c0.3-3.7,0.5-7.7,0.5-13.2v-0.3c9.1-25.2,36.1-43,57.3-53.4c76.6-37.9,201.3-55.8,292.2-68.8
	c13.7-1.9,27.6-2.9,41.5-2.9l0,0c35.3,0,68.2,6,102.8,12.3c37.1,6.7,75.5,13.7,119.8,13.7c11.7,0,23.7-0.5,35.3-1.5
	c2.4-0.3,9.1-0.7,17.6-1.2c12.5-0.7,28.3-1.5,39.3-2.4c37.1-2.8,66.4-9.3,94.7-15.7c37.9-8.4,73.3-16.4,126-16.4
	c5.5,0,11.2,0.1,16.9,0.3c41.9,6.5,80.3,50.7,95.6,109.9c12.7,48.9,9.7,114-36.4,150c-54.3,42.3-212.5,79.4-297.4,86.2
	c-18.1,1.6-33.2,1.7-47.8,1.7c-16.3,0.1-32.9,0.3-54.8,2.1c-58.6,5.3-107,28.4-162.1,77.2c-68.2,60.6-105.1,107.4-157.9,200.1
	c-5.7,10-11.1,22.3-16,36h-2c5.2-14,10.5-26.7,16.5-36.8c52.8-93,89.8-139.8,158.3-200.6c55.2-49.1,104-72.3,163-77.6
	c21.9-2,38.7-2.1,54.9-2.1c15.2-0.1,29.5-0.3,47.6-1.7c84.7-6.9,242.3-43.7,296.6-85.9c45.4-35.4,48-99.8,35.6-148.2
	c-15.1-58.4-53.1-102-94.2-108.6c-5.6-0.1-11.2-0.3-16.7-0.3c-52.3,0-88,8.1-125.7,16.4c-28.4,6.4-57.7,12.9-95,15.7
	c-11.1,0.8-26.8,1.9-39.3,2.5c-8.5,0.4-15.2,0.8-17.6,0.9c-11.8,1.1-23.6,1.7-35.5,1.6c-44.4,0-83-6.9-120-13.7
	c-34.7-6.3-67.4-12.1-102.6-12.1l0,0c-13.8-0.1-27.6,0.9-41.2,2.8c-90.8,13.1-215.4,30.8-291.7,68.7c-20.8,10.1-47.5,27.6-56.3,52.3
	c-0.1,5.3-0.4,9.3-0.5,13.1c-0.7,6.9-1.1,12.3,0.8,21.1c7.1,34.8,29.8,63.6,53.9,94c35.9,45.1,72.8,91.8,62.1,163.8
	c-3.9,26.1-15.1,51.4-26,75.5c-4.3,9.5-8.8,19.3-12.7,29.2c-14,34.8-30.4,81.6-40.8,130h-1.7c10.5-48.7,26.9-95.9,40.9-130.9
	C1191,3577.2,1195.4,3567.3,1199.8,3557.9z"/>
<path class="st1" d="M185,2838.6c24.7,27.5,46.5,56.8,69.8,87.8c36.8,49.1,74.8,99.8,123.9,141.6c3.5,3.2,6.9,6.7,10.1,10.1
	c2.9,3.2,6.1,6.4,9.3,9.3c32,28.3,68.7,51,104,72.7c24.5,15.2,50,30.8,73.9,48.4c18.9,14,38,28.7,56.3,42.8
	c27.9,21.6,56.7,43.7,85.8,63.8c13.7,9.5,28,18.6,43.2,28.1c74.2,47.3,158.2,101,171,197.9c6.8,51.2-6.7,117.2-35.3,176.6h-1.9
	c28.7-59.2,42.2-125.2,35.5-176.4c-12.8-96.2-96.4-149.5-170.3-196.5c-15.1-9.6-29.3-18.8-43.1-28.1c-29.2-20.1-58-42.4-85.8-63.9
	c-18.3-14.2-37.3-28.8-56.5-42.8c-23.7-17.5-49.1-33.2-73.6-48.3c-35.5-22-72.1-44.7-104.2-73c-3.5-2.9-6.5-6.4-9.6-9.5
	c-3.1-3.5-6.5-6.8-10-9.9c-49.2-42-87.4-92.8-124-141.9c-23.2-31.1-45.2-60.3-69.8-87.6c-48.4-53.9-112.7-91-183.5-105.8v-1.9
	C71.5,2747.2,136.2,2784.4,185,2838.6z"/>
<path class="st1" d="M75.7,2907.7c23.9,34.8,24,98,21.5,149.2c-2,41.3-1.3,120.3,25.7,185.9c20.9,50.1,70.6,94.8,118.6,137.8
	c7.3,6.7,14.5,13.2,21.6,19.7c96.2,87.6,143.9,166.5,185.9,257.6c3.6,7.7,6.7,16,9.7,24c3.7,10.2,7.9,20.2,12.7,30
	c0.9,2,2,4,2.9,5.9h-2c-0.8-1.7-1.7-3.4-2.7-4.9c-4.7-9.9-8.9-20-12.5-30.3c-3.1-8-6.1-16.1-9.9-23.9
	c-41.8-91.1-89.3-169.7-185.3-257.2c-7.1-6.5-14.4-12.9-21.6-19.5c-48.1-43.2-98-87.9-119-138.6c-27.2-65.9-27.9-145.2-25.9-186.6
	c2.5-51.1,2.3-113.9-21.2-148.3c-17.1-24.7-44.3-42.3-74-57.4v-2C30.5,2864.6,58.2,2882.3,75.7,2907.7z"/>
<path class="st1" d="M26.7,3668.8c11.6,12,16.5,30.7,16.5,48.9h-2c0-18-4.9-36.4-15.8-47.8c-7.6-7.9-16.3-12.1-25.3-12.1v-1.7l0,0
	C9.7,3656.1,18.9,3660.6,26.7,3668.8z"/>
<path class="st1" d="M574.6,3689.5c-25.3-29.9-43.9-70.7-61.7-110.2c-2.8-6-5.5-11.9-8.1-17.9c-26.1-56.3-58.5-126.4-94-174.3
	c-19.2-26.1-50.9-44.9-84.5-64.8c-47.6-28.1-96.8-57.4-116-111c-6.9-19.3-7.1-40.5-0.3-67.1c6.7-14.8,18.3-22.3,34.3-22.3l0,0
	c26.4,0,57.6,20.4,70.4,31.3c25.5,21.5,47.9,51.2,69.4,80.2c11.6,15.3,23.5,31.5,35.8,46.1c6,6.8,26.5,30.3,43.7,40.4
	c40.8,24,93.1,42.4,148.4,61.9c77,26.9,156.3,54.8,205.8,100.2c26.4,23.7,42,61.1,43.3,102.2c1.2,44-14,85.8-43.2,117.8
	c-5.2,5.7-10.8,11-16.8,15.8h-2.9c6.6-5.2,12.7-10.9,18.4-17.1c28.8-31.5,44-72.8,42.7-116.3c-1.1-40.6-16.7-77.5-42.5-101
	c-49.3-44.9-128.7-72.8-205.3-99.8c-55.5-19.5-107.8-37.9-148.7-62c-17.7-10.5-38.3-34-44.1-40.9c-12.5-14.6-24.4-30.7-36-46.3
	c-21.5-28.7-43.6-58.3-69-79.6c-12.7-10.8-43.5-31.1-69.4-31.1c-15.3,0-26.3,7.1-32.7,21.2c-6.5,25.9-6.4,46.8,0.4,65.9
	c18.9,52.9,67.9,81.9,115.2,109.9c33.8,20,65.6,39,85.2,65.5c35.3,47.9,67.8,118.2,94,174.5c2.7,6,5.3,12,8.1,18
	c17.9,39.4,36.4,79.9,61.6,109.6c9.5,11.3,20.5,21.2,32.7,29.5h-3.1C594.2,3709.6,583.8,3700.2,574.6,3689.5z"/>
<path class="st1" d="M1279.9,3233.5c-4.4,46.7,43.9,75.2,90.6,82l0.1,0.1l0.1-0.1c27.5-7.1,52.7-15.7,59.5-42.1
	c3.5-14.1,0.5-27.9-8.8-40c-15.5-19.9-47.1-33.4-79-33.4l0,0c-22.4,0-41.9,6.8-54.9,18.9l-0.3,0.5l-0.4,0.9
	c-1.7,4.5-3.6,9.2-6.8,12.5l-0.1,0.3L1279.9,3233.5z M1281.6,3234c3.2-3.6,5.1-8.4,6.9-13.1l0.3-0.7c12.7-11.9,31.7-18.6,53.6-18.6
	l0,0c31.2,0,62.4,13.2,77.5,32.7c9.1,11.6,11.9,24.9,8.5,38.5c-6.7,25.5-31.1,33.8-58,40.8C1337.7,3308.8,1277.1,3285.9,1281.6,3234
	L1281.6,3234z"/>
<path class="st1" d="M1756.6,3215.2l-0.4,0.3v0.3c0.8,43.2,55.3,62.7,105.9,62.7c39.9,0,76-11.5,94.2-30.1
	c9.7-9.9,14.4-21.4,14.2-34.3v-0.1c-12.5-37.2-60.7-42.7-88.3-42.7l0,0c-41.9,0-89.4,12-118,30l-0.3,0.1l-0.7,1.2
	C1761.5,3207.1,1759.7,3211.9,1756.6,3215.2z M1758.1,3216.1c3.2-3.5,4.9-8.3,6.8-12.8l0.3-0.8c28.7-17.7,75.5-29.6,117-29.6l0,0
	c26.9,0,74.3,5.3,86.6,41.3c0.1,12.3-4.4,23.2-13.6,32.8c-17.9,18.1-53.6,29.6-93,29.6C1812.6,3276.7,1759,3257.8,1758.1,3216.1
	L1758.1,3216.1z"/>
<path class="st1" d="M507.8,2435c4.8,63.1-5.1,102.6-14.5,140.7c-5.3,21.4-11.1,43.5-13.7,69.6c-1.9,17.2-2.8,40.9,0.1,55.8
	c7.6,37.9,53.5,83.9,102.2,128c29.2,26.6,67.3,57.8,103.4,63.2c5.1,0.8,10.2,1.2,15.3,1.2c26.7,0,60.4-8.3,93-16.1
	c24.1-6,47.2-11.6,65.5-13.3c8.9-0.7,18.3-1.1,27.7-1.1c38.5,0,75.6,6.7,111.5,13.1c33.3,6,64.7,11.7,95.2,11.7
	c35.7,0,64.5-7.9,90.6-24.8c45.9-29.6,58.4-71.1,65-111.4v-0.4c-10.3-85.2-72.4-141.8-127.4-191.5c-36.1-32.8-74.3-59.1-111.2-84.6
	c-34-23.3-69.5-47.5-103.8-77.4c-80.8-70-121.6-168.9-108.7-264.2c3.2-24.5,12.3-50.3,21.1-75.2s17.7-51,21.1-75.5
	c5.7-43.9-2-78.3-23.1-102.2c-18.9-21.7-48.3-33.5-82.5-33.5l0,0c-34,0-69.4,11.7-94.2,31.6c-17.3,13.9-31.1,31.1-42.3,46.2
	c-47.9,65-87.8,153.3-121.5,270.2c-4.3,67.2,6.3,112.3,16.4,155.6C499.4,2378.2,505.4,2404.3,507.8,2435z M509.5,2434.9
	c-2.3-30.8-8.3-57-14.8-84.6c-10.3-43.1-20.8-88-16.5-154.7c33.7-116.7,73.4-204.9,121.2-269.6c11.1-14.9,24.8-32.1,41.9-45.9
	c24.7-19.5,59.5-31.2,93.1-31.2l0,0c33.9,0,62.5,11.6,81.1,32.8c20.8,23.6,28.5,57.5,22.7,100.8c-3.1,24.4-12.1,50.3-20.9,75.2
	s-17.9,50.8-21.2,75.5c-12.9,96,28,195.4,109.4,265.7c34.5,30,69.8,54.3,104,77.8c36.8,25.4,74.8,51.5,111.1,84.2
	c54.7,49.7,116.4,105.9,126.7,190.3c-6.5,40.1-18.8,81-64,110.3c-25.9,16.7-54.4,24.5-89.8,24.5c-30.3,0-61.6-5.7-95-11.6
	c-35.9-6.7-73.1-13.3-111.8-13.3c-9.6,0-18.9,0.4-28,1.2c-18.3,1.7-41.3,7.3-65.6,13.2c-32.4,8-66,16.1-92.5,16.1
	c-5,0.1-10.1-0.3-15.1-0.9c-35.5-5.6-73.4-36.6-102.4-62.8c-48.4-44-94.2-89.8-101.6-127.2c-2.8-14.6-1.9-38,0-55.2
	c2.7-25.9,8.3-48,13.6-69.4C504.6,2537.8,514.4,2498.2,509.5,2434.9L509.5,2434.9z"/>
<path class="st1" d="M601.9,2415.6c-2.3,42.9-4.8,91.8-1.6,136.3c5.3,69.6,24.3,121.5,59.8,163.5c49.9,58.7,99.9,64,182.9,72.3
	c6.1,0.8,12.3,1.3,18.8,2c31.1,3.3,61.9,8.9,89.1,13.9c24.4,4.5,47.7,8.8,68,10.8c9.2,0.8,18.1,1.3,26.7,1.3
	c63.2,0,88.6-25.2,98.7-46.3c16.1-33.3,5.2-81.8-27.9-123.1c-7.8-5.9-13.6-13.6-19.3-20.8c-7.5-9.6-15.3-19.6-26.9-25.4
	c-36.2-33.7-77.1-61.6-120.3-91.1c-61.5-41.9-125.1-85.1-181.5-150.3c-10.1-11.6-19.5-25-28.7-37.8c-25.6-36-49.8-70.2-88-72.8h-0.3
	l-0.3,0.1c-31.5,16.5-37.2,51.6-42,82.3c-1.5,8.8-2.7,16.8-4.5,24.7C604.1,2373.6,603,2394,601.9,2415.6z M603.8,2415.6
	c1.1-21.6,2.3-41.9,2.5-60c1.7-7.7,2.9-15.9,4.4-24.7c5.1-31.8,10.3-64.7,40.9-80.8c37.3,2.7,61.2,36.4,86.6,72
	c9.2,12.9,18.5,26.3,28.7,37.8c56.7,65.5,120.2,108.7,181.8,150.7c43.2,29.3,84.2,57.2,120.3,91.1l0.3,0.1
	c11.3,5.5,18.6,14.8,26.3,24.9c5.9,7.3,11.9,14.9,19.6,20.9c32.5,40.6,43.2,88.2,27.6,121c-10,20.7-34.9,45.4-97.2,45.4
	c-8.9,0-17.7-0.5-26.5-1.5c-20.3-1.9-43.5-6.3-67.9-10.7c-27.2-4.9-58-10.5-89.2-13.9c-6.5-0.7-12.7-1.3-18.8-1.9
	c-85.4-8.8-132.3-13.5-181.7-72c-35.1-41.6-54-93.1-59.2-162.3C598.8,2507.4,601.4,2458.6,603.8,2415.6L603.8,2415.6z"/>
<path class="st1" d="M1756.2,2582.9c-6.5,45.3-14.8,156.2,54,201.8c16.4,10.9,46.7,16.1,92.8,16.1c42.8,0,93.9-4.5,139.1-8.7
	c28.7-2.7,55.9-5.1,78.8-6.3c97.1-4.9,188.7-9.5,259.1-70.4c45.2-39.2,81.8-79.8,70.1-180.5c-5.2-45.8-26.1-100.7-48.3-159.1
	c-3.9-10.1-7.7-20.4-11.7-30.8c-2.3-6.3-4.5-12.3-6.7-18.3c-19.9-54-37.2-100.6-70.8-140.4c-39-45.9-90.4-69.1-153.1-69.1l0,0
	c-102.8,0-210.2,61.2-276.6,118.7c-98.8,85.6-111.6,205.4-125.2,332.1L1756.2,2582.9z M1757.9,2583.2l1.7-14.9
	c13.5-126.3,26.1-245.8,124.6-330.8c66-57.4,173.3-118.6,275.4-118.6c62.3,0,113.2,23.1,151.6,68.6c33.6,39.7,50.8,86.1,70.7,139.9
	c2.1,6.1,4.4,12.3,6.8,18.3c3.7,10.4,7.8,20.7,11.6,30.9c22,58.3,43,113.2,48.1,158.6c11.5,99.9-24.7,140.2-69.6,179
	c-69.9,60.6-161.2,65.2-258.1,70c-22.9,1.1-50.1,3.6-78.8,6.1c-45.1,4.1-96.3,8.8-139,8.8c-45.8,0-75.8-5.2-91.9-16
	C1743.3,2738.1,1751.3,2628.2,1757.9,2583.2L1757.9,2583.2z"/>
<path class="st1" d="M1851.8,2568.5c-1.2,40-2.3,81.5,15.1,116.8c30.2,46.5,89.1,52.5,136.8,52.5c16.5,0,33.1-0.9,49.7-1.7
	c76.1-4.1,147.9-8.1,204.3-47.5c61.5-42.7,95-122.8,89.5-214.1c-4.8-79-34.8-190.2-103.9-243.7c-24.4-18.8-55.2-28.3-91.8-28.3l0,0
	c-73.5,0-147.8,38.1-188.9,70.8c-88.6,70-98.7,164.4-110.6,273.8C1852.1,2554.4,1852,2561.3,1851.8,2568.5z M1853.4,2568.5
	c0.4-7.2,0.5-14.1,0.7-21.1c12.1-113.2,21.9-202.9,109.6-272.5c41.1-32.6,115-70.7,187.9-70.7l0,0c36.1,0,66.6,9.5,90.6,28
	c68.7,53.1,98.6,163.8,103.2,242.5c5.5,90.6-27.8,170.2-88.6,212.6c-56.1,39.1-127.8,42.8-203.4,47c-16.8,1.1-33.2,1.9-49.8,1.9
	c-47.3,0-105.6-6-135.2-51.6C1851.4,2649.6,1852.5,2608.4,1853.4,2568.5z"/>
<path class="st1" d="M764.3,2565.2c-1.1,28.8,8.4,53.8,28.2,74.4c36,37.2,96,50.6,140,50.6c7.9,0,15.9-0.4,23.7-1.2h0.4l0.1-0.4
	c2-2.3,4.1-4.3,6.4-6.4c2.8-2.9,6-5.9,8.3-9.2l0.3-0.4l-0.1-0.4c-3.9-22.5-23.3-40.6-40-53.8c-42-33.2-99.5-59.5-150-68.4h-0.4
	l-0.1,0.1c-3.5,1.7-6.3,4.8-9.1,7.7c-2.1,2.5-4.6,4.7-7.2,6.7l-0.4,0.3v0.4L764.3,2565.2L764.3,2565.2z M766.2,2565.7
	c2.6-2.1,5-4.3,7.2-6.8c2.5-2.8,5.1-5.5,8.1-7.2c50.2,8.9,107.2,35.1,149,68.1c16.3,12.8,35.3,30.4,39.2,52.3
	c-2.3,3.2-4.9,6.1-7.9,8.7c-2,2-4.1,4.1-6.1,6.4c-7.7,0.8-15.5,1.2-23.2,1.2c-43.8,0-103.2-13.1-138.7-50
	C774.3,2618.1,765.2,2593.7,766.2,2565.7z"/>
<path class="st1" d="M1944.7,2533.1c-0.9,74.3,28.3,118.7,84.4,128.2c12.6,2.2,25.4,3.3,38.3,3.3c53.2,0,90.4-19.7,112.2-36.4
	c80.3-60.7,105.6-206.7,49.6-284c-24.1-33.2-58-50.7-98.4-50.7l0,0c-30.7,0-63.8,10.4-93.4,29.6
	C1958.7,2374.3,1945.4,2476.7,1944.7,2533.1z M1946.5,2533.1c0.8-56.1,13.9-157.9,91.8-208.4c29.2-18.9,62.2-29.2,92.4-29.2l0,0
	c39.6,0,73.2,17.1,96.8,49.7c25.9,35.8,35.6,90.3,26,146.3c-9.7,57.4-37.1,106.6-75,135.4c-21.7,16.4-58.6,35.9-111.2,35.9
	c-12.7,0-25.4-1.1-38-3.2C1974.3,2650.2,1945.4,2606.5,1946.5,2533.1z"/>
<path class="st1" d="M224.7,1825.3c7.3-13.3,14.4-26.1,22.8-36.7l0.4-0.4c11.6-15.1,31.3-40.1,58.8-36c29.6,4.4,68.7,39.6,61.6,91.3
	c-5.6,41.3-33.3,71.6-87.4,95.2c-3.5,1.5-6.9,3.1-10.5,4.5c-26,10.9-50.7,21.3-62,46.2c-11.7,49.1-14,115.2-16.5,185.5
	c-2,58.1-4.1,118.4-12,169.8c-15.1,99.1-65.8,158-155,180.6c-8.1,2.2-16.4,3.9-24.7,5.1v-1.9c8.2-1.2,16.3-2.8,24.3-4.9
	c88.4-22.1,138.7-80.8,153.6-179.1c7.7-51.4,9.9-111.5,12-169.6c2.4-70.3,4.8-136.6,16.5-186.1c11.7-25.6,36.7-36,63.1-47.1
	c3.6-1.6,7.1-2.9,10.5-4.5c53.4-23.2,80.7-53.1,86.1-93.9c6.9-50.6-31.1-84.9-60-89.2c-26.4-4-45.8,20.5-57.2,35.1l-0.4,0.4
	c-8.3,10.7-15.3,23.2-22.7,36.6c-23.1,41.7-47,84.9-115.2,73.6c-32.3-5.2-68.6-22.4-110.7-52.1v-2.3c42.4,30.1,78.7,47.5,111,52.7
	C178.3,1909.1,201.9,1866.4,224.7,1825.3z"/>
<path class="st1" d="M44.5,2061.9c39.5,43.5,60.6,107.8,57.9,176.6c-2.7,66.3-27.5,126.8-66.5,162.2c-10.7,7.8-22.9,13.5-35.7,16.8
	v-1.7c12.4-3.3,24.1-8.9,34.5-16.3c38.7-35.2,63.2-95.4,65.9-161c2.7-68.3-18.3-132.3-57.3-175.5c-13.1-14.3-27.7-26.3-43.1-36.9
	v-2.1C16.1,2034.7,31.1,2047,44.5,2061.9z"/>
<path class="st1" d="M1592.8,1928.7c-26-19.6-59.5-29.7-99.5-29.7l0,0c-72.3,0-157.1,34.1-205.8,82.8
	c-20.1,20.1-35.5,44.2-50.7,69.2c-35,57.6-65.7,117.7-92,179.8l-0.1,0.1v0.3c0.5,5.5-0.8,10.5-1.9,15.6c-1,3.3-1.7,6.6-2,10
	c5.9,68.3,99.9,146.2,176.4,146.2c6.5,0,13-0.6,19.3-2c28-5.6,64.6-27.9,108.6-65.9c64.2-55.5,152.4-153.6,190.1-247.3
	c4.5-11.3,10-25.6,11.7-37.5C1654.6,2002.6,1636.3,1961.7,1592.8,1928.7z M1591.6,1930.2c43,32.4,61.1,72.8,53.8,119.9
	c-1.9,11.8-7.3,25.9-11.9,37.1c-37.5,93.4-125.5,191.1-189.4,246.6c-43.7,37.9-80,59.9-107.8,65.6c-6.3,1.2-12.7,1.8-19.1,1.7
	c-75.8,0-168.8-76.8-174.8-144.3c0.5-3.2,1.1-6.4,2-9.6c1.3-4.9,2.5-10.3,2.1-16c27.2-63.8,58-124,91.8-179.4
	c15.2-24.8,30.5-48.8,50.6-68.7c48.4-48.4,132.6-82.3,204.5-82.3l0,0C1532.9,1900.8,1566,1910.8,1591.6,1930.2L1591.6,1930.2z"/>
<path class="st1" d="M1554.5,2078.8c1.7-11.6,2.3-28.4-0.7-40c-10.2-39.1-44.2-61.6-93.2-61.6l0,0c-40.8,0-86.7,15.9-116.4,40.4
	c-47.2,38.4-62.9,93-78.6,160.1c-1.2,29.4,6.4,54.3,21.7,70.2c13.1,13.6,30.8,20.5,52.9,20.5c6.4,0,12.9-0.6,19.2-1.7
	c35.6-5.6,81.5-31.1,120-66.3C1521.3,2162,1548.7,2117.7,1554.5,2078.8z M1552.9,2078.5c-12.7,82-119.8,174.5-193.7,186.3
	c-6.3,1-12.6,1.6-18.9,1.6c-21.6,0-39.1-6.7-51.6-19.7c-14.9-15.8-22.5-40.1-21.3-68.8c15.6-66.7,31.2-120.8,77.9-159
	c29.6-24.2,74.8-39.9,115.4-39.9l0,0c48.3,0,81.5,21.9,91.4,60.3C1555.1,2050.6,1554.5,2067.1,1552.9,2078.5L1552.9,2078.5z"/>
<path class="st1" d="M1960,1741.8c8.4-99.1-9.1-139.5-29.5-186.1c-6.7-15.1-13.6-30.9-20.1-49.8c-11.1-31.9-15.6-64-20-95.1
	c-5.1-35.9-9.7-69.5-23.9-97.5l-2.3-3.5c-14.3-21.5-27.9-41.9-47.5-56.7c-25-18.8-58-28.9-95.8-28.9l0,0
	c-57.8,0-115.5,24.4-147,61.9c-22.3,26.4-31.1,58.2-25.1,91.6c10,47.2,50.8,75.8,90.3,103.5c37.3,26.1,75.9,53.2,90.4,96.2
	c9.3,27.9,4.7,59.5-0.3,93.2c-5.3,36.4-10.9,74,2.4,108c18.8,48.3,75.6,97.2,132,113.6c10,3,20.5,4.6,30.9,4.7
	c4.7,0,9.5-0.3,14.2-0.9l0.4-0.1l0.3-0.1C1945.2,1867.6,1955.2,1798.7,1960,1741.8z M1958.4,1741.7c-4.8,56.3-14.8,124.6-49.9,152.6
	c-4.6,0.6-9.1,0.9-13.7,0.9c-10.3,0-20.6-1.6-30.5-4.5c-55.9-16.3-112.2-64.7-130.7-112.6c-13.2-33.5-7.7-71-2.3-107.2
	c4.9-33.7,9.6-65.6,0-94c-14.7-43.3-53.3-70.7-91.1-97.1c-40.8-28.7-79.6-55.8-89.5-102.2c-5.9-32.9,2.8-64.2,24.7-90.3
	c31.2-37.1,88.6-61.1,145.6-61.1c37.3,0,70.2,9.7,94.7,28.4c19.5,14.8,32.3,34,47.2,56.4l2,3.2c13.9,27.7,18.7,61.2,23.7,96.8
	c4.5,31.2,9.1,63.5,20,95.5c6.5,18.9,13.5,34.7,20.1,50C1949.2,1603,1966.5,1643,1958.4,1741.7z"/>
<path class="st1" d="M280.8,1412.7c-12-16.4-30.3-25.6-51.4-25.6l0,0c-30,0-64.8,20-73,58.2c-3.5,22.4,8,53.6,28.5,77.6
	c16.8,19.5,36.6,30.7,54.4,30.7c10.5,0,20.3-3.7,28.9-11.2C298.4,1516.4,305.2,1446.3,280.8,1412.7z M267.3,1541
	c-8.4,7.2-17.7,10.7-27.9,10.7c-17.2,0-36.7-10.8-53-29.9c-20.4-23.8-31.6-54.4-28.3-76.2c8-37.2,41.9-56.7,71.2-56.7l0,0
	c20.5,0,38.3,8.8,50,24.9C303.4,1446.7,296.8,1515.6,267.3,1541z"/>
<path class="st1" d="M921.9,1297.7v-0.3c-2.3-24.3-27.6-42.5-48.7-42.5l0,0c-13.6,0-24.3,6.9-30.5,19.5l-0.1,0.3
	c-0.9,11.9,3.3,23.7,12.1,33.3c9.5,10.3,22.7,16.4,35.6,16.4c8.4-0.1,16.6-2.8,23.5-7.7l0.1-0.3l0.1-0.3c0.7-3.1,2.3-5.9,3.6-8.5
	C919.4,1304.5,921.3,1301.3,921.9,1297.7z M920,1297.6c-0.5,3.2-2.3,6-3.9,9.2c-1.6,2.7-2.9,5.5-3.9,8.5c-6.4,4.7-14.1,7.2-22,7.3
	c-12.4,0-25.2-6-34.3-15.7c-8.5-9.3-12.7-20.5-11.6-31.9c5.7-11.7,16.1-18.3,28.8-18.3l0,0C893.5,1256.8,917.8,1274.2,920,1297.6
	L920,1297.6z"/>
<path class="st1" d="M3326,3684.8c43.1-20.9,93.8-23.1,135.8-5.9c20.4,8.4,38.5,21.7,52.5,38.8h-2.1c-13.6-16.4-31.1-29.2-50.9-37.1
	c-41.6-17.2-91.9-15.1-134.4,5.6c-13.9,6.7-26.9,17.2-39.5,31.5h-2.4C3297.9,3702.6,3311.6,3691.8,3326,3684.8z"/>
<path class="st1" d="M1798.2,3611.6c16.8-11.9,32.8-24.5,48.3-36.7c37.5-29.4,72.8-56.8,111.8-69.9c43.6-21.7,85.3-32.6,125.1-32.7
	c32.8-0.1,65.1,7.6,94.3,22.5c87.8,44.1,137.2,140.6,156.2,222.9h-1.9c-18.9-81.6-67.9-177.5-155.1-221.3
	c-65.2-32.8-138.6-29.3-217.9,10.1c-38.8,12.9-74,40.5-111.4,69.9c-15.5,12-31.5,24.5-48.4,36.6c-18.2,12.9-37,25.5-55.2,37.5
	c-33.1,22-65.5,43.5-94,67.2h-2.9c29.1-24.4,62.2-46.3,96-68.7C1761.3,3636.9,1780.1,3624.5,1798.2,3611.6z"/>
<path class="st1" d="M2428.5,3578.1c11.9-28.8,38-42.8,79.9-42.8c21.2,0,43.2,3.6,61,6.5h0.5c4.1,0.7,8.2,1,12.4,0.9
	c16.7,0,33.8-4.9,50.1-9.7c8.4-2.5,17.3-5.1,25.9-6.8c6.9-1.6,13.7-2.8,20.5-4.3c28.1-5.5,57.4-11.2,83.8-23.3
	c10.4-4.8,21.1-9.5,31.5-13.9c51.5-22.3,104.7-45.3,139.2-90.2c2.1-2.8,4-5.6,6-8.4c24.1-35.7,45.1-74.1,65.1-111.4
	c22.7-42,46.1-85.1,74.4-124.6c27.3-38.5,64.1-81.1,99.8-122.3c12.4-14.4,24-28,35.4-41.4c56.6-66.9,109.9-130,208.3-130h0.1
	c25.2,0,51.9,4,81.9,12c85.2,22.9,235.7,80.3,287.1,204.6c13.6,32.9,22.7,79,32.3,127.5c7.3,36.7,14.9,74.7,24.5,106.3v6
	c-10.5-32.8-18.6-73.1-26.1-111.9c-9.7-48.7-18.8-94.4-32.3-127.2c-51.2-123.8-201.1-180.6-285.9-203.5c-29.9-8.1-56.6-12-81.5-12
	h-0.1c-97.5,0-150.7,62.8-206.9,129.5c-11.3,13.3-23.1,26.9-35.5,41.2c-35.5,41.2-72.3,83.9-99.8,122.2
	c-28,39.4-51.5,82.7-74.1,124.4c-20.1,37.2-41.1,75.8-65.2,111.5c-1.9,2.8-4,5.9-6.1,8.5c-34.8,45.1-88.2,68.3-139.8,90.7
	c-10.6,4.5-21.2,9.2-31.5,13.9c-26.7,12.3-55.9,18-84.2,23.6c-6.9,1.3-13.7,2.7-20.5,4.1c-8.4,1.9-17.2,4.4-25.7,6.8
	c-16.5,4.8-33.6,9.9-50.7,9.9c-4.2,0-8.5-0.3-12.7-0.9l-0.8-0.1c-17.5-2.9-39.4-6.4-60.4-6.4c-40.9,0-66.7,13.6-78.2,41.5
	c-12,28.7-8,77.4-4.4,120.4c0.5,6.5,1.1,12.7,1.5,18.7h-1.9c-0.4-6-0.8-12.1-1.3-18.6C2420.5,3656,2416.7,3607.1,2428.5,3578.1z"/>
<path class="st1" d="M3166.2,3663.1c52.9-71.8,147-114.4,251.4-114.4c25.2-0.1,50.4,2.6,75,7.9c92.8,20.5,122.6,83.9,135.8,161.2
	h-1.7c-4.1-24.5-9.9-47.5-18.8-68.2c-21.5-49.6-58.3-78.7-115.5-91.4c-24.5-5.3-49.6-7.9-74.7-7.9c-103.9,0-197.2,42.5-249.9,113.8
	c-5.9,15.2-10.8,33.6-15.6,53.6h-1.9C3155.1,3697.4,3160.3,3678.7,3166.2,3663.1L3166.2,3663.1z"/>
<path class="st1" d="M2659.9,3625.6c47.2-6.8,92.3-20.8,135.6-34.4c28-8.8,57.1-17.9,86.6-24.9c18.8-4.5,37.6-8.1,54.3-10.7
	c17.1-2.5,32.1-3.9,44.7-3.9l0,0c25.9,0,41.2,5.3,46,16c13.2,28.4,23.3,90.2,23.9,150.1h-1.7c-0.5-59.6-10.7-121-23.6-149.4
	c-4.5-9.9-19.6-14.8-44.5-14.8c-14.9,0.2-29.7,1.4-44.4,3.7c-16.7,2.5-35.4,6.1-54.1,10.7c-29.5,7.1-58.3,16.1-86.3,24.9
	c-43.6,13.6-88.7,27.7-136.2,34.5c-46.7,6.7-83.9,38.7-105.8,90.3h-2C2574.4,3665.1,2612.3,3632.5,2659.9,3625.6z"/>
<path class="st1" d="M3700.1,3671.6c-2.4-65.6-4.5-122.4-48.1-155.9c-45.4-35.1-124.6-45.1-182.5-52.3c-5.7-0.8-11.5-1.6-16.8-2.3
	c-10.3-1.4-20.7-2-31.1-2l0,0c-58.9,0-121.8,19.9-182.6,39c-54.4,16.9-110.6,34.7-163.1,37.7h-0.1l-0.1-0.1
	c-30-8.5-37.5-40.5-34.5-67.6c8.5-105.8,45.8-192.3,128.8-298.9c16.7-21.4,32.4-43.1,47.5-64.2c25.9-35.5,50.1-69.2,78.6-101
	c42.5-47.9,95.9-71.9,158.7-71.9l0,0c72.8,0,154.7,33.9,224.7,93.2c72.2,78.2,83,181.7,87.9,281c0.4,7.7,0.5,15.8,0.8,24.4
	c1.1,39.9,2.3,89.6,21.9,114.2c17.2,21.6,37.5,38.3,58.3,52.9v2.1c-21.4-14.9-42-31.7-59.8-54.1c-19.9-24.8-21.1-74.8-22.3-115
	c-0.3-8.7-0.4-16.8-0.8-24.4c-4.8-99-15.6-202.3-87.4-279.9c-69.6-58.9-151-92.8-223.4-92.8c-62.3,0-115.4,24.1-157.4,71.4
	c-28.3,31.9-52.7,65.4-78.4,101.1c-15.1,20.9-30.8,42.5-47.5,64c-82.8,106.3-120,192.7-128.4,298.1c-2.9,26.1,4.1,57.4,33.1,65.6
	c52.1-3.1,108.2-20.5,162.4-37.6c61-19.1,123.9-39,183.1-39l0,0c10.5,0,20.9,0.7,31.3,2c5.3,0.8,11.1,1.5,16.8,2.1
	c58,7.3,137.6,17.5,183.1,52.7c44.4,34.1,46.6,91.1,49.1,157.4c0.5,13.7,0.9,28,1.9,42.3c0.2,1.3,0.3,2.6,0.4,3.9h-1.9
	c0-1.3-0.1-2.4-0.1-3.7C3701.2,3699.6,3700.6,3685.5,3700.1,3671.6z"/>
<path class="st1" d="M3727.8,2788l-0.3-0.1c-12.3-9.7-30.8-24.5-28.8-44.9l0.1-0.4l0.3-0.3c3.8-3,7.4-6.4,10.5-10.1l0.1-0.3h0.3
	c22.6-4.6,45.5-6.9,68.6-6.9l0,0c23.4,0.1,46.7,2.5,69.6,7.2v1.9c-45.3-9.5-92.1-9.6-137.5-0.4c-3.1,3.6-6.5,6.9-10.1,9.9
	c-1.7,19.2,15.5,32.9,28,43.1l0.3,0.3c21.7,17.2,50.1,30.3,80.4,44c13.1,5.9,26.1,12,39,18.4v2c-13.1-6.5-26.6-12.8-39.8-18.7
	C3778.3,2818.7,3749.6,2805.6,3727.8,2788z"/>
<path class="st1" d="M3805.5,3702.7c2-24.7,22-46.5,42.8-46.5v1.8c-20,0-39.1,20.9-40.9,44.8c-0.5,5-0.6,10-0.1,14.9h-1.7
	C3805,3712.7,3805,3707.7,3805.5,3702.7z"/>
<path class="st1" d="M3649,3335.9c25.2-33.9,35.6-83.1,28.7-135c-6.5-49.2-27.7-95.6-56.8-124.2c-35.5-34.5-85.8-55.1-135-55.1l0,0
	c-30.3,0-58.6,8-81.8,23.1c-49.2,32.3-69.5,94.3-89,154.3c-9.1,27.5-17.6,53.5-28.7,76.8v0.1c-3.6,23.3,10.1,37.3,41.7,43.1
	c34.1,5.9,70.2,16.5,104.7,26.7c30.9,9.1,60,17.6,87.2,22.9c12,2.4,24.3,3.7,36.6,3.7C3596.7,3372.5,3632.2,3358.5,3649,3335.9z
	 M3647.5,3334.7c-16.5,22.1-51.3,35.9-90.8,35.9c-12.2,0-24.3-1.3-36.3-3.6c-26.9-5.3-56.2-13.9-86.8-22.9
	c-34.8-10.3-71-20.7-105.1-26.8c-30.9-5.3-43.6-18.4-40.3-40.8c11.1-23.3,19.5-49.3,28.4-76.8c19.6-59.8,39.6-121.4,88.4-153.2
	c22.9-15.1,50.8-22.9,80.8-22.9c48.6,0,98.6,20.4,133.6,54.7C3677,3134.3,3702.4,3261.4,3647.5,3334.7L3647.5,3334.7z"/>
<path class="st1" d="M1475.7,2660.8c-9.9,32.1-1.6,55.6,28.4,81.4c16.1,13.6,34.9,26.7,50,37.3c6.8,4.7,12.8,8.8,17.6,12.3
	c21.2,15.9,40.7,32.6,59.6,48.7c37.1,31.7,72,61.6,111.2,76c19.3,7.2,39.7,10.5,62.4,10.5c41.1,0,83-11.7,123.6-23.1
	c23.2-6.5,47.1-13.2,70.3-17.5c30.1-5.6,60.6-8.4,91.2-8.4c24.9,0,49.7,1.9,74.3,5.5c82.6,12,167.4,43.3,266.4,99
	c20.9,11.7,41.3,25.2,61.1,38.3c20.4,13.6,41.6,27.6,63.5,39.6c8.8,4.9,18.3,8.3,27.7,11.5c7.2,2.5,14.7,5.1,21.9,8.3
	c6.5,3.2,12.9,6.7,18.9,10c14.3,7.9,27.7,15.2,44.4,18.4c14.3,2.6,28.9,3.9,43.5,3.9c14.7,0,35.9-1.2,53.7-7.5
	c53.9-18.9,101.9-51.1,142.1-80c9.9-7.2,19.5-14.8,28.9-22.1c11.6-9.1,23.6-18.4,36-26.9c10.7-7.5,22.5-13.1,34.1-18.5
	c10.4-4.8,21.2-9.9,31.1-16.3c55.4-35.5,103.4-87.1,142.8-153.2c37.5-63.1,60.7-113,14.9-179.6c-14.1-20.8-31.1-27.1-55.5-34.1
	c-25.6-7.5-52.8-8.8-79.2-9.9c-30.4-1.5-62-2.8-90.6-14c-15.2-5.9-28.5-14.8-40.5-23.6c-3.2-2.4-6.5-4.9-9.7-7.3
	c-13.1-9.6-26.3-19.6-41.2-26.8c-21.6-10.8-43.5-22.4-64.5-33.8c-13.6-7.1-27.3-14.5-41.2-21.7c-32.1-16.5-64.7-33.9-96.2-50.4
	c-18.1-9.6-36.1-19.2-54.1-28.7c-0.8-0.8-1.5-1.6-2.1-2.4l-0.3-0.4c-87.1-47.9-120.7-124.4-143.9-199.9c-1.6-5.6-3.3-11.2-5.1-16.7
	c-16-53.4-30.9-103.6-85.8-131.8c-26.5-13.6-74.6-26.8-142.3-39.1c-95.4-17.3-184.9-22.7-288.3-28.8l-7.7-0.5l-0.3,0.1
	c-27.1,17.3-43.3,42.5-60.6,69.2c-8.1,12.8-16.5,26-26.4,38c-20.1,25.4-45.4,50.3-72.2,76.8c-27.9,28-56.8,56.7-80.7,86.7
	c-62.4,78.2-105.2,175.9-146.7,270.2c-6.8,15.5-13.7,31.3-20.7,46.4c-7.7,17.6-17.1,35.4-26.1,52.6
	C1498.2,2607,1484,2634.4,1475.7,2660.8z M1477.4,2661.5c8.3-26.6,22.5-53.5,37.6-82.4c9.1-17.2,18.4-35.1,26.4-52.7
	c6.8-15.1,13.7-30.9,20.5-46.4c41.3-94,84.3-191.5,146.6-269.7c23.6-29.9,52.7-58.7,80.6-86.7c26.7-26.4,51.9-51.6,72.3-77
	c9.7-12.1,18.3-25.3,26.4-38.2c17.1-26.5,33.2-51.3,59.9-68.4l7.1,0.4c103.5,6.1,193,11.5,288.2,28.8
	c67.6,12.1,115.2,25.3,141.8,39.1c54,27.6,69.1,77.6,85,130.6c1.6,5.5,3.3,11.1,5.1,16.7c23.3,75.8,57,152.6,144.4,201
	c0.7,0.9,1.5,1.7,2.3,2.5l0.3,0.1c18.1,9.5,36.1,19.1,54.3,28.8c31.3,16.7,63.9,33.8,96,50.4c13.9,7.1,27.9,14.7,41.3,21.9
	c21.1,11.2,42.8,22.8,64.7,33.5c14.6,7.2,27.9,17.2,40.8,26.8c3.2,2.4,6.4,4.9,9.9,7.3c12.1,8.8,25.5,17.9,40.7,23.8
	c29.1,11.3,60.7,12.8,91.4,14c26.1,1.3,53.4,2.4,78.8,10c23.9,6.9,40.6,12.9,54.4,33.4c45.1,65.8,22.1,115.2-15.1,177.9
	c-39.2,65.8-87.1,117.1-142.3,152.6c-9.7,6.4-20.4,11.3-30.7,16.1c-11.6,5.5-23.6,11.2-34.6,18.7c-12.3,8.7-24.3,18-36,26.9
	c-9.3,7.5-19.2,14.9-28.9,22c-39.9,28.9-88,61.1-141.5,79.9c-17.7,6.1-38.7,7.6-53.2,7.6s-29-1.3-43.2-4
	c-16.3-3.1-29.6-10.5-43.9-18.3c-6-3.2-12.4-6.8-19.1-9.9c-7.2-3.3-14.5-6.1-22-8.5c-9.2-3.1-18.7-6.5-27.5-11.3
	c-21.6-12-42.9-25.9-63.2-39.5c-19.9-12.9-40.3-26.5-61.2-38.3c-99.2-55.6-184.1-87.2-267.1-99.2c-24.6-3.7-49.5-5.5-74.4-5.5
	c-30.7,0-61.3,2.8-91.5,8.3c-23.3,4.4-47.2,11.1-70.6,17.6c-40.6,11.5-82.3,23.2-123.1,23.2c-21.1,0.2-42-3.4-61.9-10.5
	c-39-14.4-73.8-44.1-110.6-75.7c-18.9-16.1-38.5-33-59.9-48.7c-4.8-3.6-10.7-7.7-17.5-12.4c-15.2-10.7-33.9-23.6-50-37.3
	C1475.7,2715.6,1467.8,2692.7,1477.4,2661.5z"/>
<path class="st1" d="M1639.2,2593.4c-5.5,31.9-6.2,59.1-1.9,85.6c11.5,71,73.6,161.8,147.9,184.2c14.9,4.5,30.8,6.7,48.6,6.7
	c32.1,0,64.2-7.7,92.4-14.5c13.2-3.1,25.6-6,37.1-8.1c39.2-6.8,81.9-10,134.8-10c29.1,0,58.6,0.9,87.2,1.7s58.7,1.9,88.3,1.9
	c47.8,0,86.8-2.4,123.4-7.7c8.8-1.3,17.6-2.7,26-4.1c27.9-4.4,54.3-8.7,80.3-8.7c34.8,0,63.6,8,90.4,24.8c26,16.3,47.1,23.6,73,25.5
	c15.2,0.9,30.9,2.7,46.3,4.3c26.9,2.8,54.8,5.6,82,5.6h1.2c61.5-0.1,211.3-22.5,254.8-87.9c14.5-22,16.3-47.2,4.7-74.8
	c-15.6-37.3-63.2-60-99.2-68c-6.9-1.6-13.9-3.2-20.8-4.5c-49.2-10.7-91.4-18.4-129.1-23.7c-10-1.3-19.9-2.4-29.3-3.2
	c-24.7-2.3-48-4.4-72.1-14.9c-133.2-58.4-221.1-214.2-271.3-334.6c-38.1-92-71.3-171.2-161.9-208.7c-34.3-14.1-83.9-22.7-132.6-22.7
	h-0.1c-36.7,0-71,4.7-99,13.7c-56,17.7-106.4,54.8-164.7,97.5l-2.5,2c-108.3,79.4-161.9,159.1-198.1,293.6l-3.5,13.2
	C1659.2,2502.3,1647.8,2544.9,1639.2,2593.4z M1641.1,2593.7c8.3-48.3,19.8-91,32-136l3.5-13.2c36-134,89.5-213.4,197.2-292.5l2.5-2
	c58.4-42.8,108.6-79.8,164.3-97.4c27.9-8.8,61.9-13.5,98.4-13.5h0.1c48.6,0,97.8,8.4,131.9,22.6c89.9,37.1,122.8,116.2,160.8,207.7
	c50.4,120.8,138.4,277,272.4,335.6c24.3,10.7,47.9,12.8,72.7,15.2c9.5,0.8,19.3,1.7,29.2,3.1c37.7,5.3,79.9,13.1,129.1,23.6
	c6.9,1.6,13.9,3.1,20.7,4.5c35.6,8,82.6,30.3,97.9,66.9c11.3,27.2,9.7,51.9-4.5,73.4c-43.1,64.7-191.9,86.8-253.1,87h-1.2
	c-27.1,0-55.1-2.8-81.9-5.6c-15.3-1.6-31.1-3.1-46.3-4.3c-25.5-1.9-46.3-9.1-72-25.2c-27.2-16.9-56.4-24.8-91.5-24.8
	c-26.1,0-52.6,4.1-80.6,8.5c-8.4,1.3-17.2,2.7-26,4.1c-36.4,5.2-75.6,7.7-123.1,7.7c-29.6,0-59.5-0.9-88.3-1.9s-58.1-1.7-87.2-1.7
	c-53.1,0-95.9,3.1-135.1,10c-11.6,2.1-24.1,5.1-37.2,8.3c-28.2,6.8-60,14.4-92,14.4c-16.3,0.1-32.5-2.1-48.2-6.7
	c-73.6-22.3-135.1-112.3-146.4-182.7C1635,2652.5,1635.5,2625.4,1641.1,2593.7L1641.1,2593.7z"/>
<path class="st1" d="M3685.3,2489.9l-0.3-0.4c-4.1-7.5-8.1-13.9-11.7-19.5c-12.5-20.1-20-32.4-23.9-65.8
	c-2.9-26.4-1.9-53.5-0.8-79.8c1.2-30.9,2.5-63-2.8-94.6c-18.4-111.8-107.4-227-207-267.9c-9.6-3.9-22.8-8.9-31.9-10.7
	c-6.7-1.2-13.6-1.9-20.4-2l0,0c-58.6,0-72,57.6-85,113.2c-3.1,12.4-6,25.2-9.5,37.1c-13.3,45.8-31.3,76-58.1,98.3
	c-27.1,22.1-63.5,36.6-118,46.7c-20.5,3.9-41.4,5.9-62.3,6c-38,0-74.2-7.1-121.2-23.6c-2.1-0.7-4-1.3-6-2.1
	c-26.1-8.9-48.4-16.7-64.2-41.1c-30.1-47.2-54.7-123.5-43.1-177.5c11.3-52.9,49.8-63.6,90.3-74.6c7.9-2.1,15.8-4.4,23.8-6.8
	c12.4-4.1,22.3-8.3,30.9-13.2c61.4-34.4,129-65.6,213.3-98.2c71.5-27.6,106.2-88.4,139.6-146.8c32.7-56.8,66.3-115.6,133.4-143.7
	c10.9-4.4,22.5-6.6,34.3-6.5l0,0c14.8,0,31.2,3.2,48.8,9.3c47.9,16.7,90.7,68,122.7,110.8c50.1,67.2,112.4,150.8,186.2,204.6
	c2,1.3,3.9,2.7,5.9,4v2.3c-2.3-1.6-4.5-3.2-6.9-4.9c-73.9-53.8-136.3-137.5-186.6-204.9c-31.8-42.7-74.4-93.8-121.8-110.3
	c-17.5-6-33.8-9.1-48.3-9.1l0,0c-11.5-0.1-22.9,2-33.6,6.3c-66.4,27.9-100,86.3-132.4,143c-33.6,58.8-68.7,119.6-140.7,147.5
	c-84.2,32.6-151.8,63.8-213,98.2c-8.7,4.9-18.7,9.2-31.3,13.2c-7.7,2.5-15.9,4.7-23.6,6.8c-40.1,11.1-78,21.5-89.1,73.3
	c-11.5,53.6,12.9,129.2,43,176.2c15.2,23.7,37.3,31.6,63.1,40.3c2,0.8,4,1.5,6.1,2.1c46.8,16.7,82.8,23.6,120.6,23.6
	c20.7-0.1,41.4-2.1,61.8-6c105.2-19.3,149.4-55.6,175-143.8c3.5-11.7,6.5-24.5,9.3-36.8c13.2-56.4,26.9-114.6,86.8-114.6l0,0
	c6.9,0,13.9,0.6,20.7,1.9c9.2,1.7,22.7,6.8,32.3,10.8c49.4,20.3,97.5,58.9,135.8,109c37.8,49.2,63.4,106.2,72.4,160.3
	c5.1,31.8,3.9,63.9,2.7,94.8c-1.1,26.3-2.1,53.4,0.9,79.6c3.6,32.9,11.2,45.1,23.6,65.1c3.3,5.5,7.3,11.9,11.8,19.3
	c35.1,28.5,76.8,43.2,123.8,43.2c12.7,0,25.4-1.1,37.9-3.2v1.9c-12.5,2-25.2,3-37.9,3.1C3762.9,2533.6,3720.9,2518.9,3685.3,2489.9z
	"/>
<path class="st1" d="M3749,2358.3c-9.2-26.8-10.9-54.6-12.9-86.6c-0.7-11.1-1.3-22.7-2.5-35.2c-4.3-48.6-13.6-98.6-22.8-147
	c-8.9-47.9-17.5-93.1-19.1-128.7v-0.4l0.4-0.3c5.6-4.1,11.6-8.1,18.7-8.1c1.3,0,2.6,0.2,3.9,0.5l0.3,0.1
	c17.9,10.3,36.9,19.6,55.5,28.7c26.4,12.8,53.2,25.9,77.9,42.5v2.1c-24.8-16.9-52-30.1-78.6-43.1c-18.6-9.1-37.8-18.4-55.6-28.8
	c-1-0.2-2-0.3-3.1-0.3c-6.5,0-12.3,3.6-17.5,7.3c1.6,35.3,10,80.3,18.9,128c9.2,48.4,18.7,98.4,22.9,147.1
	c1.2,12.5,1.9,24.1,2.4,35.2c2,32,3.7,59.5,12.9,86.1c12.5,36.7,43.1,60.6,77.8,60.6c6.7-0.1,13.3-0.9,19.8-2.5v1.7
	c-6.5,1.6-13.1,2.4-19.8,2.4C3793.2,2419.9,3762,2395.8,3749,2358.3z"/>
<path class="st1" d="M3133.4,2084.5c12.3-16.5,18-39.2,14.5-58.2c-2.4-14.3-10.7-26.9-22.8-34.8c-8.8-5.4-18.9-8.3-29.2-8.1l0,0
	c-43.7,0-94,44.2-104.4,80.4v0.3c0.3,36.9,34.3,53.5,67.9,53.5C3089.9,2117.6,3118.5,2104.8,3133.4,2084.5z M3132.1,2083.4
	c-14.8,20-42.7,32.3-72.7,32.3c-32.7,0-65.8-15.9-66.2-51.6c10.3-35.6,59.6-79,102.7-79c10.7,0,20.1,2.7,28.1,8
	c11.8,7.6,19.8,19.8,22.1,33.6C3149.5,2045.1,3143.9,2067.3,3132.1,2083.4L3132.1,2083.4z"/>
<path class="st1" d="M3645.8,1895.6c6.5-20.1-5.5-48.3-16.1-73.4l-1.7-4c-23.7-55.9-58.1-122.7-115.8-146.6c-3-0.5-6-0.8-9.1-0.8
	l0,0c-31.7,0-53.1,25.9-60.1,51.5c-4.9,82.3,65.5,117,117,142.2c3.6,1.7,6.9,3.3,10.3,5.1c5.9,2.9,11.9,6.4,17.7,9.7
	c15.6,9.1,31.9,18.6,47,18.6c3.5,0,7.1-0.5,10.4-1.7l0.4-0.1L3645.8,1895.6z M3644.4,1894.7c-3.1,0.9-6.3,1.3-9.5,1.3
	c-14.7,0-30.7-9.2-46-18.3c-6-3.3-12-6.9-17.9-9.7c-3.2-1.7-6.8-3.3-10.3-5.1c-51-25.1-121-59.4-116-140.3
	c6.9-24.7,27.7-49.9,58.4-49.9l0,0c2.9,0,5.7,0.3,8.5,0.7c56.8,23.5,91.1,90.2,114.7,145.5l1.7,4.1
	C3638.5,1847.5,3650.3,1875.2,3644.4,1894.7L3644.4,1894.7z"/>
<path class="st1" d="M3060.3,1167.9c3.6-26.8,5.9-77.9-8.4-99.9c-12.4-19.2-32.9-28.9-61.1-28.9l0,0c-11.7,0.1-23.4,1.5-34.8,4
	c-6.8,1.3-13.5,3-20.1,5.2c-24.3,8.4-36,23.1-41.6,52.3c-5.7,29.7-6.7,65.8-2.5,99.2c5.5,44,31.5,88.7,70.6,88.7
	c16.5,0,33.6-8.1,50.6-23.7C3037.8,1241.7,3055,1206.2,3060.3,1167.9z M3058.4,1167.8c-5.1,37.9-22.3,72.7-46.8,95.6
	c-16.7,15.5-33.4,23.2-49.3,23.2c-38,0-63.4-43.9-68.7-87.2c-4.1-33.1-3.3-69,2.5-98.4c5.5-29.1,16.4-42.8,40.3-50.9
	c6.5-2.2,13.2-3.9,20-5.2c11.3-2.5,22.8-3.8,34.4-3.9c27.3,0,47.5,9.3,59.5,28C3064.5,1090.6,3061.8,1143,3058.4,1167.8
	L3058.4,1167.8z"/>
<path class="st1" d="M188.4,670.2c17.1,3.1,31.5,6.7,45.5,10c17.1,4.1,33.2,8.1,54,11.3c19.1,2.8,39.2,4.3,58.8,5.7
	c43.9,2.8,89.2,5.9,127.9,26.1c48.7,25.5,53.8,90.3,37.1,143.2c-28.1,89.8-64.4,151.8-111,189.6c-18.3,14.8-35.5,31.9-52,48.6
	c-33.5,33.2-68,67.6-113,85.8c-34.3,14-73.8,24.3-111.9,34.1c-23.1,6-46.8,12.3-69.4,19.2c-10.5,3.2-22,7.3-34,11.9
	c-6.5,2.4-13.3,4.8-20.3,7.2v-1.9c6.7-2.4,13.2-4.8,19.6-7.1c12.1-4.4,23.6-8.7,34.1-11.9c22.7-6.9,46.4-13.2,69.3-19.1
	c38.2-10,77.5-20.3,111.9-34.1c44.6-18.1,79-52.4,112.2-85.4c16.7-16.7,34-33.9,52.3-48.7c46.4-37.3,82.4-99.1,110.4-188.7
	c16.4-52.1,11.6-116-36.1-140.8c-38.4-20.1-83.5-23.2-127.2-26.3c-19.6-1.2-39.9-2.7-59-5.6c-20.9-3.3-37.9-7.3-54.3-11.3
	c-13.9-3.5-28.1-6.9-45.2-10c-31.3-5.6-63.2-9.9-94.2-13.9c-32.6-4.4-64.3-8.7-93.8-14.1v-2c29.5,5.6,61.2,9.9,94,14.2
	C125.2,660.3,157,664.5,188.4,670.2z"/>
<path class="st1" d="M148.1,778.1c40.6,11.5,82.4,23.2,122.3,40.7c39.4,17.1,79.2,37.1,97,77.4c22.9,52.5,0.5,109.2-60,151.2
	c-10.5,7.3-20.4,14.6-30.1,21.6c-40.6,29.8-78.8,57.8-134,68.4c-35.8,6.7-88.7,10.8-143,12.1v-1.9c54.2-1.1,107-5.2,142.7-12
	c54.7-10.7,92.8-38.5,133.2-68.2c9.7-7.1,19.7-14.4,30.1-21.6c59.9-41.6,82-97.4,59.4-149c-17.3-39.6-57-59.6-95.9-76.4
	c-39.9-17.5-81.7-29.2-122.2-40.7c-21.1-5.9-43-12.1-64.3-18.9c-27.2-8.8-55.6-14.4-83.1-19.6v-1.9c27.7,5.3,56.3,10.8,83.6,19.8
	C105,766,126.9,772.2,148.1,778.1z"/>
<path class="st1" d="M135.2,565.9c40.9-1.6,83.1-2.9,124.3,1.2c37.9,3.9,72.7,11.6,106.4,19.3c8.4,1.7,16.7,3.7,25.2,5.5
	c6.3,1.5,12.4,2.8,18.8,4.1c64.3,13.7,130.8,27.8,185,64.7c63.1,42.8,71.3,132.7,42.5,194.7c-26.3,56.8-70.3,101.8-112.8,145.2
	c-35.4,35.9-71.9,73.1-98,117.1c-12,16-21.9,31.5-31.5,46.4c-31,48-55.4,85.9-120.3,101.1c-125.1,29.2-233.1,54.4-253.3,179.1
	c-7.1,44.2,2.7,78.7,12,112c7.5,26.5,14.5,51.6,12.9,79.9l-0.1,0.4l-0.3,0.1c-3.3,3.1-6.5,6.3-9.6,9.5c-4.1,4.4-8.5,8.5-13.2,12.3
	l-0.3,0.3h-0.4c-7.5-0.5-15-1.5-22.4-3.2v-1.7c7.3,1.6,14.8,2.6,22.3,3.1c4.5-3.7,8.7-7.6,12.7-11.9c3.1-3.1,6.2-6.4,9.5-9.2
	c1.6-28-5.3-52.8-12.8-79c-9.3-33.6-19.1-68.3-12-112.8c20.3-125.9,128.9-151.2,254.6-180.6c64.3-14.9,88.6-52.7,119.1-100.3
	c9.6-15.1,19.7-30.4,31.6-46.4c26.1-44,62.8-81.4,98.2-117.5c42.4-43.3,86.4-88,112.7-144.6c28.3-61.5,20.4-150.2-42-192.7
	c-54.1-36.5-120.3-50.8-184.3-64.3c-6.4-1.3-12.7-2.8-18.9-4c-8.5-1.8-16.9-3.7-25.3-5.7c-33.6-7.5-68.4-15.3-106.3-19.2
	c-41.1-4.3-83.1-2.7-123.9-1.2c-47.3,1.6-92.2,3.2-135.1-3.3v-1.9C43,569,88,567.4,135.2,565.9z"/>
<path class="st1" d="M1357.5,985.1c-11.5,13.9-9.3,38.1-2.1,56.3c7.9,19.5,21,32,35.5,33.7c11.8,1.3,23.6,2,35.5,2
	c57.2,0,114.4-14.3,175.1-29.1c36.6-9.1,74.7-18.4,113-24.5c11.1-1.6,23.8-2.5,41.1-2.5c8.5,0,17.6,0.3,26.4,0.5
	c8.8,0.1,18.3,0.4,27.5,0.4c48,0,95.9-5.6,121.2-45.6c30.9-49.2,21-104.4,11.2-157.8c-2.4-13.2-4.8-26.9-6.7-40
	c-8.4-63-54.3-106.2-125.8-119c-20.2-3.6-40.6-5.4-61.1-5.3c-41.3,0-82.4,6.8-121.5,20.1c-66.3,22.9-107.6,49.1-123.2,115.1
	c-11.1,47.2-28.2,83.2-56.8,120.7c-11.3,14.9-29.2,35.8-50.2,51c-4.4,3.3-9.9,5.9-15.7,8.7C1372.3,974,1363.3,978.3,1357.5,985.1z
	 M1359,986.2c5.3-6.3,14.1-10.5,22.8-14.7c5.5-2.8,11.3-5.5,16-9c21.1-15.3,39.1-36.4,50.3-51.2c29-37.7,46-74,57.2-121.4
	c15.3-65.4,56.3-91.2,122-114c39-13.2,79.9-19.9,121-19.9c20.4-0.1,40.7,1.6,60.8,5.2c70.7,12.8,115.9,55.5,124.3,117.5
	c1.7,13.1,4.3,26.8,6.7,40.2c9.6,53,19.5,107.9-11.1,156.5c-24.8,39.3-72.1,44.6-119.6,44.6c-9.2,0-18.5-0.1-27.5-0.4
	s-17.9-0.3-26.4-0.3c-17.3,0-30.1,0.7-41.3,2.5c-38.4,6-76.4,15.3-113.2,24.4c-60.6,14.9-117.5,28.9-174.6,28.9
	c-11.8,0-23.6-0.7-35.3-2c-13.7-1.6-26.4-13.7-33.9-32.6C1348.9,1019.9,1349.5,997.5,1359,986.2L1359,986.2z"/>
<path class="st1" d="M1657.5,748.5c-3.2,7.9-2.7,16.4,1.7,25.5c12.4,26.1,54.4,50,74.4,56.2c18.5,5.6,37.9,0.4,51.6-13.7
	c10-10.3,15.9-24.4,15.6-37.6c-0.4-16.9-10.4-30.8-27.7-38.9c-3-1.4-6-2.6-9.1-3.6c-10.3-3.3-32.6-7.1-53.7-7.1
	C1689.8,729.1,1664,732.6,1657.5,748.5z M1659.2,749c4.7-11.6,22.7-18,51.1-18c21.1,0,42.9,3.6,53.2,6.9c3,1,5.9,2.2,8.8,3.6
	c16.8,7.7,26.3,21.1,26.7,37.2c0.4,12.8-5.2,26.4-15.1,36.4c-9.2,9.8-22,15.3-35.3,15.3c-4.9,0-9.8-0.7-14.5-2.1
	c-19.7-5.9-61-29.6-73.3-55.2C1656.6,764.6,1656,756.5,1659.2,749z"/>
<path class="st1" d="M2262.5,54.2c-0.3,4.3-0.3,8.5-0.1,12.8c0.2,4.7,0.1,9.4-0.3,14.1c-3.5,29.1-15.3,64.7-27.7,102.3
	c-12.8,38.4-26,78-32.3,116.2c-2.5,16-4.3,33.2-6,49.9c-5.2,54.4-10.5,110.4-48.6,135.5c-17.2,11.5-42.4,16.7-79.1,16.7
	c-20.5,0-42.7-1.6-64.4-3.1c-8.4-0.5-17-1.2-25.3-1.7c-75.1-4.5-231.4-24-285.9-65.4c-74.4-56.4-83.4-153.2-82.2-240.7
	c8.8-110,84-171.7,166.8-233.8h2.9c-83.2,62.4-159.1,123.8-168.2,233.9c-1.1,86.8,7.9,183.3,81.8,239.1
	c54,41.1,209.9,60.6,284.9,65.1c8.4,0.4,16.9,1.2,25.5,1.7c21.6,1.6,43.7,3.1,64.2,3.1c36.4,0,61.2-5.2,78.2-16.4
	c37.2-24.5,42.5-80.2,47.9-134.2c1.5-16.7,3.2-34,5.9-50c6.3-38.3,19.5-78,32.3-116.6c12.5-37.5,24.4-72.8,27.6-101.8
	c0.4-4.6,0.5-9.2,0.3-13.9c-0.3-4.4-0.2-8.7,0.3-13.1c3.6-28.7-0.3-62.8-10-97.1h1.9C2262.2-8.7,2266.2,25.6,2262.5,54.2z"/>
<path class="st1" d="M254.5,41.3c-1.1,25.3-0.4,50.8,0.5,75.5c1.2,37.7,2.4,73.6-4.1,102.4C235,290,145.8,340.6,67.5,364.3
	c-23.2,7.1-44.5,9.5-67.3,7.6v-1.7c22.5,1.7,43.9-0.7,66.9-7.6C144.9,339,233.5,288.9,249.2,219c6.5-28.7,5.3-64.4,4.1-102
	c-0.9-24.8-1.7-50.3-0.5-75.6c1.3-28.2,0.4-56.4-2.7-84.4h1.9C255-15,255.9,13.2,254.5,41.3z"/>
<path class="st1" d="M2169.6,70.6c-3.3,17.2-9.6,38-16.3,60.2c-9.5,31.9-20.4,68-25.9,104.7c-1.6,10.4-2.9,20.3-4.3,29.9
	c-8.7,62.7-15.5,112.1-57.4,145c-28.5,22.3-81.9,35.6-142.7,35.6c-74,0-142.8-18.7-184.2-50c-67.9-51.4-70.6-141.9-61-208.9
	c14.9-71.3,66.2-108,131.1-154.9c30.3-21.6,61.6-44.1,93.5-73c0.8-0.7,1.6-1.6,2.5-2.3h2.7c-1.5,1.1-2.7,2.4-4.1,3.6
	c-31.9,28.9-64.6,52.4-93.4,73.2c-64.7,46.3-115.8,83-130.6,153.6c-9.7,66.4-7.1,156.2,60.4,207.1c40.8,31,109.4,49.5,183,49.5
	c60.4,0,113.2-13.1,141.6-35.2c41.5-32.3,48-81.4,56.5-143.6c1.5-9.7,2.7-19.8,4.3-29.9c5.6-36.9,16.4-73.2,26-105
	c6.7-22.1,12.9-43,16.1-60c6.9-36.5,4.3-76.7-7.1-113.4h1.9C2173.9-6.1,2176.6,34,2169.6,70.6z"/>
<path class="st1" d="M873.1,176.7c-7.5,26.3-13.2,75.6-8.9,109.9c1.1,7.6,2.7,15,4.8,22.4c7.1,27.7,15.9,62.1-18.9,87.1l-0.3,0.1
	h-0.1c-64.6,7.6-103.8-45.3-138.3-92c-9.1-12.4-17.5-23.7-26.3-34.3c-31.5-32.9-74.3-56.5-119.8-81.8C495,149.1,422.2,108.7,388,30
	c-9.9-22.1-18.3-47.9-26.4-73.1h1.9c8.1,25.1,16.5,50.6,26,72.4c34.1,78.3,106.6,118.3,176.7,157.2c45.5,25.2,88.4,48.9,120,82.3
	c8.9,10.4,17.5,22,26.5,34.1c34.3,46.3,73,98.8,136.4,91.5c33.5-24.3,25.3-56.5,18.1-85.1c-2.1-8-4.1-15.7-5.1-22.7
	c-4-34.4,1.5-84.2,9.1-110.4c11.5-40.4,28.3-81,45.7-124.2c12.8-31.1,25.8-63,37.1-95.3h1.9c-11.2,32.7-24.4,64.8-37,96.1
	C901.1,95.9,884.6,136.6,873.1,176.7z"/>
<path class="st1" d="M2012,342.8c33.6-43.2,35.1-123.4,3.9-219.8l-0.1-0.4c-10.9-14.7-22-26.5-33.6-36l-0.1-0.1h-0.3
	c-10.7-1.7-21.5-2.6-32.3-2.5l0,0c-85.1,0-187.9,51.1-211,145.9c-3.7,74.4,16.5,105.1,50.4,130.6c26,19.8,65.5,31.5,105.5,31.5
	C1945,391.8,1988,374,2012,342.8z M2010.5,341.7c-23.7,30.7-66,48.3-116.2,48.3c-39.7,0-78.8-11.6-104.6-31.1
	c-33.2-25.1-53.2-55.4-49.5-129c22.7-93.6,124.6-144.3,209.1-144.3l0,0c10.7,0.1,21.3,0.9,31.9,2.4c11.3,9.5,22,21.1,32.9,35.5
	C2045.1,219.4,2043.9,299,2010.5,341.7L2010.5,341.7z"/>
<path class="st1" d="M1455.8,126c-13.5,64.8-27.2,131.6-69.5,184.9c-21.7,27.3-48.6,37.9-82.6,33c-69.9-10.4-153-73.6-197.7-107.8
	c-50-52.1-68.8-115.2-57.7-192.9c4-27.6,11.7-57.2,19.9-86.3h1.9c-8.1,29.2-16.1,59-19.9,86.6c-11.1,77.1,7.6,139.8,57.1,191.4
	c44.4,33.8,127.2,97,196.7,107.1c5.1,0.8,10.3,1.2,15.5,1.2c26.1,0,47.5-10.9,65.4-33.5c42-52.8,55.9-119.4,69.2-183.9
	c11.9-58,24.1-118.2,57.5-166.6c0.4-0.8,1-1.6,1.6-2.3h2.1c-0.8,0.9-1.6,2.1-2.4,3.2C1480,8.3,1467.7,68.1,1455.8,126z"/>
<path class="st1" d="M1903,269.5c0-2.8,0.1-6.1-0.1-9.3l-0.1-0.4c-6.4-11.2-17.2-18-28.8-18l0,0c-3.6,0-7.2,0.7-10.5,2h-0.3
	l-0.1,0.1c-2.1,2.4-4.4,4.7-6.9,6.7c-3.6,3.9-5.3,9.2-4.7,14.4c0.8,7.6,5.5,15.7,12.1,20.7l0.1,0.1c3.4,1.4,7,2.1,10.7,2.1
	c11.1,0,21.7-6.8,28.5-18l0.1-0.3L1903,269.5L1903,269.5z M1901.2,269.3c-6.4,10.4-16.4,16.8-26.8,16.8c-3.4,0-6.8-0.6-10-1.9
	c-6-4.7-10.4-12.3-11.2-19.3c-0.5-4.7,1-9.5,4.1-13.1c2.4-2,4.7-4.2,6.8-6.5c3.2-1,6.5-1.6,9.9-1.6l0,0c10.9,0,20.9,6.1,27.1,16.8
	C1901.3,263.4,1901.3,266.3,1901.2,269.3z"/>
<path class="st1" d="M88.8,189.9C66.5,217.3,45.7,228.5,0.2,237v-1.9c44.7-8.4,65.2-19.3,87.2-46.3c38.8-47.9,62.7-137,68.4-199.5
	c1.1-11.6,1.6-22.4,1.6-32.4h1.7c0,10-0.4,21-1.5,32.5C152,52.3,127.8,141.9,88.8,189.9z"/>
<path class="st1" d="M1236.4,166.4c-2.5,0-5.2,0-7.9-0.3c-24.4-2-45.9-13.3-62.3-32.7c-23.3-27.7-33.8-70.2-29.2-119.4
	c1.8-19.2,4.8-38.4,9.1-57.2h1.8c-4.2,18.9-7.2,38.1-9.1,57.4c-4.4,48.8,5.7,90.7,28.8,118.2c16,18.9,37.1,30.1,61.1,32.1
	c2.7,0.1,5.2,0.3,7.7,0.3c72.4,0,99.2-86.3,122.8-162.2c4.9-16,9.7-31.6,14.8-45.8h2c-5.2,14.1-10,30-15.1,46.3
	C1337.3,79.8,1310.3,166.4,1236.4,166.4z"/>
<path class="st1" d="M744.6,94.7c-12.1,1.7-24.4,2.6-36.7,2.5c-49,0-97.1-13.3-139.1-38.5c-40.7-24.6-74.1-59.8-96.5-101.8h2
	C520.1,42.5,608.9,95.5,707.9,95.5c12.2-0.1,24.4-0.9,36.5-2.4c52.7-7.2,104.7-50.9,142.3-119.9c2.9-5.3,5.9-10.8,8.4-16.3h1.9
	c-2.7,5.7-5.6,11.5-8.7,17.1C850.3,43.5,798,87.5,744.6,94.7z"/>
<path class="st1" d="M2.7,18.4c-0.8,0-1.7,0-2.5-0.1v-1.6h2.5c13.9,0,25.2-8.9,32.3-25.3c4.3-11,6.5-22.6,6.3-34.4h2
	c0,12.4-2.4,25-6.7,35C29.3,8.9,17.3,18.4,2.7,18.4z"/>
<path class="st1" d="M3190.8,130.2c-21.1,38.7-43.1,78.8-60.4,120.3c-9.6,22.7-18.3,47.5-27.5,73.9
	c-39.2,112.7-83.6,240.3-221.3,240.3h-5.5c-50-1.2-97.1-18.7-127.8-33.2c-7.5-3.3-15.2-6.9-22.9-10.7c-23.1-10.5-47-21.5-68.4-33.4
	c-62.6-34.5-134.3-51.4-203.5-67.8l-0.9-0.1c-5.9-1.5-12.1-2.9-18.8-4.1c-46.4-9.9-104.2-22.3-122.6-76.2
	c-14-41.6-1.1-94.8,11.3-146.2c4.5-18.8,8.8-36.5,11.7-53.4c10-58.3,10.8-113.2,1.9-163.2c-1.2-6.4-2.5-12.9-4.1-19.6h1.9
	c1.6,6.5,2.8,13,4,19.3c8.8,50.2,8.3,105.4-1.9,163.8c-3.1,16.9-7.2,34.7-11.7,53.5c-12.5,51.2-25.2,104.2-11.3,145.2
	c18,53.1,75.2,65.1,121.2,74.8c6.7,1.5,12.9,2.8,18.8,4.3l0.9,0.1c69.5,16.3,141.4,33.2,204.1,67.9c21.2,11.7,45.1,22.8,68.2,33.5
	c7.9,3.5,15.5,7.1,22.9,10.5c30.6,14.5,77.6,31.9,127.1,33.1c1.9,0.1,3.7,0.1,5.5,0.1c136.3,0,180.5-127.1,219.7-239.4
	c9.1-26.3,17.7-51.2,27.3-74c17.6-41.6,39.4-81.6,60.6-120.6c18-32.9,35.1-64,49.7-96.2s29.9-57.2,46-76h2.4
	c-16.7,18.7-32,44.2-46.9,76.7C3225.8,65.7,3208.8,96.9,3190.8,130.2z"/>
<path class="st1" d="M3798.9,467.3c-113.4-42.8-189.1-123.6-218.9-233.8c-8.4-30.7-14.1-70-19.9-108c-7.1-47.2-14.4-96-26.3-129.9
	c-4.9-14.1-12.3-27.2-21.7-38.7h2.1c9.2,11.3,16.4,24.2,21.2,38c12.1,34.1,19.3,83,26.4,130.3c5.7,38,11.6,77.4,19.9,107.9
	c29.6,109.4,104.8,189.9,217.8,232.6c9.3,3.5,25.4,7.9,39,10.7c3.2,0.5,6.4,1.2,9.7,1.6v1.9c-3.5-0.7-6.8-1.1-10.1-1.7
	C3824.5,475.3,3808.4,470.9,3798.9,467.3z"/>
<path class="st1" d="M3688.8,1281.3c-36.3-8.1-71.2-25.7-105-42.9s-68.8-34.8-104.8-42.4c-93.2-20.1-127.8,61.5-158.2,133.8
	c-4.4,10.3-8.5,20.1-12.7,29.6c-17.3,37.8-36.9,72.3-58.7,102.7c-43.6,61.2-93.8,110-149.2,145.1c-51.4,32.4-94.7,50.1-136,55.6
	c-67.1,8.9-114.8-11.9-169.8-35.7c-11.9-5.2-24.3-10.7-36.9-15.8c-36.3-14.7-77.5-31.3-105.6-67.6c-21.1-27.2-37.1-60.2-52.3-92.2
	l-3.6-7.2c-28.4-58.8-49.2-116.8-71.2-178.2c-4.9-13.9-9.9-28-14.7-41.9c-13.2-38-26.8-77.4-43.5-114.6
	c-12.4-28.4-31.3-53.1-49.6-77.1c-10.3-13.3-20.8-27.1-30-41.3c-23.6-36-60.6-67.5-96.4-97.9c-12.9-11.1-25.2-21.5-36.7-32
	c-7.2-6.4-14.8-13.1-23.1-20c-37.1-32-79.1-68.3-90.1-114.3c-1.5-6.1-2.8-12.3-4.1-18.1c-11.9-51.5-22.3-96-73.8-128.3
	c-48.7-30.5-107.9-40.4-160-49.1c-24.7-4.1-49.8-7.3-73.9-10.7c-44.8-5.7-87-11.4-125.2-21.4c-87.5-23.3-140.8-84-158.6-180.7
	c-17.2-94.3,0.3-209.4,19.8-256.5c17.5-42.4,46.9-75.6,82.3-105.4h2.9c-36,29.9-65.9,63.4-83.6,106.2
	c-19.2,46.7-36.8,161.4-19.6,255.4c17.7,95.9,70.4,156.2,157.2,179.1c38.3,10.3,80.4,15.7,125.1,21.6c24.2,3.1,49.2,6.3,73.9,10.4
	c52.3,8.8,111.6,18.7,160.7,49.5c52.3,32.7,62.4,77.5,74.4,129.4c1.5,5.9,2.9,12,4.3,18.1c10.9,45.5,52.8,81.4,89.6,113.2
	c8.1,7.1,16,13.7,23.1,20.3c11.5,10.4,23.6,20.9,36.7,31.9c35.9,30.5,73,61.9,96.6,98.3c9.3,14.1,19.9,27.9,30,41.2
	c18.3,24,37.3,48.9,50,77.4c16.7,37.2,30.3,76.7,43.5,114.8c4.8,13.7,9.7,28,14.7,41.9c22,61.2,42.8,119.1,71.2,178.1l3.3,7.2
	c15.4,31.9,31.2,64.7,52.4,91.9c27.8,35.7,68.7,52.3,104.7,66.8c12.8,5.3,25.1,10.7,36.9,15.8c54.8,24,102.2,44.7,169,35.9
	c41.1-5.6,84-23.1,135.2-55.5c55.2-34.9,105.4-83.6,148.8-144.8c21.5-30.1,41.1-64.7,58.3-102.3c4.3-9.3,8.4-19.2,12.8-29.6
	c14.8-34.8,31.3-74.3,55.8-101.6c28.1-31.3,62.3-42.3,104.6-33.2c36,7.7,71.1,25.6,105.1,42.8c33.8,16.9,68.7,34.7,104.6,42.5
	c59.2,13.2,113.5-2.1,159.1-18.3v1.8C3802.5,1279.2,3748.3,1294.2,3688.8,1281.3z"/>
<path class="st1" d="M3594.9,607.2c-42.3-41.1-82.3-80-134.7-95.2c-72.8-21.5-127.9,32.1-181.3,84.2c-3.2,3.2-6.5,6.4-9.7,9.6
	c-27.1,26.1-59.5,46-90.8,65.1c-22.4,13.7-45.8,28-66.7,44.4c-15.7,12.4-32.4,23.9-48.6,34.9c-10.9,7.7-22.1,15.5-32.8,23.2
	c-17.9,13.1-30.3,33.6-42.4,53.6c-6.5,10.7-13.2,21.9-20.8,31.3c-20.5,26.4-49.5,46.4-77.6,65.9c-51.5,35.5-100.2,69.1-103.6,138.7
	c-2,41.5,7.3,93,25.6,141.4c17.5,45.8,50.4,95.4,90.6,136.2c27.3,27.7,55.1,40.7,82.4,38.4c48.5-4.1,90.1-55.5,121-99.9
	c18.1-26.1,25.4-51.2,32.8-77.9c4.4-15.5,8.9-31.2,15.9-48.1s15.3-33.3,23.2-49.4c12.8-25.2,25.7-51.2,33.9-79.1
	c13.6-46.5,16.3-114-4.8-153c-20.5-37.6-10.8-101.5,10.8-135c19.6-30.4,68.7-49.7,108.2-65.3c8.9-3.5,17.2-6.9,24.7-10
	c3.5-1.6,7.1-3.1,10.4-4.7c12.8-5.6,23.6-10.7,36-13.2c61.2-12.5,103.5,16.8,129,89.6c26.8,76.5,8.3,146.2-52.3,196.2
	c-18.4,15.1-39.5,26.7-59.9,37.9c-9.2,5.1-18.8,10.4-28,15.9c-2.4,1.5-4.8,2.8-7.2,4.4c-26.7,15.9-59.8,35.6-78,58.6
	c-27,33.8-49.4,71.1-66.7,110.8c-8.5,20-15.3,40.4-22.4,62.2c-5.2,15.6-10.5,31.6-16.7,47.9c-14,37.1-35.3,70-50.6,91.1
	c-28.8,39.2-80.7,91.9-132.3,111.1c-81.6,30.3-191.5-50.3-245.5-111.6c-30.3-34.4-49.9-77.4-65.2-114.7
	c-4.1-10.1-8.1-20.5-12.3-30.5c-22.3-56-43.5-109-78.7-157.8c-11.3-15.7-20.7-32.5-29.7-48.8c-6.5-11.6-13.2-23.9-20.7-35.5
	c-18.9-29.6-47.8-47.2-76.1-61.9c-13.1-6.8-26.7-13.1-39.7-19.3c-37.9-17.6-77-36-108.8-66c-20.3-19.2-28.3-39.5-24-60.4
	c7.1-34.7,45.5-60.7,79.2-73.2c70-26.1,151.1-16.7,222.5-8.1l9.2,0.9c5.7,0.7,11.3,1.2,16.9,1.9c31.5,3.2,61.4,6.3,91.2,23.3
	c4.8,2.7,9.5,5.3,14.1,8c45.2,25.7,84.3,48.1,136.2,59.6c32.5,7.3,81,6.7,110.4-11.9c14.7-9.1,21-22.9,27.6-37.6
	c4-9.1,8.3-18.3,14.4-26.7c24.8-32.4,58.3-57.9,90.7-82.7c31.7-24.1,64.7-49.2,89.5-80.8c14.8-18.8,27.2-42.1,39.4-64.5
	c12-22.5,24.5-45.8,38.8-63.6c29.5-36.4,69.5-49,113.2-35.4c37.9,11.9,79.9,44,120.6,75.1c6.3,4.8,12.3,9.5,18.3,14
	c21.2,16,41.9,32.8,61.9,49.1c54.9,44.7,107,87,165.5,110.7c23.2,9.3,49.8,16.1,78.2,21.6v1.9c-28.8-5.6-55.5-12.3-78.8-21.9
	c-58.8-23.8-111-66.3-166-111c-20-16.3-40.6-32.9-61.8-49c-6-4.5-12.1-9.2-18.1-14c-40.5-30.9-82.4-63.1-120.2-74.8
	c-42.9-13.3-82.4-1.1-111.2,34.8c-14.1,17.6-26.1,39.7-38.7,63.1c-12.1,22.7-24.8,46.2-39.6,65c-25.1,31.7-57.9,56.9-89.8,81.2
	c-32.3,24.7-65.6,50.2-90.3,82.4c-6,8-10.1,17.2-14.3,26.1c-6.8,14.8-13.2,28.9-28.1,38.5c-30,18.8-79.1,19.5-111.9,12.1
	c-52.1-11.7-91.4-34-136.7-60c-4.7-2.5-9.5-5.2-14.1-8.1c-29.5-16.7-59.1-19.6-90.6-22.8c-5.5-0.7-11.2-1.3-16.9-1.9l-9.1-1.2
	c-71.4-8.3-152-17.7-221.8,8.3c-41.8,15.5-72.4,43.7-78,71.9c-4.1,20.3,3.7,40,23.6,58.7c31.5,29.8,70.6,48.2,108.2,65.9
	c13.2,6,26.8,12.4,40,19.2c28.4,14.7,57.6,32.5,76.8,62.7c7.3,11.6,14.1,23.6,20.7,35.3c9.1,16.3,18.4,33.1,29.6,48.5
	c35.5,49.1,56.5,102.2,79,158.3c4,10.1,8,20.3,12.3,30.7c15.3,37.1,34.8,79.8,64.8,114c53.6,61,162.7,141.1,243.5,111.1
	c51.2-18.9,102.8-71.5,131.4-110.6c15.5-21,36.7-53.6,50.5-90.6c6.1-16.1,11.5-32.3,16.5-47.8c7.1-21.7,13.9-42.3,22.5-62.3
	c17.3-39.9,39.8-77.2,66.8-111.2c18.5-23.2,51.8-43.1,78.4-59.1c2.5-1.3,4.9-2.8,7.5-4.4c9.1-5.5,18.8-10.7,28-15.9
	c20.3-11.1,41.2-22.5,59.5-37.6c59.9-49.5,78.3-118.4,51.9-194.3c-25.2-71.9-66.8-100.7-127.1-88.4c-12,2.5-22.9,7.3-35.6,13.1
	c-3.3,1.5-6.9,3.1-10.4,4.8c-7.3,3.1-15.9,6.3-24.7,9.9c-39.3,15.6-88.2,34.8-107.4,64.7c-21.2,33.1-30.9,95.9-10.8,133.1
	c21.2,39.2,18.5,107.5,4.9,154.4c-8,27.9-21.2,54-33.7,79.4c-8.1,16-16.3,32.6-23.2,49.3s-11.5,32.6-15.9,47.9
	c-7.5,26.8-14.7,52-33.1,78.4c-31.1,44.6-73.1,96.4-122.3,100.6c-27.9,2.4-56-10.7-83.8-38.8c-40.4-41.1-73.5-91-91-136.8
	c-18.4-48.7-27.7-100.6-25.7-142.2c3.5-70.4,54.7-105.8,104.3-140c28-19.3,57-39.3,77.4-65.5c7.5-9.3,13.9-20,20.7-31.3
	c12.1-19.9,24.7-40.5,42.7-53.9c10.8-7.9,22.1-15.7,32.9-23.2c16-11.2,32.7-22.8,48.4-35c21.1-16.5,44.4-30.8,67-44.4
	c31.3-19.2,63.6-38.9,90.4-65.1c3.5-3.2,6.5-6.3,9.9-9.6c53.6-52.1,109.1-106.3,183-84.5c52.7,15.3,93,54.3,135.5,95.6
	c40.3,39.2,82.1,79.9,138.4,103.5c36,15.1,75.2,23.7,113.6,31.6v1.9c-38.7-7.9-78-16.7-114.4-32
	C3677.4,687.3,3635.5,646.6,3594.9,607.2z"/>
<path class="st1" d="M3660.5,1139c-29-6.1-58.6-20.8-89.9-36.1c-52-25.6-105.6-52.2-155.1-36.7c-89,27.7-123.1,122.3-153.2,205.5
	c-6.3,17.1-12,33.1-18.3,48.6c-13.3,33.4-30.5,65-51.4,94.3c-31.6,44-70.4,71.2-111.5,99.9c-6.3,4.3-12.4,8.7-18.8,13.1
	c-36.1,25.7-80.3,51.1-131.2,43.8c-16-2.3-32.7-10.8-48.7-19.1c-10.1-5.3-19.7-10.1-29.1-13.6c-6.9-2.5-14-5.2-21.2-7.9
	c-54.6-19.6-111-40.2-149.8-84.3c-11.1-12.7-20.7-29.2-29.9-44.9c-4.8-8.4-9.3-16.1-14-23.6c-19.3-29.5-35.9-62-49.6-96.7
	c-14.7-37.7-23.3-78.2-31.6-117.4c-9.1-42.3-18.4-86.2-35.4-125.9c-17.5-40.8-63.6-70.2-104.4-95.9c-11.1-7.1-21.6-13.7-30.9-20.4
	c-27.7-19.3-51.9-42.7-75-65.3c-15.2-14.8-30.9-30.3-47.6-44.3c-38.6-32.5-55.8-88.2-45.2-145.1c18.7-99.8,57.5-116.2,141.5-130.2
	c64-10.5,138.6-8,227.7,7.5c51.4,9.1,100.2,42.3,147.2,74.2c17.2,11.8,33.3,22.7,49.2,32.2c66.2,40,144.7,31.6,209.9-22.3
	c8.4-6.8,16.8-13.6,25.2-20.1c49.6-39.7,96.6-77.2,121.5-136.8c11.1-26,18.3-53.8,25.4-80.7c6.8-26.3,13.9-53.5,24.5-79.2
	c16-38.7,47.4-81.5,81.9-111.8c29.7-26.3,74.8-54.6,120.4-41.2c42.4,12.4,67.4,60.5,93.9,111.5c16.8,32.4,34.4,65.8,57.5,93.5
	c30,36.1,70.2,68.8,97.8,90.3l2.8,2.3c59.2,45.9,115,89.4,188.9,104c4.7,1.1,9.5,1.9,14.3,2.5v1.9c-4.9-0.8-9.7-1.6-14.8-2.5
	c-74.3-14.8-130.2-58.4-189.3-104.4l-3.1-2.3c-27.6-21.5-67.8-54.4-98-90.6c-23.2-27.9-40.6-61.5-57.6-93.9
	c-26.3-50.7-51.2-98.4-92.8-110.6c-44.7-13.2-89.2,14.8-118.7,40.7c-33.9,29.8-65.9,73.4-81.4,111.2c-10.7,25.6-17.7,52.8-24.5,79
	c-7.1,26.9-14.3,54.8-25.4,81c-25.2,60-74.6,99.4-122.3,137.5c-8.1,6.5-16.7,13.3-24.9,20.1c-66,54.4-145.2,62.7-212.1,22.5
	c-16-9.6-32.1-20.5-49.1-32.2c-47.2-32-95.9-64.9-146.8-73.9c-88.8-15.7-163.1-18.1-227-7.5c-83.1,13.7-121.5,30.1-140,128.7
	c-10.5,56.3,6.7,111.2,44.6,143.2c16.7,14.3,32.6,29.6,47.9,44.5c23.1,22.5,46.9,46,74.6,65.2c9.3,6.5,20,13.2,30.9,20.3
	c40.9,25.9,87.4,55.2,105.1,96.6c17.1,40,26.4,84,35.5,126.3c8.4,39.2,16.8,79.5,31.6,117c13.2,33.8,29.7,66.1,49.3,96.6
	c4.8,7.3,9.3,15.3,14.1,23.6c9.2,15.7,18.7,32,29.8,44.7c38.5,43.7,94.7,64.2,149,83.9c7.1,2.7,14.1,5.2,21.4,7.7
	c9.5,3.6,19.3,8.8,28.9,13.7c16,8.3,32.6,16.7,48.3,18.9c50.4,7.2,93.9-18,130-43.5c6.4-4.5,12.4-8.7,18.7-12.9
	c41.1-28.8,79.8-55.8,111.1-99.5c20.3-28.2,37.4-59.9,51.2-94.2c6.1-15.2,11.9-31.3,18.1-48.4c30.3-83.6,64.6-178.6,154.6-206.6
	c50-15.6,104.2,11.1,156.3,36.8c31.4,15.5,60.8,29.9,89.4,36c40.6,8.7,115.4,12.1,187.5,10.4v1.9C3776,1151,3701,1147.7,3660.5,1139
	z"/>
<path class="st1" d="M3624.1,2565.2c-48.7-33.8-77.9-81.6-86.7-142c-3.5-23.6-0.8-49.5,1.9-74.3c2.9-26.1,5.7-53.1,1.6-78.6
	c-4.5-29.2-20.3-55.4-40.1-66.9c-14-8.3-29.5-9.2-45.7-3.1c-52.6,61.1-95.5,101.6-160.2,128c-18.5,7.5-37.2,14-60.5,21.2
	c-11.3,3.6-22.8,7.3-33.9,10.9c-70.3,23.1-143.1,46.8-261.4,37.1c-56.8-4.7-99.6-15.2-137-52.9c-24.7-25-43.4-55-61.1-84
	c-13.1-20.8-26.4-42.5-41.8-61.9c-7.9-9.9-17.1-19.6-26-29.1c-13.2-14-27.1-28.4-37.2-44.4c-20.9-33.2-21.9-88.6-14-125.8
	c10.4-48.7,41.5-90.4,72.7-129.1c7.6-9.6,14.9-20.1,22.9-31.2c20.8-29.9,42.4-60.7,72.4-76.7c32.9-17.3,71.4-17.5,107.9-14.9
	c12.7,0.8,25.5,4.4,38,7.6c18.3,4.9,37.2,10.1,55.5,6.8c65-11.6,138.6-56.8,185.7-95.4c25.5-20.7,48.7-44.1,69-69.9
	c15.7-20,30.8-40.1,47-61.8c27.5-36.8,55.9-74.8,88.2-112.4c30-35.1,69.1-68.2,130.4-46.9c34.8,12.1,64.8,32.9,92.7,53.3
	c41.2,30.4,78.5,73,114.7,114.3c32.9,37.9,64.3,73.6,95.1,95.5c8.4,6,18.4,11.6,34.3,15.3v1.7c-12.7-2.7-24.8-8-35.4-15.6
	c-31.1-22-62.3-57.8-95.5-95.9c-35.9-41.1-73.1-83.8-114.3-113.9c-28.7-21.2-57.6-41.2-92.2-53.1c-60.4-21-99,11.7-128.6,46.3
	c-32.1,37.6-60.7,75.8-88,112.4c-16.1,21.6-31.3,41.9-47.1,61.8c-20.4,25.9-43.6,49.5-69.2,70.3c-47.3,38.5-121.2,84-186.4,95.6
	c-18.7,3.3-37.8-1.7-56.3-6.8c-12.4-3.2-25.1-6.7-37.6-7.5c-36.3-2.5-74.4-2.5-107,14.7c-29.6,15.7-51.1,46.4-71.9,76
	c-7.7,11.2-15.2,21.7-22.9,31.5c-30.9,38.3-62.1,79.9-72.3,128.3c-7.7,36.9-6.8,91.6,13.9,124.4c9.9,15.9,23.6,30.3,36.9,44.3
	c8.9,9.3,18.3,19.1,26,28.9c15.6,19.6,28.9,41.2,41.7,62.1c18,29.1,36.4,58.9,61.1,83.6c36.9,37.3,79.4,47.9,135.8,52.6
	c118,9.6,190.7-14,260.8-37.1c11.1-3.6,22.6-7.3,33.9-10.9c23.2-7.2,42-13.7,60.3-21.2c64.5-26.1,107.5-66.7,159.6-127.6l0.1-0.1
	l0.3-0.1c17.1-6.4,33.1-5.2,47.6,3.1c20.3,11.9,36.4,38.7,41.1,68.3c4,25.6,1.1,52.7-1.7,79c-2.5,24.8-5.2,50.6-1.9,73.9
	c8.8,60,37.8,107.4,85.9,140.9c55.1,38.3,132,56.1,223.3,52.7v1.9C3756.7,2621.6,3679.4,2603.7,3624.1,2565.2z"/>
<path class="st1" d="M1049.1,3546.2c3.1-25.1,6.9-71.6-1.7-102.8c-14.4-51.5-56-95.8-96.2-138.7c-56.8-60.4-115.5-123-97.5-206.6
	c9.7-45.1,34-73.1,74.7-85.8c35.2-11.1,78.6-9.6,127.4-6.9c89.1,4.9,149.5-9.7,184.6-23.1c35.5-13.6,68-36,99.8-57.9
	c42.4-29.2,82.6-57,127.9-63.1c18.2-2.4,33.1-1.9,50.2,2c42.4,9.3,74.4,30.7,108.3,53.4c57.6,38.3,117.1,78,232.6,55
	c25.3-4.9,50.6-12.5,77.2-20.4c85.1-25.2,173.1-51.1,271.5,1.1c89,44.7,145,126.7,199,206.1c25.2,36.9,51.3,75.4,80.2,109
	c36.9,43,87.2,101.8,149,81.4c24.8-8,50.4-12,75.2-15.9c39.4-6.3,79.9-12.7,116.4-35.6c26.1-16.4,46.4-39.8,66.2-62.4
	c9.2-10.5,18.8-21.5,28.8-31.6c22.1-22.3,40-48.6,57.4-73.9c14.8-21.6,30-43.8,47.9-63.6c24-21.2,45.1-39.7,69.6-61.9
	c29.6-27.1,56.7-59.2,82.8-90.1c50.1-59.6,97.4-115.8,159.1-133.9c43.6-12.9,88.7-11.2,146.2,5.3c30.7,8.9,71.2,26.1,99.8,39.2
	c57.9,26.3,123.1,62.3,174.2,96c39.7,26.3,70.7,63.9,88.8,107.9v4.7c-17.7-45.4-49-84.1-89.6-111c-51.2-33.8-116.3-69.8-174.2-96
	c-28.4-12.9-68.8-30.3-99.4-39.1c-57.4-16.4-102-18.1-145.2-5.5c-61.2,18-108.3,74-158.3,133.4c-26.1,30.9-53.2,63.2-83.1,90.3
	c-24.5,22.3-45.5,40.9-69.5,62c-17.7,19.6-32.8,41.9-47.6,63.4c-17.3,25.3-35.5,51.6-57.5,74c-10.1,10.1-19.6,21.1-28.8,31.7
	c-19.8,22.7-40.1,46.1-66.6,62.6c-36.8,23.2-77.6,29.6-117.1,35.7c-24.8,4-50.4,8-74.8,16c-62.9,20.7-113.9-38.5-151-81.9
	c-28.9-33.9-54.9-72-80.3-109.1c-54-79.4-109.8-161.2-198.2-205.5c-97.9-51.9-185.7-26-270.5-0.9c-26.7,7.9-51.9,15.3-77.4,20.4
	c-116,23.1-175.9-16.7-233.8-55.2c-33.8-22.6-65.6-43.8-107.9-53.1c-16.7-3.7-31.5-4.3-49.3-1.9c-44.8,5.9-85,33.5-127.2,62.8
	c-31.6,21.7-64.6,44.4-100.2,58c-35.1,13.3-95.8,28.1-185.3,23.2c-83.6-4.7-178.6-10-200.3,91.2c-17.6,82.7,40.7,145,97.1,205.1
	c40.4,43.1,82.1,87.5,96.6,139.4c8.4,29.8,5.7,72.7,2,103.5c-6.1,49.5-20.7,100.3-36.1,153.9c-1.6,5.7-3.2,11.5-4.9,17.3h-1.9
	c1.7-6,3.5-11.9,5.2-17.9C1028.5,3646.3,1043.2,3595.7,1049.1,3546.2z"/>
<path class="st1" d="M3649.4,154.3c-6.7-35.6-9.7-72.4-12.8-108c-2.7-31.1-5.2-61.2-10-89.4h1.7c4.8,28.3,7.5,58.6,10,89.2
	c3.2,35.6,6.3,72.4,12.9,107.9c23.1,123.8,84.9,197.8,179.1,213.9c6.1,1.1,12,1.7,17.9,2.3v1.7c-6.1-0.4-12.2-1.1-18.3-2.3
	C3735.2,353.4,3672.8,279,3649.4,154.3z"/>
<path class="st1" d="M3128.6,55.9c-10.4,36.7-27.2,74.6-43.5,111.1l-2.8,6.3c-10.5,24.1-19.2,49.9-28.3,77.2
	c-18.5,55.9-37.7,113.6-75.8,155.2c-33.7,36.8-88.8,58-151.2,58c-34.9,0-68.6-6.8-97.1-19.6c-33.8-15.1-61.1-33.1-83.6-54.9
	c-18.8-18.3-46.3-27.7-72.8-37.2c-17.7-6-36-12.5-52-21.5c-48.3-27.5-78.7-65.8-87.8-111.2c-8.5-42.3-7.6-96.8-6.7-149.5
	c0.4-32,1.1-65.2-0.4-95.9c-0.3-5.3-0.7-11.2-1.2-17h1.9c0.4,5.7,0.8,11.5,1.1,17c1.5,30.5,0.9,63.9,0.4,95.9
	c-0.9,52.7-1.7,107.1,6.7,149.2c9.1,44.8,39.1,82.8,87,110c15.7,8.8,34,15.2,51.8,21.3c26.5,9.3,54.1,18.9,73.4,37.5
	c22.4,21.7,49.6,39.6,83.2,54.7c28.4,12.7,61.6,19.3,96.3,19.3c61.9,0,116.4-20.9,149.9-57.5c37.7-41.3,57-98.8,75.4-154.6
	c9.2-27.2,17.7-53.2,28.4-77.2l2.9-6.4c16.1-36.5,32.7-74.1,43.2-110.8c5.9-20.7,10.9-43.5,15.9-65.6c2.5-11.3,4.9-22.3,7.5-32.8
	h1.9c-2.5,10.5-5.1,21.7-7.6,33.2C3139.7,12.3,3134.6,35.2,3128.6,55.9z"/>
<path class="st1" d="M3046.8,23.7c-4.3,28.9-9.2,61.8-20.9,90.4c-4.7,11.7-11.9,21.5-18.9,30.9c-5.5,7.2-10.8,14.5-15.2,22.8
	c-6.4,11.7-11.5,24.9-16.8,38.9c-15.5,39.6-31.3,80.6-75.1,92.2c-10.4,2.8-24,4-41.6,4c-18.5,0-38.1-1.5-55.6-2.9
	c-6.9-0.4-13.3-0.9-19.3-1.5c-56.7-3.5-117.2-25.1-162.3-58c-54.3-39.5-69.9-106-76.9-153c-5.3-33.6-10.1-83.4,6.1-125.5
	c0.8-1.7,1.5-3.5,2.1-5.2h2c-0.8,2-1.7,3.9-2.5,5.9c-16.1,41.6-11.2,91.2-6.1,124.7c7.1,46.4,22.7,112.7,76.4,151.8
	c44.8,32.7,105.2,54.1,161.4,57.8c6,0.3,12.4,0.8,19.3,1.3c17.5,1.5,37.1,3.1,55.5,3.1c17.3,0,30.8-1.5,41.2-4.3
	c42.9-11.4,58.6-51.9,73.8-90.8c5.5-14.3,10.7-27.3,16.9-39.2c4.4-8.3,10-15.7,15.3-22.9c6.9-9.5,14.1-19.2,18.8-30.5
	c11.6-28.5,16.5-61.2,20.8-90.2c3.1-20.5,4.3-43.5,4.1-66.6h1.7C3051.3-20.7,3050,1.6,3046.8,23.7z"/>
<path class="st1" d="M3846.7,237.3h-0.1c-84.4-7.6-131.6-99.5-144.2-280.4h1.9c12.4,179.7,58.9,270.9,142.3,278.6
	c0.6-0.2,1.1-0.2,1.7-0.3v1.8C3847.8,237.2,3847.2,237.3,3846.7,237.3L3846.7,237.3z"/>
<path class="st1" d="M3825.5,10.1c-9.2-15.3-18.3-33.1-20-53.2h1.7c1.9,19.5,10.8,37.1,19.7,52c7.5,4.5,14.7,7.1,21.4,7.7v1.6
	c-7.1-0.5-14.6-3.1-22.6-7.9L3825.5,10.1z"/>
<path class="st1" d="M984.9,197.5c13.9,45.2,37.5,72.6,74.6,113.5c5.7,6.5,12.1,12.9,18.9,20c26.4,27.3,56.4,58.4,63.1,90.7
	c13.3,64.5-26.5,102.4-67.5,130.7c-20.3,14-43,25.1-65,35.7c-28.4,13.8-57.8,28.3-82.1,49.2c-25.9,22.4-48.1,54.3-66.4,95
	c-8.3,18-11.9,37.6-15.6,56.4c-3.5,18.4-7.1,37.3-14.8,54.9c-35.8,80-82.4,170.5-158.7,233.8c-33.2,27.5-75.1,71-86.2,122.7
	c-7.2,34,2.8,63.8,10.9,87.6l1.3,4.3c18.1,53.8,72.3,182.4,185.6,214.8c20.3,5.9,45.2,10.1,71.5,14.8c33.1,5.6,67.4,11.6,92.2,20.8
	c39,14.4,66.7,34.3,96.2,56.8l4.3,3.2c28.1,21.6,63.2,48.4,109,45c39.6-3.3,85-23.9,124-57c39.6-33.3,66-73.8,72.8-111
	c4.3-24,6.3-43.3,8.1-62c1.7-16.1,3.1-31.3,6.1-48.2c14.7-84,55-151.1,119.9-199c52.8-39,123.1-66.3,209.3-81.1
	c111.8-19.5,206.7,17.1,242.2,33.6c56.6,26.4,117.1,89.9,169.4,147.5c52,57.2,79.5,91.1,85.6,181.9c2,29.2-0.4,57.4-2.7,84.8
	c-0.8,10.7-1.9,21.6-2.5,32.6c-0.4,8-1.1,16-1.9,24.5c-2.5,27.6-4.9,56.2,0,85.5c10.5,60.5,45.5,87.3,107.2,81.4
	c80.4-7.5,150.8-60.8,179.1-135.9c22.6-59.8,4.4-122.2-10-172.6l-2.4-8.3c-23.9-83.3-56.4-148.3-99.2-198.7
	c-24.4-28.4-51.2-55.1-77.4-81.1c-9.7-9.5-19.6-19.3-29.2-29.2c-13.6-13.7-28.7-26.4-43.4-38.6c-18.3-15.2-37.2-31.2-53.4-49.5
	c-22.8-25.7-39.7-54.9-53.5-80c-44.7-82.2-75.9-154.7-95.2-221.1c-17.5-60-65.8-107.8-129.1-127.6c-81.8-25.5-198.9-22.5-348,8.8
	c-73.1,15.5-116.7,57.3-129.2,124.7c-14.3,76.8-66.3,115.1-121.1,155.5c-14.1,10.4-28.7,21.2-42.8,32.5
	c-58.3,47.8-29.2,93,1.5,140.8c13.7,21.5,27.9,43.5,33.9,66c9.7,35.2-2.8,72.4-14.8,108.4c-6.3,18.8-12.1,36.4-15.1,53.9
	c-14.1,83.1-28.3,148.7-70.6,175.7c-22.7,14.4-51.8,16.4-89.1,5.9c-6-1.5-12.7-3.5-19.8-5.6c-14.4-4.3-30.8-9.1-44.3-12
	c-23.3-5.3-47.6-8.4-73.3-11.5c-27.3-3.5-55.5-6.9-86.6-13.5c-47.1-9.7-88.5-32.4-119.8-65.5c-30.7-32.4-50.2-73.5-56.6-118.7
	c-2.7-19.2-3.5-35.7,1.9-53.7c15.5-52.6,63.2-89.6,105.2-122.3c9.7-7.5,18.9-14.6,27.7-21.9l1.5-1.2c40.7-33.6,91.4-75.5,89.5-133
	c-2-59.2,5.6-102.2,25.2-143.8c31-65.4,74.6-105.1,150.6-136.8c5.7-2.3,11.3-4.7,17.1-6.9c26.1-10.8,52.9-21.9,78-36
	c20.4-11.5,34.1-25.9,48.6-41.1c8-8.4,16.3-17.1,25.7-25.3c11.3-9.9,22.1-22.9,33.5-36.9c28.7-35.5,61.2-75.6,111.5-66
	c25.7,4.9,51.1,22.7,78,41.4c23.5,16.4,47.8,33.3,75.1,44.1c46.3,18.1,111.5,22.4,180.6,27.1c41.9,2.8,85.4,5.7,125,11.9
	c90.2,14.3,151.1,45.9,186.3,96.7c10.5,14.9,17.5,31.9,24,48.3c5.1,12.8,10.3,25.9,17.2,37.9c5.1,9.2,13.1,16.3,20.8,23.3
	c4.5,3.8,8.8,7.9,12.8,12.3c7.2,8,14.1,16.4,20.9,24.7c7.5,9.1,15.2,18.5,23.5,27.5c12.8,14,27.3,26.8,41.3,39.5
	c12.9,11.7,26.4,23.9,38.7,36.9c10.2,10.6,18.3,22.2,26.2,33.4c8.9,12.8,17.9,25.7,30.1,37.6c20.5,20.4,42,42.7,59.2,67.5
	c14.7,21.2,21.2,42,28.5,63.9c2,6.8,4.3,13.7,6.9,20.9c5.5,15.9,15.5,30.9,25.1,45.6c5.7,8.7,11.5,17.5,16.3,26.3
	c17.6,32.1,33.2,65.4,46.5,99.5c3.5,9.2,6.7,18.5,10,27.6c1.3,3.9,2.8,7.6,4.1,11.5c6.3,17.3,12.9,34.9,19.5,52
	c18.7,49.5,38.1,100.6,48.1,147.2c6.4,29.8,12,61.5,5.2,92.8c-23.2,107.6-127.5,219.8-223.1,240.3c-44.1,9.3-99.9,8.8-156.8-1.9
	c-94.6-17.7-129.5-63.4-124.7-163c1.1-23.2,3.3-46.7,5.2-69.3c4.5-49.1,8.8-95.5,3.6-140.3c-2.9-25.7-11.6-48.8-17.7-63.8
	c-13.9-33.5-45.6-90.7-85.2-152.7c-38.9-61-91.3-105.4-143.9-122c-99.6-31.6-233.1-0.3-310.8,73.1c-38.9,36.7-80.4,99.5-57.3,189.4
	c1.7,5.7,3.8,11.4,6.3,16.8c3.2,6.9,6.3,14.3,8,22.3c12,20.8,27.1,39.5,41.8,57.6c33.1,40.9,64.3,79.5,52.3,134.7
	c-2.1,10.1-6.7,20.9-11.5,32.6c-9.7,23.7-19.7,48.1-8,62.7c20.5,25.6,48.6,52.3,78.3,80.4c51.3,48.8,104.6,99.5,119.6,147
	c15.3,47.6-16,95-29.3,115c-14.4,21.7-30.9,44.1-48.3,68.1c-13.5,18.4-27.5,37.5-40.7,56.4c-10.9,15.9-21.6,31.1-32.2,46.1
	c-24.3,34.9-47.2,67.8-70.8,103c-9.3,14-18.7,29.1-27.9,43.5c-15.3,24.3-31.1,49.2-47,70.4c-34.7,46.4-73.8,65.5-116.6,56.8
	c-42.4-8.7-88.4-41.5-128.3-71.4c-5.5-4-10.8-8-16.1-12.1c-74.4-55.9-159-119.1-181.2-189.4c-18.8-59.9,16-87.8,52.8-117.2
	c4-3.2,8-6.4,11.9-9.7c24.5-20.1,43.3-41.1,58.4-58.7c20.5-24.1,38.8-53.1,56.4-81.1c12.4-19.7,24.2-38.7,35.9-54
	c40.4-52.9,92.8-76.3,143.4-99.1c49.8-22.1,101-44.8,139.8-95.6c0-1.9,0.1-3.6,0.1-5.5c0.1-5.3,0.4-10.7-1.1-15.6
	c-46.2-49.9-103.4-62.3-175-38.4c-21.9,7.3-43.5,18.9-66.4,31.5c-51.2,27.8-104.2,56.3-165.1,37.8c-43.9-13.2-74.3-44.1-103.8-74
	c-29.1-29.6-59.1-60.2-102.6-75.3c-25.5-8.7-51.8-11.2-88.7-14.2c-93.1-7.1-138-17.7-176.3-66.3c-50.4-64.2-112.6-177.4-131.6-224.2
	c-7.5-18.7-12.1-32.7-14.3-43c-16.3-81.6,33.9-145.4,79.2-192.1c10.9-11.1,23.1-21.5,34.7-31.3c10.4-8.9,21.2-18.1,31.2-27.9
	c20.3-20.3,36.5-44.4,52.2-67.8c8.1-11.9,16.1-24,24.8-35.6c62.5-83.4,81.4-156,61.2-235.8c-14.7-57.2-48-129.6-124.7-149.4
	c-28.2-7.2-58.6-10.8-90.6-14.4c-29.8-3.6-60.7-7.1-90.8-14c-26.4-6-51.3-13.7-75.5-21.5c-33.7-10.5-65.6-20.6-98.5-24.8
	c-57.8-7.7-109,4.4-158.6,15.8C82.6,475.4,41,485,0,479.5V478c40.8,5.6,82.2-4,125.9-14.1c49.7-11.6,101.1-23.5,159.2-15.9
	c33.2,4.3,65,14.3,98.8,24.8c24,7.6,49.1,15.3,75.5,21.3c30.1,6.8,60.7,10.4,90.4,13.9c32.2,3.7,62.6,7.2,90.8,14.5
	c61.3,15.9,105,67.9,125.9,150.6c20.4,80.4,1.5,153.5-61.4,237.5c-8.6,11.4-16.7,23.6-24.7,35.3c-15.9,23.5-32.2,47.8-52.7,67.9
	c-9.9,10-20.7,19.2-31.1,28c-11.6,10-23.6,20.3-34.5,31.5c-45.1,46.2-95,109.5-78.7,190.5c2,10.1,6.7,24,14.1,42.5
	c18.9,46.7,80.9,159.8,131.2,223.6c37.8,48,82.7,58.8,175.1,65.9c37.1,2.8,63.3,5.3,89.2,14.3c43.9,15.1,74,45.9,103.2,75.5
	c30.5,31.2,59.5,60.7,102.8,73.6c60.4,18.3,113.1-10.1,163.9-37.6c23.1-12.4,44.7-24.3,66.6-31.6c72.6-24.2,130.4-11.5,177.2,38.9
	l0.1,0.4c1.5,5.5,1.3,11.1,0.9,16.4v6l-0.3,0.3c-39,51.2-90.6,74.3-140.4,96.6c-50.4,22.4-102.7,45.9-142.7,98.4
	c-11.6,15.3-23.5,34.1-35.9,54c-17.6,28-35.9,56.8-56.6,81.2c-15.1,17.6-33.9,38.6-58.6,59c-4,3.3-8,6.4-11.9,9.6
	c-36.4,29.2-70.8,56.8-52.3,115.4c22.1,69.8,106.3,132.7,180.4,188.5c5.5,4,10.9,8.1,16.3,12.3c39.6,29.9,85.5,62.4,127.5,71
	s80.7-10.3,115-56.2c15.9-21.1,31.5-46.1,46.8-70.3c9.1-14.4,18.4-29.3,27.9-43.5c23.5-35.2,46.5-68.1,70.8-103.1
	c10.5-14.9,21.2-30.4,32.3-46.1c13.1-18.9,26.9-38,40.6-56.4c17.5-23.9,34-46.4,48.3-68c13.2-20,44.2-66.7,29.2-113.5
	c-15.1-47.2-68.2-97.4-119.4-146.2c-29.8-28.3-57.9-55-78.4-80.6c-12.3-15.5-2.1-40.4,8-64.5c4.7-11.5,9.2-22.4,11.2-32.2
	c11.9-54.4-19.2-92.7-52-133.2c-14.7-18.3-29.9-37.1-41.9-58l-0.1-0.4c-1.7-7.9-4.8-15.1-8-22c-2.4-6-4.9-11.5-6.3-16.9
	c-18.1-71,2.4-138.8,58-191.3c77.9-73.8,212.2-105.1,312.5-73.5c52.8,16.9,105.6,61.6,144.6,122.7c39.7,62.3,71.8,119.5,85.5,153.1
	c6.3,15.1,14.8,38.3,17.9,64.2c5.2,45.1,0.9,91.5-3.5,140.7c-2.1,22.7-4.3,46.2-5.3,69.2c-2.4,50.4,5.3,85.8,24.3,110.8
	c19.3,25.2,50.7,41.3,99,50.3c56.8,10.7,112.3,11.3,156.2,1.9c95.1-20.3,198.6-131.9,221.7-238.9c6.8-30.9,1.2-62.4-5.1-92
	c-10-46.7-29.5-97.6-48.1-146.8c-6.4-17.2-13.1-34.8-19.3-52.1c-1.5-3.9-2.8-7.7-4.3-11.6c-3.1-9.1-6.5-18.4-10-27.6
	c-13.2-34-28.7-67.1-46.3-99.1c-4.8-8.8-10.7-17.6-16.3-26.3c-9.6-14.7-19.8-29.9-25.4-46c-2.5-7.2-4.8-14.3-7.1-20.9
	c-6.9-21.7-13.6-42.4-28-63.4c-17.3-24.8-38.7-46.9-59.2-67.2c-12.1-11.9-21.4-25.1-30.3-37.7c-7.7-11.3-15.9-22.8-25.9-33.5
	c-12.1-13-25.7-25.2-38.8-36.8c-14-12.7-28.4-25.6-41.5-39.7c-8-8.9-16-18.3-23.5-27.5c-6.7-8.1-13.6-16.5-20.8-24.5
	c-3.9-4.3-8.3-8.4-12.5-12.3c-7.9-7.1-15.8-14.3-21.1-23.7c-7.3-12.3-12.5-25.3-17.5-38c-6.5-16.4-13.3-33.3-23.6-48.1
	c-34.9-50.4-95.5-81.6-185.3-95.8c-39.5-6.3-82.8-9.2-124.8-12c-69.2-4.7-134.6-8.9-181.1-27.2c-27.5-10.8-52-27.7-75.5-44.1
	c-26.7-18.7-51.9-36.3-77.2-41.1c-49.2-9.5-81.4,30.1-109.9,65.2c-11.5,14-22.1,27.3-33.6,37.2c-9,8-17.5,16.4-25.6,25.3
	c-14.7,15.3-28.3,29.8-48.9,41.3c-25.2,14.1-52.3,25.3-78.3,36c-5.7,2.3-11.3,4.7-17.1,6.9c-75.5,31.6-119,71-149.5,135.9
	c-19.6,41.4-27.1,84.2-25.1,143.1c1.9,58.2-49.2,100.4-90.3,134.4l-1.5,1.1c-8.7,7.3-17.9,14.5-27.6,22
	c-43.9,34.1-89.4,69.5-104.8,121.4c-5.1,17.6-4.4,34-1.6,52.9c12.8,92.8,79.9,163,174.8,182.7c31,6.5,59.2,9.9,86.3,13.3
	c25.7,3.2,50.2,6.4,73.6,11.6c13.5,2.9,29.9,7.7,44.4,12c6.9,2.1,13.6,4.1,19.8,5.7c36.8,10.3,65.5,8.3,87.8-5.9
	c41.6-26.3,55.6-91.8,69.6-174.3c2.9-17.6,8.9-35.5,15.2-54.3c11.9-35.7,24.3-72.7,14.9-107.2c-6.1-22.4-20.3-44.3-33.9-65.6
	c-31.1-48.5-60.6-94.4-1.1-143c14.1-11.6,28.7-22.4,42.8-32.7c54.7-40.2,106.3-78.2,120.5-154.5c12.8-68,56.7-110.4,130.7-125.9
	c149.2-31.6,266.7-34.5,348.6-8.9c64.2,20.2,112.8,68.2,130.3,128.7c19.3,66.5,50.4,138.7,95.2,221c13.6,24.9,30.7,53.9,53.2,79.6
	c15.9,18.1,34.9,34,53.4,49.4c14.5,12.3,29.6,24.8,43.2,38.5c9.6,9.9,19.6,19.9,29.2,29.3c26.2,25.9,53.2,52.8,77.5,81.2
	c43.1,50.6,75.6,115.8,99.5,199.4l2.4,8.3c14.7,50.4,32.7,113.2,10,173.6c-28.5,75.5-99.4,129.4-180.6,137.1
	c-62.7,5.9-98.6-21.2-109-83c-5.2-29.5-2.7-58.1-0.1-85.9c0.7-8.5,1.3-16.5,1.9-24.5c0.8-11.1,1.6-21.9,2.5-32.5
	c2.3-27.3,4.7-55.6,2.8-84.6c-6.3-90.2-33.6-124-85.2-180.8c-52.3-57.3-112.7-120.8-168.8-147c-35.3-16.5-129.9-52.9-241.3-33.6
	c-191,33.1-301.2,126.7-327.8,278.6c-2.8,16.7-4.4,32-5.9,48c-2,18.8-3.9,38-8.3,62.3c-6.8,37.6-33.5,78.3-73.4,112
	c-39.5,33.1-84.9,54-125.1,57.2c-46.4,3.6-81.8-23.3-110.2-45.2l-4.1-3.2c-29.6-22.6-57.2-42.4-95.8-56.7c-24.7-9.1-59-14.9-92-20.8
	c-26.3-4.5-51.2-8.9-71.5-14.7c-114.2-32.7-168.7-161.9-187-215.9l-1.3-4.4c-8.3-24.2-18.3-53.9-10.9-88.6
	c11.1-52.3,53.3-96.2,86.8-123.8c75.9-63,122.7-153.1,158.2-233.3c7.6-17.2,11.2-36,14.7-54.3c3.7-18.9,7.3-38.7,15.7-57
	c18.3-40.8,40.8-73,66.8-95.5c24.3-21.2,54-35.5,82.6-49.3c22-10.8,44.7-21.7,64.7-35.7c40.4-28,80-65.4,66.7-129
	c-6.5-31.7-36.2-62.5-62.6-89.6c-6.8-7.1-13.1-13.7-19.1-20.3c-37.2-40.8-60.7-68.3-74.7-114c-10.4-34.1-11.2-95.2-1.7-139.1
	c7.6-35.3,16.9-69.3,26.4-102h1.9c-9.5,32.8-18.8,66.8-26.5,102.4C974,103,974.6,163.6,984.9,197.5z"/>
</svg>
