<svg xmlns="http://www.w3.org/2000/svg" xmlns:xlink="http://www.w3.org/1999/xlink" version="1.1" x="0px" y="0px" viewBox="8 11 70 70" style="enable-background:new 0 0 80 80;" xml:space="preserve"><g><g><polygon points="64,55.8 64,57.1 55.4,57.1 41.2,57.1 41.2,55.8 52.1,55.8   "/><polygon points="54,37.3 54,40.8 52.4,40.8 50.5,40.8 50.5,37.3   "/><rect x="52.1" y="41.3" width="0.3" height="14.1"/><path d="M31,73.7V21.3c0-2.8,1.2-4,4-4h20.4c2.8,0,4,1.2,4,4V33c0,2.8-1.2,4-4,4H54H39.1c-1.7,0-2.4,0.7-2.4,2.4v16.3    c0,1.7,0.7,2.4,2.4,2.4h16.3c2.8,0,4,1.2,4,4v11.6c0,2.8-1.2,4-4,4H35C32.2,77.7,31,76.5,31,73.7z M32.8,60.4v3.8h2.4v-3.8H32.8z"/></g></g></svg>