<svg xmlns="http://www.w3.org/2000/svg" xmlns:xlink="http://www.w3.org/1999/xlink" version="1.1" x="0px" y="0px" viewBox="0 0 100 100" enable-background="new 0 0 100 100" xml:space="preserve"><g><g><path d="M70.091,58.349c-0.341,0-0.681-0.106-0.967-0.314c-0.506-0.368-0.76-0.992-0.654-1.609l0.758-4.418l-3.211-3.129    c-0.448-0.437-0.609-1.091-0.416-1.687c0.194-0.595,0.708-1.03,1.329-1.12l4.435-0.645l1.984-4.019    c0.553-1.123,2.397-1.123,2.949,0l1.984,4.019l4.437,0.645c0.62,0.09,1.134,0.524,1.329,1.12c0.193,0.596,0.032,1.25-0.416,1.687    l-3.211,3.129l0.704,4.1c0.072,0.185,0.111,0.386,0.111,0.595c0,0.908-0.736,1.645-1.645,1.645c-0.008,0.001-0.021,0.002-0.032,0    c-0.262,0-0.525-0.063-0.765-0.189l-3.969-2.086l-3.966,2.086C70.617,58.287,70.353,58.349,70.091,58.349z M74.824,52.571    c0.263,0,0.525,0.063,0.765,0.189l1.785,0.937l-0.341-1.985c-0.092-0.533,0.085-1.078,0.472-1.456l1.443-1.406l-1.994-0.29    c-0.537-0.078-0.999-0.414-1.239-0.9l-0.892-1.806l-0.892,1.806c-0.239,0.486-0.702,0.822-1.239,0.9l-1.992,0.29l1.443,1.406    c0.387,0.378,0.564,0.923,0.472,1.456l-0.341,1.985l1.782-0.937C74.299,52.634,74.561,52.571,74.824,52.571z"/></g><g><path d="M45.267,58.349c-0.341,0-0.681-0.106-0.967-0.314c-0.506-0.368-0.76-0.992-0.654-1.609l0.758-4.418l-3.211-3.129    c-0.448-0.437-0.609-1.091-0.416-1.687c0.194-0.595,0.708-1.03,1.329-1.12l4.435-0.645l1.984-4.019    c0.553-1.123,2.397-1.123,2.949,0l1.984,4.019l4.437,0.645c0.62,0.09,1.134,0.524,1.329,1.12c0.193,0.596,0.032,1.25-0.416,1.687    l-3.211,3.129l0.704,4.1c0.072,0.185,0.111,0.386,0.111,0.595c0,0.908-0.736,1.645-1.645,1.645c-0.006,0.001-0.019,0.002-0.032,0    c-0.262,0-0.525-0.063-0.765-0.189L50,56.075l-3.966,2.086C45.793,58.287,45.529,58.349,45.267,58.349z M50,52.571    c0.263,0,0.525,0.063,0.765,0.189l1.785,0.937l-0.341-1.985c-0.092-0.533,0.085-1.078,0.472-1.456l1.443-1.406l-1.994-0.29    c-0.537-0.078-0.999-0.414-1.239-0.9L50,45.855l-0.892,1.806c-0.239,0.486-0.702,0.822-1.239,0.9l-1.992,0.29l1.443,1.406    c0.387,0.378,0.564,0.923,0.472,1.456l-0.341,1.985l1.782-0.937C49.475,52.634,49.737,52.571,50,52.571z"/></g><g><path d="M20.443,58.349c-0.341,0-0.681-0.106-0.967-0.314c-0.506-0.368-0.76-0.992-0.654-1.609l0.758-4.418L16.37,48.88    c-0.448-0.437-0.609-1.091-0.416-1.687c0.194-0.595,0.708-1.03,1.329-1.12l4.435-0.645l1.984-4.019    c0.553-1.123,2.397-1.124,2.949-0.001l1.986,4.02l4.435,0.645c0.62,0.09,1.134,0.524,1.329,1.12    c0.193,0.596,0.032,1.25-0.416,1.687l-3.211,3.129l0.704,4.1c0.072,0.185,0.111,0.386,0.111,0.595    c0,0.908-0.736,1.645-1.645,1.645c-0.008,0.001-0.019,0.002-0.032,0c-0.262,0-0.525-0.063-0.765-0.189l-3.969-2.086l-3.966,2.086    C20.969,58.287,20.705,58.349,20.443,58.349z M25.176,52.571c0.263,0,0.525,0.063,0.765,0.189l1.785,0.937l-0.341-1.985    c-0.092-0.533,0.085-1.078,0.472-1.456l1.443-1.406l-1.992-0.29c-0.537-0.078-0.999-0.414-1.239-0.9l-0.893-1.807l-0.892,1.806    c-0.239,0.486-0.702,0.822-1.239,0.9l-1.992,0.29l1.443,1.406c0.387,0.378,0.564,0.923,0.472,1.456l-0.341,1.985l1.782-0.937    C24.651,52.634,24.913,52.571,25.176,52.571z"/></g><path d="M89.014,67.172c2.323-5.258,3.624-11.064,3.624-17.172C92.638,26.49,73.51,7.363,50,7.363S7.362,26.49,7.362,50   c0,6.11,1.302,11.919,3.627,17.179c0.021,0.058,0.047,0.11,0.074,0.164C17.722,82.231,32.664,92.637,50,92.637   c17.333,0,32.273-10.402,38.933-25.286C88.963,67.291,88.991,67.235,89.014,67.172z M50,10.653c15.24,0,28.475,8.715,35.007,21.418   H14.993C21.525,19.368,34.76,10.653,50,10.653z M13.488,35.361h73.024c1.822,4.528,2.836,9.466,2.836,14.639   c0,5.298-1.059,10.352-2.966,14.97H13.619c-1.907-4.618-2.966-9.672-2.966-14.97C10.652,44.827,11.666,39.889,13.488,35.361z    M50,89.347c-15.108,0-28.246-8.563-34.838-21.087h69.675C78.246,80.784,65.108,89.347,50,89.347z"/><g><path d="M46.704,19.05c-0.835,0-1.55-0.633-1.635-1.481c-0.09-0.904,0.569-1.71,1.473-1.801c0.414-0.041,0.826-0.076,1.239-0.102    c0.893-0.075,1.688,0.631,1.746,1.538c0.058,0.907-0.631,1.688-1.537,1.745c-0.374,0.023-0.747,0.055-1.12,0.092    C46.813,19.048,46.758,19.05,46.704,19.05z"/></g><g><path d="M73.165,28.48c-0.421,0-0.842-0.161-1.163-0.482c-5.264-5.263-12.246-8.469-19.658-9.026    c-0.906-0.067-1.584-0.857-1.516-1.763c0.067-0.907,0.848-1.588,1.764-1.517c8.196,0.615,15.916,4.159,21.736,9.98    c0.643,0.643,0.643,1.684,0,2.326C74.006,28.319,73.585,28.48,73.165,28.48z"/></g><g><path d="M52.114,84.337c-0.861,0-1.586-0.67-1.64-1.541c-0.058-0.907,0.631-1.688,1.537-1.745c0.374-0.023,0.747-0.055,1.12-0.092    c0.909-0.092,1.711,0.569,1.801,1.473c0.09,0.904-0.569,1.71-1.473,1.801c-0.414,0.041-0.826,0.076-1.239,0.102    C52.185,84.336,52.149,84.337,52.114,84.337z"/></g><g><path d="M47.534,84.313c-0.042,0-0.084-0.002-0.125-0.005c-8.196-0.615-15.916-4.159-21.736-9.98    c-0.643-0.643-0.643-1.684,0-2.326c0.643-0.643,1.684-0.643,2.326,0c5.264,5.263,12.246,8.469,19.658,9.026    c0.906,0.067,1.584,0.857,1.516,1.763C49.108,83.655,48.387,84.313,47.534,84.313z"/></g></g></svg>