<svg xmlns="http://www.w3.org/2000/svg" xmlns:xlink="http://www.w3.org/1999/xlink" version="1.1" x="0px" y="0px" viewBox="0 0 48 48" style="enable-background:new 0 0 48 48;" xml:space="preserve"><g><path d="M42,0H6C2.7,0,0,2.7,0,6v36c0,3.3,2.7,6,6,6h36c3.3,0,6-2.7,6-6V6C48,2.7,45.3,0,42,0z M46,40.4h-8.9l-1.6-1.6   c0.2-0.5,0.4-1,0.4-1.6c0-2.1-1.7-3.8-3.8-3.8c-2.1,0-3.8,1.7-3.8,3.8c0,2.1,1.7,3.8,3.8,3.8c0.8,0,1.5-0.2,2.1-0.6l1.8,1.8   c0.2,0.2,0.4,0.3,0.7,0.3H46c-0.2,2-1.9,3.6-4,3.6H25V31c1.6-0.4,2.8-1.9,2.8-3.6c0-2.1-1.7-3.8-3.8-3.8c-2.1,0-3.8,1.7-3.8,3.8   c0,1.7,1.2,3.2,2.8,3.6v15H6c-2.1,0-3.8-1.6-4-3.6h9.3c0.3,0,0.5-0.1,0.7-0.3l1.8-1.8c0.6,0.4,1.3,0.6,2.1,0.6   c2.1,0,3.8-1.7,3.8-3.8c0-2.1-1.7-3.8-3.8-3.8c-2.1,0-3.8,1.7-3.8,3.8c0,0.6,0.1,1.1,0.4,1.6l-1.6,1.6H2V6c0-2.2,1.8-4,4-4h1.6   v22.2c0,0.3,0.1,0.5,0.3,0.7l1.6,1.6C9.2,27,9,27.6,9,28.3c0,2.1,1.7,3.8,3.8,3.8c2.1,0,3.8-1.7,3.8-3.8c0-2.1-1.7-3.8-3.8-3.8   c-0.7,0-1.3,0.2-1.9,0.5l-1.3-1.3V2h8.7v7.5c-1.6,0.4-2.8,1.9-2.8,3.6c0,2.1,1.7,3.8,3.8,3.8s3.8-1.7,3.8-3.8   c0-1.7-1.2-3.2-2.8-3.6V2h7.4v12.2c-1.6,0.4-2.8,1.9-2.8,3.7c0,2.1,1.7,3.8,3.8,3.8c2.1,0,3.8-1.7,3.8-3.8c0-1.7-1.2-3.2-2.8-3.6V2   h8.7v21.7l-1.4,1.4c-0.6-0.4-1.3-0.6-2.1-0.6c-2.1,0-3.8,1.7-3.8,3.8c0,2.1,1.7,3.8,3.8,3.8c2.1,0,3.8-1.7,3.8-3.8   c0-0.6-0.2-1.2-0.4-1.7l1.8-1.8c0.2-0.2,0.3-0.4,0.3-0.7V2H42c2.2,0,4,1.8,4,4V40.4z M33.9,37.2c0,1-0.8,1.8-1.8,1.8   c-1,0-1.8-0.8-1.8-1.8s0.8-1.8,1.8-1.8C33.1,35.4,33.9,36.2,33.9,37.2z M24,29.1c-1,0-1.8-0.8-1.8-1.8s0.8-1.8,1.8-1.8   s1.8,0.8,1.8,1.8S25,29.1,24,29.1z M14.1,37.2c0-1,0.8-1.8,1.8-1.8s1.8,0.8,1.8,1.8S16.9,39,15.9,39S14.1,38.1,14.1,37.2z M11,28.3   c0-0.5,0.2-0.9,0.5-1.2c0,0,0,0,0,0c0,0,0,0,0,0c0.3-0.3,0.8-0.5,1.2-0.5c1,0,1.8,0.8,1.8,1.8s-0.8,1.8-1.8,1.8S11,29.3,11,28.3z    M19.3,11.4c1,0,1.8,0.8,1.8,1.8c0,1-0.8,1.8-1.8,1.8s-1.8-0.8-1.8-1.8C17.5,12.2,18.3,11.4,19.3,11.4z M28.7,16.1   c1,0,1.8,0.8,1.8,1.8c0,1-0.8,1.8-1.8,1.8c-1,0-1.8-0.8-1.8-1.8C26.9,16.9,27.7,16.1,28.7,16.1z M36.7,28.3c0,1-0.8,1.8-1.8,1.8   s-1.8-0.8-1.8-1.8s0.8-1.8,1.8-1.8c0.5,0,0.9,0.2,1.2,0.5c0,0.1,0.1,0.2,0.1,0.2c0,0,0.1,0,0.1,0.1C36.5,27.6,36.7,28,36.7,28.3z"/></g></svg>