<svg xmlns="http://www.w3.org/2000/svg" xmlns:xlink="http://www.w3.org/1999/xlink" version="1.1" x="0px" y="0px" viewBox="0 0 100 100" enable-background="new 0 0 100 100" xml:space="preserve"><g><polygon points="63.4,62.293 60.225,60.926 60.668,68.645  "/><polygon points="70.657,64.999 66.581,60.016 60.691,73.15  "/><path d="M72.532,72.234v9.656l-21.781-0.014l5.951-4.761c0.118-0.095,0.188-0.239,0.188-0.392c0-0.631-0.078-1.275-0.23-1.918   c-0.148-0.619-0.372-1.258-0.666-1.896c-0.182-0.396-0.396-0.806-0.641-1.22c0.25-0.422,0.465-0.824,0.65-1.224   c0.298-0.64,0.523-1.278,0.672-1.896c0.152-0.637,0.23-1.279,0.23-1.908V53.523c0-0.631-0.078-1.276-0.23-1.918   c-0.146-0.621-0.371-1.257-0.666-1.896c-0.184-0.401-0.402-0.815-0.648-1.233c0.226-0.414,0.438-0.812,0.623-1.209   c0.297-0.637,0.522-1.275,0.673-1.896c0.151-0.636,0.229-1.278,0.229-1.907V30.321c0-0.633-0.078-1.279-0.23-1.918   c-0.147-0.619-0.371-1.256-0.665-1.896c-0.185-0.401-0.402-0.816-0.649-1.235c0.227-0.414,0.438-0.812,0.623-1.21   c0.297-0.64,0.523-1.278,0.672-1.896c0.152-0.635,0.23-1.277,0.23-1.908V8.811l0.001-0.138c0.002-0.688,0.005-1.224,0.007-1.64   l0.034-0.001c-0.002-0.05-0.005-0.292-0.007-0.561c0-0.022,0-0.044,0-0.066C56.918,5.879,56.919,5.114,56.921,4   c0-0.132-0.052-0.26-0.146-0.354C56.682,3.553,56.555,3.5,56.421,3.5H43.512c-0.276,0-0.5,0.224-0.5,0.5v16.288   c0,0.628,0.078,1.271,0.23,1.908c0.149,0.62,0.375,1.258,0.672,1.896c0.185,0.397,0.402,0.806,0.648,1.219   c-0.24,0.402-0.452,0.799-0.634,1.185c-0.3,0.639-0.529,1.277-0.68,1.897c-0.156,0.642-0.236,1.288-0.237,1.92v13.151   c0,0.628,0.078,1.27,0.23,1.907c0.149,0.62,0.375,1.258,0.672,1.896c0.188,0.406,0.408,0.817,0.667,1.25   c-0.238,0.4-0.451,0.797-0.632,1.183c-0.301,0.641-0.53,1.278-0.68,1.897c-0.156,0.642-0.236,1.286-0.237,1.92l0.001,11.445   l-0.001,0.127c0,0.003,0,0.008,0,0.01v1.565c0,0.63,0.077,1.271,0.229,1.908c0.149,0.62,0.375,1.257,0.672,1.896   c0.184,0.396,0.402,0.805,0.649,1.221c-0.248,0.412-0.466,0.819-0.65,1.213c-0.301,0.64-0.53,1.277-0.68,1.896   c-0.156,0.64-0.236,1.288-0.237,1.927c0,0.151,0.069,0.295,0.188,0.392l5.952,4.761l-21.781,0.014v-9.656H8.155v22.531   l41.974-0.015l41.717,0.015V72.234H72.532z M44.799,18.724c0-3.709,0-7.419,0-11.129c0,0.025,0-0.102,0-0.454   c0-0.358,0-0.948,0-1.852c3.444,0,6.889,0,10.333,0c-0.011,7.689-0.021-4.278-0.032,7.782c-0.185,0.332-0.388,0.664-0.605,0.996   c-0.396,0.6-0.846,1.2-1.331,1.801c-0.485,0.601-1.009,1.202-1.55,1.803c-0.543,0.601-1.104,1.201-1.667,1.802   s-1.124,1.202-1.667,1.803c-0.543,0.601-1.067,1.201-1.555,1.802c-0.283,0.35-0.554,0.698-0.795,1.029   c-0.281-0.499-0.528-1.018-0.72-1.558c-0.133-0.373-0.239-0.757-0.31-1.146c-0.066-0.368-0.101-0.741-0.101-1.114   C44.799,19.768,44.799,19.245,44.799,18.724z M44.798,41.899c0-1.471,0-2.94,0-4.411c0.186-0.331,0.39-0.662,0.609-0.993   c0.398-0.601,0.849-1.201,1.337-1.802c0.487-0.601,1.011-1.202,1.555-1.802c0.543-0.601,1.105-1.201,1.667-1.802   c0.562-0.601,1.124-1.202,1.666-1.802c0.542-0.601,1.065-1.201,1.552-1.802c0.273-0.339,0.535-0.678,0.783-1.017   c0.282,0.507,0.531,1.032,0.723,1.579c0.133,0.376,0.238,0.762,0.31,1.154c0.067,0.371,0.103,0.747,0.103,1.124   c0,0.518,0,1.036,0,1.554c0,1.478,0,2.956,0,4.434c-0.181,0.32-0.377,0.641-0.588,0.961c-0.396,0.598-0.846,1.198-1.33,1.799   c-0.486,0.601-1.009,1.202-1.552,1.802c-0.542,0.601-1.104,1.202-1.666,1.802c-0.562,0.601-1.124,1.202-1.667,1.802   c-0.543,0.601-1.067,1.202-1.555,1.802c-0.284,0.35-0.556,0.7-0.797,1.032c-0.289-0.509-0.542-1.039-0.738-1.589   c-0.133-0.374-0.239-0.757-0.31-1.146c-0.066-0.368-0.101-0.741-0.101-1.114C44.798,42.942,44.798,42.42,44.798,41.899z    M46.764,69.484c-0.279,0.345-0.545,0.688-0.797,1.031c-0.289-0.509-0.542-1.037-0.737-1.589c-0.133-0.372-0.239-0.757-0.31-1.146   c-0.066-0.368-0.101-0.741-0.101-1.114c0-0.521,0-1.044,0-1.565c0-1.47,0-2.938,0-4.408c0.186-0.33,0.389-0.661,0.609-0.992   c0.398-0.602,0.849-1.202,1.336-1.803c0.487-0.602,1.012-1.201,1.555-1.803c0.543-0.601,1.105-1.201,1.667-1.803   s1.124-1.201,1.667-1.802c0.541-0.601,1.064-1.202,1.55-1.802c0.274-0.339,0.536-0.68,0.784-1.019   c0.283,0.506,0.531,1.031,0.723,1.577c0.132,0.376,0.238,0.762,0.309,1.154c0.066,0.369,0.103,0.746,0.103,1.123   c0,0.519,0,1.037,0,1.554c0,1.478,0,2.956,0,4.435c-0.181,0.32-0.376,0.641-0.587,0.961c-0.396,0.6-0.846,1.199-1.331,1.801   c-0.485,0.601-1.009,1.201-1.55,1.803c-0.543,0.602-1.104,1.201-1.667,1.802s-1.124,1.202-1.667,1.804   C47.776,68.284,47.252,68.884,46.764,69.484z M50.673,76.742c0.325-0.35,0.647-0.7,0.964-1.049   c0.541-0.602,1.064-1.201,1.549-1.803c0.274-0.339,0.537-0.679,0.785-1.018c0.282,0.506,0.53,1.031,0.723,1.578   c0.189,0.542,0.324,1.105,0.381,1.68c-1.896,1.518-3.792,3.034-5.689,4.551C48.716,79.027,49.14,78.369,50.673,76.742z"/><polygon points="33.325,60.016 29.249,64.999 39.215,73.15  "/><polygon points="39.679,60.927 36.504,62.293 39.237,68.645  "/></g></svg>