<svg xmlns="http://www.w3.org/2000/svg" xmlns:xlink="http://www.w3.org/1999/xlink" version="1.1" x="0px" y="0px" viewBox="-25 0 100 100" enable-background="new 0 0 100 100" xml:space="preserve"><polygon points="14.594,45.173 13.777,45.173 13.051,42.195 14.594,42.195 "/><polygon points="14.821,45.173 15.639,45.173 16.365,42.195 14.821,42.195 "/><circle cx="14.708" cy="36.646" r="0.781"/><path d="M54.099,28.428V10.676H24.894l-1.176,7.659c1.193,0.37,2.063,1.471,2.09,2.779l9.825,1.509  c0.319-0.633,0.975-1.067,1.731-1.067c1.072,0,1.941,0.87,1.941,1.942s-0.869,1.942-1.941,1.942c-1.043,0-1.891-0.823-1.938-1.854  l-9.759-1.499c-0.385,1.197-1.506,2.063-2.831,2.063c-1.643,0-2.975-1.331-2.975-2.974c0-0.005,0.001-0.01,0.001-0.015l-9.867-1.516  c-0.32,0.632-0.975,1.067-1.732,1.067c-1.072,0-1.941-0.869-1.941-1.942c0-1.072,0.869-1.941,1.941-1.941  c1.043,0,1.891,0.822,1.938,1.854l9.832,1.51c0.396-1.13,1.454-1.946,2.71-1.985l1.157-7.531H5.001v17.752h3.465v1.706h4.854v4.535  h-1.665v7.073h6.103v-7.073h-1.664v-4.535h4.854v-1.706h13.767v27.396h-1.49H5.764v2.21h27.461v1.95h1.49v30.854H10.452v3.102H8.736  V95h1.716h24.264h4.508h2.85h1.716v-1.06h-1.716v-3.102h-2.85V59.984h2.878l5.368,9.167c-0.101,0.165-0.146,0.364-0.117,0.569  c0.066,0.47,0.501,0.796,0.971,0.729c0.469-0.066,0.795-0.502,0.729-0.971c-0.067-0.469-0.502-0.795-0.971-0.729  c-0.05,0.007-0.097,0.019-0.143,0.034l-5.153-8.8h0.426v-4.16h-2.496h-1.491V28.428H54.099z M41.37,57.225  c0.589,0,1.065,0.478,1.065,1.065c0,0.589-0.477,1.065-1.065,1.065c-0.588,0-1.065-0.477-1.065-1.065  C40.305,57.702,40.782,57.225,41.37,57.225z"/><path d="M51.37,46.735h-4.628h-4.629c-0.912-0.742-1.052-3.619-1.052-3.619h0.701h9.958h0.701  C52.422,43.116,52.282,45.993,51.37,46.735z"/><rect x="41.062" y="28.983" width="11.36" height="13.698"/><path d="M27.066,6.666c0,1.043-0.823,1.891-1.854,1.938l-0.19,1.24H51.07h3.028c0,0-0.606-3.85-4.543-4.843H29.568h-3.45  C26.685,5.339,27.066,5.957,27.066,6.666z"/><path d="M24.028,9.843l0.222-1.445c-0.633-0.32-1.067-0.975-1.067-1.732c0-0.709,0.381-1.327,0.948-1.666H9.58  C5.644,5.994,5.038,9.843,5.038,9.843h3.028H24.028z"/><circle cx="22.837" cy="21.177" r="1.829"/></svg>