<svg xmlns="http://www.w3.org/2000/svg" xmlns:xlink="http://www.w3.org/1999/xlink" version="1.1" x="0px" y="0px" viewBox="0 0 24 24" enable-background="new 0 0 24 24" xml:space="preserve"><g><g><path d="M6.145,9.358H1.65c-0.136,0-0.265-0.055-0.359-0.152L0.166,8.045c-0.189-0.196-0.188-0.508,0.006-0.701L1.296,6.22    C1.39,6.126,1.517,6.073,1.65,6.073h4.495c0.276,0,0.5,0.224,0.5,0.5v2.285C6.645,9.135,6.421,9.358,6.145,9.358z M1.861,8.358    h3.783V7.073H1.857l-0.63,0.63L1.861,8.358z"/><path d="M9.639,10.762H7.409c-0.126,0-0.246-0.047-0.339-0.132L5.806,9.465C5.703,9.37,5.645,9.236,5.645,9.097V6.368    c0-0.138,0.057-0.269,0.156-0.363l1.265-1.198C7.158,4.719,7.281,4.67,7.409,4.67h2.229c0.276,0,0.5,0.224,0.5,0.5v5.092    C10.139,10.538,9.915,10.762,9.639,10.762z M7.605,9.762h1.534V5.67h-1.53L6.645,6.583v2.295L7.605,9.762z"/><path d="M22.011,12.022c-0.009,0-0.026,0-0.036-0.001l-9.859-0.028c-0.076,0-0.152-0.019-0.222-0.053l-2.479-1.239    c-0.169-0.085-0.276-0.258-0.276-0.447V5.148c0-0.189,0.107-0.363,0.277-0.447l2.486-1.239c0.069-0.035,0.146-0.053,0.223-0.053    h9.855c0.711,0,1.023,0.543,1.06,0.908l0.003,6.526c0,0.557-0.245,0.847-0.45,0.992C22.356,12.005,22.107,12.022,22.011,12.022z     M12.236,10.993l9.768,0.029l0.007,0.5l-0.007-0.5c0.016-0.01,0.039-0.063,0.039-0.179V4.367l-9.799,0.041l-2.105,1.05v4.487    L12.236,10.993z"/><path d="M12.117,11.993C12.117,11.993,12.117,11.993,12.117,11.993c-0.276,0-0.5-0.225-0.5-0.501l0.008-7.584    c0-0.275,0.224-0.499,0.5-0.499c0,0,0,0,0.001,0c0.275,0,0.499,0.225,0.499,0.501l-0.008,7.584    C12.617,11.77,12.394,11.993,12.117,11.993z"/><path d="M12.125,6.631h-0.781c-0.276,0-0.5-0.224-0.5-0.5s0.224-0.5,0.5-0.5h0.781c0.276,0,0.5,0.224,0.5,0.5    S12.401,6.631,12.125,6.631z"/><path d="M12.125,8.216h-0.781c-0.276,0-0.5-0.224-0.5-0.5s0.224-0.5,0.5-0.5h0.781c0.276,0,0.5,0.224,0.5,0.5    S12.401,8.216,12.125,8.216z"/><path d="M12.125,9.802h-0.781c-0.276,0-0.5-0.224-0.5-0.5s0.224-0.5,0.5-0.5h0.781c0.276,0,0.5,0.224,0.5,0.5    S12.401,9.802,12.125,9.802z"/><path d="M21.266,20.591c-1.303,0-2.864-0.029-2.961-0.031c-0.126,0.031-0.459-0.023-0.698-0.277    c-0.279-0.297-0.35-0.767-0.209-1.397c0.02-0.086,0.062-0.166,0.122-0.23c0.291-0.314,0.897-0.824,0.938-0.858    c-0.001,0-0.001,0-0.001,0c-0.006,0,0.15-0.227,0.003-0.832c-0.507-2.097-0.917-3.669-1.153-4.427    c-0.088-0.286-0.125-0.404-0.571-0.535c-0.265-0.077-0.417-0.354-0.339-0.62c0.076-0.264,0.351-0.417,0.62-0.339    c0.888,0.259,1.103,0.734,1.245,1.198c0.311,0.995,0.808,2.989,1.171,4.486c0.301,1.238-0.226,1.747-0.335,1.836    c-0.14,0.118-0.517,0.442-0.75,0.673c-0.029,0.177-0.023,0.278-0.015,0.33c0.584,0.003,3.511,0.053,4.371,0    c0.215-0.014,0.271-0.066,0.271-0.066c-0.005-0.013-0.014-0.087-0.017-0.1c0,0-1.205-4.438-1.646-6.123    c-0.289-1.101,0.233-1.936,0.769-2.316c0.225-0.159,0.536-0.107,0.697,0.117c0.16,0.225,0.107,0.537-0.117,0.697    c-0.062,0.044-0.591,0.448-0.382,1.248c0.44,1.683,1.644,6.115,1.644,6.115c0.007,0.015,0.165,0.488-0.115,0.914    c-0.14,0.212-0.435,0.474-1.043,0.512C22.449,20.584,21.887,20.591,21.266,20.591z"/><path d="M18.204,14.926h-1.502c-0.19,0-0.365-0.108-0.449-0.28l-1.275-2.603c-0.121-0.248-0.019-0.547,0.229-0.669    c0.245-0.118,0.547-0.02,0.669,0.229l1.138,2.322h1.19c0.276,0,0.5,0.224,0.5,0.5S18.481,14.926,18.204,14.926z"/></g><g><path d="M14.455,10.551c-0.276,0-0.5-0.224-0.5-0.5v-4.67c0-0.276,0.224-0.5,0.5-0.5s0.5,0.224,0.5,0.5v4.67    C14.955,10.327,14.732,10.551,14.455,10.551z"/><path d="M16.387,10.551c-0.276,0-0.5-0.224-0.5-0.5v-4.67c0-0.276,0.224-0.5,0.5-0.5s0.5,0.224,0.5,0.5v4.67    C16.887,10.327,16.663,10.551,16.387,10.551z"/><path d="M18.319,10.551c-0.276,0-0.5-0.224-0.5-0.5v-4.67c0-0.276,0.224-0.5,0.5-0.5s0.5,0.224,0.5,0.5v4.67    C18.819,10.327,18.596,10.551,18.319,10.551z"/><path d="M20.252,10.551c-0.276,0-0.5-0.224-0.5-0.5v-4.67c0-0.276,0.224-0.5,0.5-0.5s0.5,0.224,0.5,0.5v4.67    C20.752,10.327,20.528,10.551,20.252,10.551z"/></g></g></svg>