<svg xmlns="http://www.w3.org/2000/svg" xmlns:xlink="http://www.w3.org/1999/xlink" version="1.1" x="0px" y="0px" viewBox="0 0 100 100" enable-background="new 0 0 90 90" xml:space="preserve"><path fill="#000000" d="M29.042,6.386c-9.7,0-17.563,7.863-17.563,17.563c0,9.7,7.863,17.562,17.563,17.562  c9.7,0,17.562-7.863,17.562-17.562C46.604,14.249,38.742,6.386,29.042,6.386z M29.042,32.636c-4.798,0-8.688-3.89-8.688-8.687  c0-4.798,3.89-8.688,8.688-8.688c4.798,0,8.687,3.89,8.687,8.688C37.729,28.747,33.84,32.636,29.042,32.636z"/><circle fill="#000000" cx="29.042" cy="23.949" r="2.062"/><path fill="#000000" d="M46.271,10.886c9.334,14.25,2.787,24.633-0.667,28.667c-1.042,1.216-2.208,1.958-2.208,1.958  c-0.656,0.5-1.483,1.083-2.167,1.417c-17.121,8.357-27.791-4.104-27.791-4.104l1.75-1.729c9.166,9.417,19.718,6.275,24.643,3.909  c1.576-0.868,2.451-1.555,2.451-1.555c0.695-0.695,1.488-1.349,2.031-2.063c10.208-13.416-0.188-24.937-0.188-24.937"/><path fill="#000000" d="M79.834,69.22l-1.712-2.192l-1.773,1.462l-0.88-1.066l1.801-1.486l-0.84-1.074l-1.856,1.529l-0.88-1.066  l1.883-1.555l-0.883-1.13l-1.887,1.558l-0.88-1.068l1.915-1.58l-0.74-0.947l-1.868,1.541l-0.88-1.067l1.896-1.563L51.563,32.761  c-4.792,14.459-18.083,14-18.083,14l23.824,25.826l1.862-1.537l0.88,1.067l-1.796,1.481l0.865,0.926l1.839-1.517l0.88,1.067  l-1.773,1.463l0.981,1.049l1.68-1.386l0.88,1.067l-1.614,1.332l0.933,0.998l1.574-1.299l0.88,1.068l-1.507,1.243l2.028,2.171  l6.188-2.938l3.812,3l2.75-2.875l-2.437-4.062L79.834,69.22z"/><polygon fill="#000000" points="53.646,33.657 58.896,40.845 59.771,39.907 57.209,33.22 "/><path fill="#000000" d="M50.417,14.074c0,0,1.688,3.562,1.688,6.062l9.125-6.5l-3.063-4.312L50.417,14.074z"/></svg>