<svg xmlns="http://www.w3.org/2000/svg" xmlns:xlink="http://www.w3.org/1999/xlink" version="1.1" x="0px" y="0px" viewBox="0 0 100 100" enable-background="new 0 0 100 100" xml:space="preserve"><path fill="#000000" d="M55.5,3.6h-11c-6,0-10.9,4.9-10.9,10.9V31c0,5.2,3.6,9.5,8.5,10.7C42,42,42,42.2,42,42.5v3  c0,1.5,1,2.9,2.4,3.3c0.5,2,2.2,3.6,4.3,4.1v39.3c0,0.8,0.7,1.5,1.5,1.5s1.5-0.7,1.5-1.5V52.9c2-0.6,3.5-2.1,4-4  c1.4-0.5,2.4-1.8,2.4-3.3v-3c0-0.3,0-0.5-0.1-0.8c4.9-1.1,8.5-5.5,8.5-10.7V14.5C66.5,8.5,61.6,3.6,55.5,3.6z M55.1,42.5v3  c0,0.3-0.2,0.5-0.5,0.5h-9.1c-0.3,0-0.5-0.2-0.5-0.5v-3c0-0.3,0.2-0.5,0.5-0.5h9.1C54.8,42,55.1,42.2,55.1,42.5z M50,50.1  c-0.9,0-1.8-0.4-2.3-1h4.6C51.8,49.7,51,50.1,50,50.1z M63.5,31c0,4.4-3.6,7.9-7.9,7.9h-1h-9.1h-1c-4.4,0-7.9-3.6-7.9-7.9V14.5  c0-4.4,3.6-7.9,7.9-7.9h11c4.4,0,7.9,3.6,7.9,7.9V31z"/><path fill="#000000" d="M42.1,83c-0.6-0.6-1.5-0.6-2.1,0s-0.6,1.5,0,2.1l4.8,4.8c0.3,0.3,0.7,0.4,1.1,0.4s0.8-0.1,1.1-0.4  c0.6-0.6,0.6-1.5,0-2.1L42.1,83z"/><path fill="#000000" d="M54.5,90.4c0.4,0,0.8-0.1,1.1-0.4l4.8-4.8c0.6-0.6,0.6-1.5,0-2.1s-1.5-0.6-2.1,0l-4.8,4.8  c-0.6,0.6-0.6,1.5,0,2.1C53.7,90.2,54.1,90.4,54.5,90.4z"/><path fill="#000000" d="M45.5,91.7h-6.8c-0.8,0-1.5,0.7-1.5,1.5s0.7,1.5,1.5,1.5h6.8c0.8,0,1.5-0.7,1.5-1.5S46.3,91.7,45.5,91.7z"/><path fill="#000000" d="M61.6,91.7h-6.8c-0.8,0-1.5,0.7-1.5,1.5s0.7,1.5,1.5,1.5h6.8c0.8,0,1.5-0.7,1.5-1.5S62.5,91.7,61.6,91.7z"/></svg>