<svg xmlns="http://www.w3.org/2000/svg" xmlns:xlink="http://www.w3.org/1999/xlink" version="1.1" x="0px" y="0px" viewBox="0 -20 100 100" enable-background="new 0 0 100 70.09" xml:space="preserve"><path d="M26.094,64.026V38.029H12.564v25.997H9.912v1.062h2.653h13.529h2.652v-1.062H26.094z M23.175,59.119  c0,0.439-0.356,0.796-0.795,0.796h-6.102c-0.439,0-0.796-0.356-0.796-0.796V43.998c0-0.439,0.356-0.796,0.796-0.796h6.102  c0.439,0,0.795,0.356,0.795,0.796V59.119z"/><circle cx="21.319" cy="52.222" r="1.061"/><path d="M90.025,64.026V38.029H76.496v25.997h-2.652v1.062h2.652h13.529h2.653v-1.062H90.025z M87.107,59.119  c0,0.439-0.356,0.796-0.796,0.796H80.21c-0.439,0-0.796-0.356-0.796-0.796V43.998c0-0.439,0.356-0.796,0.796-0.796h6.102  c0.439,0,0.796,0.356,0.796,0.796V59.119z"/><circle cx="83.417" cy="58.214" r="1.061"/><rect x="5" y="7.125" width="6.504" height="22.548"/><circle cx="56.826" cy="28.679" r="0.566"/><circle cx="55.335" cy="28.099" r="0.84"/><path d="M59.715,32.181c-0.249,0.424-0.394,0.879-0.446,1.339l2.515,0.02c0.145-0.339,0.48-0.577,0.873-0.577  c0.055,0,0.107,0.007,0.159,0.016l1.273-2.164C62.517,30.085,60.611,30.656,59.715,32.181z"/><path d="M64.593,36.714c0.397-0.273,0.743-0.632,1.004-1.074c0.917-1.559,0.447-3.553-1.031-4.552l-1.258,2.138  c0.182,0.172,0.296,0.415,0.296,0.685c0,0.242-0.094,0.46-0.243,0.627L64.593,36.714z"/><path d="M60.925,36.852c1.012,0.595,2.206,0.607,3.193,0.141l-1.228-2.167c-0.075,0.02-0.153,0.033-0.234,0.033  c-0.463,0-0.847-0.332-0.931-0.769l-2.476-0.021C59.304,35.181,59.896,36.246,60.925,36.852z"/><circle cx="64.589" cy="37.583" r="0.541"/><rect x="52.323" y="20.683" width="9.815" height="2.52"/><rect x="52.838" y="17.544" width="11.273" height="2.785"/><path d="M67.199,16.953c-0.245,0-0.473,0.012-0.672,0.032v-0.049c0-0.193-0.241-0.351-0.539-0.351c-0.297,0-0.538,0.157-0.538,0.351  v1.489h-1.051v0.964h1.051v1.489c0,0.193,0.241,0.35,0.538,0.35c0.298,0,0.539-0.157,0.539-0.35v-1.489v-0.964v-1.012  c0.199,0.02,0.427,0.033,0.672,0.033c0.763,0,1.38-0.11,1.38-0.247C68.579,17.063,67.962,16.953,67.199,16.953z"/><path d="M93.209,10.706c-0.342,0-0.66,0.036-0.933,0.098c-0.019-0.423-0.364-0.761-0.792-0.761c-0.439,0-0.796,0.356-0.796,0.796  v7.428c0,0.439,0.356,0.796,0.796,0.796s0.796-0.356,0.796-0.796v-6.331c0.271,0.061,0.588,0.097,0.929,0.097  c0.989,0,1.791-0.297,1.791-0.664C95,11.002,94.198,10.706,93.209,10.706z"/><path d="M35.322,13.61v-0.843h-0.936v-0.937H33.73v-1.077l-0.563,0.033V9.363h-5.571v10.081h5.571v-1.424l0.563,0.033v-1.077h0.656  v-0.937h0.936v-0.843h-2.155V13.61H35.322z M31.532,14.978c-0.317,0-0.575-0.257-0.575-0.575s0.257-0.575,0.575-0.575  s0.575,0.257,0.575,0.575S31.849,14.978,31.532,14.978z"/><path d="M60.063,10.65c-0.326,0-0.59,0.264-0.59,0.59c0,0.036,0.004,0.071,0.011,0.106l-1.264,0.698  c-0.105-0.316-0.4-0.546-0.752-0.546h-0.178c-0.439,0-0.796,0.356-0.796,0.796v1.16h1.77V12.39l1.364-0.753  c0.107,0.118,0.262,0.194,0.435,0.194c0.325,0,0.59-0.264,0.59-0.59S60.389,10.65,60.063,10.65z"/><polygon points="59.074,15.529 59.074,14.938 59.762,14.938 59.762,13.661 59.074,13.661 55.388,13.661 54.7,13.661 54.7,14.938   55.388,14.938 55.388,15.529 51.029,15.529 51.029,14.984 49.848,15.19 48.819,16.218 48.819,17.297 51.029,17.297 55.388,17.297   59.074,17.297 60.491,17.297 60.491,15.529 "/><polygon points="48.451,16.357 48.451,17.205 48.119,17.205 47.419,16.32 "/><circle cx="21.142" cy="26.313" r="0.785"/><path d="M90.025,33.387v-4.415v-1.194v-1.819v-1.591V12.165H89.76h-5.305h-3.184v1.398h-1.395v0.522l-1.089,0.452l1.089,0.386v0.468  h1.395v1.284h2.663l-0.888,7.693H68.008v-0.809H51.561v0.809h-8.489v3.411v1.194v4.415H26.889V5.002H12.564v28.385H8.851v3.979  h50.577c-1.583-1.479-1.993-3.912-0.85-5.854c1.322-2.249,4.228-3.001,6.477-1.679c2.248,1.323,3.002,4.228,1.679,6.477  c-0.236,0.402-0.525,0.754-0.85,1.057H94.27v-3.979H90.025z M18.089,23.814c-0.879,0.025-1.612-0.667-1.637-1.545  c-0.009-0.308,0.072-0.597,0.216-0.845l-1.206-1.153c-0.112,0.063-0.238,0.104-0.375,0.108c-0.449,0.013-0.823-0.341-0.836-0.789  c-0.013-0.449,0.34-0.824,0.789-0.836c0.449-0.013,0.824,0.341,0.836,0.79c0.004,0.14-0.031,0.271-0.089,0.387l1.177,1.125  c0.272-0.252,0.633-0.411,1.033-0.423c0.878-0.025,1.612,0.667,1.637,1.545C19.66,23.056,18.968,23.789,18.089,23.814z   M23.883,24.225c-0.14,0-0.27-0.039-0.384-0.101l-1.158,1.144c0.244,0.28,0.393,0.645,0.393,1.045c0,0.879-0.713,1.592-1.592,1.592  s-1.592-0.713-1.592-1.592c0-0.879,0.713-1.592,1.592-1.592c0.309,0,0.595,0.089,0.839,0.241l1.187-1.172  c-0.06-0.113-0.098-0.241-0.098-0.378c0-0.449,0.364-0.813,0.813-0.813c0.449,0,0.813,0.364,0.813,0.813  S24.332,24.225,23.883,24.225z M51.561,33.387h-3.554c0.183-1.016,0.749-3.241,2.324-4.415h1.229V33.387z M55.335,30.476  c-1.313,0-2.378-1.065-2.378-2.377c0-1.313,1.064-2.378,2.378-2.378s2.378,1.064,2.378,2.378  C57.713,29.411,56.648,30.476,55.335,30.476z M68.008,33.387v-4.415h14.758c1.575,1.173,2.142,3.399,2.324,4.415H68.008z   M88.523,21.473c-0.091,0-0.176-0.025-0.25-0.065l-0.755,0.746c0.158,0.182,0.257,0.417,0.257,0.677  c0,0.571-0.463,1.035-1.034,1.035s-1.035-0.463-1.035-1.035c0-0.572,0.464-1.035,1.035-1.035c0.2,0,0.386,0.06,0.544,0.158  l0.772-0.763c-0.039-0.074-0.062-0.157-0.062-0.246c0-0.292,0.236-0.528,0.528-0.528s0.528,0.236,0.528,0.528  S88.815,21.473,88.523,21.473z"/><circle cx="86.741" cy="22.831" r="0.51"/><circle cx="18.044" cy="22.223" r="0.785"/></svg>