<svg xmlns="http://www.w3.org/2000/svg" xmlns:xlink="http://www.w3.org/1999/xlink" version="1.1" x="0px" y="0px" viewBox="0 0 65 65" enable-background="new 0 0 65 65" xml:space="preserve"><path d="M20.106,14.985c-2.872,0-5.208,2.336-5.208,5.208c0,2.872,2.336,5.208,5.208,5.208c2.872,0,5.208-2.336,5.208-5.208  C25.314,17.322,22.978,14.985,20.106,14.985z M20.106,22.402c-1.217,0-2.208-0.991-2.208-2.208c0-1.217,0.991-2.208,2.208-2.208  c1.218,0,2.208,0.991,2.208,2.208C22.314,21.411,21.324,22.402,20.106,22.402z"/><path d="M63.251,25c0.828,0,1.5-0.671,1.5-1.5s-0.672-1.5-1.5-1.5h-8.917v-6h8.917c0.828,0,1.5-0.671,1.5-1.5s-0.672-1.5-1.5-1.5  h-8.917v-0.834c0-0.829-0.672-1.5-1.5-1.5H52V1.75c0-0.829-0.672-1.5-1.5-1.5S49,0.921,49,1.75v8.916h-5.998V1.75  c0-0.829-0.672-1.5-1.5-1.5s-1.5,0.671-1.5,1.5v8.916H34V1.75c0-0.829-0.671-1.5-1.5-1.5S31,0.921,31,1.75v8.916h-6V1.75  c0-0.829-0.671-1.5-1.5-1.5S22,0.921,22,1.75v8.916h-6V1.75c0-0.829-0.671-1.5-1.5-1.5S13,0.921,13,1.75v8.916h-0.834  c-0.829,0-1.5,0.671-1.5,1.5V13H1.75c-0.829,0-1.5,0.671-1.5,1.5S0.921,16,1.75,16h8.916v6H1.75c-0.829,0-1.5,0.671-1.5,1.5  S0.921,25,1.75,25h8.916v6H1.75c-0.829,0-1.5,0.671-1.5,1.5S0.921,34,1.75,34h8.916v6.002H1.75c-0.829,0-1.5,0.672-1.5,1.5  s0.671,1.5,1.5,1.5h8.916V49H1.75c-0.829,0-1.5,0.672-1.5,1.5S0.921,52,1.75,52h8.916v0.834c0,0.828,0.671,1.5,1.5,1.5H13v8.916  c0,0.828,0.671,1.5,1.5,1.5s1.5-0.672,1.5-1.5v-8.916h6v8.916c0,0.828,0.671,1.5,1.5,1.5s1.5-0.672,1.5-1.5v-8.916h6v8.916  c0,0.828,0.671,1.5,1.5,1.5s1.5-0.672,1.5-1.5v-8.916h6.002v8.916c0,0.828,0.672,1.5,1.5,1.5s1.5-0.672,1.5-1.5v-8.916H49v8.916  c0,0.828,0.672,1.5,1.5,1.5s1.5-0.672,1.5-1.5v-8.916h0.834c0.828,0,1.5-0.672,1.5-1.5V52h8.917c0.828,0,1.5-0.672,1.5-1.5  s-0.672-1.5-1.5-1.5h-8.917v-5.998h8.917c0.828,0,1.5-0.672,1.5-1.5s-0.672-1.5-1.5-1.5h-8.917V34h8.917c0.828,0,1.5-0.671,1.5-1.5  s-0.672-1.5-1.5-1.5h-8.917v-6H63.251z M13.666,51.334v-0.829c0-0.002,0-0.003,0-0.005s0-0.003,0-0.005v-8.988  c0-0.002,0-0.003,0-0.005s0-0.003,0-0.005v-8.992c0-0.002,0-0.003,0-0.005s0-0.003,0-0.005v-8.99c0-0.002,0-0.003,0-0.005  s0-0.003,0-0.005v-8.99c0-0.002,0-0.003,0-0.005s0-0.003,0-0.005v-0.829h37.668v37.668H13.666z"/></svg>