<svg xmlns="http://www.w3.org/2000/svg" xmlns:xlink="http://www.w3.org/1999/xlink" version="1.1" x="0px" y="0px" viewBox="0 0 100 100" enable-background="new 0 0 100 100" xml:space="preserve"><path d="M71.004,33.356c-1.45,0-2.626,1.175-2.626,2.626v15.753c0,10.134-8.245,18.379-18.379,18.379s-18.379-8.245-18.379-18.379  V35.981c0-1.45-1.175-2.626-2.626-2.626c-1.45,0-2.626,1.175-2.626,2.626v15.753c0,12.141,9.206,22.17,21.004,23.48v14.534h-8.855  c-1.45,0-2.626,1.175-2.626,2.626c0,1.45,1.175,2.626,2.626,2.626h22.962c1.45,0,2.626-1.175,2.626-2.626  c0-1.45-1.175-2.626-2.626-2.626h-8.855V75.215c11.798-1.311,21.004-11.339,21.004-23.48V35.981  C73.63,34.531,72.454,33.356,71.004,33.356z"/><path d="M50,5c-8.397,0-15.228,6.831-15.228,15.228v31.506c0,8.397,6.831,15.228,15.228,15.228s15.228-6.831,15.228-15.228V20.228  C65.228,11.831,58.397,5,50,5z M50,61.711c-5.501,0-9.977-4.476-9.977-9.977V20.228c0-5.501,4.476-9.977,9.977-9.977  c4.964,0,9.081,3.648,9.84,8.402h-5.545c-0.87,0-1.575,0.705-1.575,1.575c0,0.87,0.705,1.575,1.575,1.575h5.682v4.726h-5.682  c-0.87,0-1.575,0.705-1.575,1.575c0,0.87,0.705,1.575,1.575,1.575h5.682v4.726h-5.682c-0.87,0-1.575,0.705-1.575,1.575  s0.705,1.575,1.575,1.575h5.682v4.726h-5.682c-0.87,0-1.575,0.705-1.575,1.575s0.705,1.575,1.575,1.575h5.682v4.726h-5.682  c-0.87,0-1.575,0.705-1.575,1.575s0.705,1.575,1.575,1.575h5.545C59.081,58.063,54.964,61.711,50,61.711z"/></svg>