<svg xmlns="http://www.w3.org/2000/svg" xmlns:xlink="http://www.w3.org/1999/xlink" version="1.1" x="0px" y="0px" viewBox="0 0 100 100" enable-background="new 0 0 100 100" xml:space="preserve"><path d="M92.854,62.891C92.385,59.636,89.635,57,86.346,57H84.99c-1.268-1-1.783-2.971-1.512-4.448  c0.543-2.951,3.963-4.744,3.997-4.763L88,47.596V42h-4.913l4.93-4.93c0.391-0.391,0.391-1.023,0-1.414s-1.023-0.572-1.414-0.182  L64.896,57h-4.091l18.088-17.906l-5.681-5.771L49.443,57H32.719c-0.127-1-0.779-4.596-4.053-9.439  c-3.53-5.225,0.074-12.114,0.11-12.185L29.55,34H18.615l-0.296,0.455c-0.164,0.253-4.006,6.271-2.43,13.132  c0.414,1.803,1.121,3.168,1.806,4.488c1.104,2.13,2.146,4.143,2.156,8.115c0.014,5.399-5.433,9.689-5.487,9.731l0.013,0.017  c-2.542,1.591-5.457,2.928-8.372,3.959L5,74.146v3.933V86h90v-7.921L92.854,62.891z M81.087,44H86v2.435  c-1.171,0.753-3.909,2.632-4.487,5.743C81.204,53.839,81.553,56,82.548,57H67.724L81.087,44z M73.212,36.241l2.853,2.762L57.977,57  h-5.705L73.212,36.241z M19.471,51.155c-0.655-1.266-1.274-2.461-1.632-4.016c-1.152-5.02,1.095-9.694,1.893-11.14h6.625  c-1.011,2.603-2.517,7.989,0.653,12.68c2.898,4.29,3.55,7.32,3.697,8.32h-3.872l-0.292,0.658c-1.601,2.604-3.557,5.09-5.797,7.24  c0.657-1.44,1.111-3.011,1.106-4.759C21.839,55.682,20.581,53.299,19.471,51.155z M7.505,75.32c8.6-3.195,15.82-8.32,20.442-16.32  h58.398c2.302,0,4.284,1.861,4.609,4.139L92.898,78H7.409L7.505,75.32z M93,84H7v-4h86V84z M85,74H47c-0.553,0-1,0.447-1,1  s0.447,1,1,1h38c0.553,0,1-0.447,1-1S85.553,74,85,74z M84.979,26.447c2.343-1.36,3.142-4.374,1.781-6.717  c-1.143-1.969-3.676-2.642-5.647-1.498c-0.478,0.277-0.641,0.89-0.363,1.367c0.277,0.477,0.889,0.643,1.367,0.363  c1.016-0.591,2.323-0.244,2.914,0.771c0.807,1.39,0.333,3.177-1.056,3.983c-1.855,1.079-4.243,0.445-5.321-1.41  c-1.417-2.438-0.585-5.576,1.854-6.993c3.168-1.84,7.243-0.76,9.083,2.408c2.006,3.453,1.315,8.438-1.537,11.114  c-0.003,0.003-0.005,0.008-0.008,0.011l-6.664,6.558c-0.394,0.388-0.399,1.021-0.012,1.414c0.196,0.199,0.454,0.299,0.713,0.299  c0.253,0,0.507-0.096,0.701-0.287l6.892-6.782c0.015-0.015,0.02-0.034,0.034-0.05c3.301-3.378,4.028-9.12,1.611-13.281  c-2.395-4.123-7.694-5.53-11.817-3.134c-3.392,1.972-4.549,6.335-2.578,9.727C78.556,27.12,82.171,28.078,84.979,26.447z"/></svg>