<svg xmlns="http://www.w3.org/2000/svg" xmlns:xlink="http://www.w3.org/1999/xlink" version="1.1" x="0px" y="0px" viewBox="0 0 64 64" enable-background="new 0 0 64 64" xml:space="preserve"><g display="none"><rect x="63.982" y="-188.008" display="inline" fill="#000000" width="20" height="430"/><rect x="-297.518" y="-437.508" transform="matrix(1.067751e-10 -1 1 1.067751e-10 -361.5098 -213.5255)" display="inline" fill="#000000" width="20" height="1023"/><rect x="-816.908" y="-214.713" display="inline" fill="#000000" width="1058.367" height="519.832"/></g><g display="none"><g display="inline"><g><g><g><rect x="23.057" y="52.151" fill="#000000" width="17.887" height="4"/></g><g><polygon points="47.748,57.469 16.252,57.469 22.303,52.151 41.697,52.151      "/></g><g><rect x="38.943" y="44.459" width="4" height="9.691"/></g><g><rect x="21.057" y="44.459" width="4" height="9.691"/></g><g><g><path fill="#000000" d="M4.662,44.912C2.643,44.912,1,43.27,1,41.25V11.194c0-2.02,1.643-3.662,3.662-3.662h54.676        c2.02,0,3.662,1.643,3.662,3.662V41.25c0,2.02-1.643,3.662-3.662,3.662H4.662z"/></g><g><g><path d="M59.338,8.531c1.468,0,2.662,1.194,2.662,2.662V41.25c0,1.468-1.194,2.662-2.662,2.662H4.662         C3.194,43.912,2,42.718,2,41.25V11.193c0-1.468,1.194-2.662,2.662-2.662H59.338 M59.338,6.531H4.662         C2.098,6.531,0,8.629,0,11.193V41.25c0,2.564,2.098,4.662,4.662,4.662h54.675c2.564,0,4.662-2.098,4.662-4.662V11.193         C64,8.629,61.902,6.531,59.338,6.531L59.338,6.531z"/></g></g></g></g></g><g><path fill="#000000" d="M13.729,37.721v-2.604c-1.838-0.083-3.621-0.576-4.664-1.179l0.824-3.21     c1.153,0.63,2.77,1.206,4.554,1.206c1.564,0,2.633-0.603,2.633-1.7c0-1.043-0.878-1.702-2.908-2.388     c-2.935-0.987-4.939-2.359-4.939-5.019c0-2.415,1.702-4.306,4.637-4.883v-2.607h2.687v2.415c1.838,0.083,3.073,0.465,3.978,0.905     l-0.795,3.1c-0.713-0.302-1.975-0.934-3.951-0.934c-1.782,0-2.359,0.768-2.359,1.537c0,0.905,0.96,1.481,3.292,2.359     c3.263,1.153,4.581,2.66,4.581,5.131c0,2.441-1.729,4.525-4.883,5.075v2.797H13.729z"/><g><path fill="#000000" d="M26.924,29.785l-0.893,3.217h-2.938l3.831-12.534h3.719l3.887,12.534H31.48l-0.967-3.217H26.924z       M30.103,27.665l-0.781-2.659c-0.223-0.743-0.447-1.673-0.633-2.417h-0.036c-0.186,0.743-0.372,1.691-0.577,2.417l-0.743,2.659      H30.103z"/><path fill="#000000" d="M38.064,33.002l-4.016-12.534h3.105l1.525,5.301c0.427,1.487,0.818,2.919,1.115,4.48h0.056      c0.316-1.505,0.707-2.993,1.134-4.426l1.6-5.355h3.012l-4.221,12.534H38.064z"/><path fill="#000000" d="M54.395,27.703h-4.611v2.975h5.151v2.324h-7.996V20.468h7.736v2.326h-4.891v2.603h4.611V27.703z"/></g></g></g></g><g display="none"><g display="inline"><path d="M13.729,37.721v-2.604c-1.838-0.083-3.621-0.576-4.664-1.179l0.824-3.21c1.153,0.63,2.77,1.206,4.554,1.206    c1.564,0,2.633-0.603,2.633-1.7c0-1.043-0.878-1.702-2.908-2.388c-2.935-0.987-4.939-2.359-4.939-5.019    c0-2.415,1.702-4.306,4.637-4.883v-2.607h2.687v2.415c1.838,0.083,3.073,0.465,3.978,0.905l-0.795,3.1    c-0.713-0.302-1.975-0.934-3.951-0.934c-1.782,0-2.359,0.768-2.359,1.537c0,0.905,0.96,1.481,3.292,2.359    c3.263,1.153,4.581,2.66,4.581,5.131c0,2.441-1.729,4.525-4.883,5.075v2.797H13.729z"/></g><g display="inline"><path d="M26.924,29.785l-0.893,3.217h-2.938l3.831-12.534h3.719l3.887,12.534H31.48l-0.967-3.217H26.924z M30.103,27.665    l-0.781-2.659c-0.223-0.743-0.447-1.673-0.633-2.417h-0.036c-0.186,0.743-0.372,1.691-0.577,2.417l-0.743,2.659H30.103z"/></g><g display="inline"><path d="M38.064,33.002l-4.016-12.534h3.105l1.525,5.301c0.427,1.487,0.818,2.919,1.115,4.48h0.056    c0.316-1.505,0.707-2.993,1.134-4.426l1.6-5.355h3.012l-4.221,12.534H38.064z"/></g><g display="inline"><path d="M54.395,27.703h-4.611v2.975h5.151v2.324h-7.996V20.468h7.736v2.326h-4.891v2.603h4.611V27.703z"/></g><g display="inline"><g><path d="M32,46.874v5.691V46.874 M34,44.874h-4v9.691h4V44.874L34,44.874z"/></g><g><polygon points="43.179,53.054 20.821,53.054 19.488,57.054 44.512,57.054 43.179,53.054    "/></g><g><g><path d="M59.338,8.946c1.468,0,2.662,1.194,2.662,2.662v30.057c0,1.468-1.194,2.662-2.662,2.662H4.662      C3.194,44.327,2,43.133,2,41.665V11.608c0-1.468,1.194-2.662,2.662-2.662H59.338 M59.338,6.946H4.662      C2.098,6.946,0,9.044,0,11.608v30.057c0,2.564,2.098,4.662,4.662,4.662h54.675c2.564,0,4.662-2.098,4.662-4.662V11.608      C64,9.044,61.902,6.946,59.338,6.946L59.338,6.946z"/></g></g></g></g><g><g><path d="M59.338,6.946H4.662C2.098,6.946,0,9.044,0,11.608v30.057c0,2.564,2.098,4.662,4.662,4.662H30v6.726h-9.179l-1.333,4    h25.025l-1.333-4H34v-6.726h25.338c2.564,0,4.662-2.098,4.662-4.662V11.608C64,9.044,61.902,6.946,59.338,6.946z M62,41.665    c0,1.468-1.194,2.662-2.662,2.662H4.662C3.194,44.327,2,43.133,2,41.665V11.608c0-1.468,1.194-2.662,2.662-2.662h54.675    c1.468,0,2.662,1.194,2.662,2.662V41.665z"/><rect x="13.5" y="22.325" width="37" height="2"/><rect x="13.5" y="29.575" width="37" height="2"/></g></g><g display="none"><g display="inline"><path fill="#000000" d="M32,0C14.327,0,0,14.327,0,32s14.327,32,32,32s32-14.327,32-32S49.673,0,32,0L32,0z"/><path d="M59.783,45.122H4.217c-1.65,0-3-1.35-3-3V10.953c0-1.65,1.35-3,3-3h55.567c1.65,0,3,1.35,3,3v31.169    C62.783,43.772,61.433,45.122,59.783,45.122z"/><g><path d="M32,46.874v5.691V46.874 M34,44.874h-4v9.691h4V44.874L34,44.874z"/></g><g><polygon points="43.179,53.054 20.821,53.054 19.488,57.054 44.512,57.054 43.179,53.054    "/></g><g><g><path fill="#000000" d="M59.338,8.946c1.468,0,2.662,1.194,2.662,2.662v30.057c0,1.468-1.194,2.662-2.662,2.662H4.662      C3.194,44.327,2,43.133,2,41.665V11.608c0-1.468,1.194-2.662,2.662-2.662H59.338 M59.338,6.946H4.662      C2.098,6.946,0,9.044,0,11.608v30.057c0,2.564,2.098,4.662,4.662,4.662h54.675c2.564,0,4.662-2.098,4.662-4.662V11.608      C64,9.044,61.902,6.946,59.338,6.946L59.338,6.946z"/></g></g></g><g display="inline"><g><g><path fill="#000000" d="M13.729,37.721v-2.604c-1.838-0.083-3.621-0.576-4.664-1.179l0.824-3.21      c1.153,0.63,2.77,1.206,4.554,1.206c1.564,0,2.633-0.603,2.633-1.7c0-1.043-0.878-1.702-2.908-2.388      c-2.935-0.987-4.939-2.359-4.939-5.019c0-2.415,1.702-4.306,4.637-4.883v-2.607h2.687v2.415      c1.838,0.083,3.073,0.465,3.978,0.905l-0.795,3.1c-0.713-0.302-1.975-0.934-3.951-0.934c-1.782,0-2.359,0.768-2.359,1.537      c0,0.905,0.96,1.481,3.292,2.359c3.263,1.153,4.581,2.66,4.581,5.131c0,2.441-1.729,4.525-4.883,5.075v2.797H13.729z"/></g></g><g><g><path fill="#000000" d="M26.924,29.785l-0.893,3.217h-2.938l3.831-12.534h3.719l3.887,12.534H31.48l-0.967-3.217H26.924z       M30.103,27.665l-0.781-2.659c-0.223-0.743-0.447-1.673-0.633-2.417h-0.036c-0.186,0.743-0.372,1.691-0.577,2.417l-0.743,2.659      H30.103z"/></g></g><g><g><path fill="#000000" d="M38.064,33.002l-4.016-12.534h3.105l1.525,5.301c0.427,1.487,0.818,2.919,1.115,4.48h0.056      c0.316-1.505,0.707-2.993,1.134-4.426l1.6-5.355h3.012l-4.221,12.534H38.064z"/></g></g><g><g><path fill="#000000" d="M54.395,27.703h-4.611v2.975h5.151v2.324h-7.996V20.468h7.736v2.326h-4.891v2.603h4.611V27.703z"/></g></g></g></g><g display="none"><g display="inline"><g><g><path fill="#000000" d="M32,0C14.327,0,0,14.327,0,32s14.327,32,32,32s32-14.327,32-32S49.673,0,32,0L32,0z"/></g><g><path d="M59.783,45.122H4.217c-1.65,0-3-1.35-3-3V10.953c0-1.65,1.35-3,3-3h55.567c1.65,0,3,1.35,3,3v31.169      C62.783,43.772,61.433,45.122,59.783,45.122z"/></g><g><path d="M32,46.874v5.691V46.874 M34,44.874h-4v9.691h4V44.874L34,44.874z"/></g><g><polygon points="43.179,53.054 20.821,53.054 19.488,57.054 44.512,57.054 43.179,53.054     "/></g><g><g><g><path fill="#000000" d="M59.338,8.946c1.468,0,2.662,1.194,2.662,2.662v30.057c0,1.468-1.194,2.662-2.662,2.662H4.662        C3.194,44.327,2,43.133,2,41.665V11.608c0-1.468,1.194-2.662,2.662-2.662H59.338 M59.338,6.946H4.662        C2.098,6.946,0,9.044,0,11.608v30.057c0,2.564,2.098,4.662,4.662,4.662h54.675c2.564,0,4.662-2.098,4.662-4.662V11.608        C64,9.044,61.902,6.946,59.338,6.946L59.338,6.946z"/></g></g></g></g><g><g><g><path fill="#000000" d="M13.729,37.721v-2.604c-1.838-0.083-3.621-0.576-4.664-1.179l0.824-3.21       c1.153,0.63,2.77,1.206,4.554,1.206c1.564,0,2.633-0.603,2.633-1.7c0-1.043-0.878-1.702-2.908-2.388       c-2.935-0.987-4.939-2.359-4.939-5.019c0-2.415,1.702-4.306,4.637-4.883v-2.607h2.687v2.415       c1.838,0.083,3.073,0.465,3.978,0.905l-0.795,3.1c-0.713-0.302-1.975-0.934-3.951-0.934c-1.782,0-2.359,0.768-2.359,1.537       c0,0.905,0.96,1.481,3.292,2.359c3.263,1.153,4.581,2.66,4.581,5.131c0,2.441-1.729,4.525-4.883,5.075v2.797H13.729z"/></g></g><g><g><path fill="#000000" d="M26.924,29.785l-0.893,3.217h-2.938l3.831-12.534h3.719l3.887,12.534H31.48l-0.967-3.217H26.924z        M30.103,27.665l-0.781-2.659c-0.223-0.743-0.447-1.673-0.633-2.417h-0.036c-0.186,0.743-0.372,1.691-0.577,2.417l-0.743,2.659       H30.103z"/></g></g><g><g><path fill="#000000" d="M38.064,33.002l-4.016-12.534h3.105l1.525,5.301c0.427,1.487,0.818,2.919,1.115,4.48h0.056       c0.316-1.505,0.707-2.993,1.134-4.426l1.6-5.355h3.012l-4.221,12.534H38.064z"/></g></g><g><g><path fill="#000000" d="M54.395,27.703h-4.611v2.975h5.151v2.324h-7.996V20.468h7.736v2.326h-4.891v2.603h4.611V27.703z"/></g></g></g></g></g><g display="none"><g display="inline"><path d="M29.322,25.006c-0.223-0.743-0.447-1.673-0.633-2.417h-0.036c-0.186,0.744-0.372,1.691-0.577,2.417l-0.744,2.659h2.771    L29.322,25.006z"/><path d="M59.338,6.531H4.662C2.098,6.531,0,8.629,0,11.193V41.25c0,2.564,2.098,4.662,4.662,4.662h16.394v7.334l-4.805,4.223    h31.496l-4.805-4.223v-7.334h16.394c2.564,0,4.662-2.098,4.662-4.662V11.193C64,8.629,61.902,6.531,59.338,6.531z M16.418,34.925    v2.797h-2.689v-2.604c-1.838-0.083-3.621-0.576-4.664-1.179l0.824-3.21c1.153,0.63,2.77,1.206,4.554,1.206    c1.564,0,2.633-0.603,2.633-1.7c0-1.043-0.878-1.702-2.908-2.388c-2.935-0.987-4.939-2.359-4.939-5.019    c0-2.415,1.702-4.306,4.637-4.883v-2.607h2.687v2.415c1.838,0.083,3.073,0.465,3.978,0.905l-0.795,3.1    c-0.713-0.302-1.975-0.934-3.951-0.934c-1.782,0-2.359,0.768-2.359,1.537c0,0.905,0.96,1.481,3.292,2.359    c3.263,1.153,4.581,2.66,4.581,5.131C21.301,32.291,19.572,34.375,16.418,34.925z M26.924,20.468h3.719l3.887,12.534H31.48    l-0.967-3.217h-3.589l-0.893,3.217h-2.938L26.924,20.468z M38.943,52.151H25.057v-6.238h13.887V52.151z M41.374,33.002h-3.31    l-4.016-12.534h3.105l1.525,5.301c0.427,1.487,0.818,2.919,1.115,4.48h0.056c0.316-1.505,0.707-2.993,1.134-4.426l1.6-5.355h3.012    L41.374,33.002z M54.935,33.002h-7.996V20.468h7.736v2.326h-4.891v2.603h4.611v2.306h-4.611v2.975h5.151V33.002z"/></g></g><g display="none"><g display="inline"><g><g><rect x="30" y="44.874" width="4" height="9.691"/></g><g><polygon points="19.488,57.054 20.821,53.054 43.179,53.054 44.512,57.054     "/></g><g><g><path d="M4.662,45.328C2.643,45.328,1,43.685,1,41.665V11.609c0-2.02,1.643-3.662,3.662-3.662h54.676       c2.02,0,3.662,1.643,3.662,3.662v30.057c0,2.02-1.643,3.662-3.662,3.662H4.662z"/></g><g><g><path d="M59.338,8.946c1.468,0,2.662,1.194,2.662,2.662v30.057c0,1.468-1.194,2.662-2.662,2.662H4.662        C3.194,44.327,2,43.133,2,41.665V11.608c0-1.468,1.194-2.662,2.662-2.662H59.338 M59.338,6.946H4.662        C2.098,6.946,0,9.044,0,11.608v30.057c0,2.564,2.098,4.662,4.662,4.662h54.675c2.564,0,4.662-2.098,4.662-4.662V11.608        C64,9.044,61.902,6.946,59.338,6.946L59.338,6.946z"/></g></g></g></g><g><path fill="#000000" d="M47.143,35.571v-2.208c-1.558-0.07-3.069-0.488-3.953-1l0.699-2.721c0.977,0.534,2.348,1.022,3.861,1.022     c1.325,0,2.232-0.511,2.232-1.441c0-0.884-0.744-1.443-2.465-2.024c-2.488-0.837-4.186-1.999-4.186-4.254     c0-2.047,1.443-3.65,3.931-4.139v-2.21h2.278v2.047c1.558,0.07,2.605,0.394,3.372,0.767l-0.674,2.628     c-0.604-0.256-1.674-0.791-3.349-0.791c-1.511,0-1.999,0.651-1.999,1.303c0,0.767,0.814,1.255,2.791,1.999     c2.766,0.977,3.883,2.255,3.883,4.349c0,2.069-1.465,3.836-4.139,4.302v2.37H47.143z"/><g><path fill="#000000" d="M31.7,20.379h-1.794v-4.048c0-0.495-0.402-0.897-0.897-0.897h-8.444c-0.495,0-0.897,0.402-0.897,0.897      v4.048h-1.794v-4.048c0-1.484,1.207-2.69,2.69-2.69h8.444c1.484,0,2.69,1.207,2.69,2.69V20.379z"/><path fill="#000000" d="M14.469,19.329l-4.03,19.465h28.697l-4.03-19.465H14.469z"/><path fill="#000000" d="M20.452,26.204c-0.865,0-1.566-0.702-1.566-1.567c0-0.866,0.701-1.567,1.566-1.567      s1.565,0.702,1.565,1.567C22.018,25.502,21.317,26.204,20.452,26.204z M29.121,26.204c-0.865,0-1.566-0.702-1.566-1.567      c0-0.866,0.701-1.567,1.566-1.567s1.565,0.702,1.565,1.567C30.687,25.502,29.986,26.204,29.121,26.204z"/></g></g></g></g><g display="none"><g display="inline"><path d="M32,46.874v5.691V46.874 M34,44.874h-4v9.691h4V44.874L34,44.874z"/></g><g display="inline"><polygon points="43.179,53.054 20.821,53.054 19.488,57.054 44.512,57.054 43.179,53.054   "/></g><g display="inline"><g><path d="M59.338,8.946c1.468,0,2.662,1.194,2.662,2.662v30.057c0,1.468-1.194,2.662-2.662,2.662H4.662     C3.194,44.327,2,43.133,2,41.665V11.608c0-1.468,1.194-2.662,2.662-2.662H59.338 M59.338,6.946H4.662     C2.098,6.946,0,9.044,0,11.608v30.057c0,2.564,2.098,4.662,4.662,4.662h54.675c2.564,0,4.662-2.098,4.662-4.662V11.608     C64,9.044,61.902,6.946,59.338,6.946L59.338,6.946z"/></g></g><g display="inline"><path d="M47.143,35.571v-2.208c-1.558-0.07-3.069-0.488-3.953-1l0.699-2.721c0.977,0.534,2.348,1.022,3.861,1.022    c1.325,0,2.232-0.511,2.232-1.441c0-0.884-0.744-1.443-2.465-2.024c-2.488-0.837-4.186-1.999-4.186-4.254    c0-2.047,1.443-3.65,3.931-4.139v-2.21h2.278v2.047c1.558,0.07,2.605,0.394,3.372,0.767l-0.674,2.628    c-0.604-0.256-1.674-0.791-3.349-0.791c-1.511,0-1.999,0.651-1.999,1.303c0,0.767,0.814,1.255,2.791,1.999    c2.766,0.977,3.883,2.255,3.883,4.349c0,2.069-1.465,3.836-4.139,4.302v2.37H47.143z"/></g><g display="inline"><path d="M29.009,13.641h-8.444c-1.484,0-2.69,1.207-2.69,2.69v4.048h1.794v-4.048c0-0.495,0.402-0.897,0.897-0.897h8.444    c0.495,0,0.897,0.402,0.897,0.897v4.048H31.7v-4.048C31.7,14.848,30.493,13.641,29.009,13.641L29.009,13.641z"/></g><g display="inline"><path d="M33.477,21.329l3.202,15.465H12.895l3.202-15.465H33.477 M35.105,19.329H14.469l-4.031,19.465h28.697L35.105,19.329    L35.105,19.329z"/></g><g display="inline"><path d="M29.121,23.069c-0.865,0-1.565,0.702-1.565,1.567c0,0.866,0.701,1.567,1.565,1.567c0.865,0,1.565-0.702,1.565-1.567    C30.687,23.771,29.986,23.069,29.121,23.069L29.121,23.069z M20.452,23.069c-0.865,0-1.566,0.702-1.566,1.567    c0,0.866,0.701,1.567,1.566,1.567c0.865,0,1.565-0.702,1.565-1.567C22.018,23.771,21.317,23.069,20.452,23.069L20.452,23.069z"/></g></g><g display="none"><g display="inline"><path d="M59.338,6.946H4.662C2.098,6.946,0,9.044,0,11.608v30.057c0,2.564,2.098,4.662,4.662,4.662H30v6.726h-9.179l-1.333,4    h25.025l-1.333-4H34v-6.726h25.338c2.564,0,4.662-2.098,4.662-4.662V11.608C64,9.044,61.902,6.946,59.338,6.946z M62,41.665    c0,1.468-1.194,2.662-2.662,2.662H4.662C3.194,44.327,2,43.133,2,41.665V11.608c0-1.468,1.194-2.662,2.662-2.662h54.675    c1.468,0,2.662,1.194,2.662,2.662V41.665z"/><path d="M49.678,24.549c-1.977-0.744-2.791-1.233-2.791-1.999c0-0.651,0.488-1.303,1.999-1.303c1.676,0,2.745,0.536,3.349,0.791    l0.674-2.628c-0.767-0.373-1.814-0.697-3.372-0.767v-2.047h-2.278v2.21c-2.488,0.489-3.931,2.092-3.931,4.139    c0,2.255,1.698,3.418,4.186,4.254c1.721,0.581,2.465,1.14,2.465,2.024c0,0.93-0.907,1.441-2.232,1.441    c-1.513,0-2.884-0.489-3.861-1.022l-0.699,2.721c0.884,0.511,2.395,0.93,3.953,1v2.208h2.28V33.2    c2.673-0.466,4.139-2.232,4.139-4.302C53.562,26.804,52.445,25.526,49.678,24.549z"/><path d="M31.7,19.329v-2.997c0-1.484-1.207-2.69-2.69-2.69h-8.444c-1.484,0-2.69,1.207-2.69,2.69v2.997h-3.406l-4.031,19.465    h28.697l-4.031-19.465H31.7z M19.668,16.331c0-0.495,0.402-0.897,0.897-0.897h8.444c0.495,0,0.897,0.402,0.897,0.897v2.997H19.668    V16.331z M12.895,36.794l3.202-15.465h17.38l3.202,15.465H12.895z"/><circle cx="20.452" cy="24.636" r="1.566"/><circle cx="29.121" cy="24.636" r="1.566"/></g></g><g display="none"><g display="inline"><path fill="#000000" d="M32,0C14.327,0,0,14.327,0,32s14.327,32,32,32s32-14.327,32-32S49.673,0,32,0L32,0z"/><path fill="#000000" d="M59.783,45.122H4.217c-1.65,0-3-1.35-3-3V10.953c0-1.65,1.35-3,3-3h55.567c1.65,0,3,1.35,3,3v31.169    C62.783,43.772,61.433,45.122,59.783,45.122z"/><g><path d="M32,46.874v5.691V46.874 M34,44.874h-4v9.691h4V44.874L34,44.874z"/></g><g><polygon points="43.179,53.054 20.821,53.054 19.488,57.054 44.512,57.054 43.179,53.054    "/></g><g><g><path d="M59.338,8.946c1.468,0,2.662,1.194,2.662,2.662v30.057c0,1.468-1.194,2.662-2.662,2.662H4.662      C3.194,44.327,2,43.133,2,41.665V11.608c0-1.468,1.194-2.662,2.662-2.662H59.338 M59.338,6.946H4.662      C2.098,6.946,0,9.044,0,11.608v30.057c0,2.564,2.098,4.662,4.662,4.662h54.675c2.564,0,4.662-2.098,4.662-4.662V11.608      C64,9.044,61.902,6.946,59.338,6.946L59.338,6.946z"/></g></g></g><g display="inline"><g><path fill="#000000" d="M47.143,35.571v-2.208c-1.558-0.07-3.069-0.488-3.953-1l0.699-2.721c0.977,0.534,2.348,1.022,3.861,1.022     c1.325,0,2.232-0.511,2.232-1.441c0-0.884-0.744-1.443-2.465-2.024c-2.488-0.837-4.186-1.999-4.186-4.254     c0-2.047,1.443-3.65,3.931-4.139v-2.21h2.278v2.047c1.558,0.07,2.605,0.394,3.372,0.767l-0.674,2.628     c-0.604-0.256-1.674-0.791-3.349-0.791c-1.511,0-1.999,0.651-1.999,1.303c0,0.767,0.814,1.255,2.791,1.999     c2.766,0.977,3.883,2.255,3.883,4.349c0,2.069-1.465,3.836-4.139,4.302v2.37H47.143z"/></g></g><g display="inline"><path d="M29.009,13.641h-8.444c-1.484,0-2.69,1.207-2.69,2.69v4.048h1.794v-4.048c0-0.495,0.402-0.897,0.897-0.897h8.444    c0.495,0,0.897,0.402,0.897,0.897v4.048H31.7v-4.048C31.7,14.848,30.493,13.641,29.009,13.641L29.009,13.641z"/></g><g display="inline"><g><polygon fill="#000000" points="11.667,37.794 15.283,20.329 34.29,20.329 37.907,37.794    "/></g><g><path d="M33.477,21.329l3.202,15.465H12.895l3.202-15.465H33.477 M35.105,19.329H14.469l-4.031,19.465h28.697L35.105,19.329     L35.105,19.329z"/></g></g><g display="inline"><path d="M29.121,23.069c-0.865,0-1.565,0.702-1.565,1.567c0,0.866,0.701,1.567,1.565,1.567c0.865,0,1.565-0.702,1.565-1.567    C30.687,23.771,29.986,23.069,29.121,23.069L29.121,23.069z M20.452,23.069c-0.865,0-1.566,0.702-1.566,1.567    c0,0.866,0.701,1.567,1.566,1.567c0.865,0,1.565-0.702,1.565-1.567C22.018,23.771,21.317,23.069,20.452,23.069L20.452,23.069z"/></g></g><g display="none"><g display="inline"><path d="M29.906,16.331c0-0.495-0.402-0.897-0.897-0.897h-8.444c-0.495,0-0.897,0.402-0.897,0.897v2.997h10.238V16.331z"/><path d="M59.338,6.946H4.662C2.098,6.946,0,9.044,0,11.608v30.057c0,2.564,2.098,4.662,4.662,4.662H30v6.726h-9.179l-1.333,4    h25.025l-1.333-4H34v-6.726h25.338c2.564,0,4.662-2.098,4.662-4.662V11.608C64,9.044,61.902,6.946,59.338,6.946z M10.438,38.794    l4.031-19.465h3.406v-2.997c0-1.484,1.207-2.69,2.69-2.69h8.444c1.484,0,2.69,1.207,2.69,2.69v2.997h3.405l4.031,19.465H10.438z     M49.423,33.2v2.37h-2.28v-2.208c-1.558-0.07-3.069-0.488-3.953-1l0.699-2.721c0.977,0.534,2.348,1.022,3.861,1.022    c1.325,0,2.232-0.511,2.232-1.441c0-0.884-0.744-1.443-2.465-2.024c-2.488-0.837-4.186-1.999-4.186-4.254    c0-2.047,1.443-3.65,3.931-4.139v-2.21h2.278v2.047c1.558,0.07,2.605,0.394,3.372,0.767l-0.674,2.628    c-0.604-0.256-1.674-0.791-3.349-0.791c-1.511,0-1.999,0.651-1.999,1.303c0,0.767,0.814,1.255,2.791,1.999    c2.766,0.977,3.883,2.255,3.883,4.349C53.562,30.968,52.096,32.734,49.423,33.2z"/><circle cx="29.121" cy="24.636" r="1.566"/><circle cx="20.452" cy="24.636" r="1.566"/></g></g><g display="none"><g display="inline"><g><g><rect x="30" y="44.874" width="4" height="9.691"/></g><g><polygon points="19.488,57.054 20.821,53.054 43.179,53.054 44.512,57.054     "/></g><g><g><path d="M4.662,45.328C2.643,45.328,1,43.685,1,41.665V11.609c0-2.02,1.643-3.662,3.662-3.662h54.676       c2.02,0,3.662,1.643,3.662,3.662v30.057c0,2.02-1.643,3.662-3.662,3.662H4.662z"/></g><g><g><path d="M59.338,8.946c1.468,0,2.662,1.194,2.662,2.662v30.057c0,1.468-1.194,2.662-2.662,2.662H4.662        C3.194,44.327,2,43.133,2,41.665V11.608c0-1.468,1.194-2.662,2.662-2.662H59.338 M59.338,6.946H4.662        C2.098,6.946,0,9.044,0,11.608v30.057c0,2.564,2.098,4.662,4.662,4.662h54.675c2.564,0,4.662-2.098,4.662-4.662V11.608        C64,9.044,61.902,6.946,59.338,6.946L59.338,6.946z"/></g></g></g></g><g><polyline fill="#000000" points="29.797,19.153 31.678,13.92 43.81,19.556    "/><circle fill="#000000" cx="39.447" cy="38.556" r="3.779"/><circle fill="#000000" cx="28.049" cy="38.556" r="3.779"/><polygon fill="#000000" points="25.208,20.16 22.726,12.816 16.301,12.816 16.301,10.854 24.134,10.854 27.067,19.532    "/><polygon fill="#000000" points="20.448,18.512 47.699,18.512 42.505,33.086 24.986,33.086    "/></g></g></g><g display="none"><g display="inline"><polyline fill="none" stroke="#000000" stroke-width="2" stroke-miterlimit="10" points="29.797,19.153 31.678,13.92     43.81,19.556   "/><g><path d="M39.447,36.777c0.981,0,1.779,0.798,1.779,1.779c0,0.981-0.798,1.779-1.779,1.779s-1.779-0.798-1.779-1.779     C37.668,37.575,38.466,36.777,39.447,36.777 M39.447,34.777c-2.087,0-3.779,1.692-3.779,3.779c0,2.087,1.692,3.779,3.779,3.779     c2.087,0,3.779-1.692,3.779-3.779C43.226,36.469,41.534,34.777,39.447,34.777L39.447,34.777z"/></g><g><path d="M28.049,36.777c0.981,0,1.779,0.798,1.779,1.779c0,0.981-0.798,1.779-1.779,1.779s-1.779-0.798-1.779-1.779     C26.27,37.575,27.068,36.777,28.049,36.777 M28.049,34.777c-2.087,0-3.779,1.692-3.779,3.779c0,2.087,1.692,3.779,3.779,3.779     s3.779-1.692,3.779-3.779C31.828,36.469,30.136,34.777,28.049,34.777L28.049,34.777z"/></g><g><polygon points="24.134,10.854 16.301,10.854 16.301,12.816 22.726,12.816 25.208,20.16 27.067,19.532 24.134,10.854    "/></g><g><path d="M44.863,20.512l-3.769,10.574H26.458l-3.292-10.574H44.863 M47.699,18.512H20.448l4.538,14.574h17.519L47.699,18.512     L47.699,18.512z"/></g></g><g display="inline"><path d="M32,46.874v5.691V46.874 M34,44.874h-4v9.691h4V44.874L34,44.874z"/></g><g display="inline"><polygon points="43.179,53.054 20.821,53.054 19.488,57.054 44.512,57.054 43.179,53.054   "/></g><g display="inline"><g><path d="M59.338,8.946c1.468,0,2.662,1.194,2.662,2.662v30.057c0,1.468-1.194,2.662-2.662,2.662H4.662     C3.194,44.327,2,43.133,2,41.665V11.608c0-1.468,1.194-2.662,2.662-2.662H59.338 M59.338,6.946H4.662     C2.098,6.946,0,9.044,0,11.608v30.057c0,2.564,2.098,4.662,4.662,4.662h54.675c2.564,0,4.662-2.098,4.662-4.662V11.608     C64,9.044,61.902,6.946,59.338,6.946L59.338,6.946z"/></g></g></g><g display="none"><g display="inline"><path d="M31.106,12.552l-2.142,5.961h-2.242l-2.588-7.658h-7.833v1.962h6.425l1.926,5.696h-4.203l4.538,14.574h17.519    l5.195-14.574h-3.764L31.106,12.552z M32.249,15.288l6.939,3.224H31.09L32.249,15.288z M41.094,31.086H26.458l-3.292-10.574    h21.698L41.094,31.086z"/><path d="M39.447,34.777c-2.087,0-3.779,1.692-3.779,3.779c0,2.087,1.692,3.779,3.779,3.779c2.087,0,3.779-1.692,3.779-3.779    C43.226,36.469,41.534,34.777,39.447,34.777z M39.447,40.334c-0.981,0-1.779-0.798-1.779-1.779c0-0.981,0.798-1.779,1.779-1.779    s1.779,0.798,1.779,1.779C41.226,39.536,40.428,40.334,39.447,40.334z"/><path d="M28.049,34.777c-2.087,0-3.779,1.692-3.779,3.779c0,2.087,1.692,3.779,3.779,3.779s3.779-1.692,3.779-3.779    C31.828,36.469,30.136,34.777,28.049,34.777z M28.049,40.334c-0.981,0-1.779-0.798-1.779-1.779c0-0.981,0.798-1.779,1.779-1.779    s1.779,0.798,1.779,1.779C29.828,39.536,29.03,40.334,28.049,40.334z"/><path d="M59.338,6.946H4.662C2.098,6.946,0,9.044,0,11.608v30.057c0,2.564,2.098,4.662,4.662,4.662H30v6.726h-9.179l-1.333,4    h25.025l-1.333-4H34v-6.726h25.338c2.564,0,4.662-2.098,4.662-4.662V11.608C64,9.044,61.902,6.946,59.338,6.946z M62,41.665    c0,1.468-1.194,2.662-2.662,2.662H4.662C3.194,44.327,2,43.133,2,41.665V11.608c0-1.468,1.194-2.662,2.662-2.662h54.675    c1.468,0,2.662,1.194,2.662,2.662V41.665z"/></g></g><g display="none"><g display="inline"><path fill="#000000" d="M32,0C14.327,0,0,14.327,0,32s14.327,32,32,32s32-14.327,32-32S49.673,0,32,0L32,0z"/><path d="M59.783,45.122H4.217c-1.65,0-3-1.35-3-3V10.953c0-1.65,1.35-3,3-3h55.567c1.65,0,3,1.35,3,3v31.169    C62.783,43.772,61.433,45.122,59.783,45.122z"/><g><path d="M32,46.874v5.691V46.874 M34,44.874h-4v9.691h4V44.874L34,44.874z"/></g><g><polygon points="43.179,53.054 20.821,53.054 19.488,57.054 44.512,57.054 43.179,53.054    "/></g><g><g><path fill="#000000" d="M59.338,8.946c1.468,0,2.662,1.194,2.662,2.662v30.057c0,1.468-1.194,2.662-2.662,2.662H4.662      C3.194,44.327,2,43.133,2,41.665V11.608c0-1.468,1.194-2.662,2.662-2.662H59.338 M59.338,6.946H4.662      C2.098,6.946,0,9.044,0,11.608v30.057c0,2.564,2.098,4.662,4.662,4.662h54.675c2.564,0,4.662-2.098,4.662-4.662V11.608      C64,9.044,61.902,6.946,59.338,6.946L59.338,6.946z"/></g></g></g><g display="inline"><polyline fill="#000000" points="30.124,20.256 31.726,15.799 42.059,20.6   "/><g><circle fill="#000000" cx="38.343" cy="36.782" r="3.219"/></g><g><circle fill="#000000" cx="28.635" cy="36.782" r="3.219"/></g><g><polygon fill="#000000" points="26.215,21.114 24.101,14.859 18.628,14.859 18.628,13.187 25.3,13.187 27.799,20.579    "/></g><g><polygon fill="#000000" points="22.16,19.71 45.372,19.71 40.947,32.124 26.026,32.124    "/></g></g></g><g display="none"><g display="inline"><path d="M59.338,6.946H4.662C2.098,6.946,0,9.044,0,11.608v30.057c0,2.564,2.098,4.662,4.662,4.662H30v6.726h-9.179l-1.333,4    h25.025l-1.333-4H34v-6.726h25.338c2.564,0,4.662-2.098,4.662-4.662V11.608C64,9.044,61.902,6.946,59.338,6.946z M28.3,41.334    c-1.954,0-3.539-1.584-3.539-3.539c0-1.954,1.584-3.539,3.539-3.539s3.539,1.584,3.539,3.539    C31.839,39.75,30.254,41.334,28.3,41.334z M38.974,41.334c-1.954,0-3.539-1.584-3.539-3.539c0-1.954,1.584-3.539,3.539-3.539    c1.954,0,3.539,1.584,3.539,3.539C42.512,39.75,40.928,41.334,38.974,41.334z M41.837,32.674H25.431l-4.25-13.648h3.936    l-1.803-5.334h-6.017v-1.838h7.336l2.424,7.172h3.095l1.545-4.3l9.256,4.3h5.747L41.837,32.674z"/></g></g><g display="none"><g display="inline"><g><rect x="30" y="44.874" width="4" height="9.691"/></g><g><polygon points="19.488,57.054 20.821,53.054 43.179,53.054 44.512,57.054    "/></g><g><g><path d="M4.662,45.328C2.643,45.328,1,43.685,1,41.665V11.609c0-2.02,1.643-3.662,3.662-3.662h54.676      c2.02,0,3.662,1.643,3.662,3.662v30.057c0,2.02-1.643,3.662-3.662,3.662H4.662z"/></g><g><g><path d="M59.338,8.946c1.468,0,2.662,1.194,2.662,2.662v30.057c0,1.468-1.194,2.662-2.662,2.662H4.662       C3.194,44.327,2,43.133,2,41.665V11.608c0-1.468,1.194-2.662,2.662-2.662H59.338 M59.338,6.946H4.662       C2.098,6.946,0,9.044,0,11.608v30.057c0,2.564,2.098,4.662,4.662,4.662h54.675c2.564,0,4.662-2.098,4.662-4.662V11.608       C64,9.044,61.902,6.946,59.338,6.946L59.338,6.946z"/></g></g></g><g><path fill="#000000" d="M30.327,39.363v-2.996c-2.115-0.095-4.165-0.663-5.366-1.357l0.948-3.693     c1.326,0.725,3.186,1.388,5.24,1.388c1.799,0,3.03-0.694,3.03-1.956c0-1.2-1.01-1.958-3.346-2.747     c-3.377-1.136-5.682-2.714-5.682-5.774c0-2.778,1.958-4.954,5.335-5.617v-2.999h3.091v2.778c2.115,0.095,3.536,0.535,4.577,1.041     l-0.915,3.567c-0.82-0.347-2.272-1.074-4.546-1.074c-2.051,0-2.714,0.884-2.714,1.768c0,1.041,1.105,1.704,3.788,2.714     c3.754,1.326,5.27,3.061,5.27,5.903c0,2.809-1.989,5.206-5.617,5.838v3.217H30.327z"/><path fill="#000000" d="M16.295,34.838v-1.943c-1.372-0.062-2.701-0.43-3.48-0.88l0.615-2.395c0.86,0.47,2.067,0.9,3.398,0.9     c1.167,0,1.965-0.45,1.965-1.268c0-0.778-0.655-1.27-2.17-1.782c-2.19-0.737-3.685-1.76-3.685-3.745     c0-1.802,1.27-3.213,3.46-3.643v-1.945h2.005v1.802c1.372,0.062,2.293,0.347,2.968,0.675l-0.593,2.313     c-0.532-0.225-1.473-0.697-2.948-0.697c-1.33,0-1.76,0.573-1.76,1.147c0,0.675,0.717,1.105,2.456,1.76     c2.435,0.86,3.418,1.985,3.418,3.828c0,1.822-1.29,3.376-3.643,3.786v2.087H16.295z"/><path fill="#000000" d="M45.535,34.838v-1.943c-1.372-0.062-2.701-0.43-3.48-0.88l0.615-2.395c0.86,0.47,2.067,0.9,3.398,0.9     c1.167,0,1.965-0.45,1.965-1.268c0-0.778-0.655-1.27-2.17-1.782c-2.19-0.737-3.685-1.76-3.685-3.745     c0-1.802,1.27-3.213,3.46-3.643v-1.945h2.005v1.802c1.372,0.062,2.293,0.347,2.968,0.675l-0.593,2.313     c-0.532-0.225-1.473-0.697-2.948-0.697c-1.33,0-1.76,0.573-1.76,1.147c0,0.675,0.717,1.105,2.456,1.76     c2.435,0.86,3.418,1.985,3.418,3.828c0,1.822-1.29,3.376-3.643,3.786v2.087H45.535z"/></g></g></g><g display="none"><g display="inline"><path d="M30.327,39.363v-2.996c-2.115-0.095-4.165-0.663-5.366-1.357l0.948-3.693c1.326,0.725,3.186,1.388,5.24,1.388    c1.799,0,3.03-0.694,3.03-1.956c0-1.2-1.01-1.958-3.346-2.747c-3.377-1.136-5.682-2.714-5.682-5.774    c0-2.778,1.958-4.954,5.335-5.617v-2.999h3.091v2.778c2.115,0.095,3.536,0.535,4.577,1.041l-0.915,3.567    c-0.82-0.347-2.272-1.074-4.546-1.074c-2.051,0-2.714,0.884-2.714,1.768c0,1.041,1.105,1.704,3.788,2.714    c3.754,1.326,5.27,3.061,5.27,5.903c0,2.809-1.989,5.206-5.617,5.838v3.217H30.327z"/></g><g display="inline"><path d="M16.295,34.838v-1.943c-1.372-0.062-2.701-0.43-3.48-0.88l0.615-2.395c0.86,0.47,2.067,0.9,3.398,0.9    c1.167,0,1.965-0.45,1.965-1.268c0-0.778-0.655-1.27-2.17-1.782c-2.19-0.737-3.685-1.76-3.685-3.745    c0-1.802,1.27-3.213,3.46-3.643v-1.945h2.005v1.802c1.372,0.062,2.293,0.347,2.968,0.675l-0.593,2.313    c-0.532-0.225-1.473-0.697-2.948-0.697c-1.33,0-1.76,0.573-1.76,1.147c0,0.675,0.717,1.105,2.456,1.76    c2.435,0.86,3.418,1.985,3.418,3.828c0,1.822-1.29,3.376-3.643,3.786v2.087H16.295z"/></g><g display="inline"><path d="M45.535,34.838v-1.943c-1.372-0.062-2.701-0.43-3.48-0.88l0.615-2.395c0.86,0.47,2.067,0.9,3.398,0.9    c1.167,0,1.965-0.45,1.965-1.268c0-0.778-0.655-1.27-2.17-1.782c-2.19-0.737-3.685-1.76-3.685-3.745    c0-1.802,1.27-3.213,3.46-3.643v-1.945h2.005v1.802c1.372,0.062,2.293,0.347,2.968,0.675l-0.593,2.313    c-0.532-0.225-1.473-0.697-2.948-0.697c-1.33,0-1.76,0.573-1.76,1.147c0,0.675,0.717,1.105,2.456,1.76    c2.435,0.86,3.418,1.985,3.418,3.828c0,1.822-1.29,3.376-3.643,3.786v2.087H45.535z"/></g><g display="inline"><g><path d="M32,46.874v5.691V46.874 M34,44.874h-4v9.691h4V44.874L34,44.874z"/></g><g><polygon points="43.179,53.054 20.821,53.054 19.488,57.054 44.512,57.054 43.179,53.054    "/></g><g><g><path d="M59.338,8.946c1.468,0,2.662,1.194,2.662,2.662v30.057c0,1.468-1.194,2.662-2.662,2.662H4.662      C3.194,44.327,2,43.133,2,41.665V11.608c0-1.468,1.194-2.662,2.662-2.662H59.338 M59.338,6.946H4.662      C2.098,6.946,0,9.044,0,11.608v30.057c0,2.564,2.098,4.662,4.662,4.662h54.675c2.564,0,4.662-2.098,4.662-4.662V11.608      C64,9.044,61.902,6.946,59.338,6.946L59.338,6.946z"/></g></g></g></g><g display="none"><g display="inline"><path d="M35.122,23.495l-3.122-10.226l-3.123,10.226h-9.939l8.055,6.207L23.89,39.857l8.128-6.279l8.128,6.279l-3.12-10.155    l8.037-6.207H35.122z M35.113,30.29l1.27,4.133l-3.143-2.428l-1.223-0.945l-1.223,0.945l-3.156,2.438l1.267-4.146l0.405-1.324    l-1.096-0.845l-3.404-2.623h4.067h1.48l0.432-1.416L32,20.118l1.209,3.961l0.432,1.416h1.481H39.2l-3.398,2.624l-1.096,0.847    L35.113,30.29z"/><path d="M59.338,6.946H4.662C2.098,6.946,0,9.044,0,11.608v30.057c0,2.564,2.098,4.662,4.662,4.662H30v6.726h-9.179l-1.333,4    h25.025l-1.333-4H34v-6.726h25.338c2.564,0,4.662-2.098,4.662-4.662V11.608C64,9.044,61.902,6.946,59.338,6.946z M62,41.665    c0,1.468-1.194,2.662-2.662,2.662H4.662C3.194,44.327,2,43.133,2,41.665V11.608c0-1.468,1.194-2.662,2.662-2.662h54.675    c1.468,0,2.662,1.194,2.662,2.662V41.665z"/></g></g><g display="none"><g display="inline"><path fill="#000000" d="M32,0C14.327,0,0,14.327,0,32s14.327,32,32,32s32-14.327,32-32S49.673,0,32,0L32,0z"/><path fill="#000000" d="M59.783,45.122H4.217c-1.65,0-3-1.35-3-3V10.953c0-1.65,1.35-3,3-3h55.567c1.65,0,3,1.35,3,3v31.169    C62.783,43.772,61.433,45.122,59.783,45.122z"/><g><path d="M32,46.874v5.691V46.874 M34,44.874h-4v9.691h4V44.874L34,44.874z"/></g><g><polygon points="43.179,53.054 20.821,53.054 19.488,57.054 44.512,57.054 43.179,53.054    "/></g><g><path d="M59.338,8.946c1.468,0,2.662,1.194,2.662,2.662v30.057c0,1.468-1.194,2.662-2.662,2.662H4.662     C3.194,44.327,2,43.133,2,41.665V11.608c0-1.468,1.194-2.662,2.662-2.662H59.338 M59.338,6.946H4.662     C2.098,6.946,0,9.044,0,11.608v30.057c0,2.564,2.098,4.662,4.662,4.662h54.675c2.564,0,4.662-2.098,4.662-4.662V11.608     C64,9.044,61.902,6.946,59.338,6.946L59.338,6.946z"/></g></g><g display="inline"><g><path fill="#000000" d="M30.327,39.363v-2.996c-2.115-0.095-4.165-0.663-5.366-1.357l0.948-3.693     c1.326,0.725,3.186,1.388,5.24,1.388c1.799,0,3.03-0.694,3.03-1.956c0-1.2-1.01-1.958-3.346-2.747     c-3.377-1.136-5.682-2.714-5.682-5.774c0-2.778,1.958-4.954,5.335-5.617v-2.999h3.091v2.778c2.115,0.095,3.536,0.535,4.577,1.041     l-0.915,3.567c-0.82-0.347-2.272-1.074-4.546-1.074c-2.051,0-2.714,0.884-2.714,1.768c0,1.041,1.105,1.704,3.788,2.714     c3.754,1.326,5.27,3.061,5.27,5.903c0,2.809-1.989,5.206-5.617,5.838v3.217H30.327z"/></g></g><g display="inline"><path d="M16.295,34.838v-1.943c-1.372-0.062-2.701-0.43-3.48-0.88l0.615-2.395c0.86,0.47,2.067,0.9,3.398,0.9    c1.167,0,1.965-0.45,1.965-1.268c0-0.778-0.655-1.27-2.17-1.782c-2.19-0.737-3.685-1.76-3.685-3.745    c0-1.802,1.27-3.213,3.46-3.643v-1.945h2.005v1.802c1.372,0.062,2.293,0.347,2.968,0.675l-0.593,2.313    c-0.532-0.225-1.473-0.697-2.948-0.697c-1.33,0-1.76,0.573-1.76,1.147c0,0.675,0.717,1.105,2.456,1.76    c2.435,0.86,3.418,1.985,3.418,3.828c0,1.822-1.29,3.376-3.643,3.786v2.087H16.295z"/></g><g display="inline"><path d="M45.535,34.838v-1.943c-1.372-0.062-2.701-0.43-3.48-0.88l0.615-2.395c0.86,0.47,2.067,0.9,3.398,0.9    c1.167,0,1.965-0.45,1.965-1.268c0-0.778-0.655-1.27-2.17-1.782c-2.19-0.737-3.685-1.76-3.685-3.745    c0-1.802,1.27-3.213,3.46-3.643v-1.945h2.005v1.802c1.372,0.062,2.293,0.347,2.968,0.675l-0.593,2.313    c-0.532-0.225-1.473-0.697-2.948-0.697c-1.33,0-1.76,0.573-1.76,1.147c0,0.675,0.717,1.105,2.456,1.76    c2.435,0.86,3.418,1.985,3.418,3.828c0,1.822-1.29,3.376-3.643,3.786v2.087H45.535z"/></g></g><g display="none"><g display="inline"><path d="M59.338,6.946H4.662C2.098,6.946,0,9.044,0,11.608v30.057c0,2.564,2.098,4.662,4.662,4.662H30v6.726h-9.179l-1.333,4    h25.025l-1.333-4H34v-6.726h25.338c2.564,0,4.662-2.098,4.662-4.662V11.608C64,9.044,61.902,6.946,59.338,6.946z M18.301,32.751    v2.086h-2.007v-1.943c-1.372-0.062-2.701-0.43-3.48-0.88l0.615-2.395c0.86,0.47,2.067,0.9,3.398,0.9    c1.167,0,1.965-0.45,1.965-1.268c0-0.778-0.655-1.27-2.17-1.782c-2.19-0.737-3.685-1.76-3.685-3.745    c0-1.802,1.27-3.213,3.46-3.643v-1.945h2.005v1.802c1.372,0.062,2.293,0.347,2.968,0.675l-0.593,2.313    c-0.532-0.225-1.473-0.697-2.948-0.697c-1.33,0-1.76,0.573-1.76,1.147c0,0.675,0.717,1.105,2.456,1.76    c2.435,0.86,3.418,1.985,3.418,3.828C21.944,30.786,20.655,32.341,18.301,32.751z M33.421,36.146v3.217h-3.094v-2.996    c-2.115-0.095-4.166-0.663-5.366-1.357l0.948-3.693c1.326,0.725,3.186,1.388,5.24,1.388c1.799,0,3.03-0.694,3.03-1.956    c0-1.2-1.01-1.958-3.346-2.747c-3.377-1.136-5.682-2.714-5.682-5.774c0-2.778,1.958-4.954,5.335-5.617v-2.999h3.091v2.778    c2.115,0.095,3.536,0.534,4.577,1.041l-0.915,3.567c-0.82-0.347-2.272-1.074-4.546-1.074c-2.051,0-2.714,0.884-2.714,1.768    c0,1.041,1.105,1.704,3.788,2.714c3.754,1.326,5.271,3.061,5.271,5.903C39.038,33.116,37.049,35.514,33.421,36.146z     M47.542,32.751v2.086h-2.006v-1.943c-1.372-0.062-2.701-0.43-3.48-0.88l0.615-2.395c0.86,0.47,2.067,0.9,3.398,0.9    c1.167,0,1.965-0.45,1.965-1.268c0-0.778-0.655-1.27-2.17-1.782c-2.19-0.737-3.685-1.76-3.685-3.745    c0-1.802,1.27-3.213,3.46-3.643v-1.945h2.005v1.802c1.372,0.062,2.293,0.347,2.968,0.675l-0.593,2.313    c-0.532-0.225-1.473-0.697-2.948-0.697c-1.33,0-1.76,0.573-1.76,1.147c0,0.675,0.717,1.105,2.456,1.76    c2.435,0.86,3.418,1.985,3.418,3.828C51.185,30.786,49.895,32.341,47.542,32.751z"/></g></g></svg>