<svg xmlns="http://www.w3.org/2000/svg" xmlns:xlink="http://www.w3.org/1999/xlink" version="1.1" x="0px" y="0px" viewBox="0 0 100 100" style="enable-background:new 0 0 100 100;" xml:space="preserve"><g><path d="M54.9541016,17.3242188h5.065918c0.8286133,0,1.5-0.6713867,1.5-1.5c0-0.2133789,0.1733398-0.3867188,0.3867188-0.3867188   h4.4819336c2.453125,0,4.4492188,1.9960938,4.4492188,4.4492188v3.0900269l-0.553894,20.6687012   c-0.4875488,1.3441772-2.6044922,7.8566284-2.4202271,19.1929321c0.0366211,2.2333984,0.0859375,4.4599609,0.1342773,6.637207   c0.2114258,9.53125,0.4111328,18.5336914-0.6777344,22.2680664c-0.0776367,0.265625-0.0800781,0.5478516-0.0073242,0.8149414   c0.8481445,3.1069336,4.6391602,3.2167969,7.0844727,3.2167969c0.0952148,0,0.1889648,0,0.2797852,0l0.2792969-0.0004883   l0.2792969,0.0004883c0.0913086,0,0.1845703,0,0.2797852,0c2.4453125,0,6.2368164-0.1098633,7.0839844-3.2172852   c0.0727539-0.2670898,0.0703125-0.5488281-0.0073242-0.8144531c-1.0888672-3.7333984-0.8891602-12.7338867-0.6772461-22.2626953   c0.0483398-2.1791992,0.0976562-4.4072266,0.1342773-6.6425781c0.1627808-10.0161743-1.4730835-16.2694092-2.1932373-18.5198975   c0.0360107-0.1351929,0.0601196-0.2738647,0.0570068-0.4161377l-0.4462891-20.9355469   c-0.0001221-0.0053711-0.001709-0.010376-0.0018921-0.0157471c-0.0006104-0.0204468-0.0060425-0.0411377-0.0074463-0.0616455   c-0.0057983-0.0792847-0.0133057-0.1580811-0.0309448-0.2333984c-0.0006714-0.0030518-0.0004883-0.0059814-0.0012207-0.0090332   c-0.0400391-0.1704102-0.9516602-4.2084961,1.9169922-7.2578125c1.3330078-1.4155273,4.9697266,1.6494141,6.0522461,2.6225586   c2.7114258,2.4375,4.1279297,6.0825195,4.1411133,6.1171875c0.2236328,0.5888672,0.7866211,0.9677734,1.4013672,0.9677734   c0.0732422,0,0.1474609-0.0053711,0.2216797-0.0161133c0.6972656-0.1040039,1.2280273-0.6791992,1.2758789-1.3823242   c0.0107422-0.1586914,0.2407227-3.9208984-1.6640625-7.6645508c-1.4916992-2.9316406-3.1914062-5.3881836-5.0517578-7.300293   C82.9790039,3.862793,76.2587891,4.1181641,71.3540039,4.3027344c-0.862793,0.0327148-1.6777344,0.0639648-2.4243164,0.0639648   c-0.3120117,0-0.6162109,0.097168-0.8701172,0.2783203c-2.6640625,1.8955078-5.4106445,1.3120117-6.8110352,0.7958984   c-0.5703125-0.2104492-0.9145508-0.4086914-0.9145508-0.4086914c-0.2324219-0.1381836-0.4975586-0.2114258-0.7680664-0.2114258   h-4.6118164c-0.8286133,0-1.5,0.6713867-1.5,1.5v9.503418C53.4541016,16.652832,54.1254883,17.3242188,54.9541016,17.3242188z    M76.8813477,42.434082H74.956543h-1.6391602l0.480957-17.9355469h2.7006836L76.8813477,42.434082z M75.2412109,92.7753906   l-0.284668-0.0004883l-0.284668,0.0004883c-1.3271484-0.0009766-3.6860352,0.0063477-4.324707-0.746582   c1.0551758-4.3706055,0.8666992-12.8579102,0.6499023-22.6196289c-0.0478516-2.171875-0.097168-4.3920898-0.1333008-6.6196289   c-0.1508789-9.2573242,1.3251953-15.1767578,1.9902344-17.3554688h2.1025391h2.1020508   c0.6660156,2.1811523,2.1416016,8.1005859,1.9907227,17.3554688c-0.0361328,2.2290039-0.0854492,4.4516602-0.1337891,6.625   c-0.2167969,9.7592773-0.4047852,18.2446289,0.6499023,22.6142578   C78.9272461,92.7817383,76.5722656,92.7758789,75.2412109,92.7753906z M56.4541016,7.8208008h2.7402344   c0.2426758,0.1201172,0.5874023,0.2768555,1.0161133,0.4345703c1.8862305,0.6958008,5.5307617,1.472168,9.1850586-0.8920898   c0.6508789-0.0092773,1.3452148-0.0351562,2.0717773-0.0625c4.5825195-0.1743164,10.2919922-0.3896484,14.1010742,3.5249023   c1.2319336,1.265625,2.3930664,2.8178711,3.4658203,4.6308594c-5.3837891-4.6845703-8.3398438-3.7587891-9.8764648-2.1230469   c-2.6304321,2.7955322-2.9696655,6.1313477-2.8781738,8.1650391h-2.4416504v-1.6118164   c0-4.1074219-3.3417969-7.4492188-7.4492188-7.4492188h-4.4819336c-1.3291016,0-2.4819336,0.7695312-3.0361328,1.8867188   h-2.4165039V7.8208008z M8.3740234,91.0800781c0.0180664,0.0883789,0.0444336,0.1748047,0.0776367,0.2583008   c1.0830078,2.6953125,3.659668,4.4370117,6.5639648,4.4370117c2.9047852,0,5.4814453-1.7416992,6.5644531-4.4370117   c0.0332031-0.0834961,0.059082-0.1699219,0.0771484-0.2583008l1.0141602-4.9487305   c1.9492188-4.9277344,2.3369141-10.2529297,1.1210938-15.4125977l-1.515625-10.5273438   c-0.0068359-0.0449219-0.0151367-0.0898438-0.0258789-0.1337891c-0.7641602-3.206543-0.8208008-6.6088867-0.1635742-9.8388672   l0.7133789-3.5048828c0.1484375-0.7333984-0.0375977-1.4863281-0.5117188-2.065918   c-0.4731445-0.5791016-1.1738281-0.9111328-1.921875-0.9111328h-1.3701172v-27.050293l1.3955078-1.5058594   c0.347168-0.3754883,0.4799805-0.9013672,0.3510742-1.3964844l-2.190918-8.4365234   c-0.1713867-0.6611328-0.7685547-1.1230469-1.4516602-1.1230469h-4.1708984c-0.6933594,0-1.2963867,0.4750977-1.4584961,1.1494141   l-2.027832,8.4365234c-0.1113281,0.4633789,0.0043945,0.9526367,0.3115234,1.3168945l1.2792969,1.519043v27.090332H9.6645508   c-0.7485352,0-1.4492188,0.3325195-1.9228516,0.9121094s-0.659668,1.3330078-0.5102539,2.065918l0.7128906,3.5043945   c0.6572266,3.2285156,0.6005859,6.6308594-0.1635742,9.8383789c-0.0107422,0.0444336-0.019043,0.0888672-0.0258789,0.1337891   L6.2392578,70.71875c-1.2158203,5.159668-0.828125,10.4848633,1.1210938,15.4125977L8.3740234,91.0800781z M20.1732178,84.199707   H9.8585205c-0.1940308-0.5505981-0.3662109-1.1054077-0.5168457-1.6650391h11.3483887   C20.5394287,83.0942993,20.3672485,83.6491089,20.1732178,84.199707z M15.015625,92.7753906   c-1.6308594,0-3.0820312-0.9536133-3.7314453-2.4399414l-0.642334-3.1357422h8.7480469l-0.642334,3.1357422   C18.0981445,91.8217773,16.6469727,92.7753906,15.015625,92.7753906z M13.6816406,15.1323242l-1.1435547-1.3579102   l1.5742188-6.5498047h1.8286133l1.6928711,6.519043l-1.2373047,1.3354492   c-0.2568359,0.2773438-0.3994141,0.6416016-0.3994141,1.0195312v27.6381836H15.015625h-0.980957V16.0986328   C14.034668,15.7451172,13.909668,15.402832,13.6816406,15.1323242z M12.534668,46.7368164h2.480957h2.4814453h2.2373047   l-0.5360718,2.6362305H10.833374l-0.5360107-2.6362305H12.534668z M9.1733398,71.3466797   c0.0107422-0.0439453,0.019043-0.0888672,0.0258789-0.1337891l1.515625-10.5273438   c0.6372681-2.7073364,0.8294678-5.5357666,0.5737915-8.3125h7.4544678c-0.2557373,2.7774048-0.0635376,5.6057739,0.5737915,8.3125   l1.515625,10.5273438c0.0068359,0.0449219,0.0151367,0.0898438,0.0258789,0.1337891   c0.6466675,2.7124634,0.7774658,5.475708,0.4285278,8.1879883H8.744812   C8.395874,76.8223877,8.5266724,74.0591431,9.1733398,71.3466797z M32.6191406,44.9326172   c2.1499023,1.8066406,3.4677734,3.0097656,3.4677734,4.9013672v11.1757812v27.6611328   c0,3.9174805,3.1875,7.1044922,7.1049805,7.1044922s7.1049805-3.1870117,7.1049805-7.1044922V61.1435547v-2.3515625v-8.0063477   c5.7211914-2.9116211,9.0981445-9.0161133,8.472168-15.4975586c-0.6479492-6.7001953-5.7104492-12.3574219-12.3120117-13.7568359   c-0.4418945-0.0952148-0.9042969,0.0170898-1.2553711,0.3017578c-0.3515625,0.284668-0.5556641,0.7128906-0.5556641,1.1655273   v11.309082c0,0.3813477-0.3105469,0.6918945-0.6918945,0.6918945h-1.496582V22.9985352   c0-0.4619141-0.2128906-0.8979492-0.5771484-1.1826172c-0.3642578-0.2841797-0.8398438-0.3867188-1.2871094-0.2724609   c-5.6785278,1.4207764-10.092041,6.871582-11.0350952,13.4560547h-0.500061c-0.3754883,0-0.7514648,0.1547852-1.0283203,0.4082031   c-0.3100586,0.2841797-0.4863281,0.6855469-0.4863281,1.105957C27.543457,40.668457,30.3579102,43.0332031,32.6191406,44.9326172z    M39.0869141,70.8032227h8.2099609v2.5058594h-8.2099609V70.8032227z M47.296875,67.8032227h-8.2099609v-2.5058594h8.2099609   V67.8032227z M43.1918945,92.7753906c-2.2636719,0-4.1049805-1.8413086-4.1049805-4.1044922V76.309082h8.2099609v12.3618164   C47.296875,90.934082,45.4555664,92.7753906,43.1918945,92.7753906z M47.6459961,34.3076172v-9.3100586   c4.4282227,1.6762695,7.6748047,5.7993164,8.1367188,10.5791016c0.5327148,5.5151367-2.5136719,10.6914062-7.5805664,12.8803711   c-0.5493164,0.2373047-0.9052734,0.7783203-0.9052734,1.3769531v8.9580078v2.3515625v1.1538086h-8.2099609v-1.2875977V49.8339844   c0-3.3852539-2.4111328-5.4111328-4.5380859-7.1982422c-1.7304688-1.4536133-3.2709961-2.7480469-3.8056641-4.6362305h13.2109375   C45.9897461,37.9995117,47.6459961,36.3432617,47.6459961,34.3076172z M39.4575195,25.1318359v9.8676758h-6.8624878   C33.3540039,30.5563354,35.973938,26.8150635,39.4575195,25.1318359z"/></g></svg>