<svg xmlns:dc="http://purl.org/dc/elements/1.1/" xmlns:cc="http://creativecommons.org/ns#" xmlns:rdf="http://www.w3.org/1999/02/22-rdf-syntax-ns#" xmlns:svg="http://www.w3.org/2000/svg" xmlns="http://www.w3.org/2000/svg" xmlns:sodipodi="http://sodipodi.sourceforge.net/DTD/sodipodi-0.dtd" xmlns:inkscape="http://www.inkscape.org/namespaces/inkscape" version="1.1" x="0px" y="0px" viewBox="0 0 100 100"><g transform="translate(0,-952.36218)"><path style="text-indent:0;text-transform:none;direction:ltr;block-progression:tb;baseline-shift:baseline;color:#000000;enable-background:accumulate;" d="m 43.0039,972.36222 a 1.0001,1.0001 0 0 0 -1,1 l 0,14 -15.2725,0 a 1.0001,1.0001 0 0 0 -1,1 l 0,13.68348 -17.2769,-8.8241 a 1.0001,1.0001 0 0 0 -1.4547,0.89062 l 0,32.34998 a 1.0001,1.0001 0 0 0 1.4691,0.8831 l 17.2625,-9.1684 0,13.1853 a 1.0001,1.0001 0 0 0 1,1 l 65.2688,0 a 1.0001,1.0001 0 0 0 1,-1 l 0,-42.99998 a 1.0001,1.0001 0 0 0 -1,-1 l -47.9963,0 0,-13 31.7541,0 a 1.0001,1.0001 0 1 0 0,-2 l -32.7541,0 z m -15.2725,17 63.2688,0 0,40.99998 -63.2688,0 0,-13.8 0,-12.93 0,-14.26998 z m -18.7316,6.38375 16.7316,8.54533 0,11.6209 -16.7316,8.8865 0,-29.05273 z" fill="#000000" fill-opacity="1" fill-rule="evenodd" stroke="none" marker="none" visibility="visible" display="inline" overflow="visible"/><path style="text-indent:0;text-transform:none;direction:ltr;block-progression:tb;baseline-shift:baseline;color:#000000;enable-background:accumulate;" d="m 64.4503,994.55163 a 0.99955364,1.0006466 0 0 0 -0.9995,1.00062 l 0,7.80995 a 0.99955364,1.0006466 0 0 0 0.9995,1.0007 l 20.2978,0 a 0.99955364,1.0006466 0 0 0 0.9995,-1.0007 l 0,-7.80995 a 0.99955364,1.0006466 0 0 0 -0.9995,-1.00062 l -20.2978,0 z m 0.9995,2.00124 18.2988,0 0,5.80873 -18.2988,0 0,-5.80873 z" fill="#000000" fill-opacity="1" fill-rule="evenodd" stroke="none" marker="none" visibility="visible" display="inline" overflow="visible"/></g></svg>