<svg xmlns="http://www.w3.org/2000/svg" xmlns:xlink="http://www.w3.org/1999/xlink" version="1.1" x="0px" y="0px" viewBox="0 0 100 100" enable-background="new 0 0 100 100" xml:space="preserve"><g><rect x="84.378" y="24.679" width="9.307" height="1.063"/><path d="M93.377,19.205H7.029c-2.595,0-4.696,2.106-4.696,4.702v18.792c0,2.595,2.101,4.696,4.696,4.696h6.271v23.759   c0,6.649-3.655,7.182-3.655,7.182v4.52h8.846V61.937h1.926v2.968h63.12v-2.968h1.974v20.919h8.818v-4.52   c0,0-3.362-0.491-3.639-6.384V47.395h2.687c2.589,0,4.695-2.102,4.695-4.696V23.907C98.072,21.312,95.966,19.205,93.377,19.205z    M8.981,38.311H4.992V27.273h3.989V38.311z M14.434,38.311h-3.989V27.273h3.989V38.311z M15.896,38.311V27.273h3.989v11.037H15.896   z M20.417,59.809h-1.926V47.395h1.926V59.809z M81.409,62.777H22.544V41.193h58.865V62.777z M85.511,59.809h-1.974V47.395h1.974   V59.809z M95.323,28.247c0,0.883-0.713,1.597-1.595,1.597h-9.66c-0.883,0-1.596-0.713-1.596-1.597v-3.191   c0-0.878,0.713-1.596,1.596-1.596h9.66c0.882,0,1.595,0.718,1.595,1.596V28.247z"/></g></svg>