<svg xmlns:dc="http://purl.org/dc/elements/1.1/" xmlns:cc="http://creativecommons.org/ns#" xmlns:rdf="http://www.w3.org/1999/02/22-rdf-syntax-ns#" xmlns:svg="http://www.w3.org/2000/svg" xmlns="http://www.w3.org/2000/svg" xmlns:sodipodi="http://sodipodi.sourceforge.net/DTD/sodipodi-0.dtd" xmlns:inkscape="http://www.inkscape.org/namespaces/inkscape" viewBox="0 0 64 64" version="1.1" x="0px" y="0px"><g transform="translate(0,-988.36216)"><path style="" d="m 32.710938,994.23911 0,0.004 c -0.536046,-0.002 -1.073212,0.0251 -1.609376,0.082 l 0,-0.006 c -1.429763,0.1518 -2.851072,0.51355 -4.21875,1.09375 -3.270564,1.38746 -5.849075,3.86706 -7.40039,6.90426 -0.0073,0.014 -0.02127,0.041 -0.0332,0.065 l -3.449219,0 c -0.83387,0 -1.5,0.7569 -1.5,1.6855 l 0,6.8301 c 0,0.4163 0.195331,0.7732 0.462891,1.0352 0.26756,0.2619 0.625339,0.4472 1.037109,0.4472 l 1.240234,0 -0.0918,0.1524 -1.84375,2.6855 c -0.03534,0.052 -0.06052,0.1104 -0.07422,0.1719 -0.222467,0.9816 0.216284,2.0208 1.125,2.3789 l -0.01367,0 c 0.06358,0.027 0.329941,0.3665 0.464844,0.8809 0.0062,0.024 0.0059,0.052 0.01172,0.076 l -9.490234,0 c -1.79056,0 -3.2441406,1.4661 -3.2441406,3.2637 l 0.00391,-0.055 -2.0351562,17.9903 0,0.021 -0.00195,0 L 2,1043.4012 c -0.0326,2.1889 1.7589875,3.961 3.9296875,3.961 l 52.1406245,0 c 2.17064,0 3.931641,-1.7729 3.931641,-3.9532 l 0,-3.455 0,-0.029 -2.035156,-17.9922 0.002,0.057 c 0,-1.7976 -1.453571,-3.2637 -3.244141,-3.2637 l -12.611328,0 2.353516,-4.3086 c 0.01111,-0.019 0.0209,-0.039 0.0293,-0.06 0.571801,-1.4879 0.882253,-3.0279 0.958984,-4.5664 0.8002,-0.233 1.371094,-1.0184 1.371094,-1.916 l 0,-0.9942 c 0,-1.0704 -0.807686,-1.9941 -1.853516,-1.9941 l -0.0918,0 c -0.0079,-0.029 -0.01484,-0.05 -0.01758,-0.06 -0.712501,-2.394 -2.031044,-4.6188 -3.904297,-6.42778 -2.80499,-2.70878 -6.495738,-4.14613 -10.248046,-4.15821 z m -0.501954,1.00977 0,0.002 c 3.669364,-0.12196 7.315167,1.22172 10.056641,3.86914 1.666809,1.60963 2.858444,3.57333 3.541016,5.68753 0.0064,0.02 0.01127,0.053 0.01758,0.082 l -13.927735,0 c -0.126424,-0.3427 -0.270519,-0.6684 -0.447265,-0.957 -0.55648,-0.9087 -1.392207,-1.5528 -2.373047,-1.5528 l -0.25,0 -2,0 -0.0098,0 -6.228515,0 c 0.01083,-0.027 0.02151,-0.057 0.03125,-0.074 1.466226,-2.61657 3.773464,-4.74466 6.654297,-5.96678 1.594964,-0.67662 3.267654,-1.03441 4.935546,-1.08984 z m -23.5664059,6.83592 a 0.50005,0.50005 0 0 0 -0.1855469,0.9649 l 3.7792968,1.5527 a 0.50005,0.50005 0 1 0 0.38086,-0.9238 l -3.7792974,-1.5547 a 0.50005,0.50005 0 0 0 -0.1953125,-0.039 z M 16,1003.3817 l 10.326172,0 0,7.998 -10.326172,0 c -0.0882,0 -0.230451,-0.057 -0.337891,-0.1621 C 15.554669,1011.1144 15.5,1010.9809 15.5,1010.8993 l 0,-6.8301 c 0,-0.4423 0.33386,-0.6856 0.5,-0.6856 l 0,-0 z m 11.326172,0 1.5,0 0.25,0 c 0.54266,0 1.081881,0.3596 1.519531,1.0742 0.08023,0.131 0.149169,0.2839 0.21875,0.4356 l -1.488281,0 0,-0.5098 -1,0 0,1.0098 0,3.9824 0,1.0078 1,0 0,-0.5078 1.478516,0 c -0.06696,0.144 -0.132351,0.2909 -0.208985,0.416 -0.43765,0.7147 -0.976881,1.0741 -1.519531,1.0742 l -0.25,0 -1.5,0 0,-7.9824 z m 2,2.5039 2.304687,0 15.341797,0 c 0.45404,0 0.853516,0.4102 0.853516,0.9941 l 0,0.9942 c 0,0.5836 -0.399566,0.9941 -0.853516,0.9941 l -8.271484,0 c 0.06135,0.04 0.126377,0.071 0.185547,0.1153 0.06523,0.049 0.115573,0.1106 0.175781,0.164 -0.05906,-0.052 -0.11031,-0.1104 -0.173828,-0.1582 -0.608429,-0.4579 -1.340278,-0.6701 -2.060547,-0.6426 -0.720269,0.027 -1.430327,0.2938 -2.001953,0.7969 l 0,-0 c 0.11702,-0.103 0.243565,-0.1903 0.371094,-0.2735 l -3.566407,0 -2.304687,0 0,-2.9824 z m -20.7460939,0.9785 a 0.50005,0.50005 0 1 0 0,1 l 3.9121099,0 a 0.50005,0.50005 0 1 0 0,-1 l -3.9121099,0 z m 28.2871099,2.4785 c 0.495426,-0.019 0.996675,0.1266 1.417968,0.4434 0.839588,0.6319 1.114111,1.7581 0.669922,2.709 -0.569311,0.9809 -1.885105,2.9038 -3.310547,3.7265 a 0.50014026,0.49995979 0 0 0 -0.03125,0.022 c -0.247006,0.1685 -0.565584,0.1864 -0.830078,0.047 -0.264363,-0.1396 -0.429687,-0.412 -0.429687,-0.7109 a 0.50014026,0.49995979 0 1 0 -1,0 c 0,0.6676 0.370344,1.2839 0.960937,1.5957 0.587256,0.31 1.299177,0.2634 1.849609,-0.1075 1.756237,-1.0255 3.074839,-3.0537 3.677735,-4.0976 a 0.50014026,0.49995979 0 0 0 0.01758,-0.037 c 0.47847,-1.0113 0.381293,-2.167 -0.183594,-3.0742 0.0022,0 0.0056,0.01 0.0078,0.01 l 6.763672,0 c 3.76e-4,0.023 8.45e-4,0.048 0,0.061 -0.08752,1.3652 -0.375072,2.7293 -0.88086,4.0507 l -3.398437,6.2247 c -0.007,0.012 -0.01354,0.022 -0.01953,0.035 -1.462137,3.3064 -1.371756,7.0932 0.246093,10.3262 0.296494,0.6014 1.19774,0.1507 0.894531,-0.4473 -1.482824,-2.9632 -1.566993,-6.4313 -0.230468,-9.4629 l 0.507812,-0.9297 8.306641,0 1.320312,21.1094 -42.751953,0 1.322266,-21.1094 5.177734,0 c 0.0047,0.1781 0.0141,0.3642 -0.002,0.5098 -1.03e-4,0.01 -1.03e-4,0.012 0,0.018 -0.0034,0.044 -0.01184,0.094 -0.01953,0.1328 -0.176613,0.129 -0.334546,0.2855 -0.447266,0.4805 -0.283088,0.4902 -0.283147,1.0957 0,1.5859 0.123576,0.214 0.400534,0.2127 0.59961,0.3457 -0.07003,0.087 -0.210311,0.1374 -0.265625,0.2266 l -0.0078,0.016 c -0.283088,0.4902 -0.283147,1.0977 0,1.5879 0.145048,0.2512 0.3157,0.3283 0.458984,0.4101 0.03231,0.018 0.04163,0.023 0.07227,0.039 l 0.01758,2.0156 c 0,0.8704 0.715588,1.5879 1.585938,1.5879 l 6.46289,0 c 1.204396,0.022 2.363044,1.0373 2.539063,2.25 0.09635,0.6601 1.086588,0.5157 0.990234,-0.1445 -0.182296,-1.2559 -1.045603,-2.3038 -2.166015,-2.7988 3.400275,-1.1983 6.150352,-3.886 7.310546,-7.4141 0.110864,-0.3236 -0.128637,-0.6605 -0.470703,-0.6621 -0.218818,-7e-4 -0.412684,0.141 -0.478515,0.3496 -1.453546,4.4201 -5.629902,7.416 -10.351563,7.416 -0.0248,-6e-4 -0.04961,7e-4 -0.07422,0 l -3.761718,0 c -0.33393,0 -0.585938,-0.2543 -0.585938,-0.5879 l -0.01953,-2.3183 c -0.0012,-0.1774 -0.09633,-0.341 -0.25,-0.4297 -0.119533,-0.068 -0.233383,-0.1181 -0.324219,-0.1699 -0.04542,-0.026 -0.08055,-0.058 -0.09766,-0.072 -0.08874,-0.1748 -0.08912,-0.3807 0.0078,-0.5527 0.08077,-0.1205 0.331049,-0.3212 0.328126,-0.3204 0.550847,-0.1673 0.429211,-0.9799 -0.146485,-0.9785 -0.210531,0 -0.402608,-0.1108 -0.507812,-0.2929 -0.105153,-0.1821 -0.105212,-0.4038 0,-0.586 0.05269,-0.091 0.127296,-0.1643 0.214843,-0.2148 0.0053,0 0.01046,-0.01 0.01563,-0.01 0.280166,-0.1755 0.283549,-0.3522 0.316407,-0.4805 0.03113,-0.1217 0.04169,-0.2272 0.04883,-0.3144 0.06498,-0.5942 0.01054,-1.302 -0.158203,-1.9453 -0.169075,-0.6447 -0.409999,-1.2779 -1.041016,-1.5469 l -0.01172,-0.014 c -0.348141,-0.1372 -0.597185,-0.6622 -0.501953,-1.1894 l 1.955078,-2.8516 c 0.08738,-0.1112 0.279297,-0.4258 0.279297,-0.4258 l 8.503906,-0.018 1.867188,0 0.25,0 c 0.98085,0 1.816577,-0.6441 2.373047,-1.5528 0.173281,-0.2829 0.316442,-0.6026 0.441406,-0.9375 l 2.333984,0 c -0.606941,0.9813 -0.663039,2.2409 -0.06836,3.2832 a 0.50080304,0.50062234 0 0 0 0.871094,-0.4941 c -0.522478,-0.9157 -0.332617,-2.065 0.458984,-2.7617 0.395823,-0.3483 0.885432,-0.5333 1.38086,-0.5528 z m -24.451172,0.7422 a 0.50005,0.50005 0 0 0 -0.179688,0.039 l -3.7792968,1.5547 a 0.50005,0.50005 0 1 0 0.3808594,0.9238 l 3.7792974,-1.5527 a 0.50005,0.50005 0 0 0 -0.201172,-0.9649 z m 23.958984,1.2559 a 0.50029736,0.50011683 0 0 0 -0.212891,0.9336 c 0.317306,0.1831 0.46982,0.5506 0.375,0.9043 -0.09488,0.3538 -0.409001,0.5957 -0.77539,0.5957 a 0.50014026,0.49995979 0 0 0 -0.507813,0.5078 0.50014026,0.49995979 0 0 0 0.507813,0.4922 c 0.814241,0 1.531418,-0.5517 1.742187,-1.3379 0.210715,-0.7862 -0.134703,-1.6204 -0.839844,-2.0274 a 0.50029736,0.50011683 0 0 0 -0.238281,-0.068 0.50029736,0.50011683 0 0 0 -0.05078,0 z m -29.046875,8.3847 3.433594,0 -1.3515628,21.5782 a 0.50004997,0.50004997 0 0 0 0.5,0.5312 l 43.8164058,0 a 0.50004997,0.50004997 0 0 0 0.498047,-0.5312 l -1.349609,-21.5782 3.849609,0 c 1.25007,0 2.244141,0.999 2.244141,2.2637 l 0,0.029 L 61,1039.9696 c -0.008,1.8189 -1.312662,3.6289 -3.701172,3.6289 l -22.423828,0 -3.369141,0 -25.162109,0 c -1.19667,0 -1.97213,-0.4391 -2.5,-1.1055 -0.52579,-0.6638 -0.7850394,-1.5881 -0.7871094,-2.5293 l 2.0273438,-17.9453 0,-0.029 c 0,-1.2647 0.9940906,-2.2637 2.2441406,-2.2637 z m 9.724609,0.5586 c -0.01366,0.01 -0.0237,0.021 -0.03711,0.029 0.01235,-0.01 0.006,-0.01 0.02148,-0.019 l 0.01563,-0.01 z m -10.0234371,7.875 -0.4101563,4.1446 0.9941406,0.1 0.4121094,-4.1465 -0.9960937,-0.098 z m 49.2128911,1.6231 c -1.036102,-0.022 -1.755839,0.8113 -1.605469,1.8398 0.15039,1.0286 1.118147,1.898 2.154297,1.9199 1.03615,0.022 1.753965,-0.8131 1.603515,-1.8417 -0.15045,-1.0285 -1.116245,-1.8961 -2.152343,-1.918 z m 0.144531,0.9961 c 0.48418,0.01 0.929133,0.4045 1.001953,0.9023 0.0728,0.4977 -0.257988,0.8756 -0.742188,0.8653 -0.4842,-0.01 -0.929183,-0.4047 -1.001953,-0.9024 -0.0728,-0.4978 0.258018,-0.8755 0.742188,-0.8652 z m -49.5410159,2.957 a 0.68606508,0.69092786 0 0 0 -0.6875,0.6914 0.68606508,0.69092786 0 0 0 0.6875,0.6895 0.68606508,0.69092786 0 0 0 0.6855469,-0.6895 0.68606508,0.69092786 0 0 0 -0.6855469,-0.6914 z m 54.1562499,9.0742 0,0.5996 c 0,1.6473 -1.301521,2.9532 -2.931641,2.9532 l -52.1406245,0 c -1.63007,0 -2.9540975,-1.3073 -2.9296875,-2.9454 l 0.00586,-0.3886 c 0.020501,0.027 0.033463,0.059 0.054687,0.086 0.70357,0.8882 1.8261731,1.4844 3.2832031,1.4844 l 25.162109,0 3.369141,0 22.423828,0 c 1.632098,0 2.893702,-0.7411 3.703125,-1.7891 z" fill="#000000" fill-opacity="1" stroke="none"/></g></svg>