<svg xmlns="http://www.w3.org/2000/svg" viewBox="0 0 821.06 113.2"><defs><style>.cls-1{fill:#7ea2aa;}.cls-2{fill:#f8c557;}</style></defs><title>Asset 1</title><g id="Layer_2" data-name="Layer 2"><g id="Layer_1-2" data-name="Layer 1"><path class="cls-1" d="M54,74,107.94,0V112.79H85.79V67.13L54,111,22.15,67.13v45.66H0V0Z"/><path class="cls-1" d="M167.75.34l50.31,112.45h-24L186.62,96H148.89l-7.45,16.75H117.51Zm10.12,76.15-10-23.31L157.64,76.49Z"/><path class="cls-1" d="M249.72,2.6V51.34L277.95,2.6h25.57l-32.61,56,37.87,54.21H281.85L249.72,66.58v46.21H227.64V2.6Z"/><path class="cls-1" d="M384.79,2.32V24.4H340.5V46.62h33.22V68.7H340.5V90.92h44.3v22H318.35V2.32Z"/><path class="cls-1" d="M394.37,2.6h36c12.27,0,22.19,4.63,28.85,11.21s10.66,12.83,10.66,25V41.7a35.66,35.66,0,0,1-7,21c-3.87,5.42-6.94,7.72-13.19,10.19l25.63,39.92H448.23L416.58,64.05v48.74H394.43ZM447,39.51a14.88,14.88,0,0,0-4.37-10.6c-2.87-2.79-8.33-4.37-13.67-4.37H416.51V55h8.54V55h7.38C440.51,55,447,47.91,447,39.51Z"/><path class="cls-1" d="M514.13,2.6c17.31,0,30.86,6.88,40.26,16.2q14.77,14.83,14.77,39T554.39,96.66q-16.27,16.13-40.26,16.13H484.8V2.67h29.33Zm-.07,21.94h-7.18V90.71h7.38c19.87,0,32.81-13.19,32.81-33.09C547.08,37.91,533.91,24.54,514.06,24.54Z"/><path class="cls-1" d="M615.23.34l50.31,112.45h-24L634.1,96H596.37l-7.45,16.75H565Zm10.12,76.15-10-23.31L605.12,76.49Z"/><path class="cls-1" d="M672.11,2.6l20.1,38.21L712.3,2.6h25.09l-34.18,63v47.24h-22V65.56l-34.11-63Z"/><path class="cls-2" d="M804.18,2.73,785,36A39.08,39.08,0,0,1,810.6,48.26a37.42,37.42,0,0,1,10.46,26.39A36.87,36.87,0,0,1,809.65,102a39,39,0,0,1-54.76,0,37,37,0,0,1-11.35-27.34A39.83,39.83,0,0,1,748.29,56c.55-1,1.52-3.05,2-3.79L779,2.6Zm-5.06,71.85A16.85,16.85,0,0,0,782.44,57.9l-.07.07a16.61,16.61,0,1,0,16.75,16.61Z"/></g></g></svg>