<?xml version="1.0" encoding="utf-8"?>
<!-- Generator: Adobe Illustrator 21.1.0, SVG Export Plug-In . SVG Version: 6.00 Build 0)  -->
<svg version="1.1" id="Layer_1" xmlns="http://www.w3.org/2000/svg" xmlns:xlink="http://www.w3.org/1999/xlink" x="0px" y="0px"
	 viewBox="0 0 286.6 181.7" style="enable-background:new 0 0 286.6 181.7;" xml:space="preserve">
<style type="text/css">
	.st0{fill:#00BA87;}
	.st1{fill:#64E5C4;}
	.st2{fill:#06D6A0;}
	.st3{opacity:8.000000e-02;}
	.st4{fill:#8A8CF0;}
	.st5{fill:#7678ED;}
	.st6{fill:#6163E9;}
	.st7{clip-path:url(#SVGID_2_);}
	.st8{fill:#087CAA;}
	.st9{fill:#087DAB;}
	.st10{fill:#097DAB;}
	.st11{fill:#097EAC;}
	.st12{fill:#0A7FAC;}
	.st13{fill:#0A80AC;}
	.st14{fill:#0B81AD;}
	.st15{fill:#0C82AE;}
	.st16{fill:#0C83AE;}
	.st17{fill:#0D84AF;}
	.st18{fill:#0E85AF;}
	.st19{fill:#0E86B0;}
	.st20{fill:#0F87B0;}
	.st21{fill:#0F88B1;}
	.st22{fill:#1088B1;}
	.st23{fill:#1089B2;}
	.st24{fill:#118AB2;}
	.st25{fill:#077BAA;}
	.st26{fill:#077AA9;}
	.st27{fill:#0679A9;}
	.st28{fill:#0578A8;}
	.st29{fill:#0577A8;}
	.st30{fill:#0476A7;}
	.st31{fill:url(#SVGID_3_);}
	.st32{fill:#F9CA4B;}
	.st33{fill:#F7B801;}
	.st34{fill:#E6AC16;}
	.st35{fill:#FF827F;}
	.st36{fill:#FF5E5B;}
	.st37{fill:#FF4340;}
	.st38{fill:#0070A4;}
	.st39{fill:#5CAFCA;}
	.st40{clip-path:url(#SVGID_5_);}
	.st41{clip-path:url(#SVGID_7_);}
	.st42{fill:#F1B409;}
	.st43{fill:#F1B408;}
	.st44{fill:#F2B407;}
	.st45{fill:#F3B507;}
	.st46{fill:#F3B506;}
	.st47{fill:#F4B605;}
	.st48{fill:#F4B604;}
	.st49{fill:#F5B604;}
	.st50{fill:#F5B703;}
	.st51{fill:#F6B702;}
	.st52{fill:#F6B802;}
	.st53{fill:#F0B309;}
	.st54{fill:#F0B30A;}
	.st55{fill:#EFB20B;}
	.st56{fill:#EEB20C;}
	.st57{fill:#EEB10D;}
	.st58{fill:#EDB10D;}
	.st59{fill:#ECB10E;}
	.st60{fill:#ECB00F;}
	.st61{fill:#EBB00F;}
	.st62{fill:#EBAF10;}
	.st63{fill:#EAAF11;}
	.st64{fill:#EAAF12;}
	.st65{fill:url(#SVGID_8_);}
	.st66{clip-path:url(#SVGID_10_);}
	.st67{fill:url(#SVGID_11_);}
	.st68{clip-path:url(#SVGID_13_);}
</style>
<title>Asset 2</title>
<g id="Layer_2">
	<g id="Layer_2-2">
		<g>
			<polygon class="st0" points="187.4,142.6 230.9,167.8 249.6,157 206.2,131.8 			"/>
			<polygon class="st1" points="187.4,142.6 187.5,152 230.9,177.3 230.9,167.8 			"/>
			<polygon class="st2" points="230.9,167.8 230.9,177.3 249.6,166.5 249.6,157 			"/>
		</g>
		<g>
			
				<image style="overflow:visible;enable-background:new    ;" width="135" height="109" xlink:href="61F0F1C0EA1FB08C.png"  transform="matrix(1 0 0 1 151 95.12)">
			</image>
			<g class="st3">
				
					<image style="overflow:visible;enable-background:new    ;" width="116" height="108" xlink:href="61F0F1C0EA1FB08D.png"  transform="matrix(1 0 0 1 151 106.12)">
				</image>
			</g>
			<g class="st3">
				
					<image style="overflow:visible;enable-background:new    ;" width="92" height="94" xlink:href="61F0F1C0EA1FB082.png"  transform="matrix(1 0 0 1 194 120.12)">
				</image>
			</g>
		</g>
		<polygon class="st4" points="192.1,143.3 208.5,152.8 208.5,134 192.1,124.5 		"/>
		<polygon class="st5" points="208.4,152.8 224.8,143.3 224.8,124.5 208.4,134 		"/>
		<polygon class="st6" points="208.4,134 224.8,124.5 208.5,115.1 192.1,124.6 		"/>
		<g id="multiply">
			<g>
				
					<image style="overflow:visible;enable-background:new    ;" width="89" height="101" xlink:href="61F0F1C0EA1FB083.png"  transform="matrix(1 0 0 1 156 88.12)">
				</image>
			</g>
			<g>
				
					<image style="overflow:visible;enable-background:new    ;" width="161" height="173" xlink:href="61F0F1C0EA1FB084.png"  transform="matrix(1 0 0 1 136 52.12)">
				</image>
			</g>
			
				<image style="overflow:visible;enable-background:new    ;" width="105" height="92" xlink:href="61F0F1C0EA1FB081.png"  transform="matrix(1 0 0 1 156 78.12)">
			</image>
		</g>
		<g>
			<g>
				<g>
					<defs>
						<path id="SVGID_1_" d="M217,119.5l0.1,36.3c0,1.9,1.3,3.8,3.8,5.3c5.1,2.9,13.3,2.9,18.4,0c2.6-1.5,3.9-3.4,3.8-5.4l-0.1-36.3
							c0,1.9-1.3,3.9-3.8,5.4c-5.1,2.9-13.3,2.9-18.4,0C218.3,123.4,217,121.4,217,119.5z"/>
					</defs>
					<clipPath id="SVGID_2_">
						<use xlink:href="#SVGID_1_"  style="overflow:visible;"/>
					</clipPath>
					<g class="st7">
						<g>
							<path class="st8" d="M217,119.5l0.1,36.3c0,0,0,0.1,0,0.1l-0.1-36.3C217,119.6,217,119.6,217,119.5"/>
							<path class="st9" d="M217,119.6l0.1,36.3c0,0.1,0,0.2,0,0.3L217,120C217,119.9,217,119.7,217,119.6"/>
							<path class="st10" d="M217,120l0.1,36.3c0,0.1,0,0.2,0,0.3l-0.1-36.3C217,120.2,217,120.1,217,120"/>
							<path class="st11" d="M217.1,120.3l0.1,36.3c0,0.1,0,0.2,0.1,0.3l-0.1-36.3C217.1,120.5,217.1,120.4,217.1,120.3"/>
							<path class="st12" d="M217.1,120.6l0.1,36.3c0,0.1,0,0.2,0.1,0.3l-0.1-36.3C217.2,120.8,217.2,120.7,217.1,120.6"/>
							<path class="st13" d="M217.2,120.9l0.1,36.3c0,0.1,0.1,0.2,0.1,0.3l-0.1-36.3C217.3,121.2,217.3,121,217.2,120.9"/>
							<path class="st14" d="M217.3,121.2l0.1,36.3l0.1,0.3l-0.1-36.3L217.3,121.2"/>
							<path class="st14" d="M217.5,121.5l0.1,36.3l0.2,0.3l-0.1-36.3L217.5,121.5"/>
							<path class="st15" d="M217.6,121.8l0.1,36.3l0.2,0.3l-0.1-36.3L217.6,121.8"/>
							<path class="st16" d="M217.8,122.1l0.1,36.3l0.2,0.3l-0.1-36.3L217.8,122.1"/>
							<path class="st17" d="M218,122.5l0.1,36.3l0.2,0.3l-0.1-36.3L218,122.5"/>
							<path class="st17" d="M218.3,122.8l0.1,36.3l0.3,0.3l-0.1-36.3L218.3,122.8"/>
							<path class="st18" d="M218.5,123.1l0.1,36.3l0.3,0.3l-0.1-36.3L218.5,123.1"/>
							<path class="st19" d="M218.9,123.4l0.1,36.3l0.4,0.3l-0.1-36.3L218.9,123.4"/>
							<path class="st20" d="M219.2,123.7l0.1,36.3l0.5,0.4l-0.1-36.3L219.2,123.7"/>
							<path class="st21" d="M219.7,124.1l0.1,36.3l0.6,0.4l-0.1-36.3L219.7,124.1"/>
							<path class="st22" d="M220.2,124.5l0.1,36.3l0.5,0.3l0.3,0.2l-0.1-36.3l-0.3-0.2L220.2,124.5"/>
							<path class="st23" d="M221,125l0.1,36.3c0.6,0.3,1.3,0.6,1.9,0.9l-0.1-36.3C222.3,125.6,221.7,125.3,221,125"/>
							<path class="st24" d="M223,125.8l0.1,36.3l0.5,0.2l-0.1-36.3L223,125.8"/>
							<path class="st23" d="M223.4,126l0.1,36.3c0.7,0.2,1.4,0.4,2.1,0.6l-0.1-36.3C224.8,126.4,224.1,126.2,223.4,126"/>
							<path class="st22" d="M225.6,126.6l0.1,36.3c0.4,0.1,0.7,0.1,1.1,0.2l-0.1-36.3C226.3,126.7,225.9,126.7,225.6,126.6"/>
							<path class="st21" d="M226.6,126.8l0.1,36.3l0.9,0.1l-0.1-36.3L226.6,126.8"/>
							<path class="st20" d="M227.5,126.9l0.1,36.3l0.8,0.1l-0.1-36.3L227.5,126.9"/>
							<path class="st19" d="M228.3,127l0.1,36.3h0.7L229,127H228.3"/>
							<path class="st18" d="M229,127l0.1,36.3h0.6l-0.1-36.3L229,127"/>
							<path class="st17" d="M229.6,127l0.1,36.3h0.6l-0.1-36.3H229.6"/>
							<path class="st17" d="M230.2,127l0.1,36.3h0.6l-0.1-36.3H230.2"/>
							<path class="st16" d="M230.8,127l0.1,36.3h0.6l-0.1-36.3L230.8,127"/>
							<path class="st15" d="M231.4,127l0.1,36.3h0.6L232,127L231.4,127"/>
							<path class="st14" d="M232,126.9l0.1,36.3l0.5-0.1l-0.1-36.3L232,126.9"/>
							<path class="st14" d="M232.5,126.9l0.1,36.3l0.5-0.1l-0.1-36.3L232.5,126.9"/>
							<path class="st13" d="M233,126.8l0.1,36.3l0.5-0.1l-0.1-36.3L233,126.8"/>
							<path class="st12" d="M233.5,126.7l0.1,36.3l0.5-0.1l-0.1-36.3L233.5,126.7"/>
							<path class="st11" d="M234.1,126.6l0.1,36.3l0.5-0.1l-0.1-36.3L234.1,126.6"/>
							<path class="st10" d="M234.6,126.5l0.1,36.3l0.5-0.1l-0.1-36.3L234.6,126.5"/>
							<path class="st9" d="M235.1,126.4l0.1,36.3l0.5-0.1l-0.1-36.3L235.1,126.4"/>
							<path class="st8" d="M235.6,126.3l0.1,36.3l0.5-0.2l-0.1-36.3L235.6,126.3"/>
							<path class="st25" d="M236.2,126.1l0.1,36.3l0.5-0.2l-0.1-36.3L236.2,126.1"/>
							<path class="st26" d="M236.7,125.9l0.1,36.3l0.6-0.2l-0.1-36.3L236.7,125.9"/>
							<path class="st27" d="M237.3,125.7l0.1,36.3l0.6-0.3l-0.1-36.3L237.3,125.7"/>
							<path class="st27" d="M238,125.4l0.1,36.3l0.7-0.3l-0.1-36.3L238,125.4"/>
							<path class="st28" d="M238.6,125.1l0.1,36.3l0.5-0.3l0.3-0.2l-0.1-36.3l-0.3,0.2L238.6,125.1"/>
							<path class="st29" d="M239.5,124.6l0.1,36.3c2.4-1.5,3.5-3.3,3.5-5.2l-0.1-36.3C243,121.3,241.9,123.2,239.5,124.6"/>
						</g>
					</g>
				</g>
			</g>
			<path class="st30" d="M220.8,114.1c-5.1,2.9-5.1,7.7-0.1,10.7s13.3,2.9,18.4,0s5.1-7.7,0.1-10.7S225.9,111.2,220.8,114.1z"/>
		</g>
		
			<linearGradient id="SVGID_3_" gradientUnits="userSpaceOnUse" x1="11015.6299" y1="42.8406" x2="11041.7598" y2="42.8406" gradientTransform="matrix(-1 0 0 -1 11258.7598 184.24)">
			<stop  offset="0.28" style="stop-color:#5CAFCA;stop-opacity:0"/>
			<stop  offset="0.41" style="stop-color:#5CAFCA;stop-opacity:0.17"/>
			<stop  offset="0.72" style="stop-color:#5CAFCA;stop-opacity:0.58"/>
			<stop  offset="1" style="stop-color:#5CAFCA"/>
		</linearGradient>
		<path class="st31" d="M217,119.5l0.1,36.3c0,1.9,1.3,3.8,3.8,5.3c5.1,2.9,13.3,2.9,18.4,0c2.6-1.5,3.9-3.4,3.8-5.4l-0.1-36.3
			c0,1.9-1.3,3.9-3.8,5.4c-5.1,2.9-13.3,2.9-18.4,0C218.3,123.4,217,121.4,217,119.5z"/>
		<g transform="matrix(-0.2, 0, 0, 0.2, 304.29, 175.03)">
			
				<image style="overflow:visible;enable-background:new    ;" width="205" height="296" id="image-2" xlink:href="61F0F1C0EA1FB080.png"  transform="matrix(-0.2 0 0 0.2 250.29 112.15)">
			</image>
		</g>
		<g>
			<g transform="matrix(-0.2, 0, 0, 0.2, 304.1, 167.74)">
				
					<image style="overflow:visible;enable-background:new    ;" width="204" height="149" id="image-3" xlink:href="61F0F1C0EA1FB09F.png"  transform="matrix(-0.2 0 0 0.2 250.1 104.86)">
				</image>
			</g>
		</g>
		<polygon class="st32" points="59.3,104.1 75.2,113.3 75.2,95 59.3,85.8 		"/>
		<polygon class="st33" points="75.1,113.3 91.1,104.1 91.1,85.8 75.1,95 		"/>
		<polygon class="st34" points="75.1,95 91.1,85.8 75.2,76.7 59.3,85.9 		"/>
		<g id="multiply-2">
			<g>
				
					<image style="overflow:visible;enable-background:new    ;" width="89" height="101" xlink:href="61F0F1C0EA1FB09A.png"  transform="matrix(1 0 0 1 23 49.12)">
				</image>
			</g>
			<g>
				
					<image style="overflow:visible;enable-background:new    ;" width="161" height="173" xlink:href="27D2F0E1D69483D7.png"  transform="matrix(1 0 0 1 3 13.12)">
				</image>
			</g>
			
				<image style="overflow:visible;enable-background:new    ;" width="105" height="91" xlink:href="27D2F0E1D69483C9.png"  transform="matrix(1 0 0 1 23 40.12)">
			</image>
		</g>
		<polygon class="st1" points="20.1,82.6 36.1,91.8 36.1,73.5 20.1,64.3 		"/>
		<polygon class="st2" points="36,91.8 51.9,82.6 51.9,64.3 36,73.5 		"/>
		<polygon class="st0" points="36,73.6 51.9,64.4 36.1,55.2 20.1,64.4 		"/>
		<g id="multiply-3">
			<g>
				
					<image style="overflow:visible;enable-background:new    ;" width="89" height="100" xlink:href="27D2F0E1D69483CA.png"  transform="matrix(1 0 0 1 -16 28.12)">
				</image>
			</g>
			<g>
				
					<image style="overflow:visible;enable-background:new    ;" width="161" height="172" xlink:href="27D2F0E1D69483CB.png"  transform="matrix(1 0 0 1 -37 -7.88)">
				</image>
			</g>
			
				<image style="overflow:visible;enable-background:new    ;" width="104" height="91" xlink:href="27D2F0E1D69483CF.png"  transform="matrix(1 0 0 1 -16 19.12)">
			</image>
		</g>
		<polygon class="st32" points="21.1,64.1 37,73.2 37,55 21.1,45.8 		"/>
		<polygon class="st33" points="36.9,73.2 52.8,64.1 52.8,45.8 36.9,55 		"/>
		<polygon class="st34" points="36.9,55 52.8,45.8 37,36.6 21.1,45.9 		"/>
		<g id="multiply-4">
			<g>
				
					<image style="overflow:visible;enable-background:new    ;" width="88" height="101" xlink:href="27D2F0E1D69483C8.png"  transform="matrix(1 0 0 1 -15 9.12)">
				</image>
			</g>
			<g>
				
					<image style="overflow:visible;enable-background:new    ;" width="161" height="173" xlink:href="27D2F0E1D69483C6.png"  transform="matrix(1 0 0 1 -36 -26.88)">
				</image>
			</g>
			
				<image style="overflow:visible;enable-background:new    ;" width="104" height="91" xlink:href="27D2F0E1D69483C7.png"  transform="matrix(1 0 0 1 -15 0.12)">
			</image>
		</g>
		<polygon class="st35" points="57.8,85.8 73.8,95 73.8,76.8 57.8,67.5 		"/>
		<polygon class="st36" points="73.7,95 89.6,85.8 89.6,67.5 73.7,76.8 		"/>
		<polygon class="st37" points="73.7,76.8 89.6,67.6 73.8,58.4 57.8,67.6 		"/>
		<g id="multiply-5">
			<g>
				
					<image style="overflow:visible;enable-background:new    ;" width="89" height="100" xlink:href="27D2F0E1D69483F3.png"  transform="matrix(1 0 0 1 21 31.12)">
				</image>
			</g>
			<g>
				
					<image style="overflow:visible;enable-background:new    ;" width="161" height="172" xlink:href="27D2F0E1D69483F4.png"  transform="matrix(1 0 0 1 1 -4.88)">
				</image>
			</g>
			
				<image style="overflow:visible;enable-background:new    ;" width="105" height="91" xlink:href="27D2F0E1D69483EA.png"  transform="matrix(1 0 0 1 21 22.12)">
			</image>
		</g>
		<g>
			<polygon class="st38" points="48.4,37.7 61.8,29.9 42.2,40.7 28.8,48.5 			"/>
			<polygon class="st39" points="48.4,37.7 28.8,48.5 68.1,71.1 			"/>
			<polygon class="st24" points="68.1,71.1 81.5,63.3 61.8,29.9 48.4,37.7 			"/>
		</g>
		<g id="multiply-6">
			<g class="st3">
				
					<image style="overflow:visible;enable-background:new    ;" width="113" height="107" xlink:href="27D2F0E1D69483E6.png"  transform="matrix(1 0 0 1 -8 1.12)">
				</image>
			</g>
			
				<image style="overflow:visible;enable-background:new    ;" width="106" height="115" xlink:href="27D2F0E1D69483E7.png"  transform="matrix(1 0 0 1 12 -6.88)">
			</image>
		</g>
		<polygon class="st39" points="79.3,49.4 95.7,58.8 95.7,40 79.3,30.5 		"/>
		<polygon class="st24" points="95.6,58.8 112,49.4 112,30.5 95.6,40 		"/>
		<polygon class="st38" points="95.6,40 112,30.5 95.7,21.1 79.3,30.6 		"/>
		<g id="multiply-7">
			<g>
				<g transform="translate(97 57)">
					
						<image style="overflow:visible;enable-background:new    ;" width="89" height="101" id="image" xlink:href="27D2F0E1D694841C.png"  transform="matrix(1 0 0 1 43 -5.88)">
					</image>
				</g>
			</g>
			<g>
				
					<image style="overflow:visible;enable-background:new    ;" width="162" height="173" xlink:href="27D2F0E1D694841D.png"  transform="matrix(1 0 0 1 23 -41.88)">
				</image>
			</g>
			
				<image style="overflow:visible;enable-background:new    ;" width="106" height="92" xlink:href="27D2F0E1D694841E.png"  transform="matrix(1 0 0 1 43 -15.88)">
			</image>
		</g>
		<polygon class="st32" points="78.2,28.2 94.6,37.7 94.6,18.9 78.2,9.4 		"/>
		<polygon class="st33" points="94.5,37.7 110.9,28.2 110.9,9.4 94.5,18.9 		"/>
		<polygon class="st34" points="94.5,18.9 110.9,9.4 94.6,0 78.2,9.5 		"/>
		<g id="multiply-8">
			<g>
				<g transform="translate(96 36)">
					
						<image style="overflow:visible;enable-background:new    ;" width="89" height="101" id="image_2_" xlink:href="27D2F0E1D6948423.png"  transform="matrix(1 0 0 1 42 -26.88)">
					</image>
				</g>
			</g>
			<g>
				
					<image style="overflow:visible;enable-background:new    ;" width="161" height="173" xlink:href="27D2F0E1D6948424.png"  transform="matrix(1 0 0 1 22 -62.88)">
				</image>
			</g>
			
				<image style="overflow:visible;enable-background:new    ;" width="105" height="92" xlink:href="27D2F0E1D6948425.png"  transform="matrix(1 0 0 1 42 -36.88)">
			</image>
		</g>
		<polygon class="st1" points="110.6,124.6 126,133.5 126,115.8 110.6,106.9 		"/>
		<polygon class="st2" points="125.9,133.5 141.3,124.6 141.3,106.9 125.9,115.8 		"/>
		<polygon class="st0" points="125.9,115.8 141.3,106.9 126,98.1 110.6,107 		"/>
		<g id="multiply-9">
			<g>
				
					<image style="overflow:visible;enable-background:new    ;" width="88" height="100" xlink:href="27D2F0E1D6948427.png"  transform="matrix(1 0 0 1 74 70.12)">
				</image>
			</g>
			<g>
				
					<image style="overflow:visible;enable-background:new    ;" width="161" height="172" xlink:href="27D2F0E1D694843D.png"  transform="matrix(1 0 0 1 53 34.12)">
				</image>
			</g>
			
				<image style="overflow:visible;enable-background:new    ;" width="104" height="91" xlink:href="27D2F0E1D6948400.png"  transform="matrix(1 0 0 1 74 61.12)">
			</image>
		</g>
		<polygon class="st4" points="145.4,144.5 160.8,153.4 160.8,135.7 145.4,126.8 		"/>
		<polygon class="st5" points="160.7,153.4 176.1,144.5 176.1,126.8 160.7,135.7 		"/>
		<polygon class="st6" points="160.7,135.7 176.1,126.8 160.8,117.9 145.4,126.9 		"/>
		<g id="multiply-10">
			<g>
				
					<image style="overflow:visible;enable-background:new    ;" width="88" height="100" xlink:href="27D2F0E1D6948406.png"  transform="matrix(1 0 0 1 109 90.12)">
				</image>
			</g>
			<g>
				
					<image style="overflow:visible;enable-background:new    ;" width="161" height="172" xlink:href="27D2F0E1D694840E.png"  transform="matrix(1 0 0 1 88 54.12)">
				</image>
			</g>
			
				<image style="overflow:visible;enable-background:new    ;" width="104" height="91" xlink:href="27D2F0E1D694840A.png"  transform="matrix(1 0 0 1 109 81.12)">
			</image>
		</g>
		<g>
			<g>
				<g>
					<defs>
						<path id="SVGID_4_" d="M141.8,98.6l-12.6,7.3c-2.1,1.2-3.5,3.9-3.5,7.6l12.6-7.3C138.4,102.5,139.7,99.9,141.8,98.6z"/>
					</defs>
					<clipPath id="SVGID_5_">
						<use xlink:href="#SVGID_4_"  style="overflow:visible;"/>
					</clipPath>
					<g class="st40">
						<g>
							<path class="st36" d="M125.7,113.5l12.6-7.3c0-3.7,1.4-6.4,3.5-7.6l-12.6,7.3C127.1,107.2,125.8,109.8,125.7,113.5"/>
						</g>
					</g>
				</g>
			</g>
			<g class="st3">
				
					<image style="overflow:visible;enable-background:new    ;" width="89" height="88" xlink:href="27D2F0E1D694840B.png"  transform="matrix(1 0 0 1 89 62.12)">
				</image>
			</g>
			<path class="st35" d="M115,80.1l-0.1,27.2l10.8,6.2c0.1-7.5,5.4-10.6,12-6.8s11.9,13,11.9,20.6l10.8,6.2l0.1-27.2L115,80.1z"/>
			<polygon class="st36" points="160.5,133.6 173.1,126.3 173.2,99.1 160.6,106.4 			"/>
			<polygon class="st37" points="160.6,106.4 173.2,99.1 127.6,72.8 115,80.1 			"/>
		</g>
		<g id="overlay">
			<g class="st3">
				
					<image style="overflow:visible;enable-background:new    ;" width="119" height="126" xlink:href="27D2F0E1D6948410.png"  transform="matrix(1 0 0 1 78 44.12)">
				</image>
			</g>
			<g class="st3">
				
					<image style="overflow:visible;enable-background:new    ;" width="86" height="107" xlink:href="27D2F0E1D6948411.png"  transform="matrix(1 0 0 1 124 63.12)">
				</image>
			</g>
			
				<image style="overflow:visible;enable-background:new    ;" width="132" height="107" xlink:href="27D2F0E1D6948412.png"  transform="matrix(1 0 0 1 78 36.12)">
			</image>
		</g>
		<g>
			<g>
				<g>
					<defs>
						<path id="SVGID_6_" d="M121.6,48l0.1,34.1c0,1.8,1.2,3.6,3.6,5c4.8,2.8,12.5,2.8,17.3,0c2.4-1.4,3.6-3.2,3.6-5L146,48
							c0,1.8-1.2,3.7-3.6,5c-4.8,2.8-12.5,2.8-17.3,0C122.7,51.6,121.6,49.8,121.6,48z"/>
					</defs>
					<clipPath id="SVGID_7_">
						<use xlink:href="#SVGID_6_"  style="overflow:visible;"/>
					</clipPath>
					<g class="st41">
						<g>
							<path class="st42" d="M121.6,48l0.1,34.1l0,0L121.6,48L121.6,48"/>
							<path class="st43" d="M121.6,48l0.1,34.1c0,0.1,0,0.2,0,0.3l-0.1-34.1C121.6,48.2,121.6,48.1,121.6,48"/>
							<path class="st44" d="M121.6,48.3l0.1,34.1c0,0.1,0,0.2,0,0.3l-0.1-34.1C121.6,48.5,121.6,48.4,121.6,48.3"/>
							<path class="st45" d="M121.6,48.6l0.1,34.1c0,0.1,0,0.2,0.1,0.3l-0.1-34.1C121.6,48.8,121.6,48.7,121.6,48.6"/>
							<path class="st46" d="M121.6,48.9l0.1,34.1c0,0.1,0,0.2,0.1,0.3l-0.1-34.1C121.7,49.1,121.7,49,121.6,48.9"/>
							<path class="st47" d="M121.7,49.2l0.1,34.1c0,0.1,0,0.2,0.1,0.3l-0.1-34.1C121.8,49.4,121.8,49.3,121.7,49.2"/>
							<path class="st48" d="M121.8,49.5l0.1,34.1c0,0.1,0.1,0.2,0.1,0.3L122,49.9C121.9,49.7,121.9,49.6,121.8,49.5"/>
							<path class="st49" d="M122,49.9l0.1,34.1c0.1,0.1,0.1,0.2,0.2,0.4l-0.1-34.1C122.1,50.1,122.1,50,122,49.9"/>
							<path class="st50" d="M122.2,50.2l0.1,34.1c0.1,0.1,0.2,0.3,0.2,0.4l-0.1-34.1C122.3,50.5,122.3,50.3,122.2,50.2"/>
							<path class="st51" d="M122.4,50.6l0.1,34.1c0.1,0.2,0.2,0.3,0.3,0.4l-0.1-34.1C122.6,50.9,122.5,50.8,122.4,50.6"/>
							<path class="st52" d="M122.8,51l0.1,34.1c0.2,0.2,0.3,0.4,0.5,0.6l-0.1-34.1C123.1,51.4,122.9,51.2,122.8,51"/>
							<path class="st33" d="M123.3,51.6l0.1,34.1c0.5,0.5,1.2,1,1.8,1.4c0.4,0.2,0.8,0.4,1.2,0.6l-0.1-34.1
								c-0.4-0.2-0.8-0.4-1.2-0.6C124.4,52.6,123.8,52.2,123.3,51.6"/>
							<path class="st52" d="M126.3,53.6l0.1,34.1c0.3,0.1,0.6,0.3,0.9,0.4l-0.1-34.1C126.9,53.8,126.6,53.7,126.3,53.6"/>
							<path class="st51" d="M127.2,53.9l0.1,34.1l0.7,0.2l-0.1-34.1L127.2,53.9"/>
							<path class="st50" d="M127.9,54.2l0.1,34.1l0.6,0.2l-0.1-34.1L127.9,54.2"/>
							<path class="st49" d="M128.6,54.4l0.1,34.1l0.6,0.1l-0.1-34.1L128.6,54.4"/>
							<path class="st48" d="M129.2,54.5l0.1,34.1l0.6,0.1l-0.1-34.1L129.2,54.5"/>
							<path class="st47" d="M129.7,54.6l0.1,34.1l0.5,0.1l-0.1-34.1L129.7,54.6"/>
							<path class="st46" d="M130.2,54.7l0.1,34.1l0.5,0.1l-0.1-34.1L130.2,54.7"/>
							<path class="st45" d="M130.8,54.8l0.1,34.1l0.5,0.1l-0.1-34.1L130.8,54.8"/>
							<path class="st44" d="M131.3,54.9l0.1,34.1l0.5,0.1l-0.1-34.1L131.3,54.9"/>
							<path class="st43" d="M131.8,54.9l0.1,34.1h0.5l-0.1-34.1L131.8,54.9"/>
							<path class="st42" d="M132.3,55l0.1,34.1h0.5L132.8,55H132.3"/>
							<path class="st53" d="M132.8,55l0.1,34.1h0.5L133.3,55H132.8"/>
							<path class="st54" d="M133.3,55l0.1,34.1h0.5L133.8,55H133.3"/>
							<path class="st55" d="M133.8,55l0.1,34.1h0.5L134.3,55H133.8"/>
							<path class="st55" d="M134.3,55l0.1,34.1h0.5L134.8,55L134.3,55"/>
							<path class="st56" d="M134.8,55l0.1,34.1h0.5L135.3,55H134.8"/>
							<path class="st57" d="M135.3,55l0.1,34.1h0.5L135.8,55L135.3,55"/>
							<path class="st58" d="M135.8,54.9l0.1,34.1l0.6-0.1l-0.1-34.1L135.8,54.9"/>
							<path class="st59" d="M136.4,54.9l0.1,34.1l0.6-0.1L137,54.8L136.4,54.9"/>
							<path class="st60" d="M137,54.8l0.1,34.1l0.6-0.1l-0.1-34.1L137,54.8"/>
							<path class="st61" d="M137.6,54.7l0.1,34.1l0.7-0.1l-0.1-34.1L137.6,54.7"/>
							<path class="st62" d="M138.2,54.5l0.1,34.1l0.8-0.2L139,54.3L138.2,54.5"/>
							<path class="st63" d="M139,54.4l0.1,34.1l0.9-0.3l-0.1-34.1L139,54.4"/>
							<path class="st64" d="M139.9,54.1l0.1,34.1c0.9-0.3,1.7-0.7,2.5-1.1c2.4-1.4,3.6-3.2,3.6-5L146,48c0,1.8-1.2,3.7-3.6,5
								C141.6,53.4,140.8,53.8,139.9,54.1"/>
						</g>
					</g>
				</g>
			</g>
			<path class="st64" d="M125.2,42.9c-4.8,2.8-4.8,7.2-0.1,10s12.5,2.8,17.3,0s4.8-7.2,0.1-10S130,40.2,125.2,42.9z"/>
		</g>
		
			<linearGradient id="SVGID_8_" gradientUnits="userSpaceOnUse" x1="3143.2209" y1="115.4841" x2="3171.9009" y2="116.0941" gradientTransform="matrix(-1 0 0 -1 3291.3601 184.24)">
			<stop  offset="0" style="stop-color:#F9CA4B;stop-opacity:0"/>
			<stop  offset="1" style="stop-color:#FAD56F"/>
		</linearGradient>
		<path class="st65" d="M121.6,48l0.1,34.1c0,1.8,1.2,3.6,3.6,5c4.8,2.8,12.5,2.8,17.3,0c2.4-1.4,3.6-3.2,3.6-5L146,48
			c0,1.8-1.2,3.7-3.6,5c-4.8,2.8-12.5,2.8-17.3,0C122.7,51.6,121.6,49.8,121.6,48z"/>
		
			<image style="overflow:visible;enable-background:new    ;" width="205" height="296" xlink:href="27D2F0E1D6948413.png"  transform="matrix(-0.19 0 0 0.19 152.83 41.15)">
		</image>
		<g>
			
				<image style="overflow:visible;enable-background:new    ;" width="204" height="149" xlink:href="27D2F0E1D694846E.png"  transform="matrix(-0.19 0 0 0.19 152.64 34.12)">
			</image>
		</g>
		<polygon class="st39" points="140,96.7 155.5,105.6 155.5,87.9 140,79 		"/>
		<polygon class="st24" points="155.4,105.6 170.8,96.7 170.8,79 155.4,87.9 		"/>
		<polygon class="st38" points="155.4,87.9 170.8,79 155.5,70.2 140,79.1 		"/>
		<g id="multiply-11">
			<g>
				
					<image style="overflow:visible;enable-background:new    ;" width="88" height="100" xlink:href="27D2F0E1D6948465.png"  transform="matrix(1 0 0 1 104 42.12)">
				</image>
			</g>
			<g>
				
					<image style="overflow:visible;enable-background:new    ;" width="160" height="172" xlink:href="27D2F0E1D6948479.png"  transform="matrix(1 0 0 1 83 6.12)">
				</image>
			</g>
			
				<image style="overflow:visible;enable-background:new    ;" width="103" height="90" xlink:href="27D2F0E1D694847A.png"  transform="matrix(1 0 0 1 104 34.12)">
			</image>
		</g>
		<polygon class="st1" points="142.2,79 157.6,87.9 157.6,70.2 142.2,61.3 		"/>
		<polygon class="st2" points="157.5,87.9 172.9,79 172.9,61.3 157.5,70.2 		"/>
		<polygon class="st0" points="157.5,70.2 172.9,61.3 157.6,52.4 142.2,61.3 		"/>
		<g id="multiply-12">
			<g>
				
					<image style="overflow:visible;enable-background:new    ;" width="88" height="99" xlink:href="27D2F0E1D694847B.png"  transform="matrix(1 0 0 1 106 25.12)">
				</image>
			</g>
			<g>
				
					<image style="overflow:visible;enable-background:new    ;" width="160" height="171" xlink:href="27D2F0E1D694847C.png"  transform="matrix(1 0 0 1 85 -10.88)">
				</image>
			</g>
			
				<image style="overflow:visible;enable-background:new    ;" width="103" height="91" xlink:href="27D2F0E1D6948478.png"  transform="matrix(1 0 0 1 106 16.12)">
			</image>
		</g>
		<g>
			<polygon class="st6" points="118.5,38.5 159.3,62.3 176.9,52.1 136.1,28.4 			"/>
			<polygon class="st4" points="118.5,38.5 118.5,47.4 159.3,71.1 159.3,62.3 			"/>
			<polygon class="st5" points="159.3,62.3 159.3,71.1 176.9,61 176.9,52.1 			"/>
		</g>
		<g>
			
				<image style="overflow:visible;enable-background:new    ;" width="131" height="107" xlink:href="27D2F0E1D6948476.png"  transform="matrix(1 0 0 1 82 -7.88)">
			</image>
			<g class="st3">
				
					<image style="overflow:visible;enable-background:new    ;" width="114" height="106" xlink:href="27D2F0E1D6948477.png"  transform="matrix(1 0 0 1 82 2.12)">
				</image>
			</g>
			<g class="st3">
				
					<image style="overflow:visible;enable-background:new    ;" width="90" height="93" xlink:href="27D2F0E1D6948468.png"  transform="matrix(1 0 0 1 123 15.12)">
				</image>
			</g>
		</g>
		<polygon class="st32" points="133.5,46 148.9,54.9 148.9,37.2 133.5,28.3 		"/>
		<polygon class="st33" points="148.8,54.9 164.2,46 164.2,28.3 148.8,37.2 		"/>
		<polygon class="st34" points="148.8,37.2 164.2,28.3 148.9,19.5 133.5,28.4 		"/>
		<g id="multiply-13">
			<g>
				
					<image style="overflow:visible;enable-background:new    ;" width="88" height="99" xlink:href="27D2F0E1D694845F.png"  transform="matrix(1 0 0 1 97 -7.88)">
				</image>
			</g>
			<g>
				
					<image style="overflow:visible;enable-background:new    ;" width="161" height="171" xlink:href="27D2F0E1D694845B.png"  transform="matrix(1 0 0 1 76 -43.88)">
				</image>
			</g>
			
				<image style="overflow:visible;enable-background:new    ;" width="104" height="91" xlink:href="27D2F0E1D6948456.png"  transform="matrix(1 0 0 1 97 -16.88)">
			</image>
		</g>
		<g>
			<polygon class="st37" points="141.1,11.6 153.9,4.2 135.2,14.4 122.4,21.8 			"/>
			<polygon class="st35" points="141.1,11.6 122.4,21.8 159.9,43.4 			"/>
			<polygon class="st36" points="159.9,43.4 172.6,36 153.9,4.2 141.1,11.6 			"/>
		</g>
		<g id="multiply-14">
			<g class="st3">
				
					<image style="overflow:visible;enable-background:new    ;" width="110" height="105" xlink:href="27D2F0E1D6948457.png"  transform="matrix(1 0 0 1 86 -24.88)">
				</image>
			</g>
			
				<image style="overflow:visible;enable-background:new    ;" width="104" height="112" xlink:href="27D2F0E1D6948447.png"  transform="matrix(1 0 0 1 105 -31.88)">
			</image>
		</g>
		<g>
			<g>
				<g>
					<defs>
						<path id="SVGID_9_" d="M199.6,55.6l0.1,34.1c0,1.8,1.2,3.6,3.5,5c4.8,2.8,12.5,2.8,17.3,0c2.4-1.4,3.6-3.2,3.6-5L224,55.6
							c0,1.8-1.2,3.7-3.6,5c-4.8,2.8-12.5,2.8-17.3,0C200.8,59.1,199.6,57.4,199.6,55.6z"/>
					</defs>
					<clipPath id="SVGID_10_">
						<use xlink:href="#SVGID_9_"  style="overflow:visible;"/>
					</clipPath>
					<g class="st66">
						<g>
							<path class="st8" d="M199.6,55.6l0.1,34.1c0,0,0,0.1,0,0.1l-0.1-34.1C199.6,55.7,199.6,55.6,199.6,55.6"/>
							<path class="st9" d="M199.6,55.7l0.1,34.1c0,0.1,0,0.2,0,0.3L199.6,56C199.6,55.9,199.6,55.8,199.6,55.7"/>
							<path class="st10" d="M199.6,56l0.1,34.1c0,0.1,0,0.2,0,0.3l-0.1-34.1C199.6,56.2,199.6,56.1,199.6,56"/>
							<path class="st11" d="M199.6,56.3l0.1,34.1c0,0.1,0,0.2,0.1,0.3l-0.1-34.1C199.7,56.5,199.7,56.4,199.6,56.3"/>
							<path class="st12" d="M199.7,56.6l0.1,34.1c0,0.1,0,0.2,0.1,0.3l-0.1-34.1C199.8,56.8,199.8,56.7,199.7,56.6"/>
							<path class="st13" d="M199.8,56.9l0.1,34.1l0.1,0.3l-0.1-34.1L199.8,56.9"/>
							<path class="st14" d="M199.9,57.2l0.1,34.1l0.1,0.3L200,57.5L199.9,57.2"/>
							<path class="st14" d="M200,57.5l0.1,34.1l0.1,0.3l-0.1-34.1L200,57.5"/>
							<path class="st15" d="M200.2,57.7l0.1,34.1l0.2,0.3L200.3,58L200.2,57.7"/>
							<path class="st16" d="M200.3,58l0.1,34.1l0.2,0.3l-0.1-34.1L200.3,58"/>
							<path class="st17" d="M200.5,58.3l0.1,34.1l0.2,0.3l-0.1-34.1L200.5,58.3"/>
							<path class="st17" d="M200.8,58.6l0.1,34.1l0.3,0.3L201,58.9L200.8,58.6"/>
							<path class="st18" d="M201,58.9l0.1,34.1l0.3,0.3l-0.1-34.1L201,58.9"/>
							<path class="st19" d="M201.3,59.2l0.1,34.1l0.4,0.3l-0.1-34.1L201.3,59.2"/>
							<path class="st20" d="M201.7,59.5l0.1,34.1l0.4,0.3l-0.1-34.1L201.7,59.5"/>
							<path class="st21" d="M202.1,59.9l0.1,34.1l0.5,0.4l-0.1-34.1L202.1,59.9"/>
							<path class="st22" d="M202.6,60.2l0.1,34.1l0.5,0.3l0.3,0.1l-0.1-34.1l-0.3-0.2L202.6,60.2"/>
							<path class="st23" d="M203.4,60.7l0.1,34.1c0.6,0.3,1.2,0.6,1.8,0.8l-0.1-34.1C204.6,61.3,204,61,203.4,60.7"/>
							<path class="st24" d="M205.2,61.5l0.1,34.1l0.4,0.1l-0.1-34.1L205.2,61.5"/>
							<path class="st23" d="M205.6,61.7l0.1,34.1c0.7,0.2,1.3,0.4,2,0.5l-0.1-34.1C206.9,62.1,206.3,61.9,205.6,61.7"/>
							<path class="st22" d="M207.6,62.2l0.1,34.1l1,0.2l-0.1-34.1L207.6,62.2"/>
							<path class="st21" d="M208.6,62.4l0.1,34.1l0.8,0.1l-0.1-34.1L208.6,62.4"/>
							<path class="st20" d="M209.5,62.5l0.1,34.1l0.7,0.1l-0.1-34.1L209.5,62.5"/>
							<path class="st19" d="M210.2,62.6l0.1,34.1h0.7l-0.1-34.1H210.2"/>
							<path class="st18" d="M210.8,62.6l0.1,34.1h0.6l-0.1-34.1H210.8"/>
							<path class="st17" d="M211.4,62.6l0.1,34.1h0.6L212,62.6L211.4,62.6"/>
							<path class="st17" d="M212,62.6l0.1,34.1h0.5l-0.1-34.1L212,62.6"/>
							<path class="st16" d="M212.6,62.6l0.1,34.1h0.5l-0.1-34.1L212.6,62.6"/>
							<path class="st15" d="M213.1,62.6l0.1,34.1h0.5l-0.1-34.1H213.1"/>
							<path class="st14" d="M213.6,62.5l0.1,34.1l0.5-0.1l-0.1-34.1L213.6,62.5"/>
							<path class="st14" d="M214.1,62.5l0.1,34.1l0.5-0.1l-0.1-34.1L214.1,62.5"/>
							<path class="st13" d="M214.6,62.4l0.1,34.1l0.5-0.1l-0.1-34.1L214.6,62.4"/>
							<path class="st12" d="M215.1,62.3l0.1,34.1l0.5-0.1l-0.1-34.1L215.1,62.3"/>
							<path class="st11" d="M215.6,62.3l0.1,34.1l0.5-0.1l-0.1-34.1L215.6,62.3"/>
							<path class="st10" d="M216.1,62.1l0.1,34.1l0.5-0.1L216.6,62L216.1,62.1"/>
							<path class="st9" d="M216.6,62l0.1,34.1l0.5-0.1l-0.1-34.1L216.6,62"/>
							<path class="st8" d="M217.1,61.9l0.1,34.1l0.5-0.1l-0.1-34.1L217.1,61.9"/>
							<path class="st25" d="M217.6,61.8l0.1,34.1l0.5-0.2l-0.1-34.1L217.6,61.8"/>
							<path class="st26" d="M218.1,61.6l0.1,34.1l0.6-0.2l-0.1-34.1L218.1,61.6"/>
							<path class="st27" d="M218.7,61.4l0.1,34.1l0.6-0.2l-0.1-34.1L218.7,61.4"/>
							<path class="st27" d="M219.3,61.1l0.1,34.1l0.6-0.3l-0.1-34.1L219.3,61.1"/>
							<path class="st28" d="M219.9,60.8l0.1,34.1l0.5-0.3l0.3-0.2l-0.1-34.1l-0.3,0.2L219.9,60.8"/>
							<path class="st29" d="M220.7,60.4l0.1,34.1c2.2-1.4,3.3-3.1,3.3-4.9L224,55.5C224,57.3,222.9,59,220.7,60.4"/>
						</g>
					</g>
				</g>
			</g>
			<path class="st30" d="M203.2,50.5c-4.8,2.8-4.8,7.2-0.1,10s12.5,2.8,17.3,0s4.8-7.2,0.1-10S208,47.7,203.2,50.5z"/>
		</g>
		
			<linearGradient id="SVGID_11_" gradientUnits="userSpaceOnUse" x1="3067.24" y1="108.0713" x2="3091.8" y2="108.0713" gradientTransform="matrix(-1 0 0 -1 3291.3601 184.24)">
			<stop  offset="0.28" style="stop-color:#5CAFCA;stop-opacity:0"/>
			<stop  offset="0.41" style="stop-color:#5CAFCA;stop-opacity:0.17"/>
			<stop  offset="0.72" style="stop-color:#5CAFCA;stop-opacity:0.58"/>
			<stop  offset="1" style="stop-color:#5CAFCA"/>
		</linearGradient>
		<path class="st67" d="M199.6,55.6l0.1,34.1c0,1.8,1.2,3.6,3.5,5c4.8,2.8,12.5,2.8,17.3,0c2.4-1.4,3.6-3.2,3.6-5L224,55.6
			c0,1.8-1.2,3.7-3.6,5c-4.8,2.8-12.5,2.8-17.3,0C200.8,59.1,199.6,57.4,199.6,55.6z"/>
		<g transform="matrix(-0.19, 0, 0, 0.19, 284.84, 111.52)">
			
				<image style="overflow:visible;enable-background:new    ;" width="205" height="296" id="image-2_2_" xlink:href="27D2F0E1D694844D.png"  transform="matrix(-0.19 0 0 0.19 230.84 48.64)">
			</image>
		</g>
		<g>
			<g transform="matrix(-0.19, 0, 0, 0.19, 284.66, 104.66)">
				
					<image style="overflow:visible;enable-background:new    ;" width="204" height="149" id="image-3_2_" xlink:href="27D2F0E1D694844F.png"  transform="matrix(-0.19 0 0 0.19 230.66 41.78)">
				</image>
			</g>
		</g>
		<g>
			<polygon class="st34" points="184,39.6 224.9,63.3 242.4,53.1 201.6,29.4 			"/>
			<polygon class="st32" points="184,39.6 184.1,48.5 224.9,72.2 224.9,63.3 			"/>
			<polygon class="st33" points="224.9,63.3 224.9,72.2 242.5,62 242.4,53.1 			"/>
		</g>
		<g>
			
				<image style="overflow:visible;enable-background:new    ;" width="131" height="107" xlink:href="27D2F0E1D694844C.png"  transform="matrix(1 0 0 1 148 -6.88)">
			</image>
			<g class="st3">
				
					<image style="overflow:visible;enable-background:new    ;" width="113" height="106" xlink:href="27D2F0E1D6948434.png"  transform="matrix(1 0 0 1 148 3.12)">
				</image>
			</g>
			<g class="st3">
				
					<image style="overflow:visible;enable-background:new    ;" width="91" height="92" xlink:href="27D2F0E1D6948435.png"  transform="matrix(1 0 0 1 188 17.12)">
				</image>
			</g>
		</g>
		<polygon class="st1" points="187.8,40.6 203.2,49.5 203.2,31.8 187.8,22.9 		"/>
		<polygon class="st2" points="203.1,49.5 218.5,40.6 218.5,22.9 203.1,31.8 		"/>
		<polygon class="st0" points="203.1,31.8 218.5,22.9 203.2,14 187.8,23 		"/>
		<g id="multiply-15">
			<g>
				
					<image style="overflow:visible;enable-background:new    ;" width="89" height="100" xlink:href="27D2F0E1D69484AE.png"  transform="matrix(1 0 0 1 151 -13.88)">
				</image>
			</g>
			<g>
				
					<image style="overflow:visible;enable-background:new    ;" width="160" height="172" xlink:href="27D2F0E1D69484D2.png"  transform="matrix(1 0 0 1 131 -49.88)">
				</image>
			</g>
			
				<image style="overflow:visible;enable-background:new    ;" width="104" height="91" xlink:href="27D2F0E1D69484D3.png"  transform="matrix(1 0 0 1 151 -22.88)">
			</image>
		</g>
		<polygon class="st35" points="207.8,52.5 223.3,61.4 223.3,43.7 207.8,34.8 		"/>
		<polygon class="st36" points="223.2,61.4 238.6,52.5 238.6,34.8 223.2,43.7 		"/>
		<polygon class="st37" points="223.2,43.8 238.6,34.9 223.3,26 207.8,34.9 		"/>
		<g id="multiply-16">
			<g>
				
					<image style="overflow:visible;enable-background:new    ;" width="89" height="100" xlink:href="27D2F0E1D69484D6.png"  transform="matrix(1 0 0 1 171 -1.88)">
				</image>
			</g>
			<g>
				
					<image style="overflow:visible;enable-background:new    ;" width="160" height="172" xlink:href="27D2F0E1D69484D1.png"  transform="matrix(1 0 0 1 151 -37.88)">
				</image>
			</g>
			
				<image style="overflow:visible;enable-background:new    ;" width="104" height="91" xlink:href="27D2F0E1D69484D0.png"  transform="matrix(1 0 0 1 171 -10.88)">
			</image>
		</g>
		<polygon class="st4" points="198.9,28.7 214.4,37.6 214.4,19.9 198.9,11 		"/>
		<polygon class="st5" points="214.3,37.6 229.7,28.7 229.7,11 214.3,19.9 		"/>
		<polygon class="st6" points="214.3,19.9 229.7,11 214.4,2.2 198.9,11.1 		"/>
		<g id="multiply-17">
			<g>
				
					<image style="overflow:visible;enable-background:new    ;" width="89" height="100" xlink:href="27D2F0E1D69484DE.png"  transform="matrix(1 0 0 1 162 -25.88)">
				</image>
			</g>
			<g>
				
					<image style="overflow:visible;enable-background:new    ;" width="160" height="172" xlink:href="27D2F0E1D69484DC.png"  transform="matrix(1 0 0 1 142 -61.88)">
				</image>
			</g>
			
				<image style="overflow:visible;enable-background:new    ;" width="104" height="90" xlink:href="27D2F0E1D69484C9.png"  transform="matrix(1 0 0 1 162 -33.88)">
			</image>
		</g>
		<polygon class="st1" points="2.9,126.9 18.3,135.8 18.3,118.1 2.9,109.2 		"/>
		<polygon class="st2" points="18.2,135.8 33.7,126.9 33.7,109.2 18.2,118.1 		"/>
		<polygon class="st0" points="18.2,118.1 33.7,109.2 18.3,100.3 2.9,109.2 		"/>
		<g id="multiply-18">
			<g>
				
					<image style="overflow:visible;enable-background:new    ;" width="89" height="99" xlink:href="27D2F0E1D69484CA.png"  transform="matrix(1 0 0 1 -34 73.12)">
				</image>
			</g>
			<g>
				
					<image style="overflow:visible;enable-background:new    ;" width="160" height="171" xlink:href="27D2F0E1D69484FE.png"  transform="matrix(1 0 0 1 -54 37.12)">
				</image>
			</g>
			
				<image style="overflow:visible;enable-background:new    ;" width="104" height="90" xlink:href="27D2F0E1D69484FD.png"  transform="matrix(1 0 0 1 -34 64.12)">
			</image>
		</g>
		<polygon class="st35" points="24.9,140 40.3,148.9 40.3,131.2 24.9,122.3 		"/>
		<polygon class="st36" points="40.2,148.9 55.6,140 55.6,122.3 40.2,131.2 		"/>
		<polygon class="st37" points="40.2,131.2 55.6,122.3 40.3,113.4 24.9,122.3 		"/>
		<g id="multiply-19">
			<g>
				
					<image style="overflow:visible;enable-background:new    ;" width="89" height="99" xlink:href="27D2F0E1D69484F4.png"  transform="matrix(1 0 0 1 -12 86.12)">
				</image>
			</g>
			<g>
				
					<image style="overflow:visible;enable-background:new    ;" width="160" height="171" xlink:href="27D2F0E1D69484F5.png"  transform="matrix(1 0 0 1 -32 50.12)">
				</image>
			</g>
			
				<image style="overflow:visible;enable-background:new    ;" width="104" height="91" xlink:href="27D2F0E1D69484EA.png"  transform="matrix(1 0 0 1 -12 77.12)">
			</image>
		</g>
		<g>
			<polygon class="st34" points="0.5,100.4 41.3,124.1 58.9,113.9 18.1,90.2 			"/>
			<polygon class="st32" points="0.5,100.4 0.5,109.3 41.3,133 41.3,124.1 			"/>
			<polygon class="st33" points="41.3,124.1 41.3,133 58.9,122.8 58.9,113.9 			"/>
		</g>
		<g>
			
				<image style="overflow:visible;enable-background:new    ;" width="131" height="106" xlink:href="27D2F0E1D69484EB.png"  transform="matrix(1 0 0 1 -36 54.12)">
			</image>
			<g class="st3">
				
					<image style="overflow:visible;enable-background:new    ;" width="114" height="105" xlink:href="27D2F0E1D69484EC.png"  transform="matrix(1 0 0 1 -36 64.12)">
				</image>
			</g>
			<g class="st3">
				
					<image style="overflow:visible;enable-background:new    ;" width="90" height="92" xlink:href="27D2F0E1D69484E9.png"  transform="matrix(1 0 0 1 5 77.12)">
				</image>
			</g>
		</g>
		<g>
			<polygon class="st0" points="254.7,94.6 267.6,87 248.6,97.4 235.6,104.9 			"/>
			<polygon class="st1" points="254.7,94.6 235.6,104.9 273.7,126.9 			"/>
			<polygon class="st2" points="273.7,126.9 286.6,119.4 267.6,87 254.7,94.6 			"/>
		</g>
		<g id="multiply-20">
			<g class="st3">
				
					<image style="overflow:visible;enable-background:new    ;" width="111" height="105" xlink:href="27D2F0E1D69484E8.png"  transform="matrix(1 0 0 1 199 58.12)">
				</image>
			</g>
			
				<image style="overflow:visible;enable-background:new    ;" width="105" height="113" xlink:href="27D2F0E1D69484E7.png"  transform="matrix(1 0 0 1 218 50.12)">
			</image>
		</g>
		<g>
			<g>
				<path class="st5" d="M108.5,149.6l-11.6,6.7c-2,1.1-3.2,3.5-3.2,7l11.6-6.7C105.3,153.1,106.5,150.8,108.5,149.6z"/>
				<g>
					<defs>
						<path id="SVGID_12_" d="M108.5,149.6l-11.6,6.7c-2,1.1-3.2,3.5-3.2,7l11.6-6.7C105.3,153.1,106.5,150.8,108.5,149.6z"/>
					</defs>
					<clipPath id="SVGID_13_">
						<use xlink:href="#SVGID_12_"  style="overflow:visible;"/>
					</clipPath>
					<g class="st68">
						<g>
							<path class="st5" d="M93.7,163.3l11.6-6.7c0-3.4,1.2-5.8,3.2-7L97,156.3C95,157.4,93.8,159.8,93.7,163.3"/>
						</g>
					</g>
				</g>
			</g>
			<g class="st3">
				
					<image style="overflow:visible;enable-background:new    ;" width="88" height="87" xlink:href="27D2F0E1D6948488.png"  transform="matrix(1 0 0 1 57 113.12)">
				</image>
			</g>
			<path class="st4" d="M83.9,132.6l-0.1,24.9l9.9,5.7c0.1-6.9,5-9.7,11-6.2s10.9,11.9,11,18.9l9.9,5.7l0.1-24.9L83.9,132.6z"/>
			<polygon class="st5" points="125.6,181.7 137.2,175 137.3,150.1 125.7,156.8 			"/>
			<polygon class="st6" points="125.7,156.8 137.3,150.1 95.4,125.9 83.9,132.6 			"/>
		</g>
		<g id="overlay-2">
			<g class="st3">
				
					<image style="overflow:visible;enable-background:new    ;" width="115" height="122" xlink:href="27D2F0E1D694848E.png"  transform="matrix(1 0 0 1 47 96.12)">
				</image>
			</g>
			<g class="st3">
				
					<image style="overflow:visible;enable-background:new    ;" width="85" height="105" xlink:href="27D2F0E1D6948485.png"  transform="matrix(1 0 0 1 89 113.12)">
				</image>
			</g>
			
				<image style="overflow:visible;enable-background:new    ;" width="127" height="104" xlink:href="27D2F0E1D6948486.png"  transform="matrix(1 0 0 1 47 89.12)">
			</image>
		</g>
		<polygon class="st39" points="56.2,163.8 72.6,173.2 72.6,154.4 56.2,144.9 		"/>
		<polygon class="st24" points="72.5,173.2 88.9,163.8 88.9,144.9 72.5,154.4 		"/>
		<polygon class="st38" points="72.5,154.4 88.9,145 72.6,135.5 56.2,145 		"/>
		<g id="multiply-21">
			<g>
				
					<image style="overflow:visible;enable-background:new    ;" width="89" height="102" xlink:href="27D2F0E1D6948487.png"  transform="matrix(1 0 0 1 20 108.12)">
				</image>
			</g>
			<g>
				
					<image style="overflow:visible;enable-background:new    ;" width="161" height="174" xlink:href="27D2F0E1D69484B6.png"  transform="matrix(1 0 0 1 0 72.12)">
				</image>
			</g>
			
				<image style="overflow:visible;enable-background:new    ;" width="105" height="92" xlink:href="27D2F0E1D69484B9.png"  transform="matrix(1 0 0 1 20 99.12)">
			</image>
		</g>
	</g>
</g>
</svg>
