<?xml version="1.0" encoding="utf-8"?>
<!-- Generator: Adobe Illustrator 21.1.0, SVG Export Plug-In . SVG Version: 6.00 Build 0)  -->
<svg version="1.1" id="Layer_1" xmlns="http://www.w3.org/2000/svg" xmlns:xlink="http://www.w3.org/1999/xlink" x="0px" y="0px"
	 viewBox="0 0 90.4 98.8" style="enable-background:new 0 0 90.4 98.8;" xml:space="preserve">
<style type="text/css">
	.st0{clip-path:url(#SVGID_2_);}
	.st1{fill:#7375EC;}
	.st2{fill:#7476EC;}
	.st3{fill:#7678ED;}
	.st4{fill:#7779ED;}
	.st5{fill:#797BED;}
	.st6{fill:#7A7CED;}
	.st7{fill:#7B7DED;}
	.st8{fill:#7D7FEE;}
	.st9{fill:#7E80EE;}
	.st10{fill:#7F81EE;}
	.st11{fill:#8183EE;}
	.st12{fill:#8284EF;}
	.st13{fill:#8385EF;}
	.st14{fill:#8587EF;}
	.st15{fill:#8688EF;}
	.st16{fill:#8789F0;}
	.st17{fill:#898BF0;}
	.st18{fill:#8A8CF0;}
	.st19{fill:#7274EC;}
	.st20{fill:#7072EC;}
	.st21{fill:#6F71EB;}
	.st22{fill:#6E70EB;}
	.st23{fill:#6C6EEB;}
	.st24{fill:#6B6DEB;}
	.st25{fill:#6A6CEA;}
	.st26{fill:#696BEA;}
	.st27{clip-path:url(#SVGID_4_);}
	.st28{fill:#03C793;}
	.st29{fill:#03C894;}
	.st30{fill:#03C994;}
	.st31{fill:#03CA95;}
	.st32{fill:#04CB96;}
	.st33{fill:#04CC97;}
	.st34{fill:#04CD98;}
	.st35{fill:#04CE99;}
	.st36{fill:#05CF9A;}
	.st37{fill:#05D09B;}
	.st38{fill:#05D19B;}
	.st39{fill:#05D29C;}
	.st40{fill:#05D39D;}
	.st41{fill:#05D39E;}
	.st42{fill:#06D49E;}
	.st43{fill:#06D59F;}
	.st44{fill:#06D6A0;}
	.st45{fill:#03C692;}
	.st46{fill:#02C591;}
	.st47{fill:#02C590;}
	.st48{fill:#02C490;}
	.st49{fill:#02C38F;}
	.st50{fill:#02C28E;}
	.st51{fill:#02C18D;}
	.st52{fill:#E6AC16;}
	.st53{fill:#F9CA4B;}
	.st54{fill:#F7B801;}
	.st55{opacity:8.000000e-02;}
	.st56{clip-path:url(#SVGID_6_);}
	.st57{fill:#FF524F;}
	.st58{fill:#FF5350;}
	.st59{fill:#FF5451;}
	.st60{fill:#FF5552;}
	.st61{fill:#FF5653;}
	.st62{fill:#FF5754;}
	.st63{fill:#FF5855;}
	.st64{fill:#FF5956;}
	.st65{fill:#FF5A57;}
	.st66{fill:#FF5B58;}
	.st67{fill:#FF5C59;}
	.st68{fill:#FF5D5A;}
	.st69{fill:#FF5E5B;}
	.st70{fill:#FF514E;}
	.st71{fill:#FF504D;}
	.st72{fill:#FF4F4C;}
	.st73{fill:#FF4E4B;}
	.st74{fill:#FF4D4A;}
	.st75{fill:#FF4C49;}
	.st76{fill:#FF4B48;}
	.st77{fill:#FF4A47;}
	.st78{fill:#FF4946;}
	.st79{fill:#FF4845;}
	.st80{fill:url(#SVGID_7_);}
	.st81{clip-path:url(#SVGID_9_);}
	.st82{fill:#0070A4;}
	.st83{fill:#5CAFCA;}
	.st84{fill:#118AB2;}
	.st85{fill:#FF827F;}
	.st86{fill:#FF4340;}
	.st87{fill:#6163E9;}
</style>
<title>Asset 4</title>
<g id="Layer_2">
	<g id="Layer_2-2">
		<g>
			<g>
				<g>
					<defs>
						<path id="SVGID_1_" d="M61.6,43.1l0.1,25.1c0,1.3,0.9,2.7,2.6,3.7c4,2,8.7,2,12.7,0c1.8-1,2.7-2.4,2.7-3.7l-0.1-25.1
							c0,1.3-0.9,2.7-2.7,3.7c-4,2-8.7,2-12.7,0C62.5,45.8,61.6,44.5,61.6,43.1z"/>
					</defs>
					<clipPath id="SVGID_2_">
						<use xlink:href="#SVGID_1_"  style="overflow:visible;"/>
					</clipPath>
					<g class="st0">
						<g>
							<path class="st1" d="M61.6,43.1l0.1,25.1c0,0.1,0,0.1,0,0.2l-0.1-25.1C61.6,43.3,61.6,43.2,61.6,43.1"/>
							<path class="st2" d="M61.6,43.4l0.1,25.1c0,0.1,0,0.1,0,0.2l-0.1-25.1C61.6,43.5,61.6,43.4,61.6,43.4"/>
							<path class="st3" d="M61.7,43.6l0.1,25.1c0,0.1,0,0.1,0,0.2l-0.1-25.1C61.7,43.7,61.7,43.7,61.7,43.6"/>
							<path class="st4" d="M61.7,43.8l0.1,25.1c0,0.1,0,0.1,0.1,0.2L61.8,44C61.8,43.9,61.7,43.9,61.7,43.8"/>
							<path class="st5" d="M61.8,44l0.1,25.1l0.1,0.2l-0.1-25.1L61.8,44"/>
							<path class="st6" d="M61.8,44.2l0.1,25.1l0.1,0.2l0-25.1L61.8,44.2"/>
							<path class="st7" d="M62,44.4L62,69.5l0.1,0.2L62,44.6L62,44.4"/>
							<path class="st8" d="M62,44.6l0.1,25.1l0.1,0.2l-0.1-25.1L62,44.6"/>
							<path class="st9" d="M62.1,44.8l0.1,25.1l0.1,0.2L62.2,45L62.1,44.8"/>
							<path class="st10" d="M62.2,45l0.1,25.1l0.2,0.2l-0.1-25.1L62.2,45"/>
							<path class="st11" d="M62.4,45.2l0.1,25.1l0.2,0.2l-0.1-25.1L62.4,45.2"/>
							<path class="st12" d="M62.5,45.4l0.1,25.1l0.2,0.2l-0.1-25.1L62.5,45.4"/>
							<path class="st13" d="M62.7,45.6l0.1,25.1L63,71L63,45.9L62.7,45.6"/>
							<path class="st14" d="M63,45.9L63,71l0.3,0.2l-0.1-25.1L63,45.9"/>
							<path class="st15" d="M63.2,46.1l0.1,25.1l0.3,0.2l-0.1-25.1L63.2,46.1"/>
							<path class="st16" d="M63.5,46.3l0.1,25.1l0.4,0.3l0-25.1L63.5,46.3"/>
							<path class="st17" d="M64,46.6v25.1l0.3,0.2l0.2,0.1l-0.1-25.1l-0.2-0.1L64,46.6"/>
							<path class="st18" d="M64.5,47l0.1,25.1c0.9,0.5,1.9,0.8,2.9,1L67.4,48C66.4,47.8,65.4,47.4,64.5,47"/>
							<path class="st17" d="M67.4,48l0.1,25.1l0.8,0.1l-0.1-25.1L67.4,48"/>
							<path class="st16" d="M68.1,48.1l0.1,25.1l0.6,0.1l-0.1-25.1L68.1,48.1"/>
							<path class="st15" d="M68.7,48.2l0.1,25.1l0.5,0.1l-0.1-25.1L68.7,48.2"/>
							<path class="st14" d="M69.3,48.3l0.1,25.1h0.5l-0.1-25.1H69.3"/>
							<path class="st13" d="M69.7,48.3l0.1,25.1h0.4l-0.1-25.1H69.7"/>
							<path class="st12" d="M70.2,48.3l0.1,25.1h0.4l-0.1-25.1H70.2"/>
							<path class="st11" d="M70.6,48.3l0.1,25.1h0.4l-0.1-25.1H70.6"/>
							<path class="st10" d="M70.9,48.3L71,73.4h0.4l-0.1-25.1H70.9"/>
							<path class="st9" d="M71.4,48.3l0.1,25.1h0.4l-0.1-25.1H71.4"/>
							<path class="st8" d="M71.7,48.3l0.1,25.1h0.4l-0.1-25.1H71.7"/>
							<path class="st7" d="M72.1,48.3l0.1,25.1h0.4l-0.1-25.1H72.1"/>
							<path class="st6" d="M72.5,48.2l0.1,25.1h0.4l-0.1-25.1H72.5"/>
							<path class="st5" d="M72.8,48.2l0.1,25.1l0.4-0.1l-0.1-25.1L72.8,48.2"/>
							<path class="st4" d="M73.2,48.1l0.1,25.1l0.4-0.1l-0.1-25.1L73.2,48.1"/>
							<path class="st3" d="M73.5,48.1l0.1,25.1l0.4-0.1L73.9,48L73.5,48.1"/>
							<path class="st2" d="M73.9,48l0.1,25.1l0.4-0.1l-0.1-25.1L73.9,48"/>
							<path class="st1" d="M74.2,47.9L74.3,73l0.4-0.1l-0.1-25.1L74.2,47.9"/>
							<path class="st19" d="M74.6,47.8l0.1,25.1l0.4-0.1l-0.1-25.1L74.6,47.8"/>
							<path class="st20" d="M74.9,47.7L75,72.8l0.4-0.1l-0.1-25.1L74.9,47.7"/>
							<path class="st21" d="M75.3,47.6l0.1,25.1l0.4-0.2l-0.1-25.1L75.3,47.6"/>
							<path class="st22" d="M75.7,47.4l0.1,25.1l0.4-0.2l-0.1-25.1L75.7,47.4"/>
							<path class="st23" d="M76.1,47.2l0.1,25.1l0.5-0.2L76.6,47L76.1,47.2"/>
							<path class="st24" d="M76.6,47l0.1,25.1l0.4-0.2l0.2-0.1l-0.1-25.1L77,46.8L76.6,47"/>
							<path class="st25" d="M77.2,46.7l0.1,25.1c1.6-1,2.5-2.3,2.5-3.6l-0.1-25.1C79.6,44.4,78.8,45.7,77.2,46.7"/>
						</g>
					</g>
				</g>
			</g>
			<path class="st26" d="M64.3,39.5c-3.5,2-3.5,5.3,0,7.4c4,2,8.7,2,12.7,0c3.5-2,3.5-5.3,0-7.4C73,37.4,68.3,37.4,64.3,39.5z"/>
		</g>
		
			<image style="overflow:visible;enable-background:new    ;" width="205" height="296" xlink:href="6C5E90815EE22BB5.png"  transform="matrix(-0.14 0 0 0.14 84.71 38.11)">
		</image>
		<g>
			
				<image style="overflow:visible;enable-background:new    ;" width="204" height="150" xlink:href="6C5E90815EE22BB7.png"  transform="matrix(-0.14 0 0 0.14 84.57 32.93)">
			</image>
		</g>
		<g>
			<g>
				<g>
					<defs>
						<path id="SVGID_3_" d="M62.1,17.3l0.1,25.1c0,1.3,0.9,2.7,2.6,3.7c4,2,8.7,2,12.7,0c1.8-1,2.7-2.4,2.7-3.7l-0.1-25.1
							c0,1.3-0.9,2.7-2.7,3.7c-4,2-8.7,2-12.7,0C63,19.9,62.1,18.6,62.1,17.3z"/>
					</defs>
					<clipPath id="SVGID_4_">
						<use xlink:href="#SVGID_3_"  style="overflow:visible;"/>
					</clipPath>
					<g class="st27">
						<g>
							<path class="st28" d="M62.1,17.3l0.1,25.1c0,0.1,0,0.1,0,0.2l-0.1-25.1C62.1,17.4,62.1,17.3,62.1,17.3"/>
							<path class="st29" d="M62.1,17.5l0.1,25.1c0,0.1,0,0.2,0,0.2l-0.1-25.1C62.1,17.6,62.1,17.5,62.1,17.5"/>
							<path class="st30" d="M62.1,17.7l0.1,25.1c0,0.1,0,0.1,0,0.2l-0.1-25.1C62.1,17.8,62.1,17.8,62.1,17.7"/>
							<path class="st31" d="M62.2,17.9L62.2,43c0,0.1,0,0.1,0.1,0.2l-0.1-25.1C62.2,18,62.2,18,62.2,17.9"/>
							<path class="st32" d="M62.2,18.1l0.1,25.1l0.1,0.2l-0.1-25.1L62.2,18.1"/>
							<path class="st33" d="M62.3,18.3l0.1,25.1l0.1,0.2l-0.1-25.1L62.3,18.3"/>
							<path class="st33" d="M62.4,18.5l0.1,25.1l0.1,0.2l-0.1-25.1L62.4,18.5"/>
							<path class="st34" d="M62.5,18.7l0.1,25.1l0.1,0.2l-0.1-25.1L62.5,18.7"/>
							<path class="st35" d="M62.6,19l0.1,25.1l0.1,0.2l-0.1-25.2L62.6,19"/>
							<path class="st36" d="M62.7,19.1l0.1,25.1l0.2,0.2l-0.1-25.1L62.7,19.1"/>
							<path class="st37" d="M62.9,19.4L63,44.5l0.2,0.2L63,19.6L62.9,19.4"/>
							<path class="st38" d="M63,19.6l0.1,25.1l0.2,0.2l-0.1-25.1L63,19.6"/>
							<path class="st39" d="M63.3,19.8l0.1,25.1l0.2,0.2L63.5,20L63.3,19.8"/>
							<path class="st40" d="M63.5,20l0.1,25.1l0.3,0.2l-0.1-25.1L63.5,20"/>
							<path class="st41" d="M63.8,20.3l0.1,25.1l0.3,0.3l-0.1-25.1L63.8,20.3"/>
							<path class="st42" d="M64.1,20.5l0.1,25.1l0.5,0.3l-0.1-25.1L64.1,20.5"/>
							<path class="st43" d="M64.6,20.8l0.1,25.1l0.2,0.1l0.5,0.3l-0.1-25.1l-0.5-0.3L64.6,20.8"/>
							<path class="st44" d="M65.2,21.2l0.1,25.1c0.7,0.3,1.4,0.6,2.1,0.8L67.3,22C66.6,21.8,65.9,21.5,65.2,21.2"/>
							<path class="st43" d="M67.3,22l0.1,25.1c0.3,0.1,0.6,0.2,0.9,0.2l-0.1-25.1C67.9,22.2,67.6,22.1,67.3,22"/>
							<path class="st42" d="M68.2,22.2l0.1,25.1l0.6,0.1l0-25.1L68.2,22.2"/>
							<path class="st41" d="M68.9,22.3v25.1l0.6,0.1l-0.1-25.1L68.9,22.3"/>
							<path class="st40" d="M69.4,22.4l0.1,25.1H70l-0.1-25.1L69.4,22.4"/>
							<path class="st39" d="M69.9,22.4L70,47.5h0.5l-0.1-25.1H69.9"/>
							<path class="st38" d="M70.4,22.4l0.1,25.1h0.5l-0.1-25.1H70.4"/>
							<path class="st37" d="M70.8,22.5l0.1,25.1h0.4l-0.1-25.1H70.8"/>
							<path class="st36" d="M71.2,22.5l0.1,25.1h0.4l-0.1-25.1H71.2"/>
							<path class="st35" d="M71.6,22.4l0.1,25.1h0.4L72,22.4H71.6"/>
							<path class="st34" d="M72,22.4l0.1,25.1h0.4l-0.1-25.1L72,22.4"/>
							<path class="st33" d="M72.4,22.4l0.1,25.1h0.4l-0.1-25.1H72.4"/>
							<path class="st33" d="M72.8,22.4l0.1,25.1h0.4l-0.1-25.1L72.8,22.4"/>
							<path class="st32" d="M73.1,22.3l0.1,25.1l0.4-0.1l-0.1-25.1L73.1,22.3"/>
							<path class="st31" d="M73.5,22.3l0.1,25.1l0.4-0.1l-0.1-25.1L73.5,22.3"/>
							<path class="st30" d="M73.8,22.2l0.1,25.1l0.4-0.1l-0.1-25.1L73.8,22.2"/>
							<path class="st29" d="M74.2,22.1l0.1,25.1l0.4-0.1L74.6,22L74.2,22.1"/>
							<path class="st28" d="M74.6,22l0.1,25.1L75,47l0-25.1L74.6,22"/>
							<path class="st45" d="M74.9,22v25.1l0.4-0.1l-0.1-25.1L74.9,22"/>
							<path class="st46" d="M75.3,21.8L75.4,47l0.4-0.1l-0.1-25.1L75.3,21.8"/>
							<path class="st47" d="M75.7,21.7l0.1,25.1l0.4-0.2l-0.1-25.1L75.7,21.7"/>
							<path class="st48" d="M76.1,21.6l0.1,25.1l0.4-0.2l-0.1-25.1L76.1,21.6"/>
							<path class="st49" d="M76.5,21.4l0.1,25.1l0.5-0.2l-0.1-25.1L76.5,21.4"/>
							<path class="st50" d="M76.9,21.2L77,46.3l0.5-0.2l0.1-0.1l-0.1-25.1l-0.1,0.1L76.9,21.2"/>
							<path class="st51" d="M77.6,20.8L77.6,46c1.7-1,2.5-2.3,2.5-3.6l-0.1-25.1C80.1,18.5,79.3,19.8,77.6,20.8"/>
						</g>
					</g>
				</g>
			</g>
			<path class="st50" d="M64.8,13.5c-3.5,2-3.5,5.3,0,7.4c4,2,8.7,2,12.7,0c3.5-2,3.5-5.3,0-7.4C73.5,11.5,68.8,11.5,64.8,13.5z"/>
		</g>
		<g transform="matrix(-0.14, 0, 0, 0.14, 143.23, 49.09)">
			
				<image style="overflow:visible;enable-background:new    ;" width="206" height="296" id="image" xlink:href="6C5E90815EE22BB2.png"  transform="matrix(-0.14 0 0 0.14 85.18 12.21)">
			</image>
		</g>
		<g>
			<g transform="matrix(-0.14, 0, 0, 0.14, 143.09, 43.91)">
				
					<image style="overflow:visible;enable-background:new    ;" width="205" height="149" id="image-2" xlink:href="6C5E90815EE22BB3.png"  transform="matrix(-0.14 0 0 0.14 85.04 7.03)">
				</image>
			</g>
		</g>
		<g>
			<polygon class="st52" points="67,5.5 76.5,0 62.6,7.6 53.1,13.1 			"/>
			<polygon class="st53" points="67,5.5 53.1,13.1 80.9,29.1 			"/>
			<polygon class="st54" points="80.9,29.1 90.4,23.6 76.5,0 67,5.5 			"/>
		</g>
		<g id="multiply">
			<g class="st55">
				
					<image style="overflow:visible;enable-background:new    ;" width="100" height="97" xlink:href="6C5E90815EE22BBD.png"  transform="matrix(1 0 0 1 16.95 -30.88)">
				</image>
			</g>
			
				<image style="overflow:visible;enable-background:new    ;" width="96" height="103" xlink:href="6C5E90815EE22BBF.png"  transform="matrix(1 0 0 1 30.95 -36.88)">
			</image>
		</g>
		<g>
			<g>
				<g>
					<defs>
						<path id="SVGID_5_" d="M2,56.6L2,82.3C2,83.6,2.9,85,4.7,86c4.1,2.1,8.9,2.1,13,0c1.8-1,2.7-2.4,2.7-3.8l-0.1-25.7
							c0,1.4-0.9,2.8-2.7,3.8c-4.1,2.1-8.9,2.1-13,0C2.9,59.3,2,57.9,2,56.6z"/>
					</defs>
					<clipPath id="SVGID_6_">
						<use xlink:href="#SVGID_5_"  style="overflow:visible;"/>
					</clipPath>
					<g class="st56">
						<g>
							<path class="st57" d="M2,56.6L2,82.3v0.1L2,56.6L2,56.6"/>
							<path class="st58" d="M2,56.6L2,82.3c0,0.1,0,0.1,0,0.2L2,56.8C2,56.8,2,56.7,2,56.6"/>
							<path class="st59" d="M2,56.8L2,82.6c0,0.1,0,0.1,0,0.2L2,57C2,57,2,56.9,2,56.8"/>
							<path class="st59" d="M2,57l0.1,25.7c0,0.1,0,0.1,0,0.2L2,57.3C2,57.2,2,57.1,2,57"/>
							<path class="st60" d="M2.1,57.3L2.1,83l0.1,0.2L2.1,57.5L2.1,57.3"/>
							<path class="st61" d="M2.1,57.5l0.1,25.7l0.1,0.2L2.2,57.7L2.1,57.5"/>
							<path class="st62" d="M2.2,57.7l0.1,25.7l0.1,0.2L2.3,57.9L2.2,57.7"/>
							<path class="st63" d="M2.3,57.9l0.1,25.7l0.1,0.2L2.4,58.1L2.3,57.9"/>
							<path class="st64" d="M2.4,58.1l0.1,25.7l0.1,0.2L2.5,58.4L2.4,58.1"/>
							<path class="st65" d="M2.5,58.4l0.1,25.7l0.2,0.2L2.7,58.6L2.5,58.4"/>
							<path class="st66" d="M2.7,58.6l0.1,25.7L3,84.6L2.9,58.9L2.7,58.6"/>
							<path class="st66" d="M2.9,58.9L3,84.6l0.2,0.3L3.1,59.1L2.9,58.9"/>
							<path class="st67" d="M3.1,59.1l0.1,25.7l0.3,0.3L3.5,59.4L3.1,59.1"/>
							<path class="st68" d="M3.5,59.4l0.1,25.7c0.1,0.1,0.3,0.3,0.5,0.4l0-25.7C3.8,59.7,3.6,59.6,3.5,59.4"/>
							<path class="st69" d="M4,59.8v25.7c0.2,0.2,0.5,0.3,0.7,0.5c0.6,0.4,1.3,0.7,2,0.9l0-25.7c-0.7-0.2-1.4-0.5-2-0.9
								C4.4,60.2,4.2,60,4,59.8"/>
							<path class="st68" d="M6.6,61.2l0.1,25.7l0.7,0.2L7.4,61.4L6.6,61.2"/>
							<path class="st67" d="M7.4,61.4l0.1,25.7L8,87.3L8,61.5L7.4,61.4"/>
							<path class="st66" d="M8,61.5L8,87.2l0.5,0.1L8.5,61.6L8,61.5"/>
							<path class="st66" d="M8.4,61.6l0.1,25.7L9,87.4l0-25.7L8.4,61.6"/>
							<path class="st65" d="M9,61.7v25.7l0.4,0.1L9.3,61.8L9,61.7"/>
							<path class="st64" d="M9.3,61.8l0.1,25.7h0.4L9.8,61.8H9.3"/>
							<path class="st63" d="M9.8,61.8l0.1,25.7h0.4l-0.1-25.7L9.8,61.8"/>
							<path class="st62" d="M10.1,61.8l0.1,25.7h0.4l-0.1-25.7L10.1,61.8"/>
							<path class="st61" d="M10.5,61.9l0.1,25.7H11l0-25.7L10.5,61.9"/>
							<path class="st60" d="M11,61.9L11,87.6h0.4l-0.1-25.7H11"/>
							<path class="st59" d="M11.3,61.9l0.1,25.7h0.4l-0.1-25.7H11.3"/>
							<path class="st59" d="M11.7,61.9l0.1,25.7h0.4L12,61.9L11.7,61.9"/>
							<path class="st58" d="M12,61.9l0.1,25.7h0.4l-0.1-25.8L12,61.9"/>
							<path class="st57" d="M12.4,61.8l0.1,25.7h0.4l-0.1-25.7H12.4"/>
							<path class="st70" d="M12.8,61.8l0.1,25.7h0.4l-0.1-25.7H12.8"/>
							<path class="st71" d="M13.2,61.7l0.1,25.7l0.4-0.1l-0.1-25.7L13.2,61.7"/>
							<path class="st72" d="M13.5,61.7l0.1,25.7l0.4-0.1l0-25.7L13.5,61.7"/>
							<path class="st73" d="M14,61.6L14,87.4l0.4-0.1l-0.1-25.7L14,61.6"/>
							<path class="st74" d="M14.3,61.5l0.1,25.7l0.4-0.1l-0.1-25.7L14.3,61.5"/>
							<path class="st74" d="M14.7,61.5l0.1,25.7l0.4-0.1l-0.1-25.7L14.7,61.5"/>
							<path class="st75" d="M15.2,61.3l0.1,25.7l0.5-0.1l-0.1-25.7L15.2,61.3"/>
							<path class="st76" d="M15.7,61.2l0.1,25.7l0.5-0.2L16.2,61L15.7,61.2"/>
							<path class="st77" d="M16.2,61l0.1,25.7l0.7-0.3l-0.1-25.7L16.2,61"/>
							<path class="st78" d="M16.8,60.7L17,86.5c0.3-0.1,0.6-0.3,0.8-0.4c1.8-1,2.7-2.4,2.7-3.8l-0.1-25.7c0,1.4-0.9,2.8-2.7,3.8
								C17.5,60.5,17.2,60.6,16.8,60.7"/>
						</g>
					</g>
				</g>
			</g>
			<path class="st79" d="M4.7,52.8c-3.6,2.1-3.6,5.5,0,7.6c4.1,2.1,8.9,2.1,13,0c3.6-2.1,3.6-5.5,0-7.6C13.6,50.7,8.8,50.7,4.7,52.8
				z"/>
		</g>
		
			<linearGradient id="SVGID_7_" gradientUnits="userSpaceOnUse" x1="3005" y1="32.1929" x2="3023.51" y2="32.1929" gradientTransform="matrix(-1 0 0 -1 3025.48 104.24)">
			<stop  offset="0" style="stop-color:#FF827F;stop-opacity:0"/>
			<stop  offset="1" style="stop-color:#FF827F"/>
		</linearGradient>
		<path class="st80" d="M2,56.6L2,82.3C2,83.6,2.9,85,4.7,86c4.1,2.1,8.9,2.1,13,0c1.8-1,2.7-2.4,2.7-3.8l-0.1-25.7
			c0,1.4-0.9,2.8-2.7,3.8c-4.1,2.1-8.9,2.1-13,0C2.9,59.3,2,57.9,2,56.6z"/>
		
			<image style="overflow:visible;enable-background:new    ;" width="205" height="296" xlink:href="6C5E90815EE22BB0.png"  transform="matrix(-0.14 0 0 0.14 25.56 51.38)">
		</image>
		<g>
			
				<image style="overflow:visible;enable-background:new    ;" width="204" height="149" xlink:href="6C5E90815EE22BB1.png"  transform="matrix(-0.14 0 0 0.14 25.42 46.07)">
			</image>
		</g>
		<g>
			<g>
				<g>
					<defs>
						<path id="SVGID_8_" d="M22.8,68.1l0.1,25.7c0,1.4,0.9,2.7,2.7,3.8c4.1,2.1,8.9,2.1,13,0c1.8-1,2.7-2.4,2.7-3.8l0-25.7
							c0,1.4-0.9,2.8-2.7,3.8c-4.1,2.1-8.9,2.1-13,0C23.7,70.8,22.8,69.5,22.8,68.1z"/>
					</defs>
					<clipPath id="SVGID_9_">
						<use xlink:href="#SVGID_8_"  style="overflow:visible;"/>
					</clipPath>
					<g class="st81">
						<g>
							<path class="st28" d="M22.8,68.1l0.1,25.7c0,0.1,0,0.1,0,0.2l-0.1-25.7C22.8,68.3,22.8,68.2,22.8,68.1"/>
							<path class="st29" d="M22.8,68.3L22.9,94c0,0.1,0,0.2,0,0.2l-0.1-25.7C22.8,68.5,22.8,68.4,22.8,68.3"/>
							<path class="st30" d="M22.8,68.6L23,94.3c0,0.1,0,0.1,0,0.2l-0.1-25.7C22.9,68.7,22.9,68.6,22.8,68.6"/>
							<path class="st31" d="M22.9,68.8L23,94.5c0,0.1,0,0.1,0.1,0.2L23,69C23,68.9,22.9,68.9,22.9,68.8"/>
							<path class="st32" d="M23,69L23,94.7l0.1,0.2L23,69.2L23,69"/>
							<path class="st33" d="M23,69.2l0.1,25.7l0.1,0.2l-0.1-25.7L23,69.2"/>
							<path class="st33" d="M23.1,69.4l0.1,25.7l0.1,0.2l-0.1-25.7L23.1,69.4"/>
							<path class="st34" d="M23.2,69.6l0.1,25.7l0.1,0.2l-0.1-25.7L23.2,69.6"/>
							<path class="st35" d="M23.3,69.9l0.1,25.7l0.1,0.2l-0.1-25.7L23.3,69.9"/>
							<path class="st36" d="M23.4,70.1l0.1,25.7l0.2,0.2l-0.1-25.7L23.4,70.1"/>
							<path class="st37" d="M23.6,70.3L23.7,96l0.2,0.2l-0.1-25.7L23.6,70.3"/>
							<path class="st38" d="M23.8,70.5l0.1,25.7l0.2,0.2L24,70.7L23.8,70.5"/>
							<path class="st39" d="M24,70.7L24,96.4l0.2,0.2l-0.1-25.7L24,70.7"/>
							<path class="st40" d="M24.2,70.9l0.1,25.7l0.3,0.2l-0.1-25.7L24.2,70.9"/>
							<path class="st41" d="M24.5,71.2l0.1,25.7l0.4,0.3l-0.1-25.7L24.5,71.2"/>
							<path class="st42" d="M24.9,71.5L25,97.2l0.5,0.3l-0.1-25.7L24.9,71.5"/>
							<path class="st43" d="M25.3,71.8l0.1,25.7l0.2,0.1l0.5,0.3L26,72.1l-0.5-0.3L25.3,71.8"/>
							<path class="st44" d="M26,72.1l0.1,25.7c0.7,0.3,1.4,0.6,2.1,0.8l-0.1-25.7C27.4,72.7,26.7,72.5,26,72.1"/>
							<path class="st43" d="M28.1,72.9l0.1,25.7c0.3,0.1,0.6,0.2,1,0.2l-0.1-25.7C28.8,73.1,28.5,73,28.1,72.9"/>
							<path class="st42" d="M29.1,73.2l0.1,25.7l0.7,0.1l-0.1-25.7L29.1,73.2"/>
							<path class="st41" d="M29.8,73.3L29.8,99l0.6,0.1l-0.1-25.7L29.8,73.3"/>
							<path class="st40" d="M30.3,73.4l0.1,25.8h0.5l-0.1-25.7L30.3,73.4"/>
							<path class="st39" d="M30.9,73.4L31,99.1h0.5l-0.1-25.7H30.9"/>
							<path class="st38" d="M31.3,73.4l0.1,25.7h0.4l-0.1-25.7L31.3,73.4"/>
							<path class="st37" d="M31.8,73.4l0.1,25.7h0.4l-0.1-25.7L31.8,73.4"/>
							<path class="st36" d="M32.2,73.4l0.1,25.7h0.4l-0.1-25.7L32.2,73.4"/>
							<path class="st35" d="M32.6,73.4l0.1,25.7H33L33,73.4L32.6,73.4"/>
							<path class="st34" d="M33,73.4L33,99.1h0.4l-0.1-25.7L33,73.4"/>
							<path class="st33" d="M33.4,73.4l0.1,25.7h0.4l-0.1-25.7L33.4,73.4"/>
							<path class="st33" d="M33.7,73.3l0.1,25.7h0.4l-0.1-25.7H33.7"/>
							<path class="st32" d="M34.1,73.3L34.2,99l0.4-0.1l-0.1-25.7L34.1,73.3"/>
							<path class="st31" d="M34.5,73.2L34.5,99l0.4-0.1l-0.1-25.7L34.5,73.2"/>
							<path class="st30" d="M34.8,73.2L35,98.9l0.4-0.1l-0.1-25.7L34.8,73.2"/>
							<path class="st29" d="M35.2,73.1l0.1,25.7l0.4-0.1L35.6,73L35.2,73.1"/>
							<path class="st28" d="M35.6,73l0.1,25.7l0.4-0.1L36,72.9L35.6,73"/>
							<path class="st45" d="M36,72.9L36,98.6l0.4-0.1l-0.1-25.7L36,72.9"/>
							<path class="st46" d="M36.3,72.8l0.1,25.7l0.4-0.1l-0.1-25.7L36.3,72.8"/>
							<path class="st47" d="M36.7,72.7l0.1,25.7l0.4-0.1l-0.1-25.7L36.7,72.7"/>
							<path class="st48" d="M37.1,72.5l0.1,25.7l0.4-0.2l-0.1-25.7L37.1,72.5"/>
							<path class="st49" d="M37.6,72.4l0.1,25.8l0.5-0.2L38,72.1L37.6,72.4"/>
							<path class="st50" d="M38,72.1l0.1,25.7l0.5-0.2l0.1-0.1l-0.1-25.7l-0.1,0.1L38,72.1"/>
							<path class="st51" d="M38.6,71.8l0.1,25.7c1.7-1,2.6-2.4,2.6-3.7l-0.1-25.7C41.3,69.5,40.4,70.8,38.6,71.8"/>
						</g>
					</g>
				</g>
			</g>
			<path class="st50" d="M25.5,64.3c-3.6,2.1-3.6,5.5,0,7.6c4.1,2.1,8.9,2.1,13,0c3.6-2.1,3.6-5.5,0-7.6
				C34.4,62.2,29.6,62.2,25.5,64.3z"/>
		</g>
		<g transform="matrix(-0.14, 0, 0, 0.14, 104.5, 99.83)">
			
				<image style="overflow:visible;enable-background:new    ;" width="206" height="296" id="image_2_" xlink:href="6C5E90815EE22BB6.png"  transform="matrix(-0.14 0 0 0.14 46.45 62.95)">
			</image>
		</g>
		<g>
			<g transform="matrix(-0.14, 0, 0, 0.14, 104.36, 94.53)">
				
					<image style="overflow:visible;enable-background:new    ;" width="205" height="149" id="image-2_2_" xlink:href="A9AAE2B2B6B0513E.png"  transform="matrix(-0.14 0 0 0.14 46.31 57.65)">
				</image>
			</g>
		</g>
		<g>
			<polygon class="st82" points="0,50.1 30.8,68 44,60.4 13.3,42.5 			"/>
			<polygon class="st83" points="0,50.1 0,56.8 30.8,74.7 30.8,68 			"/>
			<polygon class="st84" points="30.8,68 30.8,74.7 44,67.1 44,60.4 			"/>
		</g>
		<g>
			
				<image style="overflow:visible;enable-background:new    ;" width="117" height="98" xlink:href="A9AAE2B2B6B05139.png"  transform="matrix(1 0 0 1 -36.05 6.12)">
			</image>
			<g class="st55">
				
					<image style="overflow:visible;enable-background:new    ;" width="103" height="97" xlink:href="A9AAE2B2B6B0513A.png"  transform="matrix(1 0 0 1 -36.05 14.12)">
				</image>
			</g>
			<g class="st55">
				
					<image style="overflow:visible;enable-background:new    ;" width="87" height="87" xlink:href="A9AAE2B2B6B05138.png"  transform="matrix(1 0 0 1 -6.05 24.12)">
				</image>
			</g>
		</g>
		<polygon class="st53" points="3,51 14.7,57.7 14.7,44.4 3,37.6 		"/>
		<polygon class="st54" points="14.6,57.7 26.2,51 26.2,37.6 14.6,44.4 		"/>
		<polygon class="st52" points="14.6,44.4 26.2,37.7 14.7,31 3,37.7 		"/>
		<g id="multiply-2">
			<g>
				
					<image style="overflow:visible;enable-background:new    ;" width="84" height="93" xlink:href="A9AAE2B2B6B05136.png"  transform="matrix(1 0 0 1 -33.05 1.12)">
				</image>
			</g>
			<g>
				
					<image style="overflow:visible;enable-background:new    ;" width="157" height="165" xlink:href="A9AAE2B2B6B05129.png"  transform="matrix(1 0 0 1 -58.05 -34.88)">
				</image>
			</g>
			
				<image style="overflow:visible;enable-background:new    ;" width="96" height="87" xlink:href="A9AAE2B2B6B0512A.png"  transform="matrix(1 0 0 1 -33.05 -5.88)">
			</image>
		</g>
		<polygon class="st85" points="18,59.8 29.6,66.5 29.6,53.2 18,46.5 		"/>
		<polygon class="st69" points="29.5,66.5 41.2,59.8 41.2,46.5 29.5,53.2 		"/>
		<polygon class="st86" points="29.5,53.2 41.2,46.5 29.6,39.8 18,46.5 		"/>
		<g id="multiply-3">
			<g>
				
					<image style="overflow:visible;enable-background:new    ;" width="84" height="93" xlink:href="A9AAE2B2B6B05128.png"  transform="matrix(1 0 0 1 -18.05 10.12)">
				</image>
			</g>
			<g>
				
					<image style="overflow:visible;enable-background:new    ;" width="157" height="165" xlink:href="A9AAE2B2B6B0512E.png"  transform="matrix(1 0 0 1 -43.05 -25.88)">
				</image>
			</g>
			
				<image style="overflow:visible;enable-background:new    ;" width="96" height="87" xlink:href="A9AAE2B2B6B0512B.png"  transform="matrix(1 0 0 1 -18.05 3.12)">
			</image>
		</g>
		<g>
			<polygon class="st87" points="17.3,29 27,23.4 12.8,31.1 3.1,36.8 			"/>
			<polygon class="st18" points="17.3,29 3.1,36.8 31.5,53.1 			"/>
			<polygon class="st3" points="31.5,53.1 41.2,47.5 27,23.4 17.3,29 			"/>
		</g>
		<g id="multiply-4">
			<g class="st55">
				
					<image style="overflow:visible;enable-background:new    ;" width="101" height="98" xlink:href="A9AAE2B2B6B0514D.png"  transform="matrix(1 0 0 1 -33.05 -7.88)">
				</image>
			</g>
			
				<image style="overflow:visible;enable-background:new    ;" width="97" height="103" xlink:href="A9AAE2B2B6B0514F.png"  transform="matrix(1 0 0 1 -19.05 -12.88)">
			</image>
		</g>
	</g>
</g>
</svg>
