<?xml version="1.0" encoding="utf-8"?>
<!-- Generator: Adobe Illustrator 21.1.0, SVG Export Plug-In . SVG Version: 6.00 Build 0)  -->
<svg version="1.1" id="Layer_1" xmlns="http://www.w3.org/2000/svg" xmlns:xlink="http://www.w3.org/1999/xlink" x="0px" y="0px"
	 viewBox="0 0 82.4 103.6" style="enable-background:new 0 0 82.4 103.6;" xml:space="preserve">
<style type="text/css">
	.st0{fill:#FF827F;}
	.st1{fill:#FF5E5B;}
	.st2{fill:#FF4340;}
	.st3{fill:#8A8CF0;}
	.st4{fill:#7678ED;}
	.st5{fill:#6163E9;}
	.st6{fill:#00BA87;}
	.st7{fill:#64E5C4;}
	.st8{fill:#06D6A0;}
	.st9{opacity:8.000000e-02;}
	.st10{clip-path:url(#SVGID_2_);}
	.st11{fill:#E6AC16;}
	.st12{fill:#F9CA4B;}
	.st13{fill:#F7B801;}
</style>
<title>Asset 5</title>
<g id="Layer_2">
	<g id="Layer_2-2">
		<polygon class="st0" points="3.1,84.4 15.1,91.4 15.1,77.6 3.1,70.7 		"/>
		<polygon class="st1" points="15,91.4 27,84.4 27,70.7 15,77.6 		"/>
		<polygon class="st2" points="15,77.6 27,70.7 15.1,63.8 3.1,70.7 		"/>
		<g id="multiply">
			<g>
				
					<image style="overflow:visible;enable-background:new    ;" width="85" height="94" xlink:href="F4C289DE6D49A01.png"  transform="matrix(1 0 0 1 -33.59 33.85)">
				</image>
			</g>
			<g>
				
					<image style="overflow:visible;enable-background:new    ;" width="157" height="166" xlink:href="F4C289DE6D49A03.png"  transform="matrix(1 0 0 1 -57.59 -2.15)">
				</image>
			</g>
			
				<image style="overflow:visible;enable-background:new    ;" width="97" height="87" xlink:href="F4C289DE6D49A06.png"  transform="matrix(1 0 0 1 -33.59 26.85)">
			</image>
		</g>
		<polygon class="st3" points="24.7,96.7 36.7,103.6 36.7,89.9 24.7,83 		"/>
		<polygon class="st4" points="36.7,103.6 48.7,96.7 48.7,83 36.7,89.9 		"/>
		<polygon class="st5" points="36.7,89.9 48.7,83 36.7,76.1 24.7,83 		"/>
		<g id="multiply-2">
			<g>
				
					<image style="overflow:visible;enable-background:new    ;" width="85" height="93" xlink:href="F4C289DE6D49A07.png"  transform="matrix(1 0 0 1 -11.59 46.85)">
				</image>
			</g>
			<g>
				
					<image style="overflow:visible;enable-background:new    ;" width="157" height="165" xlink:href="F4C289DE6D49A02.png"  transform="matrix(1 0 0 1 -35.59 10.85)">
				</image>
			</g>
			
				<image style="overflow:visible;enable-background:new    ;" width="97" height="87" xlink:href="F4C289DE6D49A0D.png"  transform="matrix(1 0 0 1 -11.59 39.85)">
			</image>
		</g>
		<g>
			<polygon class="st6" points="21,63 31.1,57.1 16.3,65.2 6.2,71 			"/>
			<polygon class="st7" points="21,63 6.2,71 35.7,88.1 			"/>
			<polygon class="st8" points="35.7,88.1 45.8,82.2 31.1,57.1 21,63 			"/>
		</g>
		<g id="multiply-3">
			<g class="st9">
				
					<image style="overflow:visible;enable-background:new    ;" width="103" height="98" xlink:href="F4C289DE6D49A0E.png"  transform="matrix(1 0 0 1 -30.59 26.85)">
				</image>
			</g>
			
				<image style="overflow:visible;enable-background:new    ;" width="98" height="104" xlink:href="F4C289DE6D49A0F.png"  transform="matrix(1 0 0 1 -15.59 20.85)">
			</image>
		</g>
		<g>
			<g>
				<path class="st3" d="M23.7,19.5l9.5,5.5c1.6,0.9,2.6,2.9,2.7,5.7l-9.5-5.5C26.4,22.5,25.4,20.5,23.7,19.5z"/>
				<g>
					<defs>
						<path id="SVGID_1_" d="M23.7,19.5l9.5,5.5c1.6,0.9,2.6,2.9,2.7,5.7l-9.5-5.5C26.4,22.5,25.4,20.5,23.7,19.5z"/>
					</defs>
					<clipPath id="SVGID_2_">
						<use xlink:href="#SVGID_1_"  style="overflow:visible;"/>
					</clipPath>
					<g class="st10">
						<g>
							<path class="st3" d="M35.9,30.8l-9.5-5.6c0-2.8-1-4.8-2.7-5.7l9.5,5.5C34.9,26,35.9,28,35.9,30.8"/>
						</g>
					</g>
				</g>
			</g>
			<g class="st9">
				
					<image style="overflow:visible;enable-background:new    ;" width="85" height="84" xlink:href="F4C289DE6D49A04.png"  transform="matrix(1 0 0 1 -12.59 -17.15)">
				</image>
			</g>
			<path class="st4" d="M44,5.5l0.1,20.6l-8.2,4.8c-0.1-5.7-4.1-8-9.1-5.1s-9,9.8-9,15.6l-8.2,4.7L9.6,25.5L44,5.5z"/>
			<polygon class="st3" points="9.6,46 0.1,40.5 0,19.9 9.5,25.5 			"/>
			<polygon class="st5" points="9.5,25.5 0,19.9 34.5,0 44,5.5 			"/>
		</g>
		<g id="overlay">
			<g class="st9">
				
					<image style="overflow:visible;enable-background:new    ;" width="107" height="114" xlink:href="3601DED25CBA423A.png"  transform="matrix(1 0 0 1 -26.59 -31.15)">
				</image>
			</g>
			<g class="st9">
				
					<image style="overflow:visible;enable-background:new    ;" width="83" height="99" xlink:href="3601DED25CBA423D.png"  transform="matrix(1 0 0 1 -36.59 -16.15)">
				</image>
			</g>
			
				<image style="overflow:visible;enable-background:new    ;" width="117" height="98" xlink:href="3601DED25CBA423E.png"  transform="matrix(1 0 0 1 -36.59 -36.15)">
			</image>
		</g>
		<polygon class="st7" points="39.6,61.2 51.3,67.9 51.3,54.6 39.6,47.8 		"/>
		<polygon class="st8" points="51.2,67.9 62.9,61.2 62.9,47.8 51.2,54.6 		"/>
		<polygon class="st6" points="51.2,54.6 62.9,47.8 51.3,41.1 39.6,47.9 		"/>
		<g id="multiply-4">
			<g>
				
					<image style="overflow:visible;enable-background:new    ;" width="84" height="94" xlink:href="3601DED25CBA423C.png"  transform="matrix(1 0 0 1 3.41 10.85)">
				</image>
			</g>
			<g>
				
					<image style="overflow:visible;enable-background:new    ;" width="157" height="166" xlink:href="3601DED25CBA423B.png"  transform="matrix(1 0 0 1 -21.59 -25.15)">
				</image>
			</g>
			
				<image style="overflow:visible;enable-background:new    ;" width="96" height="86" xlink:href="3601DED25CBA4225.png"  transform="matrix(1 0 0 1 3.41 4.85)">
			</image>
		</g>
		<polygon class="st0" points="56.3,71.1 67.9,77.8 67.9,64.5 56.3,57.7 		"/>
		<polygon class="st1" points="67.9,77.8 79.5,71.1 79.5,57.7 67.9,64.5 		"/>
		<polygon class="st2" points="67.9,64.5 79.5,57.7 67.9,51 56.3,57.8 		"/>
		<g id="multiply-5">
			<g>
				
					<image style="overflow:visible;enable-background:new    ;" width="85" height="94" xlink:href="3601DED25CBA4226.png"  transform="matrix(1 0 0 1 19.41 20.85)">
				</image>
			</g>
			<g>
				
					<image style="overflow:visible;enable-background:new    ;" width="157" height="166" xlink:href="3601DED25CBA4224.png"  transform="matrix(1 0 0 1 -4.59 -15.15)">
				</image>
			</g>
			
				<image style="overflow:visible;enable-background:new    ;" width="97" height="86" xlink:href="3601DED25CBA422A.png"  transform="matrix(1 0 0 1 19.41 14.85)">
			</image>
		</g>
		<g>
			<polygon class="st11" points="37.8,41.2 68.7,59.1 82,51.4 51.1,33.5 			"/>
			<polygon class="st12" points="37.8,41.2 37.8,47.9 68.7,65.8 68.7,59.1 			"/>
			<polygon class="st13" points="68.7,59.1 68.7,65.8 82,58.2 82,51.4 			"/>
		</g>
		<g>
			
				<image style="overflow:visible;enable-background:new    ;" width="117" height="99" xlink:href="3601DED25CBA422D.png"  transform="matrix(1 0 0 1 1.41 -3.15)">
			</image>
			<g class="st9">
				
					<image style="overflow:visible;enable-background:new    ;" width="104" height="97" xlink:href="3601DED25CBA4241.png"  transform="matrix(1 0 0 1 1.41 4.85)">
				</image>
			</g>
			<g class="st9">
				
					<image style="overflow:visible;enable-background:new    ;" width="86" height="87" xlink:href="3601DED25CBA4243.png"  transform="matrix(1 0 0 1 32.41 14.85)">
				</image>
			</g>
		</g>
	</g>
</g>
</svg>
