<?xml version="1.0" encoding="utf-8"?>
<!-- Generator: Adobe Illustrator 21.1.0, SVG Export Plug-In . SVG Version: 6.00 Build 0)  -->
<svg version="1.1" id="Layer_1" xmlns="http://www.w3.org/2000/svg" xmlns:xlink="http://www.w3.org/1999/xlink" x="0px" y="0px"
	 viewBox="0 0 101.7 124.7" style="enable-background:new 0 0 101.7 124.7;" xml:space="preserve">
<style type="text/css">
	.st0{fill:#FF4340;}
	.st1{fill:#FF827F;}
	.st2{fill:#FF5E5B;}
	.st3{opacity:8.000000e-02;}
	.st4{fill:#F9CA4B;}
	.st5{fill:#F7B801;}
	.st6{fill:#E6AC16;}
	.st7{fill:#8A8CF0;}
	.st8{fill:#7678ED;}
	.st9{fill:#6163E9;}
	.st10{clip-path:url(#SVGID_2_);}
	.st11{fill:#087CAA;}
	.st12{fill:#087DAB;}
	.st13{fill:#097DAB;}
	.st14{fill:#097EAC;}
	.st15{fill:#0A7FAC;}
	.st16{fill:#0A80AC;}
	.st17{fill:#0B81AD;}
	.st18{fill:#0C82AE;}
	.st19{fill:#0C83AE;}
	.st20{fill:#0D84AF;}
	.st21{fill:#0E85AF;}
	.st22{fill:#0E86B0;}
	.st23{fill:#0F87B0;}
	.st24{fill:#0F88B1;}
	.st25{fill:#1088B1;}
	.st26{fill:#1089B2;}
	.st27{fill:#118AB2;}
	.st28{fill:#077BAA;}
	.st29{fill:#077AA9;}
	.st30{fill:#0679A9;}
	.st31{fill:#0578A8;}
	.st32{fill:#0577A8;}
	.st33{fill:#0476A7;}
	.st34{clip-path:url(#SVGID_4_);}
	.st35{fill:#5CAFCA;}
	.st36{fill:#0070A4;}
	.st37{fill:#64E5C4;}
	.st38{fill:#06D6A0;}
	.st39{fill:#00BA87;}
</style>
<title>Asset 4</title>
<g id="Layer_2">
	<g id="Layer_2-2">
		<g>
			<polygon class="st0" points="52.8,82.1 86.8,101.9 101.5,93.4 67.4,73.6 			"/>
			<polygon class="st1" points="52.8,82.1 52.8,89.5 86.8,109.3 86.8,101.9 			"/>
			<polygon class="st2" points="86.8,101.9 86.8,109.3 101.5,100.8 101.5,93.4 			"/>
		</g>
		<g>
			
				<image style="overflow:visible;enable-background:new    ;" width="121" height="102" xlink:href="DDA3A6D30AC8CD4F.png"  transform="matrix(1 0 0 1 16.71 36.72)">
			</image>
			<g class="st3">
				
					<image style="overflow:visible;enable-background:new    ;" width="107" height="100" xlink:href="DDA3A6D30AC8CD4D.png"  transform="matrix(1 0 0 1 16.71 45.72)">
				</image>
			</g>
			<g class="st3">
				
					<image style="overflow:visible;enable-background:new    ;" width="87" height="89" xlink:href="DDA3A6D30AC8CD53.png"  transform="matrix(1 0 0 1 50.71 56.72)">
				</image>
			</g>
		</g>
		<polygon class="st4" points="53.9,82.1 66.8,89.6 66.8,74.8 53.9,67.4 		"/>
		<polygon class="st5" points="66.7,89.6 79.5,82.1 79.5,67.4 66.7,74.8 		"/>
		<polygon class="st6" points="66.7,74.8 79.5,67.4 66.8,60 53.9,67.4 		"/>
		<g id="multiply">
			<g>
				
					<image style="overflow:visible;enable-background:new    ;" width="86" height="95" xlink:href="DDA3A6D30AC8CD55.png"  transform="matrix(1 0 0 1 17.71 30.72)">
				</image>
			</g>
			<g>
				
					<image style="overflow:visible;enable-background:new    ;" width="158" height="167" xlink:href="DDA3A6D30AC8CD57.png"  transform="matrix(1 0 0 1 -6.29 -5.28)">
				</image>
			</g>
			
				<image style="overflow:visible;enable-background:new    ;" width="98" height="88" xlink:href="DDA3A6D30AC8CD54.png"  transform="matrix(1 0 0 1 17.71 23.72)">
			</image>
		</g>
		<polygon class="st7" points="51.9,66.4 64.8,73.8 64.8,59 51.9,51.6 		"/>
		<polygon class="st8" points="64.7,73.8 77.6,66.4 77.6,51.6 64.7,59 		"/>
		<polygon class="st9" points="64.7,59 77.6,51.6 64.8,44.2 51.9,51.7 		"/>
		<g id="multiply-2">
			<g>
				
					<image style="overflow:visible;enable-background:new    ;" width="86" height="96" xlink:href="DDA3A6D30AC8CD5C.png"  transform="matrix(1 0 0 1 15.71 14.72)">
				</image>
			</g>
			<g>
				
					<image style="overflow:visible;enable-background:new    ;" width="157" height="168" xlink:href="DDA3A6D30AC8CD5D.png"  transform="matrix(1 0 0 1 -7.29 -21.28)">
				</image>
			</g>
			
				<image style="overflow:visible;enable-background:new    ;" width="98" height="88" xlink:href="DDA3A6D30AC8CD5F.png"  transform="matrix(1 0 0 1 15.71 7.72)">
			</image>
		</g>
		<g>
			<g>
				<g>
					<defs>
						<path id="SVGID_1_" d="M78.7,66.2v28.4c0,1.5,1,3,3,4.1c4.5,2.3,9.9,2.3,14.4,0c2-1.2,3-2.7,3-4.2L99,66.1c0,1.5-1,3-3,4.2
							c-4.5,2.3-9.9,2.3-14.4,0C79.7,69.2,78.7,67.7,78.7,66.2z"/>
					</defs>
					<clipPath id="SVGID_2_">
						<use xlink:href="#SVGID_1_"  style="overflow:visible;"/>
					</clipPath>
					<g class="st10">
						<g>
							<path class="st11" d="M78.7,66.2v28.4c0,0,0,0.1,0,0.1V66.2C78.7,66.2,78.7,66.2,78.7,66.2"/>
							<path class="st12" d="M78.7,66.2v28.5c0,0.1,0,0.2,0,0.3V66.5C78.7,66.4,78.7,66.3,78.7,66.2"/>
							<path class="st13" d="M78.7,66.5L78.8,95c0,0.1,0,0.2,0,0.3l-0.1-28.5C78.7,66.7,78.7,66.6,78.7,66.5"/>
							<path class="st14" d="M78.7,66.8l0.1,28.4c0,0.1,0,0.2,0.1,0.2L78.8,67C78.8,66.9,78.7,66.9,78.7,66.8"/>
							<path class="st15" d="M78.8,67l0.1,28.4c0,0.1,0,0.2,0.1,0.2l-0.1-28.4C78.8,67.2,78.8,67.1,78.8,67"/>
							<path class="st16" d="M78.8,67.3l0.1,28.4L79,96l-0.1-28.4L78.8,67.3"/>
							<path class="st17" d="M78.9,67.5L79,96l0.1,0.2L79,67.7L78.9,67.5"/>
							<path class="st17" d="M79,67.7l0.1,28.4l0.1,0.2L79.2,68L79,67.7"/>
							<path class="st18" d="M79.2,68l0.1,28.4l0.1,0.2l-0.1-28.4L79.2,68"/>
							<path class="st19" d="M79.3,68.2l0.1,28.4l0.2,0.2l-0.1-28.4L79.3,68.2"/>
							<path class="st20" d="M79.5,68.5l0.1,28.4l0.2,0.2l-0.1-28.4L79.5,68.5"/>
							<path class="st20" d="M79.7,68.7l0.1,28.4l0.2,0.2L79.9,69L79.7,68.7"/>
							<path class="st21" d="M79.9,68.9L80,97.4l0.2,0.2l-0.1-28.4L79.9,68.9"/>
							<path class="st22" d="M80.1,69.2l0.1,28.4l0.3,0.3l-0.1-28.4L80.1,69.2"/>
							<path class="st23" d="M80.4,69.5l0.1,28.4l0.4,0.3l-0.1-28.5L80.4,69.5"/>
							<path class="st24" d="M80.8,69.7l0.1,28.4l0.4,0.3L81.2,70L80.8,69.7"/>
							<path class="st25" d="M81.2,70.1l0.1,28.4l0.4,0.3l0.2,0.1l-0.1-28.4l-0.2-0.1L81.2,70.1"/>
							<path class="st26" d="M81.8,70.4l0.1,28.4c0.5,0.3,1,0.5,1.5,0.7l-0.1-28.4C82.8,70.9,82.3,70.7,81.8,70.4"/>
							<path class="st27" d="M83.4,71.1l0.1,28.4l0.4,0.1l-0.1-28.4L83.4,71.1"/>
							<path class="st26" d="M83.7,71.2l0.1,28.4c0.5,0.2,1.1,0.3,1.7,0.4l-0.1-28.4C84.8,71.6,84.3,71.5,83.7,71.2"/>
							<path class="st25" d="M85.4,71.7l0.1,28.4l0.9,0.1l-0.1-28.4L85.4,71.7"/>
							<path class="st24" d="M86.2,71.9l0.1,28.4l0.7,0.1l-0.1-28.4L86.2,71.9"/>
							<path class="st23" d="M86.9,71.9l0.1,28.4l0.6,0.1L87.5,72L86.9,71.9"/>
							<path class="st22" d="M87.5,72l0.1,28.4h0.6L88.1,72H87.5"/>
							<path class="st21" d="M88.1,72l0.1,28.4h0.5L88.6,72H88.1"/>
							<path class="st20" d="M88.6,72l0.1,28.4h0.5L89,72H88.6"/>
							<path class="st20" d="M89,72l0.1,28.4h0.5L89.5,72H89"/>
							<path class="st19" d="M89.5,72l0.1,28.4H90L89.9,72H89.5"/>
							<path class="st18" d="M89.9,72l0.1,28.4h0.4L90.4,72H89.9"/>
							<path class="st17" d="M90.4,72l0.1,28.4h0.4L90.8,72H90.4"/>
							<path class="st17" d="M90.8,71.9l0.1,28.4l0.4-0.1l-0.1-28.4L90.8,71.9"/>
							<path class="st16" d="M91.2,71.9l0.1,28.4l0.4-0.1l-0.1-28.4L91.2,71.9"/>
							<path class="st15" d="M91.6,71.8l0.1,28.4l0.4-0.1L92,71.7L91.6,71.8"/>
							<path class="st14" d="M92,71.7l0.1,28.4l0.4-0.1l-0.1-28.4L92,71.7"/>
							<path class="st13" d="M92.5,71.7l0.1,28.4l0.4-0.1l-0.1-28.4L92.5,71.7"/>
							<path class="st12" d="M92.9,71.6l0.1,28.4l0.4-0.1l-0.1-28.4L92.9,71.6"/>
							<path class="st11" d="M93.3,71.4l0.1,28.4l0.4-0.1l-0.1-28.4L93.3,71.4"/>
							<path class="st28" d="M93.7,71.3l0.1,28.4l0.4-0.1l-0.1-28.4L93.7,71.3"/>
							<path class="st29" d="M94.1,71.2l0.1,28.4l0.5-0.2L94.6,71L94.1,71.2"/>
							<path class="st30" d="M94.6,71l0.1,28.4l0.5-0.2l-0.1-28.4L94.6,71"/>
							<path class="st30" d="M95.1,70.8l0.1,28.4l0.5-0.3l-0.1-28.4L95.1,70.8"/>
							<path class="st31" d="M95.6,70.5L95.7,99l0.4-0.2l0.2-0.1l-0.1-28.4L96,70.3L95.6,70.5"/>
							<path class="st32" d="M96.3,70.2l0.1,28.4c1.9-1.1,2.8-2.6,2.8-4.1l-0.1-28.4C99.1,67.6,98.1,69,96.3,70.2"/>
						</g>
					</g>
				</g>
			</g>
			<path class="st33" d="M81.7,62c-4,2.3-4,6,0,8.3c4.5,2.3,9.9,2.3,14.4,0c4-2.3,4-6,0-8.3C91.6,59.7,86.2,59.7,81.7,62z"/>
		</g>
		
			<image style="overflow:visible;enable-background:new    ;" width="205" height="296" xlink:href="8A71C808F05AC7C.png"  transform="matrix(-0.15 0 0 0.15 104.74 60.39)">
		</image>
		<g>
			
				<image style="overflow:visible;enable-background:new    ;" width="204" height="149" xlink:href="8A71C808F05AC7B.png"  transform="matrix(-0.15 0 0 0.15 104.59 54.67)">
			</image>
		</g>
		<g>
			<g>
				<path class="st5" d="M74.4,43.4l-10.5,6.1c-1.8,1-2.9,3.2-2.9,6.3l10.5-6.1C71.5,46.6,72.6,44.4,74.4,43.4z"/>
				<g>
					<defs>
						<path id="SVGID_3_" d="M74.4,43.4l-10.5,6.1c-1.8,1-2.9,3.2-2.9,6.3l10.5-6.1C71.5,46.6,72.6,44.4,74.4,43.4z"/>
					</defs>
					<clipPath id="SVGID_4_">
						<use xlink:href="#SVGID_3_"  style="overflow:visible;"/>
					</clipPath>
					<g class="st34">
						<g>
							<path class="st5" d="M60.9,55.8l10.5-6.1c0-3.1,1.1-5.3,2.9-6.3l-10.5,6.1C62.1,50.5,61,52.7,60.9,55.8"/>
						</g>
					</g>
				</g>
			</g>
			<g class="st3">
				
					<image style="overflow:visible;enable-background:new    ;" width="86" height="86" xlink:href="8A71C808F05AC74.png"  transform="matrix(1 0 0 1 24.71 6.72)">
				</image>
			</g>
			<path class="st4" d="M52,28l-0.1,22.7l9,5.2c0.1-6.3,4.5-8.8,10-5.6s9.9,10.8,10,17.2l9,5.2L90,49.9L52,28z"/>
			<polygon class="st5" points="89.9,72.6 100.4,66.5 100.5,43.8 90,49.9 			"/>
			<polygon class="st6" points="90,49.9 100.5,43.8 62.5,21.9 52,28 			"/>
		</g>
		<g id="overlay">
			<g class="st3">
				
					<image style="overflow:visible;enable-background:new    ;" width="111" height="117" xlink:href="8A71C808F05AC77.png"  transform="matrix(1 0 0 1 15.71 -8.28)">
				</image>
			</g>
			
				<image style="overflow:visible;enable-background:new    ;" width="83" height="101" xlink:href="8A71C808F05AC75.png"  transform="matrix(1 0 0 1 53.71 7.72)">
			</image>
			
				<image style="overflow:visible;enable-background:new    ;" width="121" height="101" xlink:href="8A71C808F05AC6B.png"  transform="matrix(1 0 0 1 15.71 -14.28)">
			</image>
		</g>
		<polygon class="st35" points="53.8,30.9 66.7,38.3 66.7,23.6 53.8,16.2 		"/>
		<polygon class="st27" points="66.6,38.3 79.4,30.9 79.4,16.2 66.6,23.6 		"/>
		<polygon class="st36" points="66.6,23.6 79.4,16.2 66.7,8.8 53.8,16.2 		"/>
		<g id="multiply-3">
			<g>
				
					<image style="overflow:visible;enable-background:new    ;" width="85" height="95" xlink:href="8A71C808F05AC6C.png"  transform="matrix(1 0 0 1 17.71 -20.28)">
				</image>
			</g>
			<g>
				
					<image style="overflow:visible;enable-background:new    ;" width="158" height="167" xlink:href="8A71C808F05AC6F.png"  transform="matrix(1 0 0 1 -6.29 -56.28)">
				</image>
			</g>
			
				<image style="overflow:visible;enable-background:new    ;" width="98" height="87" xlink:href="8A71C808F05AC6D.png"  transform="matrix(1 0 0 1 17.71 -27.28)">
			</image>
		</g>
		<polygon class="st1" points="68.3,39.2 81.1,46.7 81.1,31.9 68.3,24.5 		"/>
		<polygon class="st2" points="81,46.7 93.9,39.2 93.9,24.5 81,31.9 		"/>
		<polygon class="st0" points="81,31.9 93.9,24.5 81.1,17.1 68.3,24.5 		"/>
		<g id="multiply-4">
			<g>
				
					<image style="overflow:visible;enable-background:new    ;" width="86" height="95" xlink:href="8A71C808F05AC6A.png"  transform="matrix(1 0 0 1 31.71 -12.28)">
				</image>
			</g>
			<g>
				
					<image style="overflow:visible;enable-background:new    ;" width="158" height="167" xlink:href="8A71C808F05AC8F.png"  transform="matrix(1 0 0 1 8.71 -48.28)">
				</image>
			</g>
			
				<image style="overflow:visible;enable-background:new    ;" width="99" height="88" xlink:href="8A71C808F05AC89.png"  transform="matrix(1 0 0 1 31.71 -19.28)">
			</image>
		</g>
		<polygon class="st37" points="64,22.1 76.9,29.5 76.9,14.8 64,7.4 		"/>
		<polygon class="st38" points="76.8,29.5 89.7,22.1 89.7,7.4 76.8,14.8 		"/>
		<polygon class="st39" points="76.8,14.8 89.7,7.4 76.9,0 64,7.4 		"/>
		<g id="multiply-5">
			<g>
				
					<image style="overflow:visible;enable-background:new    ;" width="86" height="95" xlink:href="8A71C808F05AC8B.png"  transform="matrix(1 0 0 1 27.71 -29.28)">
				</image>
			</g>
			<g>
				
					<image style="overflow:visible;enable-background:new    ;" width="157" height="167" xlink:href="8A71C808F05AC86.png"  transform="matrix(1 0 0 1 4.71 -65.28)">
				</image>
			</g>
			
				<image style="overflow:visible;enable-background:new    ;" width="98" height="88" xlink:href="8A71C808F05AC87.png"  transform="matrix(1 0 0 1 27.71 -36.28)">
			</image>
		</g>
		<g>
			<polygon class="st0" points="0,94.2 37.7,116.1 53.9,106.7 16.2,84.8 			"/>
			<polygon class="st1" points="0,94.2 0,102.4 37.7,124.3 37.7,116.1 			"/>
			<polygon class="st2" points="37.7,116.1 37.7,124.3 54,114.9 53.9,106.7 			"/>
		</g>
		<g>
			
				<image style="overflow:visible;enable-background:new    ;" width="127" height="104" xlink:href="8A71C808F05ACB9.png"  transform="matrix(1 0 0 1 -36.29 48.72)">
			</image>
			<g class="st3">
				
					<image style="overflow:visible;enable-background:new    ;" width="111" height="103" xlink:href="8A71C808F05ACBB.png"  transform="matrix(1 0 0 1 -36.29 57.72)">
				</image>
			</g>
			<g class="st3">
				
					<image style="overflow:visible;enable-background:new    ;" width="90" height="90" xlink:href="8A71C808F05ACBE.png"  transform="matrix(1 0 0 1 0.71 70.72)">
				</image>
			</g>
		</g>
		<polygon class="st35" points="5.7,96.1 20,104.4 20,88 5.7,79.8 		"/>
		<polygon class="st27" points="19.9,104.4 34.1,96.1 34.1,79.8 19.9,88 		"/>
		<polygon class="st36" points="19.9,88 34.1,79.8 20,71.6 5.7,79.9 		"/>
		<g id="multiply-6">
			<g>
				
					<image style="overflow:visible;enable-background:new    ;" width="87" height="97" xlink:href="8A71C808F05ACBF.png"  transform="matrix(1 0 0 1 -30.29 43.72)">
				</image>
			</g>
			<g>
				
					<image style="overflow:visible;enable-background:new    ;" width="159" height="169" xlink:href="8A71C808F05ACBA.png"  transform="matrix(1 0 0 1 -52.29 7.72)">
				</image>
			</g>
			
				<image style="overflow:visible;enable-background:new    ;" width="101" height="90" xlink:href="8A71C808F05ACDE.png"  transform="matrix(1 0 0 1 -30.29 34.72)">
			</image>
		</g>
		<polygon class="st4" points="6.6,79.1 20.8,87.4 20.8,71 6.6,62.8 		"/>
		<polygon class="st5" points="20.7,87.4 35,79.1 35,62.8 20.7,71 		"/>
		<polygon class="st6" points="20.7,71 35,62.8 20.8,54.6 6.6,62.9 		"/>
		<g id="multiply-7">
			<g>
				
					<image style="overflow:visible;enable-background:new    ;" width="88" height="97" xlink:href="8A71C808F05ACE1.png"  transform="matrix(1 0 0 1 -30.29 26.72)">
				</image>
			</g>
			<g>
				
					<image style="overflow:visible;enable-background:new    ;" width="159" height="169" xlink:href="8A71C808F05ACE2.png"  transform="matrix(1 0 0 1 -51.29 -9.28)">
				</image>
			</g>
			
				<image style="overflow:visible;enable-background:new    ;" width="102" height="90" xlink:href="8A71C808F05ACE0.png"  transform="matrix(1 0 0 1 -30.29 17.72)">
			</image>
		</g>
	</g>
</g>
</svg>
