<svg xmlns="http://www.w3.org/2000/svg" viewBox="0 0 260.28 50.42"><defs><style>.cls-1{fill:#231f20;}.cls-2{fill:#f6b62d;fill-rule:evenodd;}</style></defs><title>Makerday_Title</title><g id="Layer_2" data-name="Layer 2"><path class="cls-1" d="M23.56,29.69l15-20.54V40.44H32.38V27.77L23.56,40,14.73,27.77V40.44H8.58V9.15Z"/><path class="cls-1" d="M55.14,9.24l14,31.2H62.44L60.37,35.8H49.9l-2.07,4.64H41.2Zm2.8,21.13L55.16,23.9l-2.83,6.47Z"/><path class="cls-1" d="M77.89,9.87V23.39L85.72,9.87h7.09l-9,15.53,10.5,15H86.8L77.89,27.62V40.44H71.76V9.87Z"/><path class="cls-1" d="M115.37,9.79v6.13H103.08v6.16h9.22v6.13h-9.22v6.16h12.29v6.11H96.94V9.79Z"/><path class="cls-1" d="M118,9.87h10A11.22,11.22,0,0,1,136,13a8.62,8.62,0,0,1,3,6.94v.8A9.89,9.89,0,0,1,137,26.54a7,7,0,0,1-3.66,2.83l7.11,11.07H133L124.2,26.92V40.44h-6.15Zm14.6,10.24a4.13,4.13,0,0,0-1.21-2.94,5.73,5.73,0,0,0-3.8-1.21h-3.45V24.4h2.37v0h2A4.21,4.21,0,0,0,132.64,20.11Z"/><path class="cls-1" d="M151.27,9.87a15.55,15.55,0,0,1,11.17,4.49,14.64,14.64,0,0,1,4.1,10.82q0,6.7-4.1,10.79a15.23,15.23,0,0,1-11.17,4.47h-8.13V9.89h8.13Zm0,6.09h-2V34.32h2.05c5.51,0,9.11-3.66,9.11-9.18S156.76,16,151.25,16Z"/><path class="cls-1" d="M179.33,9.24l14,31.2h-6.65l-2.07-4.64H174.1L172,40.44h-6.64Zm2.81,21.13-2.79-6.47-2.82,6.47Z"/><path class="cls-1" d="M195.12,9.87l5.58,10.6,5.57-10.6h7l-9.48,17.47v13.1h-6.11V27.34L188.18,9.87Z"/><path class="cls-2" d="M232.82,5.61A19.86,19.86,0,1,1,213,25.47,19.86,19.86,0,0,1,232.82,5.61Z"/><path class="cls-1" d="M234.94,10.73l-6.11,16.79h6.11V16.42h5.72v11.1h2.87v5.73h-2.87v6.12h-5.72V33.25H220.22l8.52-22.56Z"/></g></svg>