<svg xmlns="http://www.w3.org/2000/svg" viewBox="0 0 766.34 109.54"><defs><style>.cls-1{fill:#ff5e5b;}.cls-2{fill:#06d6a0;}.cls-3{fill:#7678ed;}</style></defs><title>Asset 3</title><g id="Layer_2" data-name="Layer 2"><g id="Layer_2-2" data-name="Layer 2"><polygon class="cls-1" points="715.63 81.57 708.67 75.84 695.4 88.05 715.63 81.57"/><path class="cls-1" d="M56.6,73.78l49.58-68V109.41H85.82v-42L56.6,107.78,27.32,67.44v42H7V5.73Z"/><path class="cls-1" d="M161.15,6,207.4,109.41H185.34L178.5,94H143.81L137,109.41H115Zm9.3,70-9.24-21.43L151.85,76Z"/><path class="cls-1" d="M236.49,8.12v44.8l25.95-44.8h23.5L256,59.58l34.81,49.83H266L236.49,66.93v42.48H216.2V8.12Z"/><path class="cls-1" d="M360.65,7.87v20.3H319.93V48.59h30.54v20.3H319.93V89.3h40.72v20.23H299.58V7.87Z"/><path class="cls-1" d="M373.45,8.12H406.5c11.28,0,20.4,4.26,26.52,10.3s9.8,11.79,9.8,23v2.64a32.78,32.78,0,0,1-6.41,19.29c-3.56,5-6.38,7.1-12.13,9.36l23.56,36.69H423l-29.09-44.8v44.8H373.51Zm48.38,33.93a13.68,13.68,0,0,0-4-9.74c-2.64-2.57-7.66-4-12.57-4H393.8v28h7.85v.06h6.79C415.86,56.32,421.83,49.77,421.83,42.05Z"/><path class="cls-1" d="M483.53,8.12a51.54,51.54,0,0,1,37,14.89q13.57,13.63,13.57,35.85T520.54,94.58q-15,14.83-37,14.83h-27V8.19h27Zm-.06,20.17h-6.6V89.11h6.79c18.26,0,30.16-12.12,30.16-30.41C513.82,40.58,501.71,28.29,483.47,28.29Z"/><path class="cls-1" d="M576.46,6l46.25,103.36H600.65L593.8,94H559.12l-6.85,15.39h-22Zm9.3,70-9.24-21.43L567.16,76Z"/><path class="cls-1" d="M626.74,8.12l18.47,35.12L663.68,8.12h23.06L655.33,66v43.42H635.09V66L603.74,8.12Z"/><path class="cls-1" d="M745.16,74a14.49,14.49,0,0,0-4.65-10.74c-2.72-2.64-5.12-4.71-10-4.71v-.06q-7.23,0-10.84,1.45t-9.58,6.66l-11.31-5.84,5.15-52.65H758V28.35h-37.2l-1.13,11.94c4.24-1.3,5.46-1.45,10.81-1.45q13.83,0,24.82,10.4t11,24.72A33.25,33.25,0,0,1,755.47,99a36.52,36.52,0,0,1-26.14,10.37c-16,0-28.88-9.89-33.93-21.36l20.23-6.47a15.19,15.19,0,0,0,13.7,7.54C737.88,89.11,745.16,82.52,745.16,74Z"/><path class="cls-2" d="M49.64,68,99.21,0V103.67H78.86v-42L49.64,102,20.36,61.7v42H0V0Z"/><path class="cls-2" d="M154.19.31l46.25,103.36H178.38l-6.85-15.39H136.85L130,103.67H108Zm9.3,70-9.24-21.43-9.36,21.43Z"/><path class="cls-2" d="M229.53,2.39v44.8l25.95-44.8H279L249,53.85l34.81,49.83H259.06L229.53,61.2v42.48h-20.3V2.39Z"/><path class="cls-2" d="M353.69,2.14v20.3H313V42.85h30.54v20.3H313V83.57h40.72V103.8H292.62V2.14Z"/><path class="cls-2" d="M366.49,2.39h33.05c11.28,0,20.4,4.26,26.52,10.3s9.8,11.79,9.8,23v2.64a32.78,32.78,0,0,1-6.41,19.29c-3.56,5-6.38,7.1-12.13,9.36l23.56,36.69H416l-29.09-44.8v44.8H366.55Zm48.38,33.93a13.68,13.68,0,0,0-4-9.74c-2.64-2.57-7.66-4-12.57-4H386.84v28h7.85v.06h6.79C408.9,50.58,414.87,44,414.87,36.32Z"/><path class="cls-2" d="M476.57,2.39a51.54,51.54,0,0,1,37,14.89q13.57,13.63,13.57,35.85T513.58,88.85q-15,14.83-37,14.83h-27V2.45h27Zm-.06,20.17h-6.6V83.38h6.79c18.26,0,30.16-12.12,30.16-30.41C506.86,34.84,494.75,22.56,476.51,22.56Z"/><path class="cls-2" d="M569.5.31l46.25,103.36H593.69l-6.85-15.39H552.16l-6.85,15.39h-22Zm9.3,70-9.24-21.43L560.2,70.31Z"/><path class="cls-2" d="M619.78,2.39l18.47,35.12L656.72,2.39h23.06L648.37,60.26v43.42H628.13V60.26L596.78,2.39Z"/><path class="cls-3" d="M738.2,68.3a14.49,14.49,0,0,0-4.65-10.74c-2.72-2.64-5.12-4.71-10-4.71v-.06q-7.23,0-10.84,1.45t-9.58,6.66L691.83,55,697,2.39h54.1V22.62h-37.2l-1.13,11.94c4.24-1.3,5.46-1.45,10.81-1.45q13.83,0,24.82,10.4t11,24.72a33.25,33.25,0,0,1-10.87,25.07,36.52,36.52,0,0,1-26.14,10.37c-16,0-26.88-9.89-31.93-21.36l18.23-6.47a15.19,15.19,0,0,0,13.7,7.54C730.92,83.38,738.2,76.79,738.2,68.3Z"/><polygon class="cls-1" points="6.96 5.74 0 0 49.64 68.05 6.96 5.74"/><polygon class="cls-1" points="6.96 109.41 0 103.67 20.36 103.67 6.96 109.41"/><polygon class="cls-1" points="56.6 107.78 49.64 102.04 78.86 61.7 56.6 107.78"/><polygon class="cls-1" points="85.82 109.41 78.86 103.67 99.21 103.67 85.82 109.41"/><polygon class="cls-1" points="106.17 5.74 99.21 0 99.21 103.67 106.17 5.74"/><polygon class="cls-1" points="114.97 109.41 108.01 103.67 130 103.67 114.97 109.41"/><polygon class="cls-1" points="185.34 109.41 178.38 103.67 200.44 103.67 185.34 109.41"/><polygon class="cls-1" points="161.15 6.05 154.19 0.31 200.44 103.67 161.15 6.05"/><polygon class="cls-1" points="236.49 8.12 229.53 2.39 229.53 47.19 236.49 8.12"/><polygon class="cls-1" points="216.19 109.41 209.24 103.67 229.53 103.67 216.19 109.41"/><polygon class="cls-1" points="266.02 109.41 259.06 103.67 283.82 103.67 266.02 109.41"/><polygon class="cls-1" points="285.94 8.12 278.98 2.39 249.01 53.85 285.94 8.12"/><polygon class="cls-1" points="360.65 7.87 353.69 2.14 353.69 22.43 360.65 7.87"/><polygon class="cls-1" points="350.47 48.59 343.51 42.85 343.51 63.15 350.47 48.59"/><polygon class="cls-1" points="360.65 89.3 353.69 83.57 353.69 103.8 360.65 89.3"/><polygon class="cls-1" points="299.58 109.53 292.62 103.8 353.69 103.8 299.58 109.53"/><polygon class="cls-1" points="373.51 109.41 366.55 103.67 386.91 103.67 373.51 109.41"/><polygon class="cls-1" points="422.96 109.41 416 103.67 440.88 103.67 422.96 109.41"/><polygon class="cls-1" points="456.57 109.41 449.62 103.67 476.57 103.67 456.57 109.41"/><polygon class="cls-1" points="576.46 6.05 569.5 0.31 615.75 103.67 593.69 103.67 600.65 109.41 622.71 109.41 576.46 6.05"/><polygon class="cls-1" points="530.28 109.41 523.32 103.67 545.31 103.67 530.28 109.41"/><polygon class="cls-1" points="635.09 109.41 628.13 103.67 648.37 103.67 635.09 109.41"/><polygon class="cls-1" points="626.74 8.12 619.78 2.39 638.25 37.51 626.74 8.12"/><polygon class="cls-1" points="686.74 8.12 679.78 2.39 648.37 60.26 686.74 8.12"/><polygon class="cls-1" points="698.79 60.78 691.83 55.04 703.14 60.88 698.79 60.78"/><polygon class="cls-1" points="758.04 8.12 751.08 2.39 751.08 22.62 758.04 8.12"/></g></g></svg>