<svg xmlns="http://www.w3.org/2000/svg" xmlns:xlink="http://www.w3.org/1999/xlink" viewBox="0 0 430.68 344.02"><defs><style>.cls-1,.cls-44{fill:none;}.cls-2{fill:#e4a42b;}.cls-10,.cls-11,.cls-12,.cls-13,.cls-15,.cls-16,.cls-17,.cls-18,.cls-19,.cls-20,.cls-21,.cls-22,.cls-23,.cls-24,.cls-25,.cls-26,.cls-27,.cls-28,.cls-29,.cls-3,.cls-30,.cls-31,.cls-32,.cls-33,.cls-34,.cls-35,.cls-36,.cls-37,.cls-38,.cls-4,.cls-42,.cls-43,.cls-44,.cls-5,.cls-6,.cls-7,.cls-8,.cls-9{fill-rule:evenodd;}.cls-4{fill:#141515;}.cls-5{fill:#535454;}.cls-6{fill:#2b2d2d;}.cls-7{fill:#383a39;}.cls-8{fill:#f9c769;}.cls-9{fill:#f6b62d;}.cls-10,.cls-20,.cls-21,.cls-22,.cls-23,.cls-24,.cls-25,.cls-26{opacity:0.49;}.cls-10{fill:url(#New_Pattern_Swatch_2);}.cls-11{fill:#eda820;}.cls-12,.cls-14{fill:#f8c155;}.cls-13{fill:url(#linear-gradient);}.cls-15{fill:url(#linear-gradient-2);}.cls-16{fill:url(#linear-gradient-3);}.cls-17{fill:url(#linear-gradient-4);}.cls-18{fill:url(#linear-gradient-5);}.cls-19{fill:url(#linear-gradient-6);}.cls-20{fill:url(#New_Pattern_Swatch_2-3);}.cls-21{fill:url(#New_Pattern_Swatch_2-5);}.cls-22{fill:url(#New_Pattern_Swatch_3);}.cls-23{fill:url(#New_Pattern_Swatch_3-3);}.cls-24{fill:url(#New_Pattern_Swatch_3-5);}.cls-25{fill:url(#New_Pattern_Swatch_3-7);}.cls-26{fill:url(#New_Pattern_Swatch_3-9);}.cls-27{fill:#4f4f51;}.cls-28,.cls-40{fill:#414042;}.cls-29,.cls-41{fill:#616264;}.cls-30{fill:#c4c6c8;}.cls-31{fill:#ad1f24;}.cls-32{fill:#8c8e90;}.cls-33{fill:#393839;}.cls-34{fill:#231f20;}.cls-35{fill:#58595b;}.cls-36{fill:#515254;}.cls-37{fill:#434345;}.cls-38{fill:#464547;}.cls-39{fill:#a7a9ac;}.cls-42{fill:#77787b;}.cls-43{fill:#656668;}.cls-44{stroke:#505052;stroke-miterlimit:10;stroke-width:0.25px;}</style><pattern id="New_Pattern_Swatch_2" data-name="New Pattern Swatch 2" width="34.37" height="34.37" patternTransform="translate(74.81 -7.42) scale(0.11)" patternUnits="userSpaceOnUse" viewBox="0 0 34.37 34.37"><rect class="cls-1" width="34.37" height="34.37"/><circle class="cls-2" cx="17.18" cy="17.18" r="6.13"/></pattern><linearGradient id="linear-gradient" x1="367.09" y1="121.89" x2="381.04" y2="121.89" gradientUnits="userSpaceOnUse"><stop offset="0" stop-color="#d69421"/><stop offset="1" stop-color="#f6b62d"/></linearGradient><linearGradient id="linear-gradient-2" x1="343.72" y1="118.48" x2="357.68" y2="118.48" xlink:href="#linear-gradient"/><linearGradient id="linear-gradient-3" x1="333.28" y1="129.84" x2="347.23" y2="129.84" xlink:href="#linear-gradient"/><linearGradient id="linear-gradient-4" x1="357.23" y1="133.85" x2="371.18" y2="133.85" xlink:href="#linear-gradient"/><linearGradient id="linear-gradient-5" x1="380.5" y1="169.63" x2="395.56" y2="195.71" gradientUnits="userSpaceOnUse"><stop offset="0.54" stop-color="#f6b62d"/><stop offset="1" stop-color="#f9ca71" stop-opacity="0"/></linearGradient><linearGradient id="linear-gradient-6" x1="339.84" y1="175.46" x2="335.6" y2="199.52" gradientUnits="userSpaceOnUse"><stop offset="0.29" stop-color="#eda820"/><stop offset="0.36" stop-color="#eda922" stop-opacity="0.98"/><stop offset="0.45" stop-color="#eeab27" stop-opacity="0.91"/><stop offset="0.56" stop-color="#efaf30" stop-opacity="0.8"/><stop offset="0.67" stop-color="#f1b43d" stop-opacity="0.64"/><stop offset="0.79" stop-color="#f4bb4d" stop-opacity="0.45"/><stop offset="0.91" stop-color="#f7c360" stop-opacity="0.21"/><stop offset="1" stop-color="#f9ca71" stop-opacity="0"/></linearGradient><pattern id="New_Pattern_Swatch_2-3" data-name="New Pattern Swatch 2" width="34.37" height="34.37" patternTransform="matrix(0.07, -0.08, -0.01, 0.14, 85.37, 59.5)" patternUnits="userSpaceOnUse" viewBox="0 0 34.37 34.37"><rect class="cls-1" width="34.37" height="34.37"/><circle class="cls-2" cx="17.18" cy="17.18" r="6.13"/></pattern><pattern id="New_Pattern_Swatch_2-5" data-name="New Pattern Swatch 2" width="34.37" height="34.37" patternTransform="matrix(0.1, 0.01, 0, 0.1, 105.23, 18.67)" patternUnits="userSpaceOnUse" viewBox="0 0 34.37 34.37"><rect class="cls-1" width="34.37" height="34.37"/><circle class="cls-2" cx="17.18" cy="17.18" r="6.13"/></pattern><pattern id="New_Pattern_Swatch_3" data-name="New Pattern Swatch 3" width="34.37" height="34.37" patternTransform="matrix(0.08, -0.08, 0.11, 0.02, 153.83, -24.49)" patternUnits="userSpaceOnUse" viewBox="0 0 34.37 34.37"><rect class="cls-1" width="34.37" height="34.37"/><circle class="cls-2" cx="17.18" cy="17.18" r="3.76"/></pattern><pattern id="New_Pattern_Swatch_3-3" data-name="New Pattern Swatch 3" width="34.37" height="34.37" patternTransform="matrix(0.08, -0.08, 0.11, 0.02, 167.28, -26.61)" patternUnits="userSpaceOnUse" viewBox="0 0 34.37 34.37"><rect class="cls-1" width="34.37" height="34.37"/><circle class="cls-2" cx="17.18" cy="17.18" r="3.76"/></pattern><pattern id="New_Pattern_Swatch_3-5" data-name="New Pattern Swatch 3" width="34.37" height="34.37" patternTransform="matrix(0.08, -0.08, 0.11, 0.02, 143.91, -30.02)" patternUnits="userSpaceOnUse" viewBox="0 0 34.37 34.37"><rect class="cls-1" width="34.37" height="34.37"/><circle class="cls-2" cx="17.18" cy="17.18" r="3.76"/></pattern><pattern id="New_Pattern_Swatch_3-7" data-name="New Pattern Swatch 3" width="34.37" height="34.37" patternTransform="matrix(0.08, -0.08, 0.11, 0.02, 133.47, -18.72)" patternUnits="userSpaceOnUse" viewBox="0 0 34.37 34.37"><rect class="cls-1" width="34.37" height="34.37"/><circle class="cls-2" cx="17.18" cy="17.18" r="3.76"/></pattern><pattern id="New_Pattern_Swatch_3-9" data-name="New Pattern Swatch 3" width="34.37" height="34.37" patternTransform="matrix(0.08, -0.08, 0.11, 0.02, 157.48, -14.74)" patternUnits="userSpaceOnUse" viewBox="0 0 34.37 34.37"><rect class="cls-1" width="34.37" height="34.37"/><circle class="cls-2" cx="17.18" cy="17.18" r="3.76"/></pattern></defs><title>Makerday_sandbox</title><g id="Layer_2" data-name="Layer 2"><polygon class="cls-3" points="31.59 318.08 26.23 260.9 144.82 356.78 77 350.88 31.59 318.08"/><polygon class="cls-4" points="0.53 228.58 0.46 241.59 131.26 346.13 148.9 345.57 0.53 228.58"/><polygon class="cls-5" points="0.53 228.58 183.59 -0.32 419.85 0.36 419.85 344.98 148 344.87 0.53 228.58"/><polygon class="cls-6" points="42.12 228.58 225.18 -0.32 430.3 -0.19 430.3 344.44 189.59 344.87 42.12 228.58"/><polygon class="cls-7" points="42.12 228.58 225.18 -0.32 275.95 0.15 78.03 257.3 42.12 228.58"/><path class="cls-8" d="M62.41,244.39s34.1-72,56-97.18,34-17.19,50.79-25c8.13-2.78,21.9-18.68,30.18-31.65,4.93-7.72,9.83-23.25,15.45-52.26C223.87-8.18,297.3,0,297.3,0L430.61-.73l-.31,345.17-240.71.43Z"/><path class="cls-9" d="M371.88,355.75c-4.69,1.73-28.27,1.34-53.43-18.63-21.09-16.75-11.93-30.55,7.73-26,17.89,4.16,32.47-3.27,38.22-10,9.78-11.45,26.7-1.79,35.69-18.45,8.17-15.14,41.37-13.2,34.88,3-2.86,7.14-41.63,26.34-40.84,43.74C395.32,355.7,377.84,353.55,371.88,355.75Z"/><path class="cls-9" d="M155.9,126.22s17.87-.81,17.09,25.3c-2.59,15.88-9.34,23.82-15.25,31.21s-23,15.85-26.37,25.87c-2.91,8.73-56.51,45.55-56.51,45.55l-12.47-9.53s38.48-79.25,61.74-104C137.06,127.33,155.9,126.22,155.9,126.22Z"/><path class="cls-9" d="M256.42,10s17.28,8.65,16.5,34.76c-19,43.55-.13,39-1.89,48.26-3.24,17.09-28.08,18-40.11,12.34-3.72-1.74-20.78-18.46-19.16-43.11C213,44.05,215,29.3,224.9,18.8,237.82,5.51,256.42,10,256.42,10Z"/><path class="cls-9" d="M74.86,254.15c2.23-18.2,39.8-28.46,56.51-45.55-4.08,13,4.77,17.65,8.38,19.35,4.87,2.29,14.57,4.72,27.79,4.47,5.12-.1,24-4.4,30.8.16,13.7,9.17,8.61,35.67,1,44.74-6.22,7.4-50.1,35.58-50.1,35.58Z"/><path class="cls-9" d="M246.09,179.45c1.47.13,4.54-.91,8-1.35a152.27,152.27,0,0,1,19.17-.78,54.93,54.93,0,0,0,12.62-1.46c7-1.71,5.38-3.83-9-6.63S233.92,178.33,246.09,179.45Z"/><path class="cls-9" d="M186.52,192.49a38.62,38.62,0,0,1,15.59,4.19s1.67-.17,3.85,3.52c2.71,4.58-14.11-.78-24.41.64-6.9.94-11.33,6.75-17.83,12.6-3.29,3-11.51.2-9.56-4,1-2.18,3.82-5.37,8.38-8.72s8-4.35,12.24-6.7S186.52,192.49,186.52,192.49Z"/><path class="cls-9" d="M202.62,188.4c4.44-2.52,2.36-6.06,6-6.57s5.49.22,9.69-1.41,6.81-5.54,10.83-7.24c1.68-.71,7.71.56,9.4.42,6.87-.57,6.66-10.83,6.66-10.83l-10-2.79-19.19,8.61-23.56,16.63S200.88,189.39,202.62,188.4Z"/><path class="cls-9" d="M245,259.53c3.23.33,5.57.45,9.72,5.76,2.48,3.19,9,8.25,19.91,7.07,1.89-.2,4.77-1.65,8.2-3.25,3.94-1.82,8.62-3.65,13.45-3.19,8.52.82,14.26,12.43,24.64,11.76s16.34-9.1,26.36-10.05c6.28-.6,8.44,1.45,11.54,2.72,6.11,2.52,13.6-1.78,14.59-3.17,5.18-7.28,6.33-14.25-.15-17.68-6.81-3.6-26.46-4.4-36.84-4.9-10.53-.5-17.36-2.15-24.75-.64-14.48,3-26.82,3.61-30.07,3.29-12.11-1.21-29.3-10.26-39.2-7.72C231.59,242.3,231.26,258.14,245,259.53Z"/><path class="cls-9" d="M309.26,85.13c-1.82,2.43-.76,8.09,1.55,10,2.91,2.42,9-.31,12.55-1.76a67.44,67.44,0,0,1,12-3.86c7.88-1.51,20,3.33,28.87-.67s11.35-13.35,19.83-17.47c5.32-2.58,7.89-1.5,11-1.4,6.18.21,6.24-6.86,6.22-8.45s-2.88-4.07-3.76-4.8C391.94,52.16,385,53,375.74,56s-22.44-2.27-28.43,1.49C335.58,64.82,331.84,67.68,329.83,70c-4.57,5.27-.77,6.35-9.47,10.35C317.28,81.76,312.34,81,309.26,85.13Z"/><path class="cls-9" d="M211.29,338.22c3.92.32,2.8-2.71,9.06-6.51a18.27,18.27,0,0,1,7.65-2.59c6.84-.72,13.28,2.29,18.2,1,1.73-.44,3.88-3.13,5.11-4,5.32-3.65,10.54-.34,13.55-1.59s3.73-4.72-5.75-8.38c-10.44-4-34.41-.14-41.78,8.77C211.46,332.07,207.37,337.9,211.29,338.22Z"/><path class="cls-10" d="M62.63,244.22s34.08-71.9,56-97.1,33.95-17.17,50.75-25c8.12-2.77,21.88-18.66,30.15-31.62,4.93-7.72,9.83-23.23,15.44-52.22C224-8.14,297.34,0,297.34,0L430.55-.7V343.65L190,344.08Z"/><path class="cls-9" d="M391.21,172.78a25.5,25.5,0,0,1,2.91-.43l-.05-51.94-21.2,23v40C379,179.81,383.76,174.37,391.21,172.78Z"/><path class="cls-11" d="M334.35,179.32c8.82.46,20.49,8.83,31,6.9a23,23,0,0,0,7.47-2.85v-40l-51.31-7.69,0,41.7v2.88A72,72,0,0,1,334.35,179.32Z"/><polygon class="cls-12" points="372.87 143.41 321.56 135.72 343.86 113.43 394.07 120.41 372.87 143.41"/><path class="cls-13" d="M381,116.32a2.07,2.07,0,0,1,0,.43c-.33,2.29-3.69,3.83-7.53,3.45-3.59-.36-6.31-2.29-6.37-4.41l0,7.73c.06,2.12,2.79,4,6.38,4.41,3.83.38,7.2-1.16,7.52-3.45a2.07,2.07,0,0,0,0-.43Z"/><ellipse class="cls-14" cx="374.04" cy="116.02" rx="4.18" ry="6.98" transform="translate(229.49 479.98) rotate(-85.57)"/><path class="cls-15" d="M357.68,112.91a3.11,3.11,0,0,1,0,.43c-.32,2.29-3.69,3.83-7.52,3.45-3.59-.36-6.32-2.29-6.38-4.41l0,7.73c.07,2.12,2.79,4,6.38,4.41,3.84.38,7.2-1.16,7.53-3.45a3.1,3.1,0,0,0,0-.43Z"/><ellipse class="cls-14" cx="350.67" cy="112.61" rx="4.18" ry="6.98" transform="translate(211.33 453.54) rotate(-85.57)"/><path class="cls-16" d="M347.23,124.27a3.11,3.11,0,0,1,0,.43c-.32,2.29-3.69,3.83-7.52,3.45-3.59-.36-6.32-2.29-6.38-4.41l0,7.73c.06,2.12,2.78,4.05,6.37,4.41,3.84.38,7.21-1.16,7.53-3.45a2.07,2.07,0,0,0,0-.43Z"/><ellipse class="cls-14" cx="340.23" cy="123.97" rx="4.18" ry="6.98" transform="translate(190.36 453.61) rotate(-85.57)"/><path class="cls-17" d="M371.18,128.29a2,2,0,0,1,0,.42c-.32,2.29-3.69,3.84-7.52,3.45-3.6-.36-6.32-2.28-6.38-4.41l0,7.73c.06,2.13,2.79,4.05,6.38,4.41,3.83.39,7.2-1.16,7.52-3.44a3.22,3.22,0,0,0,0-.43Z"/><ellipse class="cls-14" cx="364.18" cy="127.98" rx="4.18" ry="6.98" transform="translate(208.46 481.19) rotate(-85.57)"/><path class="cls-18" d="M412.87,180.35c.85-4.26-18.65,1.78-18.75-8L394,161.82l-21.13,14.42.15,26.39c6.55.27,15.74-6.14,23.95-9.06C402.66,191.56,411.16,188.9,412.87,180.35Z"/><path class="cls-19" d="M321.55,176.91c.07-8.93,32.43,5.36,43,3.43,2.82-.51,6.12,2.24,8.36.95l.17,21.34c-10.26.83-41.7-6.16-41.7-6.16-6.17-.93-26.37-.95-31.85-3.93,0,0-2.11-4.95,4.35-5.07a43.17,43.17,0,0,0,10.68-2.59C316.93,183.78,321.52,181.84,321.55,176.91Z"/><path class="cls-11" d="M334.35,179.32c8.82.46,20.49,8.83,31,6.9a23,23,0,0,0,7.47-2.85v-40l-51.31-7.69,0,41.7v2.88A72,72,0,0,1,334.35,179.32Z"/><path class="cls-20" d="M373.33,201.61l22.34-15.46,12.86-7.65s-14.6,2.35-14.41-6.15l-.05-51.94-21.2,23.07Z"/><path class="cls-19" d="M321.55,176.91c.07-8.93,32.43,5.36,43,3.43,2.82-.51,6.12,2.24,8.36.95l.17,21.34c-10.26.83-41.7-6.16-41.7-6.16-6.17-.93-26.37-.95-31.85-3.93,0,0-2.11-4.95,4.35-5.07a43.17,43.17,0,0,0,10.68-2.59C316.93,183.78,321.52,181.84,321.55,176.91Z"/><path class="cls-21" d="M321,190.8l52,8.46-.1-55.85-51.31-7.69,0,41.7c.48,8.33-20.21,10.27-20.21,10.27Z"/><polygon class="cls-12" points="372.87 143.41 321.56 135.72 343.86 113.43 394.07 120.41 372.87 143.41"/><polygon class="cls-22" points="373 143.63 394.37 120.45 343.76 113.41 321.29 135.89 373 143.63"/><path class="cls-13" d="M381,116.32a2.07,2.07,0,0,1,0,.43c-.33,2.29-3.69,3.83-7.53,3.45-3.59-.36-6.31-2.29-6.37-4.41l0,7.73c.06,2.12,2.79,4,6.38,4.41,3.83.38,7.2-1.16,7.52-3.45a2.07,2.07,0,0,0,0-.43Z"/><ellipse class="cls-14" cx="374.04" cy="116.02" rx="4.18" ry="6.98" transform="translate(229.49 479.98) rotate(-85.57)"/><path class="cls-23" d="M381.06,116.81c.32-2.31-2.55-4.49-6.41-4.88s-7.26,1.17-7.58,3.48,2.54,4.49,6.4,4.88S380.73,119.12,381.06,116.81Z"/><path class="cls-15" d="M357.68,112.91a3.11,3.11,0,0,1,0,.43c-.32,2.29-3.69,3.83-7.52,3.45-3.59-.36-6.32-2.29-6.38-4.41l0,7.73c.07,2.12,2.79,4,6.38,4.41,3.84.38,7.2-1.16,7.53-3.45a3.1,3.1,0,0,0,0-.43Z"/><ellipse class="cls-14" cx="350.67" cy="112.61" rx="4.18" ry="6.98" transform="translate(211.33 453.54) rotate(-85.57)"/><path class="cls-24" d="M357.69,113.4c.33-2.31-2.54-4.49-6.4-4.88S344,109.69,343.7,112s2.55,4.49,6.41,4.88S357.37,115.71,357.69,113.4Z"/><path class="cls-16" d="M347.23,124.27a3.11,3.11,0,0,1,0,.43c-.32,2.29-3.69,3.83-7.52,3.45-3.59-.36-6.32-2.29-6.38-4.41l0,7.73c.06,2.12,2.78,4.05,6.37,4.41,3.84.38,7.21-1.16,7.53-3.45a2.07,2.07,0,0,0,0-.43Z"/><ellipse class="cls-14" cx="340.23" cy="123.97" rx="4.18" ry="6.98" transform="translate(190.36 453.61) rotate(-85.57)"/><path class="cls-25" d="M347.25,124.7c.33-2.3-2.54-4.49-6.4-4.87s-7.26,1.16-7.59,3.47,2.55,4.49,6.41,4.88S346.93,127,347.25,124.7Z"/><path class="cls-17" d="M371.18,128.29a2,2,0,0,1,0,.42c-.32,2.29-3.69,3.84-7.52,3.45-3.6-.36-6.32-2.28-6.38-4.41l0,7.73c.06,2.13,2.79,4.05,6.38,4.41,3.83.39,7.2-1.16,7.52-3.44a3.22,3.22,0,0,0,0-.43Z"/><path class="cls-12" d="M364.76,123.84c-3.83-.38-7.2,1.16-7.52,3.45s2.52,4.45,6.36,4.84,7.2-1.16,7.52-3.45S368.6,124.22,364.76,123.84Z"/><path class="cls-26" d="M371.25,128.68c.33-2.3-2.54-4.49-6.4-4.87s-7.26,1.17-7.58,3.47,2.54,4.49,6.4,4.88S370.93,131,371.25,128.68Z"/><path class="cls-27" d="M218.35,180.42c4.2-1.63,6.81-5.54,10.83-7.24a10.06,10.06,0,0,1,2.39-.47l-.56-3.93-9.42-.84-7.23,2.72-5.42,7.25,2.26,3.72A18.12,18.12,0,0,0,218.35,180.42Z"/><path class="cls-28" d="M214,181.49l-2.64-6.76-2.37,3.18,2.26,3.72C212.14,181.59,213,181.58,214,181.49Z"/><path class="cls-29" d="M229.18,173.18a10.06,10.06,0,0,1,2.39-.47l-.56-3.93-4.16-.37,1.83,5C228.85,173.35,229,173.25,229.18,173.18Z"/><path class="cls-28" d="M219.59,179.84a26.52,26.52,0,0,0,4.5-3.22v0a2.9,2.9,0,0,0-5.49,1.85A2.85,2.85,0,0,0,219.59,179.84Z"/><path class="cls-30" d="M220.31,179.43a25.39,25.39,0,0,0,3.15-2.3,1.63,1.63,0,0,0-.07-.3,2.17,2.17,0,1,0-4.11,1.39A2.14,2.14,0,0,0,220.31,179.43Z"/><path class="cls-31" d="M221.44,177.83a.32.32,0,1,0-.41-.2A.32.32,0,0,0,221.44,177.83Z"/><path class="cls-32" d="M162.6,147.43l9,2.33,22.4,9.32,3.06,7.54-3.42,8.11-12.88,21-2.25,3.61-3.6,1.4-2.65,2.53.52,1.77c3.38-2.18,6.65-3.79,9.33-4.16a32.88,32.88,0,0,1,5.18-.25l16.95-18.2,11.44-10.54,8-2.42,21.1,2.27,18.29,2.68,3.29,1.24,4,.93,5.94-5.14-3.08-4.83-5.72-1.1L263.58,167l-19.09-7.27-9.4-4.87-3.22-4,2.07-7.38,10.5-18.39,4.77-6.72,1.36-4L248.68,113l-6-1-3.76,4.43-.27,3.2-8.92,13-14.49,8.62-13.95,4.68L187,145.39l-15-3.25-1.6-2.26-2.77-2.07-4.88.52-3.5,3.93.08,3.73Z"/><polygon class="cls-28" points="159.31 145.99 160.45 149.59 163.24 150.71 170.97 150.17 188.15 156.82 195.37 162.49 197.02 166.62 199.75 157.6 193.26 153.3 168.32 147.1 162.6 147.43 159.31 145.99"/><path class="cls-28" d="M231,170.85l24.39,3,5.88,2,1.29,1.67c4.54-.17,8.7-.19,10.65-.14a10.31,10.31,0,0,0,1.42-.09l3-2.9-1.33-2.91-5.15,4.14-4.81.07-5.86-3.89-39-5.78-4.28.67,1.81,5.2Z"/><polygon class="cls-29" points="250.57 114.42 252.09 118.41 251.02 121.65 247.46 123.92 244.44 125.12 237.84 136.52 232.63 147.81 232.97 152.01 229.45 149.59 228.26 146.58 229.44 142.04 232.77 136.96 238.2 130.64 242.45 124.53 243.41 123 244.47 121.44 246.32 120.44 249.21 118.4 250.57 114.42"/><path class="cls-29" d="M188,200.61l1.13-1.66,12.48-13.73,8.18-6.17,5.55-4.39,3.61-2.83-1.81-5.2-9.25,6.76-5.38,5.4-13,14.82-4.69,7C185.9,200.58,187,200.57,188,200.61Z"/><polygon class="cls-33" points="138.06 168.34 141.21 168.56 162.66 146.23 163.73 143.31 161.19 142.63 154.83 147.33 138.06 168.34"/><polygon class="cls-33" points="164.33 138.24 167.64 141.23 175.69 137.75 187.09 116.76 184.09 116.23 166.7 133.86 164.33 138.24"/><path class="cls-33" d="M171.78,205.64a48.49,48.49,0,0,1,4.61-2.77l.38-4.16-2.85-2.37-28.13-7.46-2,3.23,21.62,14Z"/><polygon class="cls-33" points="268.14 167.21 269.67 161.83 287.05 140.36 290.36 141.81 281.43 166.33 273.22 170.12 268.14 167.21"/><polygon class="cls-33" points="211.53 109.65 232.83 119.65 241.51 118.02 243.57 112.72 235.42 110.58 212.99 107.11 211.53 109.65"/><polygon class="cls-33" points="246.41 118.07 249.8 118.99 278.23 124.29 280.6 122.21 256.62 115.67 246.41 115 246.41 118.07"/><path class="cls-34" d="M182.07,200.85c.32,0,.64-.07,1-.1l.11-.28-6.37-1.76-2.21,5.18A21.68,21.68,0,0,1,182.07,200.85Z"/><polygon class="cls-34" points="160.39 142.32 164.54 145.03 168.09 141.16 164.06 137.85 160.39 142.32"/><polygon class="cls-34" points="241.51 118.02 246.59 119.31 248.68 114.55 243.57 112.72 241.51 118.02"/><polygon class="cls-34" points="270.25 174.02 273.22 170.12 268.1 166.9 265.11 171.75 270.25 174.02"/><path class="cls-33" d="M269,177.3l.67-4.45-4.08-1.45-4,6.1C264.32,177.38,266.91,177.33,269,177.3Z"/><polygon class="cls-35" points="222.45 300.94 230.11 296.71 236.02 308.82 225.58 313.18 222.45 300.94"/><polygon class="cls-35" points="222.53 301.05 230.19 296.82 236.1 308.92 225.66 313.29 222.53 301.05"/><polygon class="cls-35" points="222.45 300.94 230.11 296.71 236.02 308.82 225.58 313.18 222.45 300.94"/><polygon class="cls-36" points="222.45 300.94 224.34 300 228.19 312.06 225.58 313.18 222.45 300.94"/><path class="cls-37" d="M222.05,267.88s-5.58,10.66-6.37,14.67-2.73,10.76,3.19,16.54a7.87,7.87,0,0,0,3.28,1.76c1,.31,7.39-2.71,7.95-3.64,1-1.74,1.34-3.87,0-7.23-1.71-4.22-5.88-7-7.2-10.3S222.05,267.88,222.05,267.88Z"/><path class="cls-28" d="M216.75,279.22a21.33,21.33,0,0,0-1.07,3.33c-.79,4-2.73,10.76,3.19,16.54a7.87,7.87,0,0,0,3.28,1.76,3.75,3.75,0,0,0,1.58-.31c2.24-.76,2-4,.64-7.39-1.71-4.23-4.77-3.95-6.09-7.28S218.61,274.46,216.75,279.22Z"/><path class="cls-32" d="M222.05,267.88s-5.58,10.66-6.37,14.67c-.26,1.3-.83,4.66-.83,4.66l1.75,2.56.76-3.5,2.92,3.51-.66-4.36,2,1.82.44-2.73,3.22,2.38,0-3.6a21,21,0,0,1-2.4-3.61C221.55,276.36,222.05,267.88,222.05,267.88Z"/><path class="cls-38" d="M229.58,329c5.84-.16,11.32,2,15.72,1.31-2.7-8-5-14.62-5.45-15.93-1.58-4.52-3.83-5.58-3.83-5.58l-10.44,4.36a17.93,17.93,0,0,0,.52,6.94C226.32,320.89,227.68,324.33,229.58,329Z"/><path class="cls-28" d="M229.58,329a30.8,30.8,0,0,1,4.63.27c-3.63-9.64-6.46-17.08-6.46-17.08l-2.17,1a17.93,17.93,0,0,0,.52,6.94C226.32,320.89,227.68,324.33,229.58,329Z"/><path class="cls-39" d="M361.25,45.86a7.09,7.09,0,0,1,1.95.12A8,8,0,0,0,361.25,45.86Z"/><path class="cls-40" d="M365.68,52.71l16.83,19.52a17.38,17.38,0,0,1,1.54-.84c.3-.15.59-.28.88-.4L367,49.27a6.67,6.67,0,0,0-9.1-1.12L338.1,62.69,331,68.9a4.69,4.69,0,0,0-1.85,4.39l28.15-21.66A6.3,6.3,0,0,1,365.68,52.71Z"/><path class="cls-40" d="M314,36.47l3.16-1.38a.67.67,0,0,1,.28-.06,4.94,4.94,0,0,1,3.93,2.09L337.5,58.59a4.79,4.79,0,0,1-1,6.55L329,71.55a6.63,6.63,0,0,0-.61.57l-1.21,2.39a4.9,4.9,0,0,0,.87,3.87l8,11.06c7.88-1.14,19.55,3.3,28.18-.58s11.28-13,19.42-17.24L366.18,50.79a6.76,6.76,0,0,0-8.82-.86l-6,4.23a3.84,3.84,0,0,1-5.24-.74L329.22,32.05A5.85,5.85,0,0,1,328,27.49a.63.63,0,0,1,.19-.36l1.35-1.34a6.7,6.7,0,0,0,1.89-3.53l.56-2.84-.66-.19a6.6,6.6,0,0,0-1-2.17L317.78-.76a4.07,4.07,0,0,0-5.61-1L293.14,11l-1.41-.08-.55,2.84a4.05,4.05,0,0,0,.91,3.43L305.7,34.59A7.2,7.2,0,0,0,314,36.47ZM302.64,13.33,310.18,8a3.24,3.24,0,0,1,4.54.81L322,19.35a3,3,0,0,1-.66,4.09l-6.13,4.66a3.82,3.82,0,0,1-5.3-.65l-7.87-9.94A2.9,2.9,0,0,1,302.64,13.33Z"/><path class="cls-40" d="M336.09,89.43a22,22,0,0,1,2.5-.2l-8.84-12.17c-2.53-3.26-2-6.49-.54-8a4.84,4.84,0,0,0-1.5,2.65l-.55,2.84a4.6,4.6,0,0,0,.78,3.68Z"/><path class="cls-41" d="M314.55,33.62l3.16-1.38a.69.69,0,0,1,.28-.05,4.9,4.9,0,0,1,3.93,2.09l16.13,21.46c1.9,2.7,1.19,4.95-1,6.56l.47-.35-8,6.76c-1.74,1.41-2.5,4.86.21,8.35l8.81,12.17,1.17,0L330,75.73A5,5,0,0,1,331,68.9l7.15-6.21,14.87-11,5-3.44a6.76,6.76,0,0,1,8.82.86L384.92,71l.84-.34-19-22.7a6.8,6.8,0,0,0-8.83-.87l-5.45,3.8-.8.6a3.83,3.83,0,0,1-5-.91L329.77,29.21a5.86,5.86,0,0,1-1.19-4.56.6.6,0,0,1,.19-.36L330.13,23A6.84,6.84,0,0,0,332,19.42a6.77,6.77,0,0,0-1.12-5.2L318.34-3.61a4.09,4.09,0,0,0-5.62-1l-19.28,13a4,4,0,0,0-1.71,2.59,4,4,0,0,0,.92,3.42l13.61,17.39A7.16,7.16,0,0,0,314.55,33.62ZM303.19,10.48l7.54-5.31a3.25,3.25,0,0,1,4.55.81l7.28,10.53a3,3,0,0,1-.65,4.09l-6.14,4.66a3.83,3.83,0,0,1-5.3-.66l-7.87-9.94A2.91,2.91,0,0,1,303.19,10.48Z"/><path class="cls-41" d="M339.73,89.25c7.55.17,17.12,2.92,24.49-.39,8.32-3.75,11-12.19,18.29-16.63l-17-19.68a6.76,6.76,0,0,0-8.82-.87l-2.64,1.71-14.87,11-7.14,6.21c-3,2.61-3.62,2-2.49,4.56Z"/><path class="cls-28" d="M296.23,265.92c4.82.46,8.75,4.38,13.14,7.58l14-31.15-19.89-15.64-16.37,33.48,6.22,5.73A17.19,17.19,0,0,1,296.23,265.92Z"/><polygon class="cls-32" points="323.4 242.35 303.6 226.6 343.39 235.16 363.19 250.91 323.4 242.35"/><polygon class="cls-42" points="305.39 234.95 284 227.15 293.61 239.5 317.12 243.5 305.39 234.95"/><polygon class="cls-32" points="270.41 217.4 283.87 225.46 297.6 238.16 291.9 236.63 270.41 217.4"/><polygon class="cls-28" points="316.76 231.54 324.63 237.89 330.19 225.01 322.5 220.71 316.76 231.54"/><polygon class="cls-29" points="328.38 238.18 324.63 237.89 330.19 225.01 332.81 225.78 328.38 238.18"/><polygon class="cls-28" points="336.66 237.19 344.54 243.54 350.09 230.66 342.41 226.36 336.66 237.19"/><polygon class="cls-29" points="348.29 243.83 344.54 243.54 350.09 230.66 352.71 231.43 348.29 243.83"/><polygon class="cls-29" points="317.22 221.31 368.67 235.95 373.79 226 319.98 214.21 317.22 221.31"/><path class="cls-28" d="M273.79,272.34,292,236.46l-21.49-19.23-17.8,36.17,18.52,18.49A14.46,14.46,0,0,0,273.79,272.34Z"/><path class="cls-29" d="M274.58,272.36c1.81-.06,4.51-1.51,7.73-3l15.29-31.18-5.7-1.53-18.11,35.71A7.12,7.12,0,0,0,274.58,272.36Z"/><path class="cls-43" d="M296.23,265.92c3,.29,5.71,1.95,8.37,3.94l12.52-26.36-20.94-3.68L282.1,268.93l.87.1C286.86,267.23,291.47,265.47,296.23,265.92Z"/><path class="cls-29" d="M320.87,277.68c10.37-.68,16.34-9.1,26.36-10.05a15.45,15.45,0,0,1,7.38.81l8.58-17.53-39.79-8.56-14,31.15C312.73,276,316.36,278,320.87,277.68Z"/><polygon class="cls-28" points="306.94 213.41 317.22 221.31 319.98 214.21 310.36 207.43 306.94 213.41"/><polygon class="cls-42" points="366.05 220.01 373.79 226 319.98 214.21 310.36 207.43 366.05 220.01"/><path class="cls-44" d="M273.78,231.52c-.5,0-.87,1.16-.87,1.16l-9.23,19.88a2.36,2.36,0,0,0-.37,1.37,3.64,3.64,0,0,0,.48,1l8.71,7.73a.86.86,0,0,0,.82.19,1.53,1.53,0,0,0,.95-.62l10.23-19.59a3.8,3.8,0,0,0,.2-1.39A2,2,0,0,0,284,240l-9.11-7.94S274.27,231.47,273.78,231.52Z"/><path class="cls-44" d="M273.38,229.79c-.54.05-.95,1.26-.95,1.26l-10,21.64a2.49,2.49,0,0,0-.41,1.49,3.75,3.75,0,0,0,.53,1.08l9.47,8.41a1,1,0,0,0,.89.21,1.67,1.67,0,0,0,1-.68l11.14-21.32a4.24,4.24,0,0,0,.22-1.52,2.18,2.18,0,0,0-.75-1.34l-9.92-8.65S273.92,229.73,273.38,229.79Z"/><path class="cls-44" d="M273.19,228.58c-.57.06-1,1.34-1,1.34l-10.66,23a2.73,2.73,0,0,0-.43,1.58,4,4,0,0,0,.56,1.15l10.06,8.93a1,1,0,0,0,.95.22,1.74,1.74,0,0,0,1.09-.72l11.82-22.63a4.33,4.33,0,0,0,.23-1.61,2.29,2.29,0,0,0-.79-1.42l-10.54-9.18S273.77,228.53,273.19,228.58Z"/><path class="cls-44" d="M273,226.67c-.62.06-1.08,1.45-1.08,1.45L260.36,253a2.88,2.88,0,0,0-.46,1.71,4.4,4.4,0,0,0,.6,1.24l10.87,9.65a1.09,1.09,0,0,0,1,.24,1.91,1.91,0,0,0,1.18-.78l12.78-24.46a4.84,4.84,0,0,0,.25-1.75,2.5,2.5,0,0,0-.86-1.53l-11.39-9.93S273.59,226.61,273,226.67Z"/><path class="cls-44" d="M272.81,224.31c-.68.07-1.2,1.59-1.2,1.59L259,253.19a3.13,3.13,0,0,0-.51,1.87,5,5,0,0,0,.65,1.37L271,267a1.16,1.16,0,0,0,1.11.27,2.13,2.13,0,0,0,1.3-.86l14-26.88a5.19,5.19,0,0,0,.28-1.92,2.7,2.7,0,0,0-.94-1.68L274.33,225S273.49,224.24,272.81,224.31Z"/><path class="cls-29" d="M274,235.42c-.38,0-.67.9-.67.9l-7.07,15.25a1.77,1.77,0,0,0-.28,1,2.7,2.7,0,0,0,.37.77l6.68,5.92a.64.64,0,0,0,.62.15,1.18,1.18,0,0,0,.73-.48l7.85-15a2.91,2.91,0,0,0,.15-1.07,1.55,1.55,0,0,0-.53-.95l-7-6.09S274.41,235.39,274,235.42Z"/></g></svg>